<svg width="40" height="40" viewBox="0 0 40 40" fill="none" xmlns="http://www.w3.org/2000/svg">
  <rect width="40" height="40" rx="4" fill="currentColor"/>
  <path d="M6.6665 19.9977C6.66806 26.5567 11.4375 32.1413 17.9154 33.1693V23.8509H14.5329V19.9977H17.9194V17.0645C17.7681 15.6746 18.2428 14.2894 19.2149 13.2845C20.187 12.2797 21.5558 11.7594 22.9499 11.8647C23.9506 11.8808 24.9488 11.97 25.9365 12.1313V15.4099H24.2512C23.671 15.3339 23.0877 15.5255 22.6656 15.9308C22.2435 16.336 22.0283 16.911 22.0806 17.4938V19.9977H25.7752L25.1845 23.8523H22.0806V33.1693C29.0864 32.0621 33.999 25.6639 33.2596 18.6099C32.5202 11.5558 26.3875 6.31544 19.3045 6.68509C12.2215 7.05475 6.66763 12.905 6.6665 19.9977Z" fill="white"/>
</svg>
