<svg width="40" height="40" viewBox="0 0 40 40" fill="none" xmlns="http://www.w3.org/2000/svg">
  <rect width="40" height="40" rx="4" fill="currentColor"/>
  <path fill-rule="evenodd" clip-rule="evenodd" d="M7.95801 29.99V9.98999H14.0629C18.5446 9.98999 22.8077 10.2647 22.8077 15.2647C22.8077 17.3526 21.1578 18.8361 18.9578 19.2208C21.5428 19.3306 23.5777 20.5944 23.5777 24.1658C23.5777 27.4694 22.4227 29.99 15.3829 29.99H7.95801ZM13.0729 14.3856H15.3829C16.5068 14.3856 17.8028 14.935 17.8028 16.4186C17.8028 17.9021 16.5068 18.4515 15.3829 18.4515H13.0729V14.3856ZM13.0729 21.968H15.9329C17.1479 21.968 18.5728 22.4625 18.5728 24.1658C18.5728 25.8691 17.1479 26.3636 15.9329 26.3636H13.0729V21.968Z" fill="white"/>
  <path d="M27.2619 9.98999H31.6619V23.2867H27.2619V9.98999Z" fill="white"/>
  <path d="M26.932 27.3526C26.932 25.9567 28.0647 24.8252 29.4619 24.8252C30.8591 24.8252 31.9919 25.9567 31.9919 27.3526V27.4625C31.9919 28.8584 30.8591 29.99 29.4619 29.99C28.0647 29.99 26.932 28.8584 26.932 27.4625V27.3526Z" fill="white"/>
</svg>
