<svg width="40" height="40" viewBox="0 0 40 40" fill="none" xmlns="http://www.w3.org/2000/svg">
  <rect width="40" height="40" rx="4" fill="currentColor"/>
  <path d="M17.1793 18.0405L17.9477 20.2232H16.411L17.1793 18.0405Z" fill="black"/>
  <path fill-rule="evenodd" clip-rule="evenodd" d="M6.6665 19.2628C6.6665 13.4568 12.636 8.75 19.9998 8.75C27.3637 8.75 33.3332 13.4568 33.3332 19.2628C33.3332 25.069 27.3637 29.7756 19.9998 29.7756C19.1916 29.7756 18.4002 29.7191 17.6316 29.6103C16.8623 30.1524 12.4173 33.2747 11.9978 33.3333C11.9978 33.3333 11.8257 33.4003 11.6795 33.3141C11.5332 33.228 11.5597 33.0021 11.5597 33.0021C11.6038 32.7014 12.712 28.8745 12.9162 28.1701C9.16215 26.3103 6.6665 23.0165 6.6665 19.2628ZM11.8588 22.1981C11.8588 22.6032 12.2038 22.9327 12.6281 22.9327C13.0523 22.9327 13.3973 22.6032 13.3973 22.1981V17.6282H14.5975C15.0137 17.6282 15.3524 17.2903 15.3524 16.875C15.3524 16.4598 15.0138 16.1218 14.5975 16.1218H10.6586C10.2424 16.1218 9.9037 16.4598 9.9037 16.875C9.9037 17.2903 10.2423 17.6282 10.6586 17.6282H11.8588V22.1981ZM18.7331 22.583C18.807 22.7924 19.0524 22.9227 19.3732 22.9227C19.5419 22.9228 19.7087 22.8867 19.8622 22.8167C20.0742 22.7191 20.2781 22.45 20.044 21.7228L18.2047 16.8819C18.0749 16.5128 17.6811 16.1332 17.1787 16.1219C16.6777 16.1333 16.284 16.5128 16.1543 16.8812L14.3143 21.7242C14.0807 22.4498 14.2846 22.7187 14.4966 22.8165C14.6501 22.8867 14.8169 22.9229 14.9856 22.9227C15.3064 22.9227 15.5516 22.7926 15.6254 22.5835L16.0065 21.5856L18.3522 21.5858L18.7331 22.583ZM20.5447 22.1154C20.5447 22.5041 20.8754 22.8205 21.2819 22.8205H23.7498C24.1564 22.8205 24.487 22.5041 24.487 22.1154C24.487 21.7267 24.1564 21.4103 23.7498 21.4103H22.1152V16.891C22.1152 16.4668 21.7629 16.1218 21.33 16.1218C20.897 16.1218 20.5447 16.4668 20.5447 16.891V22.1154ZM24.7863 22.1535C24.7863 22.5777 25.1313 22.9227 25.5555 22.9227C25.7595 22.9224 25.9551 22.8413 26.0993 22.697C26.2436 22.5527 26.3247 22.3571 26.325 22.1531V20.4748L26.5919 20.2078L28.3959 22.5981C28.4673 22.6935 28.5601 22.7708 28.6668 22.8239C28.7735 22.877 28.8912 22.9044 29.0104 22.9039C29.1774 22.9043 29.34 22.8497 29.4731 22.7486C29.5539 22.688 29.6219 22.6119 29.6731 22.5249C29.7244 22.4378 29.7578 22.3414 29.7715 22.2413C29.7859 22.1413 29.7802 22.0394 29.7548 21.9415C29.7295 21.8437 29.685 21.7519 29.6238 21.6714L27.7304 19.163L29.4833 17.4103C29.6038 17.2896 29.6642 17.1233 29.6531 16.9419C29.642 16.7621 29.5616 16.5889 29.4269 16.4542C29.2824 16.3099 29.0896 16.2271 28.8975 16.2271C28.7329 16.2271 28.5813 16.2878 28.4709 16.3982L26.3247 18.5444V16.891C26.3247 16.4668 25.9797 16.1218 25.5555 16.1218C25.1313 16.1218 24.7863 16.4668 24.7863 16.891V22.1535Z" fill="black"/>
</svg>
