<svg width="40" height="40" viewBox="0 0 40 40" fill="none" xmlns="http://www.w3.org/2000/svg">
  <rect width="40" height="40" rx="4" fill="currentColor"/>
  <path fill-rule="evenodd" clip-rule="evenodd" d="M17.6667 28H22.1111V20.5C22.0718 19.9526 22.2574 19.4127 22.6249 19.0051C22.9925 18.5975 23.5103 18.3573 24.0589 18.34C25.313 18.3373 26.3778 19.2585 26.5555 20.5V28H31V19.9444C31.008 17.1882 28.784 14.9453 26.0277 14.93C24.4951 14.9651 23.0585 15.6836 22.1111 16.8889V14.6667H17.6667V28ZM11 14.6667V28H15.4444V14.6667H11ZM11 10.2222C11 11.4495 11.9949 12.4444 13.2222 12.4444C13.8116 12.4444 14.3768 12.2103 14.7936 11.7936C15.2103 11.3768 15.4444 10.8116 15.4444 10.2222C15.4444 8.99492 14.4495 8 13.2222 8C11.9949 8 11 8.99492 11 10.2222Z" fill="white"/>
</svg>
