<svg width="40" height="40" viewBox="0 0 40 40" fill="none" xmlns="http://www.w3.org/2000/svg">
  <rect width="40" height="40" rx="4" fill="currentColor"/>
  <path fill-rule="evenodd" clip-rule="evenodd" d="M10.5851 10.8334H29.4975C30.6847 10.8334 31.6672 11.739 31.6672 12.9201V19.6522C31.6672 25.7545 26.4682 30.8334 20.0412 30.8334C13.5732 30.8334 8.3335 25.7545 8.3335 19.6522V12.9201C8.3335 11.739 9.35696 10.8334 10.5851 10.8334ZM26.5758 19.1264L21.0689 24.0907C20.7855 24.401 20.3401 24.5176 20.0162 24.5176C19.6114 24.5176 19.2065 24.401 18.8826 24.0907L13.4567 19.1264C12.8898 18.5447 12.8089 17.575 13.4567 16.9544C14.064 16.4114 15.0763 16.3339 15.6838 16.9544L20.0162 20.9492L24.4297 16.9544C24.9967 16.3339 26.0088 16.4114 26.5758 16.9544C27.1426 17.575 27.1426 18.5447 26.5758 19.1264Z" fill="white"/>
</svg>
