<svg width="40" height="40" viewBox="0 0 40 40" fill="none" xmlns="http://www.w3.org/2000/svg">
  <rect width="40" height="40" rx="4" fill="currentColor"/>
  <path d="M28.9438 22.9507C28.4337 21.309 27.7532 19.7238 27.1147 18.1296C27.1154 18.0993 27.1285 17.5831 27.1285 17.3171C27.1279 12.8364 25.013 8.33337 19.8107 8.33337C14.6083 8.33337 12.4934 12.8364 12.4934 17.3171C12.4934 17.5831 12.5066 18.0993 12.5073 18.1296C11.8688 19.7238 11.1882 21.309 10.6781 22.9507C9.68521 26.1434 10.0072 27.4643 10.2515 27.4946C10.7769 27.5578 12.2959 25.0913 12.2959 25.0913C12.2959 26.5201 13.0314 28.3841 14.6228 29.7299C14.0276 29.9137 13.2981 30.1955 12.8292 30.5418C12.4078 30.8526 12.4605 31.1699 12.5362 31.2977C12.8694 31.8606 18.2561 31.6572 19.8113 31.482C21.3665 31.6572 26.7526 31.8606 27.0864 31.2977C27.1621 31.1699 27.2148 30.8526 26.7934 30.5418C26.3239 30.1955 25.5944 29.913 24.9991 29.7293C26.5906 28.3834 27.3254 26.5194 27.3254 25.0906C27.3254 25.0906 28.8444 27.5578 29.3698 27.4939C29.6148 27.4643 29.9361 26.1428 28.9438 22.95V22.9507Z" fill="white"/>
</svg>
