<svg width="40" height="40" viewBox="0 0 40 40" fill="none" xmlns="http://www.w3.org/2000/svg">
  <rect width="40" height="40" rx="4" fill="currentColor"/>
  <path d="M10.6289 17.4581C9.5509 17.4587 8.58238 18.1377 8.18516 19.1714C7.78794 20.205 8.04246 21.3839 8.82735 22.1461C9.03483 22.3488 9.27348 22.5146 9.53357 22.6367C9.51094 22.9081 9.51094 23.181 9.53357 23.4524C9.53357 27.6145 14.2447 31 20.035 31C25.8252 31 30.5382 27.6145 30.5382 23.4524C30.5592 23.1809 30.5592 22.9081 30.5382 22.6367C31.6316 22.0887 32.21 20.8316 31.9299 19.6115C31.6498 18.3914 30.5863 17.5351 29.3708 17.551H29.2753C28.6299 17.5756 28.016 17.8449 27.5512 18.3073C25.5019 16.87 23.0927 16.0762 20.6151 16.0218L21.7861 10.2245L25.6379 11.0606C25.7371 12.0028 26.508 12.717 27.4268 12.7181C27.4925 12.718 27.558 12.7143 27.6232 12.7069C28.5784 12.608 29.2907 11.754 29.2426 10.7651C29.1945 9.77619 28.4031 9 27.4431 9C27.375 9.00169 27.307 9.00727 27.2395 9.01672C26.6685 9.07928 26.1606 9.41884 25.8721 9.93091L21.4618 9.01672C21.4227 9.00808 21.3829 9.00372 21.3429 9.00372C21.0825 9.00691 20.8585 9.19478 20.8024 9.45709L19.4549 15.9103C16.9468 15.9469 14.504 16.7408 12.4287 18.1939C11.9423 17.72 11.2981 17.4566 10.6289 17.4581ZM20.3088 28.5715C20.2079 28.5715 20.1052 28.5715 20.0043 28.5715C19.9035 28.5715 19.8008 28.5715 19.6999 28.5715C18.2047 28.5656 16.7514 28.0618 15.5562 27.1351C15.4739 27.0326 15.4346 26.9003 15.4471 26.7678C15.4596 26.6352 15.5229 26.5133 15.6229 26.4291C15.7101 26.3561 15.8188 26.3161 15.931 26.3157C16.0433 26.3157 16.1521 26.3557 16.239 26.4291C17.249 27.1923 18.4694 27.6019 19.7215 27.5978C19.8092 27.5978 19.8969 27.5978 19.9845 27.5978C20.0908 27.5978 20.1989 27.5978 20.3052 27.5978C21.5411 27.5999 22.7462 27.2008 23.7498 26.4569C23.8447 26.357 23.9746 26.3008 24.1101 26.3008C24.2457 26.3008 24.3756 26.357 24.4705 26.4569C24.6658 26.6652 24.6618 26.997 24.4615 27.2002V27.1258C23.2657 28.0589 21.8082 28.5656 20.3088 28.5696V28.5715ZM24.1408 24.0302H24.1119L24.1264 23.9578C23.3339 23.902 22.6858 23.285 22.5685 22.4748C22.4511 21.6646 22.8962 20.8793 23.6382 20.5871C24.3803 20.2949 25.2195 20.5745 25.6556 21.2592C26.0916 21.9439 26.0071 22.8493 25.4523 23.4356C25.1298 23.7988 24.6792 24.013 24.202 24.0302H24.139H24.1408ZM15.7869 23.8816C14.7919 23.8816 13.9853 23.0497 13.9853 22.0235C13.9853 20.9973 14.7919 20.1654 15.7869 20.1654C16.7818 20.1654 17.5884 20.9973 17.5884 22.0235C17.5884 23.0497 16.7818 23.8816 15.7869 23.8816Z" fill="white"/>
</svg>
