<svg width="40" height="40" viewBox="0 0 40 40" fill="none" xmlns="http://www.w3.org/2000/svg">
  <rect width="40" height="40" rx="4" fill="currentColor"/>
  <path fill-rule="evenodd" clip-rule="evenodd" d="M7.85387 19.7827C9.78434 18.7042 11.8954 17.7693 13.9502 16.8594C14.4475 16.6392 14.9416 16.4204 15.429 16.2015C19.7314 14.3608 24.0508 12.5523 28.4138 10.8684C29.2626 10.5814 30.788 10.3009 30.9375 11.5768C30.8795 12.8553 30.6937 14.1286 30.5082 15.4002L30.5074 15.4053C30.4311 15.9283 30.3549 16.4511 30.2876 16.9738C29.7909 20.3172 29.2288 23.6511 28.6668 26.9837L28.6627 27.0084C28.5624 27.6031 28.4621 28.1978 28.3621 28.7927C28.1344 30.1035 26.5153 30.7821 25.4793 29.9433C24.8681 29.5244 24.2556 29.1066 23.643 28.6889L23.6268 28.6778C21.7499 27.3974 19.872 26.1162 18.0229 24.8033C17.2177 23.9736 17.9644 22.782 18.6834 22.1894C19.509 21.3642 20.3547 20.5889 21.1974 19.8165L21.2008 19.8134C22.4498 18.6683 23.6922 17.5293 24.8521 16.2428C25.3431 15.0403 24.0158 15.913 23.4256 16.301L23.3981 16.3191C23.3686 16.3384 23.3414 16.3563 23.3165 16.3725C22.6318 16.851 21.9512 17.3367 21.2704 17.8226L21.2464 17.8398C19.1441 19.3404 17.0403 20.8419 14.8109 22.1408C13.4538 22.8985 11.8952 22.3949 10.4973 21.9432C10.3379 21.8917 10.1806 21.8409 10.0259 21.7926C9.84094 21.715 9.64434 21.6373 9.44556 21.5588L9.44249 21.5576C8.18558 21.0608 6.84586 20.5313 7.85387 19.7827Z" fill="white"/>
</svg>
