<svg width="40" height="40" viewBox="0 0 40 40" fill="none" xmlns="http://www.w3.org/2000/svg">
  <rect width="40" height="40" rx="4" fill="currentColor"/>
  <path fill-rule="evenodd" clip-rule="evenodd" d="M18.6699 18.5197C20.6355 16.6116 23.0578 15.7686 25.8424 15.6225C25.6848 13.9318 25.0867 12.501 24.1113 11.2266C21.4084 7.69791 16.4156 6.21765 11.9713 7.66915C8.71632 8.73305 6.31936 10.7734 5.34402 14.1376C4.28931 17.7744 5.69827 21.3066 9.04182 23.6667C9.56169 24.0348 9.64106 24.3499 9.47083 24.9146C9.31214 25.442 9.20114 25.984 9.08166 26.5675C9.02708 26.834 8.97072 27.1091 8.90725 27.3955C9.21697 27.2018 9.5131 27.0137 9.80036 26.8312C10.5329 26.366 11.2078 25.9373 11.9034 25.5449C12.1944 25.3804 12.6039 25.339 12.9478 25.3678C13.6572 25.4275 14.3638 25.5198 15.1042 25.6166C15.4046 25.6559 15.7105 25.6959 16.0245 25.7347C15.7772 22.8075 16.6835 20.4463 18.6699 18.5197ZM11.7896 13.2049C12.4739 13.2256 13.0502 13.8248 13.0249 14.4896C12.9996 15.1705 12.4118 15.7065 11.7125 15.6892C11.0075 15.6708 10.4715 15.1107 10.4922 14.4102C10.5117 13.7201 11.0891 13.1842 11.7896 13.2049ZM18.456 14.47C18.4445 13.8029 19.0253 13.2175 19.7119 13.2049L19.7108 13.2037C20.4101 13.1911 20.9771 13.7385 20.9829 14.4321C20.9898 15.1394 20.4527 15.6869 19.7442 15.695C19.0379 15.7042 18.4686 15.1624 18.456 14.47Z" fill="white"/>
  <path fill-rule="evenodd" clip-rule="evenodd" d="M31.2979 32.5839C31.5605 32.7225 31.8264 32.8628 32.0994 32.9841C32.0798 32.9072 32.0653 32.8291 32.0513 32.7538C32.0224 32.5998 31.9949 32.453 31.9269 32.3285C31.3759 31.3244 31.6853 30.6976 32.5434 29.9362C35.5108 27.3046 35.796 23.1457 33.3657 20.0126C30.58 16.4219 24.7878 15.5592 20.8381 18.1471C16.395 21.0593 15.8452 26.5064 19.6868 30.0593C21.7065 31.9271 24.1563 32.6885 26.8903 32.409C27.2602 32.3711 27.631 32.2647 27.9991 32.159C28.5237 32.0085 29.043 31.8595 29.5472 31.9122C30.1421 31.9741 30.7118 32.2747 31.2979 32.5839ZM23.1062 22.2716C23.0855 22.8259 22.6231 23.2653 22.0619 23.2653C21.504 23.2641 21.0394 22.8167 21.0198 22.2647C20.9991 21.6861 21.4868 21.187 22.0688 21.1893C22.6565 21.1927 23.1292 21.685 23.1062 22.2716ZM27.5033 22.1853C27.5252 21.6344 27.9875 21.1893 28.5327 21.1927C29.1124 21.1973 29.5713 21.6838 29.5495 22.2739C29.5288 22.834 29.0836 23.2607 28.5201 23.2584C27.9369 23.2572 27.4792 22.7742 27.5033 22.1853Z" fill="white"/>
</svg>
