<svg width="40" height="40" viewBox="0 0 40 40" fill="none" xmlns="http://www.w3.org/2000/svg">
  <rect width="40" height="40" rx="4" fill="currentColor"/>
  <path d="M25.6299 8.48793C28.0143 7.98013 30.5973 8.71975 32.3486 10.6626C34.1007 12.6018 34.5752 15.2475 33.8241 17.562V17.5657C33.6515 18.0993 33.0778 18.3936 32.5399 18.2207C32.0028 18.0477 31.709 17.4737 31.8815 16.9365C32.4154 15.288 32.0768 13.4077 30.8325 12.0278C29.589 10.6479 27.7531 10.1217 26.0563 10.4823C25.5046 10.6001 24.9634 10.2505 24.8462 9.69855C24.7282 9.15027 25.0781 8.60568 25.6299 8.48793Z" fill="white"/>
  <path fill-rule="evenodd" clip-rule="evenodd" d="M13.7557 22.4413C14.668 20.5904 17.041 19.5417 19.1423 20.09C21.3175 20.653 22.4284 22.7025 21.5381 24.6969C20.6364 26.7318 18.0461 27.821 15.8455 27.1108C13.7264 26.4264 12.8247 24.329 13.7557 22.4413ZM18.186 23.387C18.4505 23.4974 18.7931 23.3722 18.9478 23.1073C19.0951 22.8387 18.999 22.5406 18.7337 22.445C18.4725 22.3419 18.1453 22.467 17.9907 22.7246C17.8402 22.9822 17.9207 23.2803 18.186 23.387ZM15.507 25.5764C16.1955 25.8892 17.111 25.5911 17.5382 24.9104C17.9574 24.2223 17.7368 23.4385 17.0451 23.1404C16.3607 22.8534 15.4777 23.1478 15.0545 23.8101C14.6273 24.4762 14.8299 25.2673 15.507 25.5764Z" fill="white"/>
  <path fill-rule="evenodd" clip-rule="evenodd" d="M27.5228 18.7295L27.5326 18.7322C29.0633 19.2068 30.7666 20.3549 30.7633 22.3787C30.7633 25.7236 25.9391 29.9368 18.6865 29.9368C13.1559 29.9368 7.5 27.2543 7.5 22.8461C7.5 20.5389 8.96077 17.8711 11.4738 15.3579C14.834 11.9983 18.7524 10.4676 20.2246 11.9432C20.8716 12.5945 20.9342 13.7168 20.5184 15.0598C20.2979 15.7332 21.1515 15.3616 21.1515 15.3616C23.8672 14.2246 26.237 14.1583 27.1021 15.3947C27.5651 16.057 27.5212 16.9806 27.0939 18.0514C26.901 18.5406 27.1525 18.6169 27.5228 18.7295ZM10.1896 23.8984C10.4769 26.7944 14.2887 28.7924 18.7044 28.3545C23.1169 27.9203 26.4648 25.2158 26.1743 22.3162C25.8911 19.4203 22.0793 17.4222 17.6636 17.8601C13.2511 18.298 9.90316 20.9989 10.1896 23.8984Z" fill="white"/>
  <path d="M29.659 13.0912C28.8053 12.1455 27.5472 11.7849 26.3875 12.0351C25.9131 12.1345 25.6112 12.6055 25.7104 13.0802C25.8138 13.5549 26.2809 13.8566 26.7521 13.7536C27.3185 13.6321 27.937 13.8088 28.3529 14.2687C28.7687 14.7324 28.8826 15.3616 28.702 15.9135C28.5555 16.3735 28.8053 16.8703 29.2692 17.0211C29.7323 17.1683 30.2254 16.9181 30.3768 16.4544C30.7406 15.3248 30.5127 14.0369 29.659 13.0912Z" fill="white"/>
</svg>
