<svg width="20" height="20" viewBox="0 0 20 20" fill="none" xmlns="http://www.w3.org/2000/svg">
  <path fill-rule="evenodd" clip-rule="evenodd" d="M10.0001 2.66675L19.8216 10.0001L10.0001 17.3334L0.178711 10.0001" fill="#FFDA2C"/>
  <path d="M10.0001 14.6666C12.5314 14.6666 14.5834 12.5772 14.5834 9.99992C14.5834 7.42259 12.5314 5.33325 10.0001 5.33325C7.46878 5.33325 5.41675 7.42259 5.41675 9.99992C5.41675 12.5772 7.46878 14.6666 10.0001 14.6666Z" fill="#1A47B8"/>
  <path fill-rule="evenodd" clip-rule="evenodd" d="M8.03572 12.0001V13.3335H9.34524V12.0001H8.03572ZM10.6548 12.0001V13.3335H11.9643V12.0001H10.6548Z" fill="white"/>
  <path fill-rule="evenodd" clip-rule="evenodd" d="M6.72621 8.00011C6.72621 8.00011 9.69097 8.53344 11.8281 9.46411L14.5834 10.6668" fill="white"/>
  <path fill-rule="evenodd" clip-rule="evenodd" d="M6.61548 8.61522C6.61551 8.61523 6.61555 8.61524 6.72621 8.00011C6.83686 7.38498 6.83693 7.385 6.837 7.38501L6.83989 7.38553L6.84718 7.38686L6.87425 7.39185C6.89772 7.39622 6.9319 7.40264 6.97586 7.4111C7.06377 7.42802 7.19087 7.45307 7.34971 7.486C7.66721 7.55182 8.11255 7.64931 8.62595 7.77643C9.64635 8.02909 10.9614 8.40498 12.0776 8.89109L14.8334 10.094L14.3333 11.2396L11.5786 10.0371C11.5785 10.0371 11.5787 10.0372 11.5786 10.0371C10.5578 9.59263 9.32169 9.23645 8.32552 8.98979C7.83058 8.86724 7.40116 8.77324 7.09598 8.70997C6.94348 8.67836 6.82226 8.65448 6.73969 8.63859C6.69841 8.63065 6.6668 8.62471 6.6458 8.6208L6.62237 8.61648L6.61684 8.61547L6.61548 8.61522Z" fill="white"/>
  <rect x="0.5" y="0.5" width="19" height="19" rx="9.5" stroke="black" stroke-opacity="0.08"/>
</svg>
