<svg width="20" height="20" viewBox="0 0 20 20" fill="none" xmlns="http://www.w3.org/2000/svg">
  <path d="M10.0001 2.5L10.3454 3.2747L11.1889 3.36373L10.5588 3.93155L10.7348 4.76127L10.0001 4.3375L9.26537 4.76127L9.44135 3.93155L8.81128 3.36373L9.65478 3.2747L10.0001 2.5Z" fill="#FFFF00"/>
  <path d="M4.09542 9.5247L3.7501 8.75L3.40478 9.5247L2.56128 9.61373L3.19135 10.1815L3.01537 11.0113L3.7501 10.5875L4.48483 11.0113L4.30885 10.1815L4.93892 9.61373L4.09542 9.5247Z" fill="#FFFF00"/>
  <path d="M16.5954 9.5247L16.2501 8.75L15.9048 9.5247L15.0613 9.61373L15.6914 10.1815L15.5154 11.0113L16.2501 10.5875L16.9848 11.0113L16.8088 10.1815L17.4389 9.61373L16.5954 9.5247Z" fill="#FFFF00"/>
  <path d="M10.3454 15.7747L10.0001 15L9.65478 15.7747L8.81128 15.8637L9.44135 16.4315L9.26537 17.2613L10.0001 16.8375L10.7348 17.2613L10.5588 16.4315L11.1889 15.8637L10.3454 15.7747Z" fill="#FFFF00"/>
  <path d="M5.6251 13.125L5.97042 13.8997L6.81392 13.9887L6.18385 14.5565L6.35983 15.3863L5.6251 14.9625L4.89037 15.3863L5.06635 14.5565L4.43628 13.9887L5.27978 13.8997L5.6251 13.125Z" fill="#FFFF00"/>
  <path d="M5.97042 5.1497L5.6251 4.375L5.27978 5.1497L4.43628 5.23873L5.06635 5.80655L4.89037 6.63627L5.6251 6.2125L6.35983 6.63627L6.18385 5.80655L6.81392 5.23873L5.97042 5.1497Z" fill="#FFFF00"/>
  <path d="M14.3751 13.125L14.7204 13.8997L15.5639 13.9887L14.9338 14.5565L15.1098 15.3863L14.3751 14.9625L13.6404 15.3863L13.8164 14.5565L13.1863 13.9887L14.0298 13.8997L14.3751 13.125Z" fill="#FFFF00"/>
  <path d="M14.7204 5.1497L14.3751 4.375L14.0298 5.1497L13.1863 5.23873L13.8164 5.80655L13.6404 6.63627L14.3751 6.2125L15.1098 6.63627L14.9338 5.80655L15.5639 5.23873L14.7204 5.1497Z" fill="#FFFF00"/>
  <rect x="0.5" y="0.5" width="19" height="19" rx="9.5" stroke="black" stroke-opacity="0.08"/>
</svg>
