<svg width="20" height="20" viewBox="0 0 20 20" fill="none" xmlns="http://www.w3.org/2000/svg">
  <path fill-rule="evenodd" clip-rule="evenodd" d="M13.75 9.8125C13.75 11.9871 12.0711 13.75 10 13.75C7.92893 13.75 6.25 11.9871 6.25 9.8125C6.25 8.5525 8.76786 8.02375 10.8871 8.22287C11.1121 8.15987 11.3543 8.125 11.6071 8.125C12.7911 8.125 13.75 8.881 13.75 9.8125Z" fill="#232C80"/>
  <path fill-rule="evenodd" clip-rule="evenodd" d="M9.46429 9.53125C9.46429 9.53125 10.4232 8.4375 11.6071 8.4375C12.7911 8.4375 13.75 9.1725 13.75 10.0781C13.75 7.96391 12.0711 6.25 10 6.25C8.50321 6.25 7.21107 7.14469 6.61 8.43969C6.25 9.53125 6.25 9.85063 6.25 10.0781C6.78571 10.625 7.38143 10.625 7.85714 10.625C8.33286 10.625 8.76036 10.4139 9.055 10.0781L9.46429 9.53125Z" fill="#F93939"/>
  <path fill-rule="evenodd" clip-rule="evenodd" d="M15.1923 7.22222H17.5L15.1923 5H14.0385L15.1923 7.22222ZM4.80769 7.22222H2.5L4.80769 5H5.96154L4.80769 7.22222ZM15.1923 12.7778H17.5L15.1923 15H14.0385L15.1923 12.7778ZM4.80769 12.7778H2.5L4.80769 15H5.96154L4.80769 12.7778Z" fill="#151515"/>
  <rect x="0.5" y="0.5" width="19" height="19" rx="9.5" stroke="black" stroke-opacity="0.08"/>
</svg>
