<svg width="20" height="20" viewBox="0 0 20 20" fill="none" xmlns="http://www.w3.org/2000/svg">
  <path d="M10.625 6.25C11.3512 6.25 12.0292 6.45643 12.6035 6.8138C11.6864 5.70586 10.3006 5 8.75 5C5.98858 5 3.75 7.23858 3.75 10C3.75 12.7614 5.98858 15 8.75 15C10.3006 15 11.6864 14.2941 12.6035 13.1862C12.0292 13.5436 11.3512 13.75 10.625 13.75C8.55393 13.75 6.875 12.0711 6.875 10C6.875 7.92893 8.55393 6.25 10.625 6.25Z" fill="white"/>
  <path d="M13.0643 12.3493L14.5859 11.536L16.1076 12.348L15.8169 10.624L17.0478 9.404L15.3455 9.15066L14.5859 7.58133L13.8264 9.14933L12.124 9.40266L13.355 10.6253L13.0643 12.3493Z" fill="white"/>
  <rect x="0.5" y="0.5" width="19" height="19" rx="9.5" stroke="black" stroke-opacity="0.08"/>
</svg>
