<svg width="20" height="20" viewBox="0 0 20 20" fill="none" xmlns="http://www.w3.org/2000/svg">
  <g clip-path="url(#clip0_306_733)">
    <path fill-rule="evenodd" clip-rule="evenodd" d="M0 0H11.7857V9.33333H0V0Z" fill="#1A47B8"/>
    <path fill-rule="evenodd" clip-rule="evenodd" d="M11.7857 0V1.33333H20V0H11.7857ZM11.7857 2.66667V4H20V2.66667H11.7857ZM11.7857 5.33333V6.66667H20V5.33333H11.7857ZM11.7857 8V9.33333H20V8H11.7857ZM0 10.6667V12H20V10.6667H0ZM0 13.3333V14.6667H20V13.3333H0ZM0 16V17.3333H20V16H0ZM0 18.6667V20H20V18.6667H0Z" fill="#F93939"/>
    <path fill-rule="evenodd" clip-rule="evenodd" d="M1.30957 1.33325V2.66659H2.61909V1.33325H1.30957ZM3.92862 1.33325V2.66659H5.23814V1.33325H3.92862ZM6.54767 1.33325V2.66659H7.85719V1.33325H6.54767ZM9.16671 1.33325V2.66659H10.4762V1.33325H9.16671ZM7.85719 2.66659V3.99992H9.16671V2.66659H7.85719ZM5.23814 2.66659V3.99992H6.54767V2.66659H5.23814ZM2.61909 2.66659V3.99992H3.92862V2.66659H2.61909ZM1.30957 3.99992V5.33325H2.61909V3.99992H1.30957ZM3.92862 3.99992V5.33325H5.23814V3.99992H3.92862ZM6.54767 3.99992V5.33325H7.85719V3.99992H6.54767ZM9.16671 3.99992V5.33325H10.4762V3.99992H9.16671ZM1.30957 6.66659V7.99992H2.61909V6.66659H1.30957ZM3.92862 6.66659V7.99992H5.23814V6.66659H3.92862ZM6.54767 6.66659V7.99992H7.85719V6.66659H6.54767ZM9.16671 6.66659V7.99992H10.4762V6.66659H9.16671ZM7.85719 5.33325V6.66659H9.16671V5.33325H7.85719ZM5.23814 5.33325V6.66659H6.54767V5.33325H5.23814ZM2.61909 5.33325V6.66659H3.92862V5.33325H2.61909Z" fill="white"/>
  </g>
  <rect x="0.5" y="0.5" width="19" height="19" rx="9.5" stroke="black" stroke-opacity="0.08"/>
  <defs>
    <clipPath id="clip0_306_733">
      <rect width="20" height="20" rx="10" fill="white"/>
    </clipPath>
  </defs>
</svg>
