<svg width="20" height="14" viewBox="0 0 20 14" fill="none" xmlns="http://www.w3.org/2000/svg">
<path d="M5.50002 9.00002C5.22388 9.00002 5.00002 9.22388 5.00002 9.50002V10.5C5.00002 10.7762 5.22388 11 5.50002 11H14.5C14.7762 11 15 10.7762 15 10.5V9.50002C15 9.22388 14.7762 9.00002 14.5 9.00002H5.50002Z" fill="#AFBAC0"/>
<path d="M3.00002 3.50002C3.00002 3.22388 3.22388 3.00002 3.50002 3.00002H4.50002C4.77616 3.00002 5.00002 3.22388 5.00002 3.50002V4.50002C5.00002 4.77616 4.77616 5.00002 4.50002 5.00002H3.50002C3.22388 5.00002 3.00002 4.77616 3.00002 4.50002V3.50002Z" fill="#AFBAC0"/>
<path d="M3.50002 6.00002C3.22388 6.00002 3.00002 6.22388 3.00002 6.50002V7.50002C3.00002 7.77616 3.22388 8.00002 3.50002 8.00002H4.50002C4.77616 8.00002 5.00002 7.77616 5.00002 7.50002V6.50002C5.00002 6.22388 4.77616 6.00002 4.50002 6.00002H3.50002Z" fill="#AFBAC0"/>
<path d="M6.00002 3.50002C6.00002 3.22388 6.22388 3.00002 6.50002 3.00002H7.50002C7.77616 3.00002 8.00002 3.22388 8.00002 3.50002V4.50002C8.00002 4.77616 7.77616 5.00002 7.50002 5.00002H6.50002C6.22388 5.00002 6.00002 4.77616 6.00002 4.50002V3.50002Z" fill="#AFBAC0"/>
<path d="M6.50002 6.00002C6.22388 6.00002 6.00002 6.22388 6.00002 6.50002V7.50002C6.00002 7.77616 6.22388 8.00002 6.50002 8.00002H7.50002C7.77616 8.00002 8.00002 7.77616 8.00002 7.50002V6.50002C8.00002 6.22388 7.77616 6.00002 7.50002 6.00002H6.50002Z" fill="#AFBAC0"/>
<path d="M9.00002 3.50002C9.00002 3.22388 9.22388 3.00002 9.50002 3.00002H10.5C10.7762 3.00002 11 3.22388 11 3.50002V4.50002C11 4.77616 10.7762 5.00002 10.5 5.00002H9.50002C9.22388 5.00002 9.00002 4.77616 9.00002 4.50002V3.50002Z" fill="#AFBAC0"/>
<path d="M9.50002 6.00002C9.22388 6.00002 9.00002 6.22388 9.00002 6.50002V7.50002C9.00002 7.77616 9.22388 8.00002 9.50002 8.00002H10.5C10.7762 8.00002 11 7.77616 11 7.50002V6.50002C11 6.22388 10.7762 6.00002 10.5 6.00002H9.50002Z" fill="#AFBAC0"/>
<path d="M12 3.50002C12 3.22388 12.2239 3.00002 12.5 3.00002H13.5C13.7762 3.00002 14 3.22388 14 3.50002V4.50002C14 4.77616 13.7762 5.00002 13.5 5.00002H12.5C12.2239 5.00002 12 4.77616 12 4.50002V3.50002Z" fill="#AFBAC0"/>
<path d="M12.5 6.00002C12.2239 6.00002 12 6.22388 12 6.50002V7.50002C12 7.77616 12.2239 8.00002 12.5 8.00002H13.5C13.7762 8.00002 14 7.77616 14 7.50002V6.50002C14 6.22388 13.7762 6.00002 13.5 6.00002H12.5Z" fill="#AFBAC0"/>
<path d="M15 3.50002C15 3.22388 15.2239 3.00002 15.5 3.00002H16.5C16.7762 3.00002 17 3.22388 17 3.50002V4.50002C17 4.77616 16.7762 5.00002 16.5 5.00002H15.5C15.2239 5.00002 15 4.77616 15 4.50002V3.50002Z" fill="#AFBAC0"/>
<path d="M15.5 6.00002C15.2239 6.00002 15 6.22388 15 6.50002V7.50002C15 7.77616 15.2239 8.00002 15.5 8.00002H16.5C16.7762 8.00002 17 7.77616 17 7.50002V6.50002C17 6.22388 16.7762 6.00002 16.5 6.00002H15.5Z" fill="#AFBAC0"/>
<path fill-rule="evenodd" clip-rule="evenodd" d="M3.86886 9.97153e-06C3.57833 -7.27597e-05 3.25266 -0.000165505 2.969 0.0230107C2.64521 0.0494649 2.20453 0.115801 1.74725 0.348799C1.14513 0.655594 0.655594 1.14513 0.348799 1.74725C0.115801 2.20453 0.0494649 2.64521 0.0230107 2.969C-0.000165505 3.25266 -7.27597e-05 3.57833 9.97153e-06 3.86886V10.1312C-7.27597e-05 10.4217 -0.000165505 10.7474 0.0230107 11.031C0.0494649 11.3548 0.115801 11.7955 0.348799 12.2528C0.655594 12.8549 1.14513 13.3444 1.74725 13.6512C2.20453 13.8842 2.64521 13.9506 2.969 13.977C3.25266 14.0002 3.57833 14.0001 3.86886 14H16.1312C16.4217 14.0001 16.7474 14.0002 17.031 13.977C17.3548 13.9506 17.7955 13.8842 18.2528 13.6512C18.8549 13.3444 19.3444 12.8549 19.6512 12.2528C19.8842 11.7955 19.9506 11.3548 19.977 11.031C20.0002 10.7474 20.0001 10.4218 20 10.1313V3.86889C20.0001 3.57838 20.0002 3.25262 19.977 2.969C19.9506 2.64521 19.8842 2.20453 19.6512 1.74725C19.3444 1.14513 18.8549 0.655594 18.2528 0.348799C17.7955 0.115801 17.3548 0.0494649 17.031 0.0230107C16.7474 -0.000165505 16.4217 -7.27597e-05 16.1312 9.97153e-06H3.86886ZM2.00002 3.92002C2.00002 3.24796 2.00002 2.91193 2.13081 2.65523C2.24586 2.42944 2.42944 2.24586 2.65523 2.13081C2.91193 2.00002 3.24796 2.00002 3.92002 2.00002H16.08C16.7521 2.00002 17.0881 2.00002 17.3448 2.13081C17.5706 2.24586 17.7542 2.42944 17.8692 2.65523C18 2.91193 18 3.24796 18 3.92002V10.08C18 10.7521 18 11.0881 17.8692 11.3448C17.7542 11.5706 17.5706 11.7542 17.3448 11.8692C17.0881 12 16.7521 12 16.08 12H3.92002C3.24796 12 2.91193 12 2.65523 11.8692C2.42944 11.7542 2.24586 11.5706 2.13081 11.3448C2.00002 11.0881 2.00002 10.7521 2.00002 10.08V3.92002Z" fill="#AFBAC0"/>
</svg>
