<svg width="114" height="114" viewBox="0 0 114 114" fill="none" xmlns="http://www.w3.org/2000/svg">
  <rect x="1.5" y="1.5" width="111" height="111" rx="55.5" fill="white"/>
  <path d="M78.0422 50.4595C77.8269 50.4595 77.6117 50.375 77.4471 50.2101L77.236 49.9987C76.9068 49.669 76.9068 49.1322 77.236 48.8025C77.5652 48.4727 78.1013 48.4727 78.4305 48.8025L78.6415 49.0138C78.9707 49.3435 78.9707 49.8804 78.6415 50.2101C78.4769 50.375 78.2616 50.4595 78.0464 50.4595H78.0422Z" fill="black"/>
  <path d="M81.0556 53.4821C80.8403 53.4821 80.6251 53.3975 80.4605 53.2327L80.2495 53.0213C79.9203 52.6916 79.9203 52.1548 80.2495 51.825C80.5787 51.4953 81.1147 51.4953 81.4439 51.825L81.6549 52.0364C81.9841 52.3661 81.9841 52.903 81.6549 53.2327C81.4903 53.3975 81.2751 53.4821 81.0598 53.4821H81.0556Z" fill="black"/>
  <path d="M77.8312 53.4819C77.6159 53.4819 77.4006 53.4016 77.236 53.2367C76.9068 52.907 76.9068 52.3701 77.236 52.0404L77.4471 51.8291C77.7763 51.4994 78.3123 51.4994 78.6415 51.8291C78.9707 52.1588 78.9707 52.6956 78.6415 53.0253L78.4305 53.2367C78.2659 53.4016 78.0506 53.4861 77.8312 53.4861V53.4819Z" fill="black"/>
  <path d="M80.8441 50.4595C80.6289 50.4595 80.4094 50.375 80.2448 50.2101C79.9156 49.8804 79.9156 49.3435 80.2448 49.0138L80.4559 48.8025C80.7851 48.4727 81.3211 48.4727 81.6503 48.8025C81.9795 49.1322 81.9795 49.669 81.6503 49.9987L81.4393 50.2101C81.2747 50.375 81.0594 50.4553 80.8441 50.4553V50.4595Z" fill="black"/>
  <path d="M69.424 32.1308C69.2088 32.1308 68.9935 32.0462 68.8289 31.8814C68.4997 31.5517 68.4997 31.0148 68.8289 30.6851L69.5042 30.0088C69.8334 29.679 70.3694 29.679 70.6986 30.0088C71.0278 30.3385 71.0278 30.8753 70.6986 31.205L70.0234 31.8814C69.8588 32.0462 69.6435 32.1308 69.4282 32.1308H69.424Z" fill="black"/>
  <path d="M73.0622 28.487C72.847 28.487 72.6317 28.4024 72.4671 28.2376C72.1379 27.9079 72.1379 27.371 72.4671 27.0413L73.1424 26.365C73.4716 26.0352 74.0076 26.0352 74.3368 26.365C74.666 26.6947 74.666 27.2315 74.3368 27.5612L73.6615 28.2376C73.4969 28.4024 73.2817 28.487 73.0664 28.487H73.0622Z" fill="black"/>
  <path d="M73.7375 32.1308C73.5223 32.1308 73.307 32.0462 73.1424 31.8814L72.4671 31.205C72.1379 30.8753 72.1379 30.3385 72.4671 30.0088C72.7963 29.679 73.3323 29.679 73.6615 30.0088L74.3368 30.6851C74.666 31.0148 74.666 31.5517 74.3368 31.8814C74.1722 32.0462 73.957 32.1308 73.7417 32.1308H73.7375Z" fill="black"/>
  <path d="M70.0993 28.487C69.8841 28.487 69.6688 28.4024 69.5042 28.2376L68.8289 27.5612C68.4997 27.2315 68.4997 26.6947 68.8289 26.365C69.1581 26.0352 69.6942 26.0352 70.0234 26.365L70.6986 27.0413C71.0278 27.371 71.0278 27.9079 70.6986 28.2376C70.534 28.4024 70.3188 28.487 70.1035 28.487H70.0993Z" fill="black"/>
  <path d="M33.2405 29.4805C33.0252 29.4805 32.8058 29.3959 32.6412 29.2311L32.4301 29.0197C32.1009 28.69 32.1009 28.1532 32.4301 27.8235C32.7593 27.4937 33.2953 27.4937 33.6245 27.8235L33.8356 28.0348C34.1648 28.3645 34.1648 28.9014 33.8356 29.2311C33.671 29.3959 33.4557 29.4763 33.2405 29.4763V29.4805Z" fill="black"/>
  <path d="M36.2584 32.5028C36.0431 32.5028 35.8279 32.4183 35.6633 32.2534L35.4522 32.0421C35.123 31.7124 35.123 31.1755 35.4522 30.8458C35.7814 30.5161 36.3174 30.5161 36.6467 30.8458L36.8577 31.0572C37.1869 31.3869 37.1869 31.9237 36.8577 32.2534C36.6931 32.4183 36.4778 32.5028 36.2626 32.5028H36.2584Z" fill="black"/>
  <path d="M33.0301 32.5028C32.8149 32.5028 32.5996 32.4224 32.435 32.2576C32.1058 31.9279 32.1058 31.391 32.435 31.0613L32.646 30.8499C32.9752 30.5202 33.5113 30.5202 33.8405 30.8499C34.1697 31.1797 34.1697 31.7165 33.8405 32.0462L33.6294 32.2576C33.4648 32.4224 33.2496 32.507 33.0301 32.507V32.5028Z" fill="black"/>
  <path d="M36.0473 29.4801C35.8321 29.4801 35.6168 29.3956 35.4522 29.2307C35.123 28.901 35.123 28.3642 35.4522 28.0344L35.6633 27.8231C35.9925 27.4934 36.5285 27.4934 36.8577 27.8231C37.1869 28.1528 37.1869 28.6897 36.8577 29.0194L36.6467 29.2307C36.482 29.3956 36.2668 29.4801 36.0515 29.4801H36.0473Z" fill="black"/>
  <path d="M25.7148 54.3949C25.4995 54.3949 25.2843 54.3104 25.1197 54.1455C24.7905 53.8158 24.7905 53.279 25.1197 52.9493L25.795 52.2729C26.1242 51.9432 26.6602 51.9432 26.9894 52.2729C27.3186 52.6026 27.3186 53.1395 26.9894 53.4692L26.3141 54.1455C26.1495 54.3104 25.9343 54.3949 25.719 54.3949H25.7148Z" fill="black"/>
  <path d="M29.3585 50.747C29.1433 50.747 28.9281 50.6624 28.7592 50.4976C28.43 50.1679 28.43 49.631 28.7592 49.3013L29.4345 48.625C29.7637 48.2953 30.2997 48.2953 30.6289 48.625C30.9581 48.9547 30.9581 49.4915 30.6289 49.8212L29.9537 50.4976C29.7891 50.6624 29.5738 50.7428 29.3585 50.7428V50.747Z" fill="black"/>
  <path d="M30.0332 54.3949C29.8179 54.3949 29.6027 54.3104 29.4381 54.1455L28.7628 53.4692C28.4336 53.1395 28.4336 52.6026 28.7628 52.2729C29.092 51.9432 29.628 51.9432 29.9572 52.2729L30.6325 52.9493C30.9617 53.279 30.9617 53.8158 30.6325 54.1455C30.4679 54.3104 30.2526 54.3949 30.0374 54.3949H30.0332Z" fill="black"/>
  <path d="M26.3901 50.7469C26.1749 50.7469 25.9596 50.6624 25.795 50.5017L25.1197 49.8254C24.7905 49.4957 24.7905 48.9588 25.1197 48.6291C25.4489 48.2994 25.9849 48.2994 26.3141 48.6291L26.9894 49.3055C27.3186 49.6352 27.3186 50.172 26.9894 50.5017C26.8248 50.6666 26.6096 50.7511 26.3901 50.7511V50.7469Z" fill="black"/>
  <path d="M56.0032 59.979C55.8512 59.979 55.6993 59.9368 55.5642 59.8564L55.2097 59.6409C54.623 59.2858 40.8134 50.785 40.8134 41.5742C40.8134 36.8905 44.6203 33.0776 49.2967 33.0776C51.943 33.0776 54.412 34.312 56.0032 36.3748C57.5943 34.3162 60.0633 33.0776 62.7096 33.0776C67.386 33.0776 71.193 36.8905 71.193 41.5742C71.193 50.7893 57.3833 59.2858 56.7966 59.6409L56.4421 59.8564C56.307 59.9368 56.1551 59.979 56.0032 59.979ZM49.2967 34.7685C45.5488 34.7685 42.5016 37.8205 42.5016 41.5742C42.5016 49.5972 54.7539 57.3751 56.0032 58.1445C57.2482 57.3751 69.5047 49.5972 69.5047 41.5742C69.5047 37.8205 66.4575 34.7685 62.7096 34.7685C60.2237 34.7685 57.9362 36.1296 56.7418 38.3193C56.594 38.5898 56.3113 38.7589 56.0032 38.7589C55.6951 38.7589 55.4123 38.5898 55.2646 38.3193C54.0701 36.1296 51.7826 34.7685 49.3009 34.7685H49.2967Z" fill="black"/>
  <path d="M65.6508 42.4195C65.1866 42.4195 64.8067 42.0391 64.8067 41.5741C64.8067 40.4158 63.8655 39.4732 62.7091 39.4732C62.2448 39.4732 61.865 39.0928 61.865 38.6278C61.865 38.1628 62.2448 37.7823 62.7091 37.7823C64.7983 37.7823 66.4949 39.4817 66.4949 41.5741C66.4949 42.0391 66.1151 42.4195 65.6508 42.4195Z" fill="black"/>
  <path d="M51.2754 87.8821C51.0602 87.8821 50.8534 87.8779 50.655 87.8652C46.1601 87.6073 42.6613 86.6224 38.9514 84.568C34.2159 81.9472 29.3623 80.2691 25.2852 79.8421C24.821 79.7914 24.4833 79.3771 24.534 78.9122C24.5846 78.4472 24.9982 78.1132 25.4625 78.1597C29.7632 78.612 34.8448 80.3621 39.7702 83.0886C43.2859 85.0373 46.4682 85.9292 50.7521 86.1743C54.5042 86.3984 61.409 84.2214 70.728 79.9098C77.0082 77.0057 87.5132 72.1403 87.8086 69.6801C87.8213 69.566 87.8593 69.2574 87.298 68.8136C85.0146 66.9917 77.3839 70.3649 70.6521 73.3408C69.2635 73.9537 67.8285 74.5878 66.4568 75.1712C66.0263 75.3529 65.5325 75.1542 65.351 74.7231C65.1695 74.2919 65.3679 73.7973 65.7984 73.6156C67.1617 73.0365 68.5924 72.4024 69.9725 71.7937C77.8354 68.3148 85.2636 65.0303 88.3489 67.4947C89.4209 68.3486 89.556 69.2701 89.4842 69.8873C89.1381 72.7744 83.3855 75.9194 71.4328 81.4484C62.2025 85.722 55.4242 87.8821 51.2712 87.8821H51.2754Z" fill="black"/>
  <path d="M61.1767 80.6668C59.6235 80.6668 57.5808 79.9313 54.8585 78.9548C54.1072 78.6843 53.3898 78.418 52.6892 78.1559C49.3845 76.9258 46.5356 75.8648 42.488 75.4294C42.0238 75.3787 41.6904 74.9644 41.7368 74.4994C41.7874 74.0345 42.2095 73.6963 42.6653 73.747C46.9239 74.2035 49.8656 75.3026 53.2758 76.5707C53.968 76.8286 54.6812 77.0949 55.4241 77.3612C58.3616 78.418 60.8939 79.3268 61.9322 78.8365C62.0968 78.7561 62.3078 78.6082 62.464 78.1644C63.0042 76.6426 59.0495 73.0284 52.9508 70.4752C51.2077 69.7439 49.7179 68.7717 48.2787 67.829C46.3794 66.5863 44.5857 65.4111 42.5556 65.0941C39.6307 64.6376 36.9338 65.2125 34.6842 65.8381C30.8308 66.9075 27.695 67.4528 25.3694 67.4528H25.3441C24.8756 67.4528 24.5 67.0724 24.5 66.6074C24.5 66.1424 24.8799 65.762 25.3441 65.762C25.3526 65.762 25.361 65.762 25.3694 65.762C27.543 65.762 30.5227 65.2378 34.2326 64.2106C36.5159 63.5766 39.5548 62.9171 42.8173 63.4286C45.2061 63.8048 47.1475 65.073 49.203 66.4214C50.5789 67.3218 52.0012 68.2518 53.6008 68.9239C58.4755 70.9656 65.2833 75.2645 64.0551 78.735C63.7808 79.5086 63.3123 80.0581 62.6539 80.3709C62.215 80.578 61.7211 80.671 61.1682 80.671L61.1767 80.6668Z" fill="black"/>
  <path d="M63.6068 72.2715C63.3494 72.2715 63.0961 72.1574 62.9315 71.9334C62.6487 71.5614 62.7247 71.0288 63.0961 70.7498C63.3705 70.5426 69.8659 65.6899 77.6908 64.1216C78.1467 64.0287 78.594 64.3288 78.6827 64.7853C78.7755 65.2418 78.4758 65.6899 78.02 65.7787C70.5665 67.2709 64.1766 72.0475 64.1091 72.0982C63.9571 72.2124 63.7799 72.2673 63.6026 72.2673L63.6068 72.2715Z" fill="black"/>
  <path d="M60.2269 69.507C59.9821 69.507 59.7373 69.4013 59.5727 69.1942C59.2773 68.8307 59.3322 68.298 59.6951 68.0064C59.9062 67.8373 64.8864 63.8088 70.6813 62.0673C71.1286 61.932 71.5971 62.1856 71.7322 62.6337C71.8672 63.0818 71.614 63.551 71.1666 63.6863C65.701 65.3306 60.8094 69.2787 60.7587 69.3168C60.6026 69.4436 60.4126 69.507 60.2269 69.507Z" fill="black"/>
  <path d="M56.5082 67.1904C56.2719 67.1904 56.0397 67.0932 55.8709 66.903C55.5628 66.5521 55.6008 66.0195 55.9511 65.7109C56.0862 65.5926 59.2938 62.8027 63.5988 60.947C64.025 60.761 64.5231 60.9596 64.7088 61.3908C64.8945 61.8178 64.6961 62.3166 64.2656 62.5025C60.2181 64.2483 57.0949 66.9579 57.0611 66.9875C56.9007 67.127 56.7024 67.1947 56.5082 67.1947V67.1904Z" fill="black"/>
  <path d="M46.9709 45.4964C46.169 44.8412 45.5064 44.0888 45.0928 43.2349C43.6113 40.1787 45.232 37.4142 47.4985 36.5857C49.7649 35.7614 52.3141 36.7674 53.1414 39.0374" fill="#FFE205"/>
  <rect x="1.5" y="1.5" width="111" height="111" rx="55.5" stroke="#1F88C9" stroke-width="3"/>
</svg>
