<svg width="114" height="114" viewBox="0 0 114 114" fill="none" xmlns="http://www.w3.org/2000/svg">
  <rect x="1.5" y="1.5" width="111" height="111" rx="55.5" fill="white"/>
  <path d="M56.6597 90C54.9279 90 53.1961 89.5806 51.6154 88.7417C50.674 88.2444 49.8404 87.6304 49.1322 86.9213C48.7953 86.584 48.7953 86.0348 49.1322 85.6975C49.469 85.3603 50.0175 85.3603 50.3544 85.6975C50.9417 86.2856 51.637 86.7915 52.423 87.211C55.0359 88.599 58.2836 88.599 60.8964 87.211C61.6824 86.7915 62.3821 86.2856 62.9651 85.6975C63.1422 85.5202 63.3927 85.4294 63.6432 85.4467L89.1151 87.4618L79.7391 64.8164C78.4089 64.1981 72.462 61.6641 66.0012 62.4944C65.5261 62.5592 65.0943 62.2219 65.0338 61.7463C64.9733 61.2706 65.3059 60.8382 65.7809 60.7777C73.6324 59.7659 80.5208 63.2597 80.8102 63.4111C80.9916 63.5062 81.1341 63.6619 81.2118 63.8478L91.2529 88.1017C91.3695 88.3785 91.3306 88.6985 91.1536 88.9406C90.9765 89.1828 90.6915 89.3211 90.3848 89.2952L63.8936 87.2023C63.2501 87.7904 62.516 88.3093 61.704 88.7417C60.1234 89.5806 58.3916 90 56.6597 90Z" fill="black"/>
  <path d="M40.0886 62.7537C39.6956 62.7537 39.3372 62.4813 39.2465 62.0792C39.1428 61.6122 39.4322 61.1495 39.8986 61.0457C42.2783 60.5095 44.8565 60.4403 47.5514 60.8381C48.0222 60.9073 48.3504 61.3484 48.2813 61.8197C48.2122 62.2911 47.776 62.6197 47.301 62.5505C44.8134 62.183 42.451 62.2435 40.2787 62.7321C40.2139 62.7451 40.1491 62.7537 40.0886 62.7537Z" fill="black"/>
  <path d="M22.8655 89.3038C22.5891 89.3038 22.33 89.174 22.1659 88.9492C21.9888 88.707 21.9499 88.3871 22.0665 88.1103L32.1076 63.8564C32.1854 63.6661 32.3279 63.5148 32.5093 63.4196C32.6345 63.3548 35.6404 61.8197 39.9332 61.0414C40.4039 60.9549 40.8531 61.2706 40.9351 61.7376C41.0215 62.2089 40.7106 62.6586 40.2398 62.7408C36.9144 63.3418 34.3879 64.4401 33.576 64.8207L24.2 87.466L49.672 85.451C50.1513 85.4164 50.5616 85.771 50.6005 86.2466C50.6394 86.7223 50.2809 87.1374 49.8058 87.1763L22.9303 89.3038C22.9087 89.3038 22.8828 89.3038 22.8612 89.3038H22.8655Z" fill="black"/>
  <path d="M85.1806 85.4726C85.1288 85.4726 85.077 85.4726 85.0252 85.4596C82.1575 84.9407 79.1474 83.8684 76.2365 82.8262C68.7694 80.1583 61.7169 77.6373 57.3809 84.2056C57.1174 84.6035 56.5819 84.7116 56.1846 84.4521C55.7873 84.1883 55.6793 83.6522 55.9384 83.2543C61.0216 75.5531 69.0501 78.4243 76.8196 81.2004C79.6656 82.2166 82.6067 83.2716 85.3318 83.7603C85.8026 83.8467 86.1135 84.2965 86.0271 84.7635C85.9537 85.1829 85.5866 85.4769 85.1763 85.4769L85.1806 85.4726Z" fill="black"/>
  <path d="M28.1387 85.4725C27.7285 85.4725 27.3657 85.1785 27.2879 84.7591C27.2016 84.2877 27.5168 83.838 27.9833 83.7559C30.7084 83.2629 33.6495 82.2122 36.4955 81.196C44.2606 78.4199 52.2935 75.5487 57.3766 83.25C57.6401 83.6478 57.5321 84.1839 57.1305 84.4477C56.7332 84.7115 56.1976 84.5991 55.9342 84.2012C51.5982 77.6286 44.5457 80.1496 37.0785 82.8219C34.1677 83.864 31.1575 84.9407 28.2899 85.4552C28.2381 85.4639 28.1862 85.4682 28.1344 85.4682L28.1387 85.4725Z" fill="black"/>
  <path d="M62.9262 57.007H50.3932C49.9181 57.007 49.5295 56.6178 49.5295 56.1422C49.5295 54.5293 48.8816 53.0072 47.7113 51.8137C45.1459 49.202 43.846 45.6043 44.1483 41.9375C44.6536 35.8145 49.6504 30.8807 55.7744 30.457C59.2985 30.2105 62.6584 31.4039 65.2281 33.8038C67.7632 36.1734 69.2186 39.5246 69.2186 42.9969C69.2186 46.4691 67.8971 49.5436 65.5002 51.9218C64.4162 52.9986 63.79 54.5206 63.79 56.0946C63.79 56.5702 63.4013 57.0027 62.9262 57.0027V57.007ZM51.2094 55.2774H62.11C62.3 53.5261 63.0687 51.9002 64.2823 50.6981C66.351 48.6485 67.4868 45.9113 67.4868 43.0012C67.4868 40.0911 66.23 37.1161 64.0448 35.0708C61.8292 32.9995 58.9314 31.9747 55.8866 32.1823C50.6091 32.5455 46.299 36.8004 45.8672 42.0802C45.608 45.2454 46.7266 48.3501 48.9421 50.603C50.2334 51.9132 51.0194 53.552 51.2138 55.2774H51.2094Z" fill="black"/>
  <path d="M62.9996 60.0166H50.3154C49.8403 60.0166 49.4517 59.6275 49.4517 59.1518C49.4517 58.6762 49.8403 58.287 50.3154 58.287H62.9996C63.4746 58.287 63.8633 58.6762 63.8633 59.1518C63.8633 59.6275 63.4746 60.0166 62.9996 60.0166Z" fill="black"/>
  <path d="M58.3181 69.3912H55.0056C51.948 69.3912 49.4561 66.9006 49.4561 63.8348V62.4467C49.4561 61.9711 49.8447 61.5819 50.3198 61.5819H63.004C63.479 61.5819 63.8677 61.9711 63.8677 62.4467V63.8348C63.8677 66.8962 61.3801 69.3912 58.3181 69.3912ZM51.1836 63.3159V63.8391C51.1836 65.9493 52.8981 67.6659 55.0056 67.6659H58.3181C60.4257 67.6659 62.1402 65.9493 62.1402 63.8391V63.3159H51.1836Z" fill="black"/>
  <path d="M56.6598 73.0279C54.7466 73.0279 53.1875 71.4669 53.1875 69.5513V68.6346C53.1875 68.1589 53.5762 67.7697 54.0512 67.7697C54.5263 67.7697 54.915 68.1589 54.915 68.6346V69.5513C54.915 70.5156 55.6967 71.2982 56.6598 71.2982C57.6229 71.2982 58.4045 70.5156 58.4045 69.5513V68.6259C58.4045 68.1503 58.7932 67.7611 59.2683 67.7611C59.7434 67.7611 60.132 68.1503 60.132 68.6259V69.5513C60.132 71.4669 58.573 73.0279 56.6598 73.0279Z" fill="black"/>
  <path d="M56.6598 29.4149C56.1847 29.4149 55.796 29.0258 55.796 28.5501V25.8648C55.796 25.3892 56.1847 25 56.6598 25C57.1348 25 57.5235 25.3892 57.5235 25.8648V28.5501C57.5235 29.0258 57.1348 29.4149 56.6598 29.4149Z" fill="black"/>
  <path d="M51.7191 30.3923C51.365 30.3923 51.0368 30.1761 50.9072 29.8215L49.9916 27.2962C49.8275 26.8465 50.0608 26.3492 50.5099 26.1892C50.9547 26.0249 51.4557 26.2584 51.6155 26.7081L52.5311 29.2334C52.6952 29.6831 52.462 30.1804 52.0128 30.3404C51.9135 30.3749 51.8142 30.3923 51.7191 30.3923Z" fill="black"/>
  <path d="M47.4132 33.004C47.1671 33.004 46.9209 32.9002 46.7525 32.697L45.0293 30.6387C44.7227 30.2711 44.7702 29.7263 45.1373 29.4193C45.5044 29.1123 46.0485 29.1599 46.3551 29.5274L48.0783 31.5857C48.385 31.9532 48.3375 32.4981 47.9704 32.8051C47.8062 32.9391 47.6119 33.0083 47.4132 33.0083V33.004Z" fill="black"/>
  <path d="M44.2562 36.9345C44.1093 36.9345 43.9625 36.8956 43.8243 36.8177L41.5008 35.473C41.0862 35.2351 40.948 34.7032 41.1856 34.2925C41.4231 33.8773 41.95 33.7347 42.3646 33.9768L44.6881 35.3216C45.1027 35.5594 45.2409 36.0913 45.0033 36.5021C44.8435 36.7788 44.5542 36.9345 44.2562 36.9345Z" fill="black"/>
  <path d="M61.6003 30.3921C61.501 30.3921 61.4017 30.3748 61.3066 30.3402C60.8575 30.1759 60.6286 29.6786 60.7884 29.2332L61.704 26.708C61.8681 26.2583 62.3647 26.0291 62.8096 26.1891C63.2587 26.3534 63.4876 26.8507 63.3278 27.2961L62.4122 29.8213C62.287 30.1716 61.9545 30.3921 61.6003 30.3921Z" fill="black"/>
  <path d="M65.9061 33.0039C65.7118 33.0039 65.5131 32.939 65.3533 32.8007C64.9862 32.4937 64.9387 31.9488 65.2454 31.5813L66.9685 29.523C67.2752 29.1555 67.8193 29.1079 68.1864 29.4149C68.5535 29.7219 68.601 30.2668 68.2944 30.6343L66.5712 32.6926C66.3985 32.8958 66.1566 32.9996 65.9104 32.9996L65.9061 33.0039Z" fill="black"/>
  <path d="M69.0631 36.9345C68.7651 36.9345 68.4758 36.7789 68.316 36.5021C68.0784 36.087 68.2209 35.5595 68.6312 35.3217L70.9547 33.9769C71.3693 33.739 71.8962 33.8817 72.1337 34.2925C72.3713 34.7076 72.2287 35.2352 71.8185 35.473L69.495 36.8178C69.3568 36.8956 69.2099 36.9345 69.0631 36.9345Z" fill="black"/>
  <path d="M56.6597 34.1844C56.4524 34.1844 56.2407 34.1931 56.0291 34.2061C53.6711 34.3704 51.5549 35.4903 50.0649 37.1811C51.5592 36.9346 53.0881 36.913 54.5737 37.1811C57.6141 37.7345 60.4256 39.4815 62.2697 41.9678C63.3796 43.464 64.1311 45.2196 64.4766 47.0487C65.1158 45.812 65.4613 44.4326 65.4613 43.0013C65.4613 38.141 61.5139 34.1844 56.6553 34.1844H56.6597Z" fill="#FFE205"/>
  <rect x="1.5" y="1.5" width="111" height="111" rx="55.5" stroke="#1F88C9" stroke-width="3"/>
</svg>
