<svg width="114" height="114" viewBox="0 0 114 114" fill="none" xmlns="http://www.w3.org/2000/svg">
  <rect x="1.5" y="1.5" width="111" height="111" rx="55.5" fill="white"/>
  <path d="M81.6137 55.8972C81.4 55.8972 81.1817 55.8197 81.0089 55.6649C80.6315 55.3324 80.5996 54.754 80.9361 54.3806C85.6744 49.052 85.6608 41.1456 80.8952 36.3817C78.4351 33.9224 75.1747 32.5652 71.7142 32.5652C71.214 32.5652 70.8048 32.1553 70.8048 31.6543C70.8048 31.1533 71.214 30.7434 71.7142 30.7434C75.6613 30.7434 79.3764 32.2873 82.1775 35.0928C87.6207 40.5398 87.6707 49.5438 82.2912 55.592C82.1093 55.7924 81.8638 55.8972 81.6137 55.8972ZM52.7065 37.2015C52.4564 37.2015 52.2063 37.0968 52.029 36.8964C49.5825 34.1455 46.0538 32.5652 42.3523 32.5652C41.8521 32.5652 41.4429 32.1553 41.4429 31.6543C41.4429 31.1533 41.8521 30.7434 42.3523 30.7434C46.5722 30.7434 50.5966 32.5469 53.3886 35.6849C53.7251 36.0584 53.6887 36.6368 53.3159 36.9692C53.1431 37.1241 52.9248 37.2015 52.7111 37.2015H52.7065Z" fill="black"/>
  <path d="M57.0356 90C55.5395 90 54.1117 89.3578 53.1158 88.242L27.4463 59.3901C20.0569 51.083 20.2025 38.6313 27.7874 31.0438C31.8435 26.9858 37.223 24.8407 42.9526 25.0092C48.2593 25.1641 53.3386 27.3912 57.031 31.1531C60.728 27.3912 65.8028 25.1641 71.114 25.0092C76.8345 24.8407 82.223 26.9858 86.2792 31.0438C93.8641 38.6313 94.0096 51.083 86.6203 59.3901L60.9508 88.242C59.9595 89.3578 58.5316 90 57.031 90H57.0356ZM42.3387 26.8219C37.3321 26.8219 32.6393 28.7666 29.0788 32.3326C22.176 39.2371 22.0578 50.5911 28.8105 58.1787L54.48 87.0306C55.1257 87.7593 56.0625 88.1783 57.0401 88.1783C58.0178 88.1783 58.9545 87.7593 59.6003 87.0306L85.2698 58.1787C92.0225 50.5911 91.9043 39.2371 85.0014 32.3326C81.3045 28.6345 76.398 26.6761 71.1777 26.831C65.9574 26.9813 61.1782 29.2038 57.7222 33.0932C57.3766 33.4803 56.7082 33.4803 56.3626 33.0932C52.9066 29.2083 48.1274 26.9858 42.9071 26.831C42.7207 26.8264 42.5297 26.8219 42.3433 26.8219H42.3387Z" fill="black"/>
  <path d="M61.7879 71.3818H52.284C51.7838 71.3818 51.3746 70.9719 51.3746 70.4709V61.936H42.7802C42.28 61.936 41.8707 61.5261 41.8707 61.0252V51.5794C41.8707 51.0784 42.28 50.6685 42.7802 50.6685H51.3746V42.1337C51.3746 41.6327 51.7838 41.2228 52.284 41.2228H61.7879C62.2881 41.2228 62.6973 41.6327 62.6973 42.1337V50.6685H71.2917C71.792 50.6685 72.2012 51.0784 72.2012 51.5794V61.0252C72.2012 61.5261 71.792 61.936 71.2917 61.936H62.6973V70.4709C62.6973 70.9719 62.2881 71.3818 61.7879 71.3818ZM53.1935 69.56H60.8784V61.0252C60.8784 60.5242 61.2877 60.1143 61.7879 60.1143H70.3823V52.4903H61.7879C61.2877 52.4903 60.8784 52.0804 60.8784 51.5794V43.0445H53.1935V51.5794C53.1935 52.0804 52.7842 52.4903 52.284 52.4903H43.6896V60.1143H52.284C52.7842 60.1143 53.1935 60.5242 53.1935 61.0252V69.56Z" fill="black"/>
  <path d="M52.4427 53.6198H45.1398V57.2268H52.4427V53.6198Z" fill="#FFE205"/>
  <rect x="1.5" y="1.5" width="111" height="111" rx="55.5" stroke="#1F88C9" stroke-width="3"/>
</svg>
