<svg width="114" height="114" viewBox="0 0 114 114" fill="none" xmlns="http://www.w3.org/2000/svg">
  <rect x="1.5" y="1.5" width="111" height="111" rx="55.5" fill="white"/>
  <path d="M86.1315 33.6773L80.4628 35.3955C79.2898 35.7785 78.6232 37.0103 78.9436 38.2007L85.2634 61.863C85.6044 63.1414 86.9376 63.8763 88.1985 63.4778L93.9241 61.7906C95.1074 61.4179 95.7895 60.1758 95.464 58.9699L89.0822 35.2765C88.7359 33.993 87.3872 33.2632 86.1263 33.6721L86.1315 33.6773Z" fill="#1F88C9"/>
  <path d="M87.5049 64.6262C86.952 64.6262 86.3991 64.4864 85.8927 64.207C85.0814 63.7619 84.5078 63.0269 84.2701 62.1316L77.9503 38.4692C77.4904 36.7458 78.4567 34.9654 80.1465 34.4116L85.8255 32.6882C86.704 32.4035 87.6341 32.4915 88.4454 32.9314C89.2515 33.3662 89.8458 34.127 90.0887 35.012L96.4705 58.7054C96.9407 60.4495 95.9589 62.2403 94.2433 62.7785L88.4971 64.4709C88.1716 64.5744 87.8408 64.6262 87.5049 64.6262ZM86.8538 34.5979C86.7195 34.5979 86.5851 34.6186 86.4508 34.66C86.4456 34.66 86.4353 34.66 86.4301 34.6652L80.7665 36.3835C80.1413 36.5905 79.7692 37.2737 79.9449 37.931L86.2647 61.5933C86.3578 61.9349 86.58 62.2196 86.89 62.3904C87.2001 62.5612 87.5566 62.5974 87.8925 62.4887L93.6387 60.7963C94.2795 60.5945 94.6515 59.9061 94.4758 59.2385L88.094 35.5451C88.001 35.2035 87.7788 34.9188 87.4636 34.748C87.2724 34.6445 87.0657 34.5928 86.8538 34.5928V34.5979Z" fill="black"/>
  <path d="M82.5751 63.3472C81.5468 63.3472 80.5443 62.8762 79.8777 62.0378C78.9734 60.8992 77.5523 59.1136 75.8936 57.0848C65.8635 44.8137 60.138 42.9661 53.6424 43.9132C51.5445 44.2185 50.3146 44.7982 48.754 45.5228C48.0358 45.8592 47.2193 46.2422 46.2427 46.6251C43.9328 47.536 40.3673 47.7793 38.3106 46.4388C37.2564 45.7505 36.6725 44.7257 36.6208 43.4733C36.5278 41.165 39.2562 39.4933 43.0336 37.1799C43.9431 36.6209 44.8836 36.0464 45.8603 35.4202C53.2239 30.6691 57.5956 31.6576 64.1169 33.6657C65.2021 34.0021 66.2407 34.323 67.2226 34.6283C72.5864 36.2897 76.462 37.4904 79.3041 37.9458C79.8674 38.0338 80.2498 38.5669 80.1619 39.131C80.0741 39.6952 79.5418 40.0781 78.9786 39.9902C75.9918 39.514 72.0593 38.2926 66.6128 36.6054C65.631 36.3 64.5975 35.9791 63.5123 35.6479C57.2028 33.7071 53.6011 32.8946 46.9764 37.1643C45.9842 37.8061 45.0283 38.3909 44.1085 38.9499C41.4214 40.5957 38.6361 42.2984 38.6827 43.3905C38.7085 43.9701 38.9462 44.3893 39.4319 44.705C40.8323 45.6211 43.6589 45.4141 45.4779 44.6999C46.3925 44.3376 47.147 43.9908 47.8704 43.6492C49.5137 42.8833 50.9347 42.2208 53.3324 41.8689C61.7605 40.6319 68.0804 44.2703 77.48 55.7754C79.1439 57.8146 80.5753 59.6053 81.4848 60.7543C81.8206 61.1786 82.3684 61.3701 82.8748 61.2408C83.5001 61.0855 84.1563 60.8629 84.7661 60.6042C85.288 60.3816 85.8978 60.6249 86.12 61.1528C86.3422 61.6807 86.0993 62.2862 85.5722 62.5087C84.854 62.8141 84.115 63.0625 83.3761 63.2488C83.1074 63.3161 82.8283 63.3524 82.5596 63.3524L82.5751 63.3472Z" fill="black"/>
  <path d="M59.088 81.7205C57.5842 81.7205 55.8996 81.2857 54.0394 80.4214C53.5226 80.1782 53.2953 79.5623 53.5381 79.0447C53.781 78.5272 54.3959 78.3046 54.9127 78.5427C60.7209 81.2495 62.328 78.108 62.3952 77.9734C62.5605 77.637 62.8964 77.3989 63.2684 77.3782C63.4286 77.3679 67.2629 77.0677 67.9502 73.3931C68.0484 72.8704 68.529 72.5132 69.056 72.5547C70.4978 72.6789 72.11 72.1147 73.1693 71.1055C73.7067 70.588 74.3424 69.7237 74.2907 68.5126C74.2804 68.2279 74.3837 67.9485 74.5852 67.7466C74.7816 67.5448 75.0658 67.4361 75.3448 67.4361C77.2154 67.4516 79.0861 66.3492 79.8095 64.7655C80.2126 63.8805 80.409 62.509 79.0499 60.9822C78.6675 60.5578 78.7037 59.9006 79.1326 59.5228C79.5563 59.1398 80.2126 59.176 80.5898 59.6056C82.2124 61.417 82.6103 63.6166 81.6905 65.6298C80.7552 67.6742 78.6261 69.1492 76.306 69.4545C76.1199 70.6242 75.536 71.7162 74.6059 72.6064C73.3347 73.8226 71.5467 74.5627 69.7794 74.6404C68.7666 77.8492 65.8418 79.1017 63.9609 79.3915C63.5681 79.9608 62.7776 80.8199 61.4133 81.3271C60.7002 81.5911 59.9251 81.7256 59.0983 81.7256L59.088 81.7205Z" fill="black"/>
  <path d="M32.17 65.4584C31.9788 65.4584 31.7824 65.4066 31.6118 65.2927C29.6947 64.0506 27.8603 62.6377 27.7776 62.5808C27.3229 62.234 27.2402 61.5819 27.5864 61.1316C27.9327 60.6762 28.5837 60.5934 29.0333 60.9402C29.054 60.9557 30.8832 62.3634 32.728 63.5538C33.2086 63.8643 33.3429 64.5061 33.0329 64.9874C32.8365 65.2927 32.5007 65.4584 32.1648 65.4584H32.17Z" fill="black"/>
  <path d="M40.7835 40.8593C40.7267 40.8593 40.6699 40.8593 40.6078 40.8438C37.2283 40.2642 34.3397 39.6793 34.3087 39.669C33.7506 39.5551 33.3889 39.0065 33.5026 38.4476C33.6163 37.8886 34.1588 37.5263 34.7221 37.6402C34.7531 37.6454 37.6107 38.225 40.9593 38.7995C41.5225 38.8978 41.8997 39.4309 41.8016 39.995C41.7137 40.4971 41.2796 40.8542 40.7835 40.8542V40.8593Z" fill="black"/>
  <path d="M50.7166 81.9948C48.7633 81.9948 46.6395 81.3841 45.4045 79.6399C45.3941 79.6244 45.3735 79.6037 45.3425 79.6037C44.3503 79.5727 42.5055 79.3449 41.3531 78.139C40.7279 77.4869 40.299 76.8245 40.0406 76.1154C40.0148 76.0533 39.8908 76.0223 39.7771 76.0533C38.5937 76.3742 37.2863 76.1103 36.196 75.3288C34.9558 74.4386 34.1548 73.036 34.0618 71.5662C32.1292 71.4212 30.4291 70.1533 29.7625 68.3367C29.1993 66.7944 29.5197 65.2314 30.6255 64.1497C31.411 63.3837 32.7493 63.0784 34.1187 63.3527C35.5862 63.6477 36.8006 64.5482 37.4001 65.78C38.4232 65.2883 39.5549 65.2469 40.6142 65.6661C41.8286 66.1422 42.8156 67.1929 43.2755 68.4867C44.8412 68.316 46.1434 68.6317 47.1407 69.4339C48.2052 70.2826 48.8666 71.6697 49.0527 73.4345C49.0578 73.5018 49.1405 73.5794 49.1818 73.5846C51.5537 73.5225 53.4192 74.7336 53.7499 76.5243C54.029 78.0304 54.9229 78.5479 54.9591 78.5738C55.1865 78.7032 55.3725 78.9205 55.4552 79.169C55.5533 79.4691 55.7497 80.5042 54.2149 81.2754C53.3778 81.6946 52.086 82 50.7115 82L50.7166 81.9948ZM39.8701 73.9676C40.8054 73.9676 41.6529 74.5162 41.9733 75.4012C42.1334 75.836 42.4125 76.2603 42.8362 76.7054C43.5028 77.4041 44.8464 77.518 45.3941 77.5335C46.0711 77.5542 46.686 77.8854 47.0787 78.4392C47.859 79.5364 49.218 79.847 50.2205 79.9142C51.3832 79.9919 52.365 79.7797 52.9593 79.5571C52.4684 79.0085 51.9413 78.1494 51.7087 76.8969C51.5951 76.2655 50.6856 75.6134 49.2232 75.6496C49.2077 75.6496 49.187 75.6496 49.1715 75.6496C48.0812 75.6496 47.1045 74.7646 46.9857 73.6519C46.8978 72.8083 46.624 71.6749 45.8385 71.0434C45.2753 70.5932 44.4743 70.4224 43.4615 70.5414C42.5003 70.6501 41.6322 70.1067 41.3325 69.2165C41.0793 68.4609 40.5212 67.8553 39.8494 67.5862C39.4619 67.4309 38.8521 67.3274 38.1803 67.6897C37.7204 67.9433 37.1675 67.9847 36.6766 67.8139C36.1805 67.6431 35.7826 67.2601 35.5759 66.7788C35.2762 66.075 34.5786 65.5522 33.7001 65.3763C32.9095 65.2158 32.2946 65.397 32.0569 65.6299C31.3282 66.3389 31.5608 67.255 31.69 67.6173C31.9845 68.4195 32.8217 69.3873 34.2169 69.4856C35.2297 69.5581 36.041 70.3913 36.1082 71.4264C36.165 72.27 36.6508 73.1136 37.3845 73.6415C37.7256 73.8848 38.4232 74.2678 39.2241 74.0504C39.4412 73.9935 39.6531 73.9624 39.8649 73.9624L39.8701 73.9676Z" fill="black"/>
  <path d="M27.452 33.6768L33.1207 35.3951C34.2937 35.778 34.9602 37.0098 34.6399 38.2002L28.3201 61.8626C27.979 63.1409 26.6458 63.8758 25.3849 63.4773L19.6594 61.7901C18.4761 61.4175 17.7939 60.1753 18.1195 58.9695L24.5013 35.276C24.8475 33.9925 26.1963 33.2628 27.4571 33.6716L27.452 33.6768Z" fill="#FFE205"/>
  <path d="M26.0829 64.626C25.7419 64.626 25.406 64.5742 25.0701 64.4707L19.3652 62.7887C17.629 62.2401 16.6471 60.4494 17.1174 58.7104L23.4992 35.017C23.7369 34.132 24.3363 33.3764 25.1425 32.9364C25.9537 32.4965 26.8839 32.4085 27.7624 32.6932L33.4207 34.4063C35.1363 34.9652 36.0975 36.7508 35.6376 38.469L29.3178 62.1314C29.0801 63.0268 28.5013 63.7617 27.6952 64.2068C27.1939 64.4811 26.641 64.6208 26.0881 64.6208L26.0829 64.626ZM26.7289 34.5978C26.517 34.5978 26.3103 34.6495 26.1191 34.753C25.8039 34.9238 25.5817 35.2033 25.4887 35.5501L19.1069 59.2435C18.926 59.9111 19.3032 60.5995 19.9595 60.8065L25.6644 62.4885C26.0209 62.6024 26.3775 62.5662 26.6876 62.3954C26.9976 62.2246 27.2198 61.9451 27.3128 61.5983L33.6326 37.936C33.8083 37.2735 33.4362 36.5903 32.7903 36.3833L27.1474 34.6702C27.1474 34.6702 27.1319 34.6702 27.1268 34.6651C26.9976 34.6236 26.858 34.6029 26.7237 34.6029L26.7289 34.5978Z" fill="black"/>
  <path d="M75.3235 69.5114C75.0393 69.5114 74.7551 69.3924 74.5484 69.1647L68.6213 62.452C68.2441 62.0225 68.2854 61.3704 68.7092 60.9926C69.1381 60.6147 69.7891 60.6561 70.1664 61.0805L76.0935 67.7932C76.4707 68.2227 76.4294 68.8748 76.0056 69.2526C75.8093 69.4286 75.5664 69.5114 75.3235 69.5114Z" fill="black"/>
  <path d="M68.9671 74.6243C68.6829 74.6243 68.3935 74.5052 68.192 74.2723L63.4431 68.8743C63.0658 68.4447 63.1072 67.7926 63.5361 67.4148C63.965 67.037 64.6161 67.0784 64.9933 67.5079L69.7422 72.906C70.1195 73.3356 70.0781 73.9877 69.6492 74.3655C69.4528 74.5363 69.21 74.6243 68.9671 74.6243Z" fill="black"/>
  <path d="M63.3293 79.4486C63.0347 79.4486 62.7453 79.3244 62.5386 79.0811L58.9731 74.8579C58.6062 74.4232 58.6579 73.7659 59.0971 73.3984C59.5312 73.031 60.1874 73.0827 60.5543 73.5226L64.1199 77.7458C64.4868 78.1806 64.4351 78.8379 63.9959 79.2053C63.7995 79.371 63.567 79.4486 63.3293 79.4486Z" fill="black"/>
  <rect x="1.5" y="1.5" width="111" height="111" rx="55.5" stroke="#1F88C9" stroke-width="3"/>
</svg>
