<svg width="114" height="114" viewBox="0 0 114 114" fill="none" xmlns="http://www.w3.org/2000/svg">
  <rect x="1.5" y="1.5" width="111" height="111" rx="55.5" fill="white"/>
  <path d="M53.5321 67.1526C53.0685 67.1526 52.6892 66.7727 52.6892 66.3084V64.9958C52.6892 64.5315 53.0685 64.1516 53.5321 64.1516C53.9956 64.1516 54.3749 64.5315 54.3749 64.9958V66.3084C54.3749 66.7727 53.9956 67.1526 53.5321 67.1526Z" fill="black"/>
  <path d="M53.5321 33.0238C53.0685 33.0238 52.6892 32.6439 52.6892 32.1796V30.867C52.6892 30.4027 53.0685 30.0228 53.5321 30.0228C53.9956 30.0228 54.3749 30.4027 54.3749 30.867V32.1796C54.3749 32.6439 53.9956 33.0238 53.5321 33.0238Z" fill="black"/>
  <path d="M71.2222 49.43H69.9116C69.448 49.43 69.0687 49.0501 69.0687 48.5859C69.0687 48.1216 69.448 47.7417 69.9116 47.7417H71.2222C71.6857 47.7417 72.065 48.1216 72.065 48.5859C72.065 49.0501 71.6857 49.43 71.2222 49.43Z" fill="black"/>
  <path d="M37.1468 49.43H35.8361C35.3726 49.43 34.9933 49.0501 34.9933 48.5859C34.9933 48.1216 35.3726 47.7417 35.8361 47.7417H37.1468C37.6103 47.7417 37.9896 48.1216 37.9896 48.5859C37.9896 49.0501 37.6103 49.43 37.1468 49.43Z" fill="black"/>
  <path d="M67.148 63.0671C66.9331 63.0671 66.7181 62.9827 66.5538 62.8181L64.5225 60.7837C64.1938 60.4545 64.1938 59.9184 64.5225 59.5892C64.8512 59.26 65.3864 59.26 65.7151 59.5892L67.7464 61.6236C68.0751 61.9528 68.0751 62.4889 67.7464 62.8181C67.582 62.9827 67.3671 63.0671 67.1522 63.0671H67.148Z" fill="black"/>
  <path d="M41.9466 37.8271C41.7317 37.8271 41.5168 37.7426 41.3524 37.578L39.6246 35.8475C39.2959 35.5183 39.2959 34.9823 39.6246 34.653C39.9533 34.3238 40.4885 34.3238 40.8172 34.653L42.545 36.3836C42.8738 36.7128 42.8738 37.2488 42.545 37.578C42.3807 37.7426 42.1658 37.8271 41.9508 37.8271H41.9466Z" fill="black"/>
  <path d="M65.1167 37.8271C64.9018 37.8271 64.6869 37.7426 64.5225 37.578C64.1938 37.2488 64.1938 36.7128 64.5225 36.3836L66.2504 34.653C66.5791 34.3238 67.1143 34.3238 67.443 34.653C67.7717 34.9823 67.7717 35.5183 67.443 35.8475L65.7151 37.578C65.5508 37.7426 65.3359 37.8271 65.1209 37.8271H65.1167Z" fill="black"/>
  <path d="M39.9154 63.0671C39.7005 63.0671 39.4856 62.9827 39.3212 62.8181C38.9925 62.4889 38.9925 61.9528 39.3212 61.6236L41.3525 59.5892C41.6812 59.26 42.2164 59.26 42.5451 59.5892C42.8738 59.9184 42.8738 60.4545 42.5451 60.7837L40.5139 62.8181C40.3495 62.9827 40.1346 63.0671 39.9196 63.0671H39.9154Z" fill="black"/>
  <path d="M60.6911 66.7477C60.3582 66.7477 60.0463 66.5494 59.9115 66.2244L58.6262 63.1179C58.4492 62.6874 58.6514 62.1935 59.0813 62.0163C59.5111 61.839 60.0042 62.0416 60.1812 62.4721L61.4665 65.5786C61.6435 66.0091 61.4412 66.5029 61.0114 66.6802C60.906 66.7224 60.7965 66.7435 60.6911 66.7435V66.7477Z" fill="black"/>
  <path d="M47.6524 35.2184C47.3194 35.2184 47.0076 35.0242 46.8727 34.695L45.2123 30.6853C45.0353 30.2548 45.2376 29.7609 45.6675 29.5837C46.0973 29.4064 46.5904 29.609 46.7674 30.0395L48.4278 34.0492C48.6048 34.4797 48.4025 34.9736 47.9727 35.1508C47.8673 35.193 47.7577 35.2142 47.6524 35.2142V35.2184Z" fill="black"/>
  <path d="M72.4486 41.5831C72.1157 41.5831 71.8039 41.3847 71.669 41.0597C71.492 40.6292 71.6943 40.1354 72.1241 39.9581L73.6455 39.325C74.0753 39.1477 74.5684 39.3503 74.7454 39.7808C74.9224 40.2113 74.7201 40.7052 74.2902 40.8824L72.7689 41.5156C72.6636 41.5578 72.554 41.5789 72.4486 41.5789V41.5831Z" fill="black"/>
  <path d="M37.82 55.9506C37.487 55.9506 37.1752 55.7523 37.0403 55.4273C36.8633 54.9968 37.0656 54.5029 37.4955 54.3257L39.0168 53.6925C39.4509 53.5153 39.9397 53.7179 40.1167 54.1484C40.2937 54.5789 40.0914 55.0727 39.6616 55.25L38.1402 55.8831C38.0349 55.9253 37.9253 55.9464 37.82 55.9464V55.9506Z" fill="black"/>
  <path d="M74.3405 58.0653C74.2351 58.0653 74.1256 58.0442 74.0202 58.002L72.4989 57.3689C72.069 57.1916 71.8668 56.6978 72.0438 56.2673C72.2208 55.8368 72.7138 55.6342 73.1437 55.8114L74.665 56.4446C75.0949 56.6218 75.2971 57.1157 75.1201 57.5462C74.9853 57.8712 74.6734 58.0695 74.3405 58.0695V58.0653Z" fill="black"/>
  <path d="M39.3371 43.5457C39.2317 43.5457 39.1222 43.5246 39.0168 43.4824L37.4955 42.8492C37.0656 42.672 36.8633 42.1781 37.0403 41.7476C37.2173 41.3171 37.7104 41.1145 38.1402 41.2918L39.6616 41.9249C40.0914 42.1022 40.2937 42.596 40.1167 43.0265C39.9819 43.3515 39.67 43.5499 39.3371 43.5499V43.5457Z" fill="black"/>
  <path d="M59.4054 35.218C59.3 35.218 59.1904 35.1969 59.0851 35.1547C58.6552 34.9774 58.4529 34.4836 58.6299 34.0531L59.9153 30.9508C60.0923 30.5203 60.5853 30.3135 61.0152 30.495C61.445 30.6722 61.6473 31.1661 61.4703 31.5966L60.185 34.6989C60.0501 35.0238 59.7383 35.2222 59.4054 35.2222V35.218Z" fill="black"/>
  <path d="M46.367 66.7474C46.2617 66.7474 46.1521 66.7263 46.0468 66.6841C45.6169 66.5069 45.4146 66.013 45.5916 65.5825L46.877 62.476C47.054 62.0455 47.547 61.8429 47.9769 62.0202C48.4067 62.1975 48.609 62.6913 48.432 63.1218L47.1467 66.2283C47.0118 66.5533 46.6999 66.7517 46.367 66.7517V66.7474Z" fill="black"/>
  <path d="M53.5311 59.9054C53.3794 59.9054 53.2277 59.8632 53.0928 59.783L52.8231 59.6184C52.3511 59.3314 41.765 52.8187 41.765 45.6857C41.765 42.0094 44.7529 39.0168 48.4235 39.0168C50.4168 39.0168 52.2795 39.9074 53.5311 41.4058C54.7827 39.9074 56.6454 39.0168 58.6387 39.0168C62.3093 39.0168 65.2972 42.0094 65.2972 45.6857C65.2972 52.6963 55.3685 58.9304 54.2349 59.6184L53.9652 59.783C53.8303 59.8632 53.6786 59.9054 53.5269 59.9054H53.5311ZM48.4235 40.7052C45.68 40.7052 43.4507 42.9379 43.4507 45.6857C43.4507 51.4428 52.2036 57.2252 53.5311 58.0694C54.8628 57.221 63.6115 51.4343 63.6115 45.6857C63.6115 42.9379 61.3822 40.7052 58.6387 40.7052C56.8182 40.7052 55.1451 41.7013 54.2686 43.3051C54.1211 43.5753 53.8387 43.7441 53.5311 43.7441C53.2235 43.7441 52.9411 43.5753 52.7936 43.3051C51.9213 41.7013 50.244 40.7052 48.4235 40.7052Z" fill="black"/>
  <path d="M60.8766 46.5301C60.413 46.5301 60.0337 46.1502 60.0337 45.6859C60.0337 44.9135 59.4058 44.2846 58.6346 44.2846C58.171 44.2846 57.7917 43.9047 57.7917 43.4405C57.7917 42.9762 58.171 42.5963 58.6346 42.5963C60.3329 42.5963 61.7194 43.9807 61.7194 45.6859C61.7194 46.1502 61.3401 46.5301 60.8766 46.5301Z" fill="black"/>
  <path d="M42.7641 84.939C42.5239 84.939 42.2795 84.8926 42.0435 84.7955C41.3397 84.5043 40.8846 83.8248 40.8846 83.0608V71.9897C40.8846 71.8842 40.8003 71.7998 40.695 71.7998H35.3134C30.1805 71.7998 26 67.617 26 62.4719V34.3279C26 29.187 30.1763 25 35.3134 25H71.7411C76.8782 25 81.0545 29.1828 81.0545 34.3279V62.4762C81.0545 67.617 76.8782 71.804 71.7411 71.804H56.7301C56.6795 71.804 56.6331 71.8251 56.5952 71.8589L44.0832 84.3903C43.725 84.7491 43.2488 84.939 42.7599 84.939H42.7641ZM35.3176 26.6883C31.1118 26.6883 27.6899 30.1156 27.6899 34.3279V62.4762C27.6899 66.6885 31.1118 70.1157 35.3176 70.1157H40.6992C41.7317 70.1157 42.5745 70.9557 42.5745 71.994V83.065C42.5745 83.1494 42.6124 83.2085 42.6925 83.2381C42.7726 83.2718 42.84 83.255 42.899 83.1959L55.411 70.6644C55.765 70.3099 56.237 70.1157 56.7343 70.1157H71.7453C75.9511 70.1157 79.373 66.6885 79.373 62.4762V34.3279C79.373 30.1156 75.9511 26.6883 71.7453 26.6883H35.3176Z" fill="black"/>
  <path d="M74.2358 90C73.7891 90 73.3508 89.827 73.0221 89.4935L62.3686 78.8235L55.3983 78.815C54.9347 78.815 54.5554 78.4351 54.5554 77.9709C54.5554 77.5066 54.9347 77.1267 55.3983 77.1267H62.3475C62.8026 77.1267 63.2451 77.3124 63.5654 77.6332L74.2189 88.3033L74.2779 88.278V78.8488C74.2779 77.8991 75.0491 77.1267 75.9973 77.1267H80.5824C84.0928 77.1267 86.9501 74.265 86.9501 70.7449V46.7752C86.9501 44.6522 85.9007 42.6768 84.1392 41.4866C83.7515 41.2249 83.6503 40.7015 83.9116 40.3132C84.1729 39.9291 84.6955 39.8278 85.0832 40.0853C87.3083 41.5879 88.6315 44.0908 88.6315 46.7752V70.7449C88.6315 75.1936 85.02 78.815 80.5782 78.815H75.9931C75.9931 78.815 75.9594 78.8319 75.9594 78.8488V88.278C75.9594 88.9786 75.5422 89.6033 74.8974 89.8692C74.6825 89.9578 74.4591 90 74.2358 90Z" fill="black"/>
  <path d="M46.6869 49.814C46.0041 49.2568 45.4437 48.6153 45.0897 47.8893C43.8296 45.2893 45.2077 42.9384 47.1378 42.2335C49.0637 41.5328 51.234 42.3854 51.9378 44.3185" fill="#FFE205"/>
  <rect x="1.5" y="1.5" width="111" height="111" rx="55.5" stroke="#1F88C9" stroke-width="3"/>
</svg>
