<svg width="114" height="114" viewBox="0 0 114 114" fill="none" xmlns="http://www.w3.org/2000/svg">
  <rect x="1.5" y="1.5" width="111" height="111" rx="55.5" fill="white"/>
  <path d="M38.5533 81.2468C38.3384 81.2468 38.1235 81.1624 37.9591 80.9978L22.9487 65.9641C22.797 65.8121 22.7085 65.6095 22.7043 65.3943L22.0006 41.9869C21.9921 41.759 22.0806 41.5353 22.2365 41.3749C22.3967 41.2103 22.6116 41.1174 22.8434 41.1174C27.1501 41.1174 29.6364 43.2404 30.2348 47.4314C30.8332 51.6436 31.6929 57.8479 31.6929 57.8479L30.0241 58.08C30.0241 58.08 29.1644 51.8757 28.566 47.6678C28.1278 44.5994 26.6191 43.08 23.7156 42.8394L24.3815 65.006L39.1559 79.8034C39.4846 80.1326 39.4846 80.6686 39.1559 80.9978C38.9916 81.1624 38.7767 81.2468 38.5618 81.2468H38.5533Z" fill="black"/>
  <path d="M50.1379 82.4882C50.1042 82.4882 50.0747 82.4882 50.041 82.484C49.5775 82.4333 49.2445 82.0155 49.2993 81.5512C50.0157 75.2035 49.2151 71.6497 46.4422 68.8768C44.1287 66.5597 42.7128 65.6227 39.3584 64.9601C39.1941 64.9263 39.0423 64.8461 38.9243 64.7279L34.4533 60.2499C33.9096 59.7054 32.026 58.2156 29.3669 60.406L38.1574 69.2102C38.4861 69.5394 38.4861 70.0754 38.1574 70.4046C37.8287 70.7338 37.2935 70.7338 36.9648 70.4046L27.5506 60.9758C27.3905 60.8155 27.302 60.6044 27.302 60.3807C27.302 60.157 27.3905 59.9418 27.5506 59.7856C30.8039 56.5273 33.9475 57.3588 35.6458 59.0597L39.9399 63.3605C43.5724 64.116 45.2707 65.3188 47.6348 67.6866C50.7785 70.8351 51.7435 74.908 50.9765 81.7454C50.9259 82.1759 50.5635 82.4967 50.1421 82.4967L50.1379 82.4882Z" fill="black"/>
  <path d="M53.6818 85.9403H33.644C31.5202 85.9403 29.7966 84.2141 29.7966 82.0869C29.7966 79.9597 31.5202 78.2335 33.644 78.2335H53.6818C55.8057 78.2335 57.5293 79.9597 57.5293 82.0869C57.5293 84.2141 55.8057 85.9403 53.6818 85.9403Z" fill="white"/>
  <path d="M53.6804 89.1563V82.0868H33.6384V89.1563" fill="white"/>
  <path d="M53.6821 89.9999C53.2186 89.9999 52.8393 89.6201 52.8393 89.1558V82.9304H34.4871V89.1558C34.4871 89.6201 34.1079 89.9999 33.6443 89.9999C33.1808 89.9999 32.8015 89.6201 32.8015 89.1558V82.0863C32.8015 81.622 33.1808 81.2422 33.6443 81.2422H53.6821C54.1457 81.2422 54.5249 81.622 54.5249 82.0863V89.1558C54.5249 89.6201 54.1457 89.9999 53.6821 89.9999Z" fill="black"/>
  <path d="M49.1906 86.898C49.1906 87.6198 48.6091 88.2022 47.8885 88.2022C47.1679 88.2022 46.5863 87.6198 46.5863 86.898C46.5863 86.1763 47.1679 85.5939 47.8885 85.5939C48.6091 85.5939 49.1906 86.1763 49.1906 86.898Z" fill="#2E2D2C"/>
  <path d="M75.6905 81.247C75.4756 81.247 75.2607 81.1625 75.0964 80.9979C74.7677 80.6687 74.7677 80.1327 75.0964 79.8035L89.8708 65.0061L90.5366 42.8396C87.6289 43.0801 86.1245 44.5995 85.6863 47.6679C85.0879 51.8758 84.2282 58.0801 84.2282 58.0801L82.5594 57.848C82.5594 57.848 83.4191 51.6395 84.0175 47.4316C84.6117 43.2447 87.098 41.1176 91.4089 41.1176C91.6365 41.1176 91.8556 41.2104 92.0158 41.375C92.1759 41.5396 92.2602 41.7591 92.2517 41.987L91.548 65.3944C91.5396 65.6097 91.4553 65.8122 91.3036 65.9642L76.2932 80.9979C76.1288 81.1625 75.9139 81.247 75.699 81.247H75.6905Z" fill="black"/>
  <path d="M64.1121 82.4875C63.6907 82.4875 63.3241 82.171 63.2777 81.7363C62.5066 74.8989 63.4758 70.826 66.6195 67.6775C68.9836 65.3097 70.6818 64.1026 74.3143 63.3514L78.6084 59.0506C78.9751 58.6834 79.9949 57.8013 81.4993 57.5903C83.2608 57.3455 85.0096 58.0798 86.7036 59.7723C87.0323 60.1015 87.0323 60.6375 86.7036 60.9667L77.2895 70.3955C76.9608 70.7247 76.4256 70.7247 76.0969 70.3955C75.7682 70.0663 75.7682 69.5303 76.0969 69.2011L84.8874 60.3969C83.8044 59.5022 82.7467 59.1181 81.7311 59.2616C80.7071 59.4051 79.9949 60.0466 79.801 60.2408L75.3299 64.7188C75.2119 64.837 75.0602 64.9172 74.8959 64.951C71.5415 65.6094 70.1256 66.5506 67.8121 68.8677C65.0392 71.6448 64.2386 75.1986 64.955 81.5421C65.0055 82.0064 64.6726 82.4242 64.2133 82.4749C64.1796 82.4749 64.1501 82.4791 64.1164 82.4791L64.1121 82.4875Z" fill="black"/>
  <path d="M80.6048 85.9406H60.567C58.4432 85.9406 56.7196 84.2144 56.7196 82.0872C56.7196 79.96 58.4432 78.2338 60.567 78.2338H80.6048C82.7287 78.2338 84.4522 79.96 84.4522 82.0872C84.4522 84.2144 82.7287 85.9406 80.6048 85.9406Z" fill="white"/>
  <path d="M60.5659 89.1563V82.0868H80.6037V89.1563" fill="white"/>
  <path d="M80.604 89.9999C80.1404 89.9999 79.7612 89.6201 79.7612 89.1558V82.9304H61.409V89.1558C61.409 89.6201 61.0297 89.9999 60.5662 89.9999C60.1027 89.9999 59.7234 89.6201 59.7234 89.1558V82.0863C59.7234 81.622 60.1027 81.2422 60.5662 81.2422H80.604C81.0675 81.2422 81.4468 81.622 81.4468 82.0863V89.1558C81.4468 89.6201 81.0675 89.9999 80.604 89.9999Z" fill="black"/>
  <path d="M65.0583 86.898C65.0583 87.6198 65.6399 88.2022 66.3605 88.2022C67.0811 88.2022 67.6626 87.6198 67.6626 86.898C67.6626 86.1763 67.0811 85.5939 66.3605 85.5939C65.6399 85.5939 65.0583 86.1763 65.0583 86.898Z" fill="#2E2D2C"/>
  <path d="M72.6243 59.8948C72.1608 59.8948 71.7815 59.515 71.7815 59.0507V44.5487C71.7815 44.0845 72.1608 43.7046 72.6243 43.7046H76.2526C76.5223 43.7046 76.6235 43.5063 76.6572 43.4218C76.6867 43.3374 76.7372 43.118 76.5265 42.9449L72.0934 39.2857C71.8995 39.1253 71.7857 38.8847 71.7857 38.6357V29.764H67.7908V33.9466C67.7908 34.2716 67.6012 34.5713 67.3062 34.7105C67.0112 34.8498 66.6615 34.8076 66.4128 34.6008L57.1335 26.9404L37.732 42.9449C37.5213 43.118 37.5719 43.3332 37.6014 43.4218C37.6309 43.5063 37.732 43.7046 38.006 43.7046H41.6342C42.0978 43.7046 42.4771 44.0845 42.4771 44.5487V59.0465C42.4771 59.5107 42.0978 59.8906 41.6342 59.8906C41.1707 59.8906 40.7914 59.5107 40.7914 59.0465V45.3929H38.006C37.1041 45.3929 36.3203 44.8442 36.0169 43.9916C35.7135 43.1391 35.9664 42.219 36.6617 41.6408L56.5983 25.1931C56.9102 24.9356 57.3568 24.9356 57.6687 25.1931L66.1052 32.1571V28.9199C66.1052 28.4556 66.4845 28.0758 66.948 28.0758H72.6285C73.0921 28.0758 73.4714 28.4556 73.4714 28.9199V38.239L77.6011 41.645C78.2965 42.219 78.5535 43.1433 78.2459 43.9958C77.9383 44.8484 77.1587 45.3971 76.2569 45.3971H73.4714V59.0549C73.4714 59.5192 73.0921 59.899 72.6285 59.899L72.6243 59.8948Z" fill="black"/>
  <path d="M57.1268 60.9927C56.541 60.9927 55.9848 60.7395 55.5971 60.3005L48.488 52.2476C46.2377 49.6984 46.2882 45.8703 48.606 43.5321C49.8449 42.2828 51.5052 41.6328 53.2414 41.675C54.67 41.7172 56.048 42.2533 57.1268 43.1733C58.2056 42.2533 59.5836 41.7172 61.0121 41.675C62.7609 41.6328 64.4086 42.2828 65.6476 43.5321C67.9653 45.8703 68.0159 49.6984 65.7656 52.2476L58.6565 60.3005C58.2688 60.7395 57.7125 60.9885 57.1268 60.9885V60.9927ZM53.056 43.3591C51.8255 43.3591 50.6751 43.8402 49.8028 44.7223C48.1087 46.4316 48.0876 49.2468 49.7522 51.1292L56.8613 59.1821C56.954 59.2876 57.0678 59.3002 57.1268 59.3045C57.1858 59.3045 57.2996 59.2876 57.3923 59.1821L64.5014 51.1292C66.1659 49.2426 66.1448 46.4274 64.4508 44.7223C63.5448 43.8064 62.3353 43.3337 61.0585 43.3633C59.7774 43.4013 58.6059 43.9499 57.7547 44.9122C57.5945 45.0937 57.367 45.195 57.1226 45.195C56.8824 45.195 56.6506 45.0895 56.4904 44.9122C55.6434 43.9499 54.4719 43.4013 53.1908 43.3633C53.1445 43.3633 53.0982 43.3633 53.0518 43.3633L53.056 43.3591Z" fill="black"/>
  <path d="M62.6649 50.8288C63.2085 50.3814 63.6594 49.8707 63.9417 49.2925C64.9489 47.216 63.849 45.3378 62.3067 44.7765C60.7686 44.2151 59.0324 44.8989 58.4719 46.4436" fill="#FFE205"/>
  <rect x="1.5" y="1.5" width="111" height="111" rx="55.5" stroke="#1F88C9" stroke-width="3"/>
</svg>
