<svg width="40" height="40" viewBox="0 0 40 40" fill="none" xmlns="http://www.w3.org/2000/svg">
  <circle cx="20" cy="20" r="20" fill="currentColor"/>
  <path d="M23.1214 39.7579V25.7784H27.7772L28.6632 19.9966H23.1214V16.2407C23.043 15.3665 23.3658 14.504 23.9989 13.8961C24.6321 13.2882 25.507 13.0008 26.3773 13.1148H28.9052V8.19697C27.4236 7.95491 25.9264 7.82123 24.4254 7.79699C22.3341 7.63902 20.281 8.41951 18.8228 9.92678C17.3647 11.434 16.6525 13.5119 16.8796 15.5967V19.9966H11.7998V25.7764H16.8736V39.757C17.8923 39.917 18.9366 40 20.0002 40C21.062 40 22.1044 39.9173 23.1214 39.7579Z" fill="currentColor"/>
</svg>
