<svg width="40" height="40" viewBox="0 0 40 40" fill="none" xmlns="http://www.w3.org/2000/svg">
  <circle cx="20" cy="20" r="20" fill="currentColor"/>
  <path fill-rule="evenodd" clip-rule="evenodd" d="M15.0494 31.9268L15.0605 31.9273C16.331 31.9828 16.7247 32 19.9933 32C23.2529 32 23.67 32 24.9426 31.9268C25.9382 31.9067 26.9231 31.7181 27.8556 31.3693C29.4655 30.7446 30.7389 29.474 31.3657 27.8669C31.7163 26.9347 31.9055 25.9497 31.9254 24.9541C31.9813 23.6939 32 23.2681 32 20.0213C32 16.7745 32 16.358 31.9254 15.0832C31.9101 14.0749 31.7203 13.0768 31.3644 12.1331C30.7391 10.5254 29.4658 9.25443 27.8556 8.63074C26.9218 8.27985 25.9348 8.09084 24.9373 8.07186L24.9152 8.0709C23.6734 8.0171 23.2788 8 19.9933 8C16.7431 8 16.3247 8 15.0521 8.07186C14.0571 8.09068 13.0727 8.27971 12.1417 8.63074C10.5311 9.25372 9.25748 10.525 8.63298 12.1331C8.28334 13.0632 8.09453 14.0459 8.07463 15.0393L8.07458 15.0404C8.01731 16.3103 8 16.6942 8 19.976C8 23.2242 8 23.642 8.07463 24.9168C8.0941 25.9115 8.28292 26.8956 8.63298 27.827C9.25815 29.433 10.5297 30.7031 12.1377 31.328C13.0671 31.6915 14.0518 31.8941 15.0494 31.9268ZM19.948 10.1065C16.7051 10.1065 16.3535 10.1223 15.0967 10.1788L15.0774 10.1796C14.3178 10.1897 13.5655 10.3297 12.8533 10.5935C11.8016 10.9954 10.9693 11.823 10.5626 12.8716C10.2963 13.5905 10.1561 14.3499 10.1481 15.1164C10.0775 16.4059 10.0775 16.7438 10.0775 19.976C10.0775 23.1697 10.0895 23.5569 10.1481 24.8383C10.1601 25.5971 10.3002 26.3484 10.5626 27.0605C10.9699 28.1084 11.802 28.9355 12.8533 29.3373C13.5651 29.6029 14.3176 29.7429 15.0774 29.7512C16.3674 29.8257 16.7072 29.8257 19.948 29.8257C23.2112 29.8257 23.5542 29.8098 24.8107 29.7515L24.8173 29.7512C25.5774 29.7419 26.3303 29.6019 27.0428 29.3373C28.0881 28.932 28.9149 28.1068 29.3215 27.0632C29.5872 26.3436 29.7274 25.5839 29.7359 24.817H29.7506C29.8079 23.5449 29.8079 23.2056 29.8079 19.9548C29.8079 16.7039 29.7932 16.3619 29.7359 15.0912C29.724 14.3333 29.5839 13.5828 29.3215 12.8716C28.9159 11.8264 28.0889 10.9997 27.0428 10.5935C26.3304 10.3283 25.5775 10.1883 24.8173 10.1796C23.5287 10.1065 23.1916 10.1065 19.948 10.1065ZM14.299 22.328C15.2539 24.6264 17.5014 26.124 19.9933 26.1224C23.3929 26.1158 26.1462 23.364 26.1499 19.9694C26.1494 17.481 24.6476 15.238 22.345 14.2865C20.0425 13.335 17.3926 13.8624 15.6313 15.6227C13.8699 17.383 13.3441 20.0295 14.299 22.328ZM24.9586 13.5888C24.9571 14.38 25.5975 15.023 26.3898 15.026C26.7721 15.027 27.139 14.876 27.4096 14.6064C27.6801 14.3367 27.832 13.9705 27.8316 13.5888C27.8302 12.7976 27.1874 12.157 26.3951 12.157C25.6028 12.157 24.9601 12.7976 24.9586 13.5888ZM15.9956 19.9667C15.9956 17.762 17.7854 15.9747 19.9933 15.9747C22.1991 15.9798 23.986 17.7641 23.9911 19.9667C23.9911 22.1715 22.2012 23.9587 19.9933 23.9587C17.7854 23.9587 15.9956 22.1715 15.9956 19.9667Z" fill="currentColor"/>
</svg>
