<svg width="40" height="40" viewBox="0 0 40 40" fill="none" xmlns="http://www.w3.org/2000/svg">
  <circle cx="20" cy="20" r="20" fill="currentColor"/>
  <path fill-rule="evenodd" clip-rule="evenodd" d="M33.3373 18.835C33.3373 12.86 27.3473 8 19.986 8C12.6248 8 6.63477 12.8612 6.63477 18.835C6.63477 24.1912 11.3848 28.6762 17.801 29.525C18.9031 29.7625 19.1573 30.328 19.021 31.3912C18.9563 31.7815 18.8946 32.1724 18.826 32.5621C18.7622 32.9225 18.6002 33.8378 19.9873 33.2537C21.4123 32.6538 27.676 28.7262 30.4773 25.5025C32.4123 23.38 33.3398 21.2275 33.3398 18.8362L33.3373 18.835ZM15.2759 22.03C15.2759 22.1713 15.1621 22.2669 15.0209 22.2669H11.2696C11.1284 22.2669 11.0146 22.1713 11.0146 22.03V16.2025C11.0146 16.0613 11.1284 15.95 11.2696 15.95H12.2171C12.3571 15.95 12.4721 16.0625 12.4721 16.2025V20.8275H15.0209C15.1609 20.8275 15.2759 20.9425 15.2759 21.0825V22.03ZM16.3322 15.95H17.2784C17.4192 15.95 17.5334 16.0617 17.5334 16.2025V22.0288C17.5334 22.1696 17.4192 22.2669 17.2784 22.2669H16.3322C16.1913 22.2669 16.0772 22.1696 16.0772 22.0288V16.2025C16.0772 16.0617 16.1913 15.95 16.3322 15.95ZM22.7772 15.95H23.7246C23.8659 15.95 23.9797 16.0638 23.9797 16.205V22.0325C23.9797 22.1738 23.8659 22.2669 23.7246 22.2669H22.7834C22.6895 22.2669 22.6319 22.2654 22.5709 22.18L19.9022 18.575V22.035C19.9022 22.1763 19.7884 22.2669 19.6472 22.2669H18.6997C18.5584 22.2669 18.4447 22.1763 18.4447 22.035V16.2075C18.4447 16.0663 18.5584 15.95 18.6997 15.95H19.5974C19.5952 15.9497 19.7498 15.95 19.5974 15.95C19.7498 15.95 19.8095 15.9988 19.8559 16.0638L22.5222 19.6638V16.2025C22.5222 16.0613 22.6359 15.95 22.7772 15.95ZM28.8959 22.2669C29.0372 22.2669 29.1509 22.1713 29.1509 22.03V21.0825C29.1509 20.9425 29.0359 20.8275 28.8959 20.8275H26.3472V19.8438H28.8959C29.0372 19.8438 29.1509 19.73 29.1509 19.5888V18.6425C29.1509 18.5025 29.0359 18.3875 28.8959 18.3875H26.3472V17.4038H28.8959C29.0372 17.4038 29.1509 17.29 29.1509 17.1488V16.2025C29.1509 16.0625 29.0359 15.95 28.8959 15.95H25.1447C25.0034 15.95 24.8897 16.0613 24.8897 16.2025V22.03C24.8897 22.1713 25.0034 22.2669 25.1447 22.2669H28.8959Z" fill="currentColor"/>
</svg>
