<svg width="40" height="40" viewBox="0 0 40 40" fill="none" xmlns="http://www.w3.org/2000/svg">
  <circle cx="20" cy="20" r="20" fill="currentColor"/>
  <path d="M21.0635 14.3337C20.9911 14.111 20.6758 14.111 20.6034 14.3337L19.5299 17.6343C19.4975 17.7339 19.4046 17.8013 19.2998 17.8013H15.8258C15.5915 17.8013 15.494 18.1009 15.6836 18.2385L18.4941 20.2784C18.5789 20.3399 18.6144 20.449 18.582 20.5486L17.5085 23.8492C17.4361 24.0719 17.6912 24.257 17.8808 24.1194L20.6913 22.0795C20.776 22.018 20.8909 22.018 20.9757 22.0795L23.7861 24.1194C23.9757 24.257 24.2308 24.0719 24.1584 23.8492L23.0849 20.5486C23.0525 20.449 23.088 20.3399 23.1728 20.2784L25.9833 18.2385C26.1729 18.1009 26.0754 17.8013 25.8411 17.8013H22.3671C22.2623 17.8013 22.1694 17.7339 22.137 17.6343L21.0635 14.3337Z" fill="black"/>
  <path fill-rule="evenodd" clip-rule="evenodd" d="M9.16635 28.342C9.16635 29.6628 8.88267 30.6438 8.394 31.3312C7.96095 31.9405 7.3669 32.3193 6.66663 32.5C7.20987 33.247 8.02089 33.845 8.34849 34.0702C8.43975 34.1329 8.49349 34.1667 8.49349 34.1667H12.4846C15.6681 34.1667 17.2025 32.2807 18.075 30.8333H26.1355C29.6501 30.8333 32.4992 27.9842 32.4992 24.4697V13.8636C32.4992 10.3491 29.6501 7.5 26.1355 7.5H15.5295C12.0149 7.5 9.16585 10.3491 9.16585 13.8636C9.14383 13.8636 9.14762 15.6579 9.15464 18.9714C9.15966 21.3475 9.16635 24.5049 9.16635 28.342ZM11.2352 17.6532C11.234 17.0025 11.233 16.4329 11.2327 15.947H11.2492V13.8636C11.2492 11.4997 13.1655 9.58333 15.5295 9.58333H26.1355C28.4995 9.58333 30.4158 11.4997 30.4158 13.8636V24.4697C30.4158 26.8336 28.4995 28.75 26.1355 28.75H16.8983L16.2908 29.7578C15.581 30.9353 14.6014 32.0833 12.4846 32.0833H10.382C10.9898 31.0168 11.2497 29.7378 11.2497 28.342C11.2497 24.5027 11.243 21.3431 11.238 18.9671L11.2352 17.6532ZM11.2409 14.0182L11.241 14.0165L11.2411 14.0141L11.2409 14.0182Z" fill="black"/>
</svg>
