<svg width="40" height="40" viewBox="0 0 40 40" fill="none" xmlns="http://www.w3.org/2000/svg">
  <circle cx="20" cy="20" r="20" fill="currentColor"/>
  <path fill-rule="evenodd" clip-rule="evenodd" d="M31.9943 30H27.993C28.2684 20.1811 19.8261 11.7313 10 12.007V8.0057C21.9856 7.73219 32.2677 18.0209 31.9943 30ZM23.9909 30H19.9871C20.2721 24.5045 15.5056 19.7274 10 20.0129V16.0091C17.6663 15.7301 24.2696 22.342 23.9909 30ZM16 27C16 28.6569 14.6569 30 13 30C11.3431 30 10 28.6569 10 27C10 25.3431 11.3431 24 13 24C14.6569 24 16 25.3431 16 27Z" fill="currentColor"/>
</svg>
