<svg width="40" height="40" viewBox="0 0 40 40" fill="none" xmlns="http://www.w3.org/2000/svg">
  <circle cx="20" cy="20" r="20" fill="currentColor"/>
  <path fill-rule="evenodd" clip-rule="evenodd" d="M7.22887 19.7827C9.15934 18.7042 11.2704 17.7693 13.3252 16.8594C13.8225 16.6392 14.3166 16.4204 14.804 16.2015C19.1064 14.3608 23.4258 12.5523 27.7888 10.8684C28.6376 10.5814 30.163 10.3009 30.3125 11.5768C30.2545 12.8553 30.0687 14.1286 29.8832 15.4002L29.8824 15.4053C29.8061 15.9283 29.7299 16.4511 29.6626 16.9738C29.1659 20.3172 28.6038 23.6511 28.0418 26.9837L28.0377 27.0084C27.9374 27.6031 27.8371 28.1978 27.7371 28.7927C27.5094 30.1035 25.8903 30.7821 24.8543 29.9433C24.2431 29.5244 23.6306 29.1066 23.018 28.6889L23.0018 28.6778C21.1249 27.3974 19.247 26.1162 17.3979 24.8033C16.5927 23.9736 17.3394 22.782 18.0584 22.1894C18.884 21.3642 19.7297 20.5889 20.5724 19.8165L20.5758 19.8134C21.8248 18.6683 23.0672 17.5293 24.2271 16.2428C24.7181 15.0403 23.3908 15.913 22.8006 16.301L22.7731 16.3191C22.7436 16.3384 22.7164 16.3563 22.6915 16.3725C22.0068 16.851 21.3262 17.3367 20.6454 17.8226L20.6214 17.8398C18.5191 19.3404 16.4153 20.8419 14.1859 22.1408C12.8288 22.8985 11.2702 22.3949 9.87232 21.9432C9.71294 21.8917 9.55555 21.8409 9.40087 21.7926C9.21594 21.715 9.01934 21.6373 8.82056 21.5588L8.81749 21.5576C7.56058 21.0608 6.22086 20.5313 7.22887 19.7827Z" fill="currentColor"/>
</svg>
