<svg width="40" height="40" viewBox="0 0 40 40" fill="none" xmlns="http://www.w3.org/2000/svg">
  <circle cx="20" cy="20" r="20" fill="currentColor"/>
  <path fill-rule="evenodd" clip-rule="evenodd" d="M28.8035 12.605C29.7672 12.8645 30.5271 13.6244 30.7866 14.5882C31.2684 16.3489 31.2499 20.0185 31.2499 20.0185C31.2499 20.0185 31.2499 23.6697 30.7866 25.4304C30.5271 26.3941 29.7672 27.154 28.8035 27.4135C27.0428 27.8768 20 27.8768 20 27.8768C20 27.8768 12.9757 27.8768 11.1964 27.3949C10.2327 27.1355 9.47281 26.3756 9.21334 25.4118C8.75 23.6697 8.75 20 8.75 20C8.75 20 8.75 16.3489 9.21334 14.5882C9.47281 13.6244 10.2512 12.846 11.1964 12.5865C12.9571 12.1232 20 12.1232 20 12.1232C20 12.1232 27.0428 12.1232 28.8035 12.605ZM23.614 20L17.7573 23.3731V16.6268L23.614 20Z" fill="currentColor"/>
</svg>
