<svg width="24" height="24" viewBox="0 0 24 24" fill="none" xmlns="http://www.w3.org/2000/svg">
    <path d="M13 18.5H9V6.5H13V8.5C13.8526 7.41525 15.1456 6.76857 16.525 6.737C19.0056 6.75077 21.0072 8.76938 21 11.25V18.5H17V11.75C16.84 10.6326 15.8818 9.80358 14.753 9.806C14.2593 9.82161 13.7932 10.0378 13.4624 10.4046C13.1316 10.7715 12.9646 11.2573 13 11.75V18.5ZM7 18.5H3V6.5H7V18.5ZM5 5.5C3.89543 5.5 3 4.60457 3 3.5C3 2.39543 3.89543 1.5 5 1.5C6.10457 1.5 7 2.39543 7 3.5C7 4.03043 6.78929 4.53914 6.41421 4.91421C6.03914 5.28929 5.53043 5.5 5 5.5Z" fill="#84949C"/>
</svg>
