<svg width="24" height="24" viewBox="0 0 24 24" fill="none" xmlns="http://www.w3.org/2000/svg">
  <path d="M17.67 22C18.9568 22 20 20.9568 20 19.67V7.82842C20 7.03278 19.6839 6.26972 19.1213 5.70711L16.2929 2.87868C15.7303 2.31607 14.9672 2 14.1716 2H7.33C6.04318 2 5 3.04318 5 4.33V7.5C5 7.77614 5.22386 8 5.5 8H6.5C6.77614 8 7 7.77614 7 7.5V4.33C7 4.14775 7.14775 4 7.33 4H14.5C14.7761 4 15 4.22386 15 4.5V6.5C15 6.77614 15.2239 7 15.5 7H17.5C17.7761 7 18 7.22386 18 7.5V19.67C18 19.8523 17.8523 20 17.67 20H7.33C7.14775 20 7 19.8523 7 19.67V18.5C7 18.2239 6.77614 18 6.5 18H5.5C5.22386 18 5 18.2239 5 18.5V19.67C5 20.9568 6.04318 22 7.33 22H17.67Z" fill="#5E6D74"/>
  <path d="M5 13V12H6C6.27614 12 6.5 12.2239 6.5 12.5C6.5 12.7761 6.27614 13 6 13H5Z" fill="#5E6D74"/>
  <path d="M9.5 14H9V12H9.5C10.0523 12 10.5 12.4477 10.5 13C10.5 13.5523 10.0523 14 9.5 14Z" fill="#5E6D74"/>
  <path fill-rule="evenodd" clip-rule="evenodd" d="M4 9C2.89543 9 2 9.89543 2 11V15C2 16.1046 2.89543 17 4 17H15C16.1046 17 17 16.1046 17 15V11C17 9.89543 16.1046 9 15 9H4ZM4 15V11H6C6.82843 11 7.5 11.6716 7.5 12.5C7.5 13.3284 6.82843 14 6 14H5V15H4ZM8 11V15H9.5C10.6046 15 11.5 14.1046 11.5 13C11.5 11.8954 10.6046 11 9.5 11H8ZM12 11H15V12H13V12.5H14.5V13.5H13V15H12V11Z" fill="#5E6D74"/>
</svg>
