<svg width="24" height="24" viewBox="0 0 24 24" fill="none" xmlns="http://www.w3.org/2000/svg">
  <path d="M20 19.67C20 20.9568 18.9568 22 17.67 22H7.33C6.04318 22 5 20.9568 5 19.67V18.5C5 18.2239 5.22386 18 5.5 18H6.5C6.77614 18 7 18.2239 7 18.5V19.67C7 19.8523 7.14775 20 7.33 20H17.67C17.8523 20 18 19.8523 18 19.67V7.5C18 7.22386 17.7761 7 17.5 7H15.5C15.2239 7 15 6.77614 15 6.5V4.5C15 4.22386 14.7761 4 14.5 4H7.33C7.14775 4 7 4.14775 7 4.33V7.5C7 7.77614 6.77614 8 6.5 8H5.5C5.22386 8 5 7.77614 5 7.5V4.33C5 3.04318 6.04318 2 7.33 2H14.1716C14.9672 2 15.7303 2.31607 16.2929 2.87868L19.1213 5.70711C19.6839 6.26972 20 7.03278 20 7.82842V19.67Z" fill="#5E6D74"/>
  <path d="M12 12V13H13.5C13.7761 13 14 12.7761 14 12.5C14 12.2239 13.7761 12 13.5 12H12Z" fill="#5E6D74"/>
  <path fill-rule="evenodd" clip-rule="evenodd" d="M2 11C2 9.89543 2.89543 9 4 9H15C16.1046 9 17 9.89543 17 11V15C17 16.1046 16.1046 17 15 17H4C2.89543 17 2 16.1046 2 15V11ZM4 12V11H8V12.1534L5.48187 14H8V15H4V13.8466L6.51813 12H4ZM11 15V11H13.5C14.3284 11 15 11.6716 15 12.5C15 13.3284 14.3284 14 13.5 14H12V15H11ZM9 11V15H10V11H9Z" fill="#5E6D74"/>
</svg>
