<svg width="20" height="20" viewBox="0 0 20 20" fill="none" xmlns="http://www.w3.org/2000/svg">
  <path fill-rule="evenodd" clip-rule="evenodd" d="M10 20C15.5228 20 20 15.5228 20 10C20 4.47715 15.5228 0 10 0C4.47715 0 0 4.47715 0 10C0 15.5228 4.47715 20 10 20ZM4.73484 5.97228L8.76257 10L4.73484 14.0277C4.53958 14.223 4.53958 14.5396 4.73484 14.7348L5.26517 15.2652C5.46043 15.4604 5.77701 15.4604 5.97228 15.2652L10 11.2374L14.0277 15.2652C14.223 15.4604 14.5396 15.4604 14.7348 15.2652L15.2652 14.7348C15.4604 14.5396 15.4604 14.223 15.2652 14.0277L11.2374 10L15.2652 5.97228C15.4604 5.77702 15.4604 5.46043 15.2652 5.26517L14.7348 4.73484C14.5396 4.53958 14.223 4.53958 14.0277 4.73484L10 8.76257L5.97228 4.73484C5.77702 4.53958 5.46043 4.53958 5.26517 4.73484L4.73484 5.26517C4.53958 5.46043 4.53958 5.77701 4.73484 5.97228Z" fill="currentColor"/>
</svg>
