<svg width="24" height="24" viewBox="0 0 24 24" fill="none" xmlns="http://www.w3.org/2000/svg">
<path d="M12.0336 13.3849L18.2298 19.5795C18.4251 19.7747 18.7416 19.7747 18.9369 19.5795L19.6463 18.8702C19.8416 18.675 19.8416 18.3583 19.6463 18.163L13.4502 11.9687L19.5836 5.83696C19.779 5.64169 19.779 5.32503 19.5836 5.12976L18.8742 4.42051C18.6789 4.22531 18.3624 4.22531 18.1672 4.42051L12.0336 10.5524L5.83281 4.35341C5.63756 4.15821 5.32105 4.15821 5.1258 4.35341L4.41635 5.06265C4.22102 5.25793 4.22102 5.57459 4.41635 5.76986L10.6169 11.9687L4.3537 18.2301C4.15837 18.4254 4.15837 18.7421 4.3537 18.9373L5.06315 19.6466C5.2584 19.8418 5.57491 19.8418 5.77016 19.6466L12.0336 13.3849Z" fill="#FABC2C"/>
</svg>
