<svg width="40" height="40" viewBox="0 0 40 40" fill="none" xmlns="http://www.w3.org/2000/svg">
  <rect width="40" height="40" rx="4" fill="currentColor"/>
  <path d="M13.75 10C11.6789 10 10 11.6789 10 13.75V21.25C10 23.3211 11.6789 25 13.75 25H21.25C23.3211 25 25 23.3211 25 21.25V13.75C25 11.6789 23.3211 10 21.25 10H13.75Z" fill="currentColor"/>
  <path d="M18.75 30C16.6789 30 15 28.3211 15 26.25H17.5C17.5 26.9404 18.0596 27.5 18.75 27.5H26.25C26.9404 27.5 27.5 26.9404 27.5 26.25V18.75C27.5 18.0596 26.9404 17.5 26.25 17.5V15C28.3211 15 30 16.6789 30 18.75V26.25C30 28.3211 28.3211 30 26.25 30H18.75Z" fill="currentColor"/>
</svg>
