<svg width="20" height="20" viewBox="0 0 20 20" fill="none" xmlns="http://www.w3.org/2000/svg">
  <path d="M16.667 15.8333H3.33366C2.41318 15.8333 1.66699 15.0871 1.66699 14.1666V5.76079C1.70583 4.86875 2.44077 4.16578 3.33366 4.16663H16.667C17.5875 4.16663 18.3337 4.91282 18.3337 5.83329V14.1666C18.3337 15.0871 17.5875 15.8333 16.667 15.8333ZM3.33366 7.38996V14.1666H16.667V7.38996L11.2416 11.6842C10.5142 12.2599 9.48644 12.2599 8.75908 11.6842L3.33366 7.38996ZM4.00033 5.83329L9.68666 10.414C9.86976 10.5615 10.1309 10.5615 10.314 10.414L16.0003 5.83329H4.00033Z" fill="currentColor"/>
</svg>
