<svg width="16" height="16" viewBox="0 0 16 16" fill="none" xmlns="http://www.w3.org/2000/svg">
  <path d="M7.99988 9.5C8.82831 9.5 9.49988 8.82843 9.49988 8C9.49988 7.17157 8.82831 6.5 7.99988 6.5C7.17145 6.5 6.49988 7.17157 6.49988 8C6.49988 8.82843 7.17145 9.5 7.99988 9.5Z" fill="#84949C"/>
  <path fill-rule="evenodd" clip-rule="evenodd" d="M1.27127 7.67092C1.142 7.87144 1.142 8.12857 1.27127 8.32909C2.69516 10.5376 5.17675 12 7.9999 12C10.8231 12 13.3047 10.5376 14.7285 8.32908C14.8578 8.12857 14.8578 7.87143 14.7285 7.67091C13.3047 5.46236 10.8231 4 7.99991 4C5.17676 4 2.69516 5.46236 1.27127 7.67092ZM10.4999 8C10.4999 9.38071 9.38059 10.5 7.99988 10.5C6.61917 10.5 5.49988 9.38071 5.49988 8C5.49988 6.61929 6.61917 5.5 7.99988 5.5C9.38059 5.5 10.4999 6.61929 10.4999 8Z" fill="#84949C"/>
</svg>
