<svg width="24" height="24" viewBox="0 0 24 24" fill="none" xmlns="http://www.w3.org/2000/svg"> <mask id="path-1-inside-1_733_13178" fill="white"> <path d="M3 6.5C3 6.22386 3.22386 6 3.5 6H20.5C20.7761 6 21 6.22386 21 6.5V7.5C21 7.77614 20.7761 8 20.5 8H3.5C3.22386 8 3 7.77614 3 7.5V6.5Z"/> <path d="M6 11.5C6 11.2239 6.22386 11 6.5 11H17.5C17.7761 11 18 11.2239 18 11.5V12.5C18 12.7761 17.7761 13 17.5 13H6.5C6.22386 13 6 12.7761 6 12.5V11.5Z"/> <path d="M9 16.5C9 16.2239 9.22386 16 9.5 16H14.5C14.7761 16 15 16.2239 15 16.5V17.5C15 17.7761 14.7761 18 14.5 18H9.5C9.22386 18 9 17.7761 9 17.5V16.5Z"/> </mask> <path d="M3.5 4C2.11929 4 1 5.11929 1 6.5H5C5 7.32843 4.32843 8 3.5 8V4ZM20.5 4H3.5V8H20.5V4ZM23 6.5C23 5.11929 21.8807 4 20.5 4V8C19.6716 8 19 7.32843 19 6.5H23ZM23 7.5V6.5H19V7.5H23ZM20.5 10C21.8807 10 23 8.88071 23 7.5H19C19 6.67157 19.6716 6 20.5 6V10ZM3.5 10H20.5V6H3.5V10ZM1 7.5C1 8.88071 2.11929 10 3.5 10V6C4.32843 6 5 6.67157 5 7.5H1ZM1 6.5V7.5H5V6.5H1ZM6.5 9C5.11929 9 4 10.1193 4 11.5H8C8 12.3284 7.32843 13 6.5 13V9ZM17.5 9H6.5V13H17.5V9ZM20 11.5C20 10.1193 18.8807 9 17.5 9V13C16.6716 13 16 12.3284 16 11.5H20ZM20 12.5V11.5H16V12.5H20ZM17.5 15C18.8807 15 20 13.8807 20 12.5H16C16 11.6716 16.6716 11 17.5 11V15ZM6.5 15H17.5V11H6.5V15ZM4 12.5C4 13.8807 5.11929 15 6.5 15V11C7.32843 11 8 11.6716 8 12.5H4ZM4 11.5V12.5H8V11.5H4ZM9.5 14C8.11929 14 7 15.1193 7 16.5H11C11 17.3284 10.3284 18 9.5 18V14ZM14.5 14H9.5V18H14.5V14ZM17 16.5C17 15.1193 15.8807 14 14.5 14V18C13.6716 18 13 17.3284 13 16.5H17ZM17 17.5V16.5H13V17.5H17ZM14.5 20C15.8807 20 17 18.8807 17 17.5H13C13 16.6716 13.6716 16 14.5 16V20ZM9.5 20H14.5V16H9.5V20ZM7 17.5C7 18.8807 8.11929 20 9.5 20V16C10.3284 16 11 16.6716 11 17.5H7ZM7 16.5V17.5H11V16.5H7Z" fill="#809098" mask="url(#path-1-inside-1_733_13178)"/> </svg>
