<svg width="20" height="20" viewBox="0 0 20 20" fill="none" xmlns="http://www.w3.org/2000/svg">
  <path d="M9 4.5C9 4.22386 9.22386 4 9.5 4H10.5C10.7761 4 11 4.22386 11 4.5V5.5C11 5.77614 10.7761 6 10.5 6H9.5C9.22386 6 9 5.77614 9 5.5V4.5Z" fill="#C7D2D7"/>
  <path d="M9 8C9 7.72386 9.22386 7.5 9.5 7.5H10.5C10.7761 7.5 11 7.72386 11 8V15.5C11 15.7761 10.7761 16 10.5 16H9.5C9.22386 16 9 15.7761 9 15.5V8Z" fill="#C7D2D7"/>
  <path fill-rule="evenodd" clip-rule="evenodd" d="M10 20C15.5228 20 20 15.5228 20 10C20 4.47715 15.5228 0 10 0C4.47715 0 0 4.47715 0 10C0 15.5228 4.47715 20 10 20ZM18 10C18 14.4183 14.4183 18 10 18C5.58172 18 2 14.4183 2 10C2 5.58172 5.58172 2 10 2C14.4183 2 18 5.58172 18 10Z" fill="#C7D2D7"/>
</svg>
