<svg width="24" height="24" viewBox="0 0 24 24" fill="none" xmlns="http://www.w3.org/2000/svg">
  <path d="M9.5 2.57832C3.3125 1.53145 2 4.17207 2 6.25021C2 8.32834 3.99176 10.283 9.5 10.0002L8.94024 11.7728C3.99176 12.158 2 10.0002 2 10.0002C2 12.1464 2.43675 13.478 3.99176 14.4182C5.49472 15.327 8.11197 15.1942 8.11197 15.1942L7.51221 16.8451C1.44655 16.8451 0.00617623 13.273 0.00617623 10.0002L0 6.00083L0.00617623 6.00025C0.00617623 2.65645 3.33538 -0.593539 9.98312 1.05086L9.5 2.57832Z" fill="#192024"/>
  <path d="M13.1964 14.7669L10.7649 21.0002L20.9268 10.2107L15.0429 11.3229L16.0976 8.59231L19.8537 8.63473L22 3.73704H9.12196L7.51221 8.59231H11.8049L9.1606 16.1615L13.1964 14.7669Z" fill="#192024"/>
</svg>
