<svg width="24" height="24" viewBox="0 0 24 24" fill="none" xmlns="http://www.w3.org/2000/svg">
<path fill-rule="evenodd" clip-rule="evenodd" d="M16 10.5C16 13.5376 13.5376 16 10.5 16C7.46243 16 5 13.5376 5 10.5C5 7.46243 7.46243 5 10.5 5C13.5376 5 16 7.46243 16 10.5ZM15.3585 16.7727C15.1814 16.5956 14.9015 16.5785 14.6939 16.7187C13.4968 17.5276 12.0535 18 10.5 18C6.35786 18 3 14.6421 3 10.5C3 6.35786 6.35786 3 10.5 3C14.6421 3 18 6.35786 18 10.5C18 12.0535 17.5276 13.4968 16.7187 14.6939C16.5785 14.9015 16.5956 15.1814 16.7727 15.3585L21.0607 19.6464C21.2559 19.8417 21.2559 20.1583 21.0607 20.3536L20.3536 21.0607C20.1583 21.2559 19.8417 21.2559 19.6464 21.0607L15.3585 16.7727Z" fill="currentColor"/>
</svg>
