<svg width="24" height="24" viewBox="0 0 24 24" fill="none" xmlns="http://www.w3.org/2000/svg">
<path fill-rule="evenodd" clip-rule="evenodd" d="M12 22C17.5228 22 22 17.5228 22 12C22 6.47715 17.5228 2 12 2C6.47715 2 2 6.47715 2 12C2 17.5228 6.47715 22 12 22ZM17.8536 9.56066C18.0488 9.3654 18.0488 9.04882 17.8536 8.85355L17.1464 8.14645C16.9512 7.95118 16.6346 7.95118 16.4393 8.14645L10.5 14.0858L7.56066 11.1464C7.3654 10.9512 7.04882 10.9512 6.85355 11.1464L6.14645 11.8536C5.95118 12.0488 5.95118 12.3654 6.14645 12.5607L9.79289 16.2071C10.1834 16.5976 10.8166 16.5976 11.2071 16.2071L17.8536 9.56066Z" fill="#192024"/>
</svg>
