<svg width="24" height="24" viewBox="0 0 24 24" fill="none" xmlns="http://www.w3.org/2000/svg">
<path d="M11.5 6C11.2239 6 11 5.77614 11 5.5V2.5C11 2.22386 11.2239 2 11.5 2H12.5C12.7761 2 13 2.22386 13 2.5V5.5C13 5.77614 12.7761 6 12.5 6H11.5Z" fill="currentColor"/>
<path d="M16 12C16 14.2091 14.2091 16 12 16C9.79086 16 8 14.2091 8 12C8 9.79086 9.79086 8 12 8C14.2091 8 16 9.79086 16 12Z" fill="currentColor"/>
<path d="M21.5 13C21.7761 13 22 12.7761 22 12.5V11.5C22 11.2239 21.7761 11 21.5 11H18.5C18.2239 11 18 11.2239 18 11.5V12.5C18 12.7761 18.2239 13 18.5 13L21.5 13Z" fill="currentColor"/>
<path d="M6 12.5C6 12.7761 5.77614 13 5.5 13H2.5C2.22386 13 2 12.7761 2 12.5V11.5C2 11.2239 2.22386 11 2.5 11H5.5C5.77614 11 6 11.2239 6 11.5V12.5Z" fill="currentColor"/>
<path d="M11 21.5C11 21.7761 11.2239 22 11.5 22H12.5C12.7761 22 13 21.7761 13 21.5L13 18.5C13 18.2239 12.7761 18 12.5 18H11.5C11.2239 18 11 18.2239 11 18.5L11 21.5Z" fill="currentColor"/>
<path d="M4.57538 18.0104C4.38012 18.2057 4.38012 18.5223 4.57538 18.7175L5.28248 19.4246C5.47775 19.6199 5.79433 19.6199 5.98959 19.4246L8.11091 17.3033C8.30617 17.108 8.30617 16.7915 8.11091 16.5962L7.4038 15.8891C7.20854 15.6938 6.89196 15.6938 6.6967 15.8891L4.57538 18.0104Z" fill="currentColor"/>
<path d="M15.8891 7.40381C15.6938 7.20854 15.6938 6.89196 15.8891 6.6967L18.0104 4.57538C18.2057 4.38012 18.5223 4.38012 18.7175 4.57538L19.4246 5.28249C19.6199 5.47775 19.6199 5.79433 19.4246 5.98959L17.3033 8.11091C17.108 8.30617 16.7915 8.30617 16.5962 8.11091L15.8891 7.40381Z" fill="currentColor"/>
<path d="M5.98959 4.57557C5.79433 4.38031 5.47775 4.38031 5.28248 4.57557L4.57538 5.28268C4.38011 5.47794 4.38011 5.79452 4.57538 5.98978L6.6967 8.1111C6.89196 8.30637 7.20854 8.30637 7.4038 8.1111L8.11091 7.404C8.30617 7.20873 8.30617 6.89215 8.11091 6.69689L5.98959 4.57557Z" fill="currentColor"/>
<path d="M16.5962 15.8893C16.7915 15.694 17.108 15.694 17.3033 15.8893L19.4246 18.0106C19.6199 18.2059 19.6199 18.5224 19.4246 18.7177L18.7175 19.4248C18.5222 19.6201 18.2057 19.6201 18.0104 19.4248L15.8891 17.3035C15.6938 17.1082 15.6938 16.7916 15.8891 16.5964L16.5962 15.8893Z" fill="currentColor"/>
</svg>
