<svg width="20" height="20" viewBox="0 0 20 20" fill="none" xmlns="http://www.w3.org/2000/svg">
  <path d="M10.8333 15.4167H7.5V5.41667H10.8333V7.08333C11.5439 6.17938 12.6214 5.64048 13.7708 5.61417C15.838 5.62564 17.506 7.30782 17.5 9.375V15.4167H14.1667V9.79167C14.0334 8.86052 13.2348 8.16965 12.2942 8.17167C11.8827 8.18467 11.4944 8.36481 11.2187 8.67052C10.943 8.97622 10.8039 9.38108 10.8333 9.79167V15.4167ZM5.83333 15.4167H2.5V5.41667H5.83333V15.4167ZM4.16667 4.58333C3.24619 4.58333 2.5 3.83714 2.5 2.91667C2.5 1.99619 3.24619 1.25 4.16667 1.25C5.08714 1.25 5.83333 1.99619 5.83333 2.91667C5.83333 3.35869 5.65774 3.78262 5.34518 4.09518C5.03262 4.40774 4.60869 4.58333 4.16667 4.58333Z" fill="currentColor"/>
</svg>
