<svg width="157" height="42" viewBox="0 0 157 42" fill="none" xmlns="http://www.w3.org/2000/svg">
  <path fill-rule="evenodd" clip-rule="evenodd" d="M41.9883 11.762L38.9209 30.5743C38.775 31.4716 37.594 31.7613 36.7707 31.1099C34.2668 29.1275 31.8708 27.2311 29.5747 25.4146C28.5495 24.6033 28.3897 23.2305 29.207 22.3612C31.1214 20.3209 33.0458 18.2706 34.9802 16.2103C35.3159 15.8526 34.7644 15.359 34.3407 15.6368C31.3212 17.6072 28.3597 19.5415 25.4521 21.44C24.8287 21.8476 24.0173 21.9036 23.3239 21.5938C21.7013 20.8684 20.1206 20.161 18.5819 19.4736C17.7466 19.0999 17.8305 17.9329 18.7058 17.6451L40.1878 10.613C41.111 10.3113 42.1202 10.9467 41.9883 11.7601V11.762Z" fill="white"/>
  <path d="M59.8438 27H57.4219V17.5938H54.3203V15.5781H62.9453V17.5938H59.8438V27ZM68.4528 19.7969C67.9476 19.7969 67.5518 19.9583 67.2653 20.2812C66.9789 20.599 66.8148 21.0521 66.7731 21.6406H70.1169C70.1065 21.0521 69.9528 20.599 69.6559 20.2812C69.3591 19.9583 68.958 19.7969 68.4528 19.7969ZM68.7887 27.1562C67.3825 27.1562 66.2835 26.7682 65.4919 25.9922C64.7002 25.2161 64.3044 24.1172 64.3044 22.6953C64.3044 21.2318 64.669 20.1016 65.3981 19.3047C66.1325 18.5026 67.1455 18.1016 68.4372 18.1016C69.6716 18.1016 70.6325 18.4531 71.32 19.1562C72.0075 19.8594 72.3512 20.8307 72.3512 22.0703V23.2266H66.7184C66.7445 23.9036 66.945 24.4323 67.32 24.8125C67.695 25.1927 68.221 25.3828 68.8981 25.3828C69.4242 25.3828 69.9216 25.3281 70.3903 25.2188C70.8591 25.1094 71.3486 24.9349 71.8591 24.6953V26.5391C71.4424 26.7474 70.9971 26.901 70.5231 27C70.0492 27.1042 69.471 27.1562 68.7887 27.1562ZM76.9916 27H74.6087V14.8438H76.9916V27ZM83.4366 19.7969C82.9314 19.7969 82.5355 19.9583 82.2491 20.2812C81.9626 20.599 81.7985 21.0521 81.7569 21.6406H85.1006C85.0902 21.0521 84.9366 20.599 84.6397 20.2812C84.3428 19.9583 83.9418 19.7969 83.4366 19.7969ZM83.7725 27.1562C82.3662 27.1562 81.2673 26.7682 80.4756 25.9922C79.684 25.2161 79.2881 24.1172 79.2881 22.6953C79.2881 21.2318 79.6527 20.1016 80.3819 19.3047C81.1162 18.5026 82.1293 18.1016 83.4209 18.1016C84.6553 18.1016 85.6162 18.4531 86.3037 19.1562C86.9912 19.8594 87.335 20.8307 87.335 22.0703V23.2266H81.7022C81.7282 23.9036 81.9287 24.4323 82.3037 24.8125C82.6787 25.1927 83.2048 25.3828 83.8819 25.3828C84.4079 25.3828 84.9053 25.3281 85.3741 25.2188C85.8428 25.1094 86.3324 24.9349 86.8428 24.6953V26.5391C86.4261 26.7474 85.9808 26.901 85.5069 27C85.0329 27.1042 84.4548 27.1562 83.7725 27.1562ZM97.1941 18.2656V19.4766L95.8269 19.8281C96.0769 20.2188 96.2019 20.6562 96.2019 21.1406C96.2019 22.0781 95.8737 22.8099 95.2175 23.3359C94.5665 23.8568 93.6602 24.1172 92.4987 24.1172L92.0691 24.0938L91.7175 24.0547C91.4727 24.2422 91.3503 24.4505 91.3503 24.6797C91.3503 25.0234 91.7878 25.1953 92.6628 25.1953H94.1472C95.1055 25.1953 95.8347 25.401 96.3347 25.8125C96.8399 26.224 97.0925 26.8281 97.0925 27.625C97.0925 28.6458 96.6654 29.4375 95.8112 30C94.9623 30.5625 93.7409 30.8438 92.1472 30.8438C90.9284 30.8438 89.9961 30.6302 89.3503 30.2031C88.7097 29.7812 88.3894 29.1875 88.3894 28.4219C88.3894 27.8958 88.5534 27.4557 88.8816 27.1016C89.2097 26.7474 89.6915 26.4948 90.3269 26.3438C90.0821 26.2396 89.8685 26.0703 89.6862 25.8359C89.504 25.5964 89.4128 25.3438 89.4128 25.0781C89.4128 24.7448 89.5092 24.4688 89.7019 24.25C89.8946 24.026 90.1732 23.8073 90.5378 23.5938C90.0795 23.3958 89.7149 23.0781 89.4441 22.6406C89.1784 22.2031 89.0456 21.6875 89.0456 21.0938C89.0456 20.1406 89.3555 19.4036 89.9753 18.8828C90.5951 18.362 91.4805 18.1016 92.6316 18.1016C92.8764 18.1016 93.1654 18.125 93.4987 18.1719C93.8373 18.2135 94.0534 18.2448 94.1472 18.2656H97.1941ZM90.4519 28.2344C90.4519 28.5625 90.6081 28.8203 90.9206 29.0078C91.2383 29.1953 91.681 29.2891 92.2487 29.2891C93.1029 29.2891 93.7722 29.1719 94.2566 28.9375C94.7409 28.7031 94.9831 28.3828 94.9831 27.9766C94.9831 27.6484 94.8399 27.4219 94.5534 27.2969C94.267 27.1719 93.8243 27.1094 93.2253 27.1094H91.9909C91.5534 27.1094 91.1862 27.2109 90.8894 27.4141C90.5977 27.6224 90.4519 27.8958 90.4519 28.2344ZM91.3191 21.125C91.3191 21.599 91.4258 21.974 91.6394 22.25C91.8581 22.526 92.1889 22.6641 92.6316 22.6641C93.0795 22.6641 93.4076 22.526 93.6159 22.25C93.8243 21.974 93.9284 21.599 93.9284 21.125C93.9284 20.0729 93.4961 19.5469 92.6316 19.5469C91.7566 19.5469 91.3191 20.0729 91.3191 21.125ZM103.834 18.1016C104.157 18.1016 104.426 18.125 104.639 18.1719L104.459 20.4062C104.267 20.3542 104.032 20.3281 103.756 20.3281C102.996 20.3281 102.402 20.5234 101.975 20.9141C101.553 21.3047 101.342 21.8516 101.342 22.5547V27H98.9594V18.2656H100.764L101.116 19.7344H101.233C101.504 19.2448 101.868 18.8516 102.327 18.5547C102.79 18.2526 103.293 18.1016 103.834 18.1016ZM112.092 27L111.631 25.8125H111.568C111.167 26.3177 110.753 26.6693 110.326 26.8672C109.904 27.0599 109.352 27.1562 108.67 27.1562C107.831 27.1562 107.17 26.9167 106.686 26.4375C106.206 25.9583 105.967 25.276 105.967 24.3906C105.967 23.4635 106.29 22.7812 106.936 22.3438C107.587 21.901 108.566 21.6562 109.873 21.6094L111.389 21.5625V21.1797C111.389 20.2943 110.936 19.8516 110.029 19.8516C109.331 19.8516 108.511 20.0625 107.568 20.4844L106.779 18.875C107.785 18.349 108.899 18.0859 110.123 18.0859C111.295 18.0859 112.193 18.3411 112.818 18.8516C113.443 19.362 113.756 20.138 113.756 21.1797V27H112.092ZM111.389 22.9531L110.467 22.9844C109.774 23.0052 109.259 23.1302 108.92 23.3594C108.581 23.5885 108.412 23.9375 108.412 24.4062C108.412 25.0781 108.798 25.4141 109.568 25.4141C110.121 25.4141 110.561 25.2552 110.889 24.9375C111.222 24.6198 111.389 24.1979 111.389 23.6719V22.9531ZM124.357 27H121.974V21.8984C121.974 21.2682 121.868 20.7969 121.654 20.4844C121.446 20.1667 121.115 20.0078 120.662 20.0078C120.053 20.0078 119.61 20.2318 119.334 20.6797C119.058 21.1276 118.92 21.8646 118.92 22.8906V27H116.537V18.2656H118.357L118.678 19.3828H118.81C119.045 18.9818 119.383 18.6693 119.826 18.4453C120.269 18.2161 120.776 18.1016 121.349 18.1016C122.657 18.1016 123.542 18.5286 124.006 19.3828H124.217C124.451 18.9766 124.795 18.6615 125.248 18.4375C125.706 18.2135 126.222 18.1016 126.795 18.1016C127.784 18.1016 128.532 18.3568 129.037 18.8672C129.547 19.3724 129.803 20.1849 129.803 21.3047V27H127.412V21.8984C127.412 21.2682 127.305 20.7969 127.092 20.4844C126.883 20.1667 126.553 20.0078 126.099 20.0078C125.516 20.0078 125.079 20.2161 124.787 20.6328C124.5 21.0495 124.357 21.7109 124.357 22.6172V27Z" fill="white"/>
  <rect x="1" y="1" width="155" height="40" rx="20" stroke="white" stroke-width="2"/>
</svg>
