<svg width="147" height="42" viewBox="0 0 147 42" fill="none" xmlns="http://www.w3.org/2000/svg">
  <path fill-rule="evenodd" clip-rule="evenodd" d="M27.9921 13.0483C28.7357 13.0227 29.4793 13.0436 30.2229 13.0413H30.5297V9.17459C30.1323 9.13509 29.7163 9.077 29.3004 9.05841C28.5382 9.02355 27.7737 8.98637 27.0115 9.00496C25.845 9.03052 24.7435 9.31402 23.7792 10.0042C22.6754 10.7989 22.0689 11.9143 21.8365 13.2319C21.7412 13.7756 21.7157 14.338 21.7017 14.891C21.6808 15.7601 21.6971 16.6269 21.6994 17.4959V17.8213H18V22.1411H21.6785V33H26.175V22.1597H29.8418C30.0301 20.7236 30.2136 19.3015 30.4065 17.8189C30.1114 17.8189 29.8465 17.8189 29.5816 17.8189C28.5382 17.8236 26.1447 17.8189 26.1447 17.8189C26.1447 17.8189 26.154 15.6788 26.1796 14.7493C26.2168 13.4759 26.9697 13.0878 27.9898 13.0506L27.9921 13.0483Z" fill="white"/>
  <path d="M46.8203 27H44.4375V15.5781H50.9844V17.5625H46.8203V20.5078H50.6953V22.4844H46.8203V27ZM58.8981 27L58.4372 25.8125H58.3747C57.9736 26.3177 57.5596 26.6693 57.1325 26.8672C56.7106 27.0599 56.1585 27.1562 55.4762 27.1562C54.6377 27.1562 53.9762 26.9167 53.4919 26.4375C53.0127 25.9583 52.7731 25.276 52.7731 24.3906C52.7731 23.4635 53.096 22.7812 53.7419 22.3438C54.3929 21.901 55.3721 21.6562 56.6794 21.6094L58.195 21.5625V21.1797C58.195 20.2943 57.7419 19.8516 56.8356 19.8516C56.1377 19.8516 55.3174 20.0625 54.3747 20.4844L53.5856 18.875C54.5908 18.349 55.7054 18.0859 56.9294 18.0859C58.1012 18.0859 58.9997 18.3411 59.6247 18.8516C60.2497 19.362 60.5622 20.138 60.5622 21.1797V27H58.8981ZM58.195 22.9531L57.2731 22.9844C56.5804 23.0052 56.0648 23.1302 55.7262 23.3594C55.3877 23.5885 55.2184 23.9375 55.2184 24.4062C55.2184 25.0781 55.6039 25.4141 56.3747 25.4141C56.9268 25.4141 57.3669 25.2552 57.695 24.9375C58.0283 24.6198 58.195 24.1979 58.195 23.6719V22.9531ZM66.89 27.1562C64.1712 27.1562 62.8119 25.6641 62.8119 22.6797C62.8119 21.1953 63.1817 20.0625 63.9212 19.2812C64.6608 18.4948 65.7207 18.1016 67.1009 18.1016C68.1114 18.1016 69.0176 18.2995 69.8197 18.6953L69.1166 20.5391C68.7416 20.388 68.3926 20.2656 68.0697 20.1719C67.7468 20.0729 67.4239 20.0234 67.1009 20.0234C65.8614 20.0234 65.2416 20.9036 65.2416 22.6641C65.2416 24.3724 65.8614 25.2266 67.1009 25.2266C67.5593 25.2266 67.9837 25.1667 68.3744 25.0469C68.765 24.9219 69.1556 24.7292 69.5462 24.4688V26.5078C69.1608 26.7526 68.7702 26.9219 68.3744 27.0156C67.9837 27.1094 67.489 27.1562 66.89 27.1562ZM75.5147 19.7969C75.0095 19.7969 74.6136 19.9583 74.3272 20.2812C74.0407 20.599 73.8767 21.0521 73.835 21.6406H77.1787C77.1683 21.0521 77.0147 20.599 76.7178 20.2812C76.4209 19.9583 76.0199 19.7969 75.5147 19.7969ZM75.8506 27.1562C74.4444 27.1562 73.3454 26.7682 72.5537 25.9922C71.7621 25.2161 71.3662 24.1172 71.3662 22.6953C71.3662 21.2318 71.7308 20.1016 72.46 19.3047C73.1944 18.5026 74.2074 18.1016 75.4991 18.1016C76.7334 18.1016 77.6944 18.4531 78.3819 19.1562C79.0694 19.8594 79.4131 20.8307 79.4131 22.0703V23.2266H73.7803C73.8064 23.9036 74.0069 24.4323 74.3819 24.8125C74.7569 25.1927 75.2829 25.3828 75.96 25.3828C76.486 25.3828 76.9834 25.3281 77.4522 25.2188C77.9209 25.1094 78.4105 24.9349 78.9209 24.6953V26.5391C78.5043 26.7474 78.059 26.901 77.585 27C77.111 27.1042 76.5329 27.1562 75.8506 27.1562ZM86.53 18.1016C87.5612 18.1016 88.3685 18.5052 88.9519 19.3125C89.5352 20.1146 89.8269 21.2161 89.8269 22.6172C89.8269 24.0599 89.5248 25.1771 88.9206 25.9688C88.3217 26.7604 87.504 27.1562 86.4675 27.1562C85.4415 27.1562 84.6368 26.7839 84.0534 26.0391H83.8894L83.4909 27H81.6706V14.8438H84.0534V17.6719C84.0534 18.0312 84.0222 18.6068 83.9597 19.3984H84.0534C84.6107 18.5339 85.4362 18.1016 86.53 18.1016ZM85.7644 20.0078C85.1758 20.0078 84.7461 20.1901 84.4753 20.5547C84.2045 20.9141 84.0639 21.5104 84.0534 22.3438V22.6016C84.0534 23.5391 84.1915 24.2109 84.4675 24.6172C84.7487 25.0234 85.1915 25.2266 85.7956 25.2266C86.2852 25.2266 86.6732 25.0026 86.9597 24.5547C87.2514 24.1016 87.3972 23.4453 87.3972 22.5859C87.3972 21.7266 87.2514 21.0833 86.9597 20.6562C86.668 20.224 86.2696 20.0078 85.7644 20.0078ZM94.0141 22.6172C94.0141 23.4818 94.1547 24.1354 94.4359 24.5781C94.7224 25.0208 95.1859 25.2422 95.8266 25.2422C96.462 25.2422 96.9177 25.0234 97.1937 24.5859C97.475 24.1432 97.6156 23.487 97.6156 22.6172C97.6156 21.7526 97.475 21.1042 97.1937 20.6719C96.9125 20.2396 96.4516 20.0234 95.8109 20.0234C95.1755 20.0234 94.7172 20.2396 94.4359 20.6719C94.1547 21.099 94.0141 21.7474 94.0141 22.6172ZM100.053 22.6172C100.053 24.0391 99.6781 25.151 98.9281 25.9531C98.1781 26.7552 97.1339 27.1562 95.7953 27.1562C94.9568 27.1562 94.2172 26.974 93.5766 26.6094C92.9359 26.2396 92.4437 25.7109 92.1 25.0234C91.7562 24.3359 91.5844 23.5339 91.5844 22.6172C91.5844 21.1901 91.9568 20.0807 92.7016 19.2891C93.4464 18.4974 94.4932 18.1016 95.8422 18.1016C96.6807 18.1016 97.4203 18.2839 98.0609 18.6484C98.7016 19.013 99.1937 19.5365 99.5375 20.2188C99.8812 20.901 100.053 21.7005 100.053 22.6172ZM104.24 22.6172C104.24 23.4818 104.381 24.1354 104.662 24.5781C104.949 25.0208 105.412 25.2422 106.053 25.2422C106.688 25.2422 107.144 25.0234 107.42 24.5859C107.701 24.1432 107.842 23.487 107.842 22.6172C107.842 21.7526 107.701 21.1042 107.42 20.6719C107.139 20.2396 106.678 20.0234 106.037 20.0234C105.402 20.0234 104.943 20.2396 104.662 20.6719C104.381 21.099 104.24 21.7474 104.24 22.6172ZM110.279 22.6172C110.279 24.0391 109.904 25.151 109.154 25.9531C108.404 26.7552 107.36 27.1562 106.022 27.1562C105.183 27.1562 104.443 26.974 103.803 26.6094C103.162 26.2396 102.67 25.7109 102.326 25.0234C101.982 24.3359 101.811 23.5339 101.811 22.6172C101.811 21.1901 102.183 20.0807 102.928 19.2891C103.673 18.4974 104.719 18.1016 106.068 18.1016C106.907 18.1016 107.647 18.2839 108.287 18.6484C108.928 19.013 109.42 19.5365 109.764 20.2188C110.107 20.901 110.279 21.7005 110.279 22.6172ZM114.857 22.25L115.896 20.9219L118.342 18.2656H121.029L117.56 22.0547L121.24 27H118.49L115.974 23.4609L114.951 24.2812V27H112.568V14.8438H114.951V20.2656L114.826 22.25H114.857Z" fill="white"/>
  <rect x="1" y="1" width="145" height="40" rx="20" stroke="white" stroke-width="2"/>
</svg>
