<svg width="140" height="42" viewBox="0 0 140 42" fill="none" xmlns="http://www.w3.org/2000/svg">
  <path fill-rule="evenodd" clip-rule="evenodd" d="M25.2793 26.2837C22.7156 26.1941 21.1159 24.3559 20.69 22.8621C21.4032 22.9966 22.1063 22.9701 22.8033 22.799C22.8216 22.7949 22.8399 22.7827 22.8746 22.7664C21.4868 22.4444 20.4149 21.7006 19.6711 20.5043C19.1779 19.7095 18.9415 18.8373 18.9476 17.8816C19.6405 18.2525 20.3639 18.4583 21.1424 18.4787C20.099 17.7267 19.4 16.7444 19.1127 15.4871C18.8294 14.2318 19.0128 13.0396 19.6425 11.9147C22.3121 15.0591 25.693 16.7832 29.8135 17.0685C29.785 16.8728 29.7544 16.7017 29.7341 16.5284C29.5975 15.3689 29.8278 14.2868 30.4555 13.3045C31.24 12.0736 32.3609 11.3094 33.7996 11.0751C35.4584 10.802 36.9053 11.2768 38.1158 12.4486C38.1973 12.5261 38.2646 12.5525 38.3787 12.5261C39.3915 12.306 40.3473 11.9412 41.248 11.4236C41.2684 11.4113 41.2908 11.3991 41.3132 11.3889C41.3173 11.3848 41.3255 11.3869 41.3458 11.3869C40.9546 12.5342 40.2454 13.4186 39.2346 14.0708C40.1904 13.9668 41.1013 13.7121 41.9796 13.331C41.9878 13.3392 41.9939 13.3473 42 13.3534C41.8105 13.6 41.6291 13.8527 41.4335 14.0932C40.9097 14.7392 40.3086 15.3057 39.6401 15.7968C39.5831 15.8396 39.5566 15.8784 39.5586 15.9517C39.5851 16.6833 39.5586 17.4149 39.4669 18.1424C39.2774 19.6749 38.8495 21.1361 38.1953 22.532C37.5187 23.9728 36.6384 25.277 35.5298 26.4203C33.6508 28.3623 31.3888 29.6156 28.7538 30.1964C27.849 30.3941 26.932 30.496 26.0068 30.5225C23.164 30.606 20.5351 29.8989 18.1162 28.4051C18.0856 28.3868 18.055 28.3644 18 28.3297C19.722 28.5152 21.3584 28.2951 22.9337 27.6491C23.7692 27.3067 24.5436 26.8564 25.2793 26.2817V26.2837Z" fill="white"/>
  <path d="M59.8438 27H57.4219V17.5938H54.3203V15.5781H62.9453V17.5938H59.8438V27ZM72.0153 27L71.3434 23.9453L70.4372 20.0859H70.3825L68.7887 27H66.2262L63.7419 18.2656H66.1169L67.1247 22.1328C67.2861 22.8255 67.4502 23.7812 67.6169 25H67.6637C67.6846 24.6042 67.7757 23.9766 67.9372 23.1172L68.0622 22.4531L69.1403 18.2656H71.7653L72.7887 22.4531C72.8096 22.5677 72.8408 22.737 72.8825 22.9609C72.9294 23.1849 72.9736 23.4245 73.0153 23.6797C73.057 23.9297 73.0934 24.1771 73.1247 24.4219C73.1611 24.6615 73.182 24.8542 73.1872 25H73.2341C73.2809 24.625 73.3643 24.112 73.4841 23.4609C73.6039 22.8047 73.6898 22.362 73.7419 22.1328L74.7887 18.2656H77.1247L74.6091 27H72.0153ZM78.7572 16.0078C78.7572 15.2318 79.1895 14.8438 80.0541 14.8438C80.9186 14.8438 81.3509 15.2318 81.3509 16.0078C81.3509 16.3776 81.2416 16.6667 81.0228 16.875C80.8093 17.0781 80.4864 17.1797 80.0541 17.1797C79.1895 17.1797 78.7572 16.7891 78.7572 16.0078ZM81.2416 27H78.8587V18.2656H81.2416V27ZM87.7491 25.2578C88.1657 25.2578 88.6657 25.1667 89.2491 24.9844V26.7578C88.6553 27.0234 87.9261 27.1562 87.0616 27.1562C86.1084 27.1562 85.4131 26.9167 84.9756 26.4375C84.5433 25.9531 84.3272 25.2292 84.3272 24.2656V20.0547H83.1866V19.0469L84.4991 18.25L85.1866 16.4062H86.71V18.2656H89.1553V20.0547H86.71V24.2656C86.71 24.6042 86.8037 24.8542 86.9912 25.0156C87.184 25.1771 87.4366 25.2578 87.7491 25.2578ZM95.0222 25.2578C95.4389 25.2578 95.9389 25.1667 96.5222 24.9844V26.7578C95.9284 27.0234 95.1993 27.1562 94.3347 27.1562C93.3816 27.1562 92.6862 26.9167 92.2487 26.4375C91.8165 25.9531 91.6003 25.2292 91.6003 24.2656V20.0547H90.4597V19.0469L91.7722 18.25L92.4597 16.4062H93.9831V18.2656H96.4284V20.0547H93.9831V24.2656C93.9831 24.6042 94.0769 24.8542 94.2644 25.0156C94.4571 25.1771 94.7097 25.2578 95.0222 25.2578ZM102.233 19.7969C101.728 19.7969 101.332 19.9583 101.045 20.2812C100.759 20.599 100.595 21.0521 100.553 21.6406H103.897C103.886 21.0521 103.733 20.599 103.436 20.2812C103.139 19.9583 102.738 19.7969 102.233 19.7969ZM102.569 27.1562C101.162 27.1562 100.064 26.7682 99.2719 25.9922C98.4802 25.2161 98.0844 24.1172 98.0844 22.6953C98.0844 21.2318 98.449 20.1016 99.1781 19.3047C99.9125 18.5026 100.926 18.1016 102.217 18.1016C103.452 18.1016 104.412 18.4531 105.1 19.1562C105.787 19.8594 106.131 20.8307 106.131 22.0703V23.2266H100.498C100.524 23.9036 100.725 24.4323 101.1 24.8125C101.475 25.1927 102.001 25.3828 102.678 25.3828C103.204 25.3828 103.702 25.3281 104.17 25.2188C104.639 25.1094 105.129 24.9349 105.639 24.6953V26.5391C105.222 26.7474 104.777 26.901 104.303 27C103.829 27.1042 103.251 27.1562 102.569 27.1562ZM113.264 18.1016C113.587 18.1016 113.855 18.125 114.068 18.1719L113.889 20.4062C113.696 20.3542 113.462 20.3281 113.186 20.3281C112.425 20.3281 111.831 20.5234 111.404 20.9141C110.982 21.3047 110.772 21.8516 110.772 22.5547V27H108.389V18.2656H110.193L110.545 19.7344H110.662C110.933 19.2448 111.298 18.8516 111.756 18.5547C112.219 18.2526 112.722 18.1016 113.264 18.1016Z" fill="white"/>
  <rect x="1" y="1" width="138" height="40" rx="20" stroke="white" stroke-width="2"/>
</svg>
