<svg width="171" height="41" viewBox="0 0 171 41" fill="none" xmlns="http://www.w3.org/2000/svg">
  <path d="M24.7661 29.6055L17.6459 32.7018V32.3922C16.2732 32.7436 14.7518 32.9464 13.3118 33.0115C6.61521 32.9464 1.29993 29.441 1.23831 25.2706V23.7225C3.4376 26.9206 7.91515 29.0644 13.3118 28.9862C15.137 29.0644 17.005 28.7747 18.5746 28.367L19.1938 26.8188C17.3324 27.3745 15.3007 27.7607 13.3118 27.7477C6.61521 27.7607 1.29993 24.2554 1.23831 20.0069V18.7683C3.4376 21.7253 7.90552 23.8691 13.3118 23.7225C15.7436 23.8691 18.122 23.3573 20.1225 22.4839L20.4321 20.9358C18.4783 21.9667 15.9458 22.5655 13.3118 22.4839C6.61521 22.5655 1.29993 19.0601 1.23831 14.7431V13.5046C3.4376 16.53 7.91515 18.6738 13.3118 18.7683C16.3792 18.6738 19.2872 17.8627 21.6704 16.6009L21.9799 14.7431C19.8168 16.3466 16.6584 17.3798 13.3118 17.5298C6.61521 17.3798 1.29993 13.8745 1.23831 9.47936C1.29993 5.29936 6.61521 1.79399 13.3118 1.73853C17.3036 1.79399 21.0108 3.19421 23.2182 5.45413L23.4332 5.8125L24.9942 5.81867L24.7661 5.45413C22.5707 2.46996 18.1798 0.5 13.3118 0.5C5.90266 0.5 0 4.58476 0 9.47936V9.78899V25.5803C0.259987 30.3584 6.02784 34.25 13.3118 34.25C18.122 34.25 22.4455 32.3573 24.7661 29.6055Z" fill="white"/>
  <path d="M21.87 40.5L24.3694 29.875L17.1836 33L21.5576 14.5625H13.122L15.309 5.5H42.1778L39.9908 14.5625H31.2428L29.3683 19.5625L39.0535 15.5L21.87 40.5ZM26.244 27.6875L24.9943 33.9375L35.3044 18.3125L26.8688 22.0625L30.618 13.3125H39.0535L40.6157 6.75H16.2463L14.6841 13.3125H23.1197L19.0581 30.8125L26.244 27.6875Z" fill="#FABF2C"/>
  <path d="M60.0213 11.5641L60.0341 11.6026C60.0512 12.5981 59.7479 13.3778 59.1243 13.9418C58.5006 14.5057 57.6399 14.7877 56.5422 14.7877C55.423 14.7877 54.5196 14.4278 53.8319 13.7079C53.1442 12.9879 52.8004 12.0576 52.8004 10.9169V9.06476C52.8004 7.92828 53.1357 6.99796 53.8063 6.27377C54.4769 5.54959 55.3568 5.1875 56.4461 5.1875C57.5823 5.1875 58.4707 5.46521 59.1115 6.02063C59.7522 6.57605 60.064 7.35791 60.0469 8.36621L60.0341 8.40466H58.2145C58.2145 7.80652 58.0703 7.36112 57.782 7.06845C57.4936 6.77579 57.0483 6.62946 56.4461 6.62946C55.8865 6.62946 55.4497 6.85483 55.1358 7.30557C54.8218 7.75632 54.6649 8.33844 54.6649 9.05194V10.9169C54.6649 11.6346 54.8304 12.22 55.1614 12.6729C55.4925 13.1257 55.9527 13.3522 56.5422 13.3522C57.1017 13.3522 57.5193 13.2058 57.7948 12.9132C58.0703 12.6205 58.208 12.1708 58.208 11.5641H60.0213ZM70.2956 10.8271C70.2956 11.9764 69.9347 12.9239 69.2128 13.6694C68.4909 14.415 67.5512 14.7877 66.3936 14.7877C65.2403 14.7877 64.3048 14.4139 63.5872 13.6662C62.8696 12.9185 62.5108 11.9722 62.5108 10.8271V9.14807C62.5108 8.00732 62.8686 7.06205 63.584 6.31223C64.2995 5.5624 65.2318 5.1875 66.3808 5.1875C67.5384 5.1875 68.4802 5.5624 69.2064 6.31223C69.9325 7.06205 70.2956 8.00732 70.2956 9.14807V10.8271ZM68.4311 9.13525C68.4311 8.40893 68.2496 7.81293 67.8865 7.34723C67.5234 6.88153 67.0215 6.64868 66.3808 6.64868C65.7486 6.64868 65.2563 6.88153 64.9039 7.34723C64.5515 7.81293 64.3753 8.40893 64.3753 9.13525V10.8271C64.3753 11.5663 64.5526 12.1687 64.9071 12.6344C65.2617 13.1001 65.7571 13.3329 66.3936 13.3329C67.0343 13.3329 67.5341 13.1001 67.8929 12.6344C68.2517 12.1687 68.4311 11.5663 68.4311 10.8271V9.13525ZM75.1494 14.6531H73.2785V5.32208H75.1494V14.6531ZM85.9171 14.6531H84.0462L80.2851 8.3598L80.2467 8.36621V14.6531H78.3758V5.32208H80.2467L84.0077 11.609L84.0462 11.6026V5.32208H85.9171V14.6531ZM95.3264 6.76404H92.661V14.6531H90.7901V6.76404H88.1631V5.32208H95.3264V6.76404ZM103.057 10.5516H99.5971V13.2176H103.711V14.6531H97.7262V5.32208H103.698V6.76404H99.5971V9.10962H103.057V10.5516ZM108.27 13.2176H112.447V14.6531H106.399V5.32208H108.27V13.2176ZM120.396 10.5516H116.936V13.2176H121.049V14.6531H115.065V5.32208H121.036V6.76404H116.936V9.10962H120.396V10.5516ZM130.888 13.3778C130.597 13.7581 130.164 14.0881 129.587 14.368C129.01 14.6478 128.267 14.7877 127.357 14.7877C126.23 14.7877 125.307 14.4331 124.59 13.7239C123.872 13.0146 123.513 12.0939 123.513 10.9617V9.01349C123.513 7.88555 123.861 6.96592 124.557 6.25455C125.254 5.54318 126.149 5.1875 127.242 5.1875C128.383 5.1875 129.256 5.45773 129.863 5.9982C130.469 6.53867 130.762 7.25964 130.74 8.16113L130.728 8.19958H128.966C128.966 7.70398 128.823 7.31839 128.536 7.04282C128.25 6.76724 127.834 6.62946 127.287 6.62946C126.715 6.62946 126.253 6.85055 125.903 7.29276C125.553 7.73496 125.378 8.30426 125.378 9.00067V10.9617C125.378 11.6667 125.557 12.2413 125.916 12.6857C126.275 13.13 126.755 13.3522 127.357 13.3522C127.802 13.3522 128.153 13.3073 128.411 13.2176C128.67 13.1279 128.87 13.0146 129.01 12.8779V11.0707H127.216V9.77612H130.888V13.3778ZM135.722 10.9233V14.6531H133.851V5.32208H137.081C138.144 5.32208 138.976 5.56454 139.576 6.04947C140.176 6.5344 140.477 7.21051 140.477 8.07782C140.477 8.55634 140.349 8.96969 140.095 9.3179C139.841 9.66611 139.471 9.94702 138.984 10.1606C139.535 10.323 139.931 10.5943 140.172 10.9745C140.414 11.3548 140.534 11.8248 140.534 12.3845V13.0702C140.534 13.3308 140.569 13.6032 140.64 13.8873C140.71 14.1714 140.831 14.3818 141.002 14.5186V14.6531H139.073C138.902 14.5164 138.792 14.29 138.743 13.9738C138.694 13.6577 138.67 13.3522 138.67 13.0574V12.3973C138.67 11.9316 138.543 11.5695 138.288 11.311C138.034 11.0525 137.674 10.9233 137.209 10.9233H135.722ZM135.722 9.48132H137.049C137.574 9.48132 137.965 9.37024 138.221 9.14807C138.477 8.9259 138.606 8.59693 138.606 8.16113C138.606 7.73388 138.476 7.39423 138.218 7.14215C137.96 6.89007 137.58 6.76404 137.081 6.76404H135.722V9.48132ZM148.451 12.6408H145.426L144.799 14.6531H142.844L145.99 5.32208H147.906L151.039 14.6531H149.085L148.451 12.6408ZM145.888 11.1732H147.996L146.964 7.88556H146.926L145.888 11.1732ZM155.182 11.2693V14.6531H153.311V5.32208H156.88C157.952 5.32208 158.795 5.59552 159.411 6.1424C160.026 6.68927 160.333 7.40918 160.333 8.30212C160.333 9.19507 160.026 9.91284 159.411 10.4554C158.795 10.998 157.952 11.2693 156.88 11.2693H155.182ZM155.182 9.82739H156.88C157.401 9.82739 157.796 9.68533 158.065 9.40121C158.334 9.11709 158.469 8.75501 158.469 8.31494C158.469 7.86633 158.335 7.4957 158.068 7.20303C157.801 6.91037 157.405 6.76404 156.88 6.76404H155.182V9.82739ZM170.588 14.6531H168.717V10.7759H164.918V14.6531H163.047V5.32208H164.918V9.33392H168.717V5.32208H170.588V14.6531Z" fill="#FABF2C"/>
  <path fill-rule="evenodd" clip-rule="evenodd" d="M56.2077 29.875H55.041V23.7373H52.9419V22.7363H58.3069V23.7373H56.2077V29.875ZM64.0282 29.875H62.8761V26.5547C62.8761 26.138 62.7923 25.8271 62.6247 25.6221C62.4571 25.417 62.1911 25.3145 61.8266 25.3145C61.3449 25.3145 60.991 25.4585 60.7648 25.7466C60.5386 26.0347 60.4255 26.5172 60.4255 27.1943V29.875H59.2783V22.2773H60.4255V24.2061C60.4255 24.5153 60.406 24.8457 60.3669 25.1973H60.4402C60.5964 24.9368 60.8136 24.735 61.0919 24.5918C61.3701 24.4486 61.6948 24.377 62.0658 24.377C63.3741 24.377 64.0282 25.0361 64.0282 26.3545V29.875ZM67.9824 29.9727C67.1427 29.9727 66.4861 29.7277 66.0126 29.2378C65.5391 28.7479 65.3023 28.0732 65.3023 27.2139C65.3023 26.3317 65.522 25.6383 65.9614 25.1338C66.4007 24.6292 67.0044 24.377 67.7725 24.377C68.4852 24.377 69.0482 24.5934 69.4615 25.0264C69.8748 25.4593 70.0815 26.055 70.0815 26.8135V27.4336H66.4837C66.5 27.9577 66.6415 28.3605 66.9084 28.6421C67.1753 28.9237 67.5512 29.0645 68.0361 29.0645C68.355 29.0645 68.652 29.0343 68.927 28.9741C69.202 28.9139 69.4973 28.8138 69.813 28.6738V29.6064C69.5331 29.7399 69.25 29.8343 68.9636 29.8896C68.6772 29.945 68.3501 29.9727 67.9824 29.9727ZM67.7725 25.2461C67.408 25.2461 67.1159 25.3617 66.8962 25.5928C66.6765 25.8239 66.5455 26.1608 66.5032 26.6035H68.9538C68.9473 26.1575 68.8399 25.8198 68.6316 25.5903C68.4234 25.3608 68.137 25.2461 67.7725 25.2461ZM76.6913 25.3438H75.3733V29.875H74.2212V25.3438H73.3327V24.8066L74.2212 24.4551V24.1035C74.2212 23.4655 74.3709 22.9927 74.6703 22.6851C74.9697 22.3774 75.427 22.2236 76.042 22.2236C76.4456 22.2236 76.8426 22.2904 77.2332 22.4238L76.9305 23.293C76.6474 23.2018 76.3773 23.1562 76.1202 23.1562C75.8598 23.1562 75.6702 23.2368 75.5514 23.3979C75.4326 23.5591 75.3733 23.8008 75.3733 24.123V24.4746H76.6913V25.3438ZM81.4168 29.875L81.2557 29.167H81.1971C81.0376 29.4176 80.8106 29.6146 80.5161 29.7578C80.2216 29.901 79.8856 29.9727 79.508 29.9727C78.8539 29.9727 78.3657 29.8099 78.0435 29.4844C77.7213 29.1589 77.5603 28.6657 77.5603 28.0049V24.4746H78.7172V27.8047C78.7172 28.2181 78.8018 28.5282 78.9711 28.7349C79.1403 28.9416 79.4055 29.0449 79.7668 29.0449C80.2484 29.0449 80.6024 28.9009 80.8285 28.6128C81.0547 28.3247 81.1678 27.8421 81.1678 27.165V24.4746H82.3199V29.875H81.4168ZM85.9665 29.0449C86.2464 29.0449 86.5263 29.001 86.8062 28.9131V29.7773C86.6792 29.8327 86.5157 29.8791 86.3156 29.9165C86.1154 29.9539 85.9079 29.9727 85.6931 29.9727C84.6062 29.9727 84.0627 29.3997 84.0627 28.2539V25.3438H83.3255V24.8359L84.1164 24.416L84.5069 23.2734H85.2147V24.4746H86.7525V25.3438H85.2147V28.2344C85.2147 28.5111 85.2839 28.7153 85.4222 28.8472C85.5605 28.979 85.742 29.0449 85.9665 29.0449ZM91.6927 29.875L91.5317 29.167H91.4731C91.3136 29.4176 91.0866 29.6146 90.7921 29.7578C90.4975 29.901 90.1615 29.9727 89.784 29.9727C89.1299 29.9727 88.6417 29.8099 88.3195 29.4844C87.9973 29.1589 87.8362 28.6657 87.8362 28.0049V24.4746H88.9932V27.8047C88.9932 28.2181 89.0778 28.5282 89.247 28.7349C89.4163 28.9416 89.6815 29.0449 90.0427 29.0449C90.5244 29.0449 90.8783 28.9009 91.1045 28.6128C91.3307 28.3247 91.4438 27.8421 91.4438 27.165V24.4746H92.5959V29.875H91.6927ZM96.9699 24.377C97.2009 24.377 97.3913 24.3932 97.541 24.4258L97.4287 25.4951C97.266 25.4561 97.0968 25.4365 96.921 25.4365C96.4622 25.4365 96.0903 25.5863 95.8056 25.8857C95.5208 26.1852 95.3784 26.5742 95.3784 27.0527V29.875H94.2312V24.4746H95.1295L95.2808 25.4268H95.3394C95.5184 25.1045 95.7519 24.849 96.0399 24.6602C96.3279 24.4714 96.6379 24.377 96.9699 24.377ZM100.699 29.9727C99.8598 29.9727 99.2032 29.7277 98.7297 29.2378C98.2562 28.7479 98.0194 28.0732 98.0194 27.2139C98.0194 26.3317 98.2391 25.6383 98.6784 25.1338C99.1178 24.6292 99.7215 24.377 100.49 24.377C101.202 24.377 101.765 24.5934 102.179 25.0264C102.592 25.4593 102.799 26.055 102.799 26.8135V27.4336H99.2008C99.2171 27.9577 99.3586 28.3605 99.6255 28.6421C99.8924 28.9237 100.268 29.0645 100.753 29.0645C101.072 29.0645 101.369 29.0343 101.644 28.9741C101.919 28.9139 102.214 28.8138 102.53 28.6738V29.6064C102.25 29.7399 101.967 29.8343 101.681 29.8896C101.394 29.945 101.067 29.9727 100.699 29.9727ZM100.49 25.2461C100.125 25.2461 99.833 25.3617 99.6133 25.5928C99.3936 25.8239 99.2626 26.1608 99.2203 26.6035H101.671C101.664 26.1575 101.557 25.8198 101.349 25.5903C101.14 25.3608 100.854 25.2461 100.49 25.2461ZM111.488 27.165C111.488 28.0472 111.262 28.7357 110.809 29.2305C110.357 29.7253 109.727 29.9727 108.92 29.9727C108.416 29.9727 107.97 29.8587 107.583 29.6309C107.195 29.403 106.898 29.0758 106.689 28.6494C106.481 28.223 106.377 27.7282 106.377 27.165C106.377 26.2894 106.601 25.6058 107.051 25.1143C107.5 24.6227 108.133 24.377 108.95 24.377C109.731 24.377 110.349 24.6284 110.805 25.1313C111.26 25.6343 111.488 26.3122 111.488 27.165ZM107.558 27.165C107.558 28.4118 108.019 29.0352 108.94 29.0352C109.851 29.0352 110.307 28.4118 110.307 27.165C110.307 25.9313 109.848 25.3145 108.93 25.3145C108.448 25.3145 108.099 25.474 107.883 25.793C107.666 26.112 107.558 26.5693 107.558 27.165ZM115.515 25.3438H114.197V29.875H113.045V25.3438H112.157V24.8066L113.045 24.4551V24.1035C113.045 23.4655 113.195 22.9927 113.494 22.6851C113.794 22.3774 114.251 22.2236 114.866 22.2236C115.27 22.2236 115.667 22.2904 116.057 22.4238L115.755 23.293C115.471 23.2018 115.201 23.1562 114.944 23.1562C114.684 23.1562 114.494 23.2368 114.376 23.3979C114.257 23.5591 114.197 23.8008 114.197 24.123V24.4746H115.515V25.3438ZM123.58 29.875H122.428V26.5449C122.428 26.1315 122.35 25.8231 122.194 25.6196C122.037 25.4162 121.793 25.3145 121.461 25.3145C121.019 25.3145 120.694 25.4585 120.487 25.7466C120.281 26.0347 120.177 26.514 120.177 27.1846V29.875H119.03V24.4746H119.928L120.09 25.1826H120.148C120.298 24.9255 120.515 24.7269 120.8 24.5869C121.085 24.4469 121.398 24.377 121.74 24.377C122.569 24.377 123.119 24.6602 123.39 25.2266H123.468C123.627 24.9596 123.852 24.7513 124.141 24.6016C124.431 24.4518 124.763 24.377 125.137 24.377C125.782 24.377 126.251 24.5397 126.546 24.8652C126.84 25.1908 126.987 25.6872 126.987 26.3545V29.875H125.84V26.5449C125.84 26.1315 125.761 25.8231 125.603 25.6196C125.446 25.4162 125.201 25.3145 124.869 25.3145C124.423 25.3145 124.097 25.4536 123.89 25.7319C123.683 26.0103 123.58 26.4375 123.58 27.0137V29.875ZM133.377 27.165C133.377 28.0472 133.151 28.7357 132.699 29.2305C132.247 29.7253 131.617 29.9727 130.81 29.9727C130.305 29.9727 129.859 29.8587 129.472 29.6309C129.085 29.403 128.787 29.0758 128.579 28.6494C128.371 28.223 128.266 27.7282 128.266 27.165C128.266 26.2894 128.491 25.6058 128.94 25.1143C129.389 24.6227 130.022 24.377 130.839 24.377C131.62 24.377 132.238 24.6284 132.694 25.1313C133.15 25.6343 133.377 26.3122 133.377 27.165ZM129.448 27.165C129.448 28.4118 129.908 29.0352 130.829 29.0352C131.741 29.0352 132.196 28.4118 132.196 27.165C132.196 25.9313 131.737 25.3145 130.819 25.3145C130.338 25.3145 129.989 25.474 129.772 25.793C129.556 26.112 129.448 26.5693 129.448 27.165ZM139.445 29.875H138.293V26.5547C138.293 26.138 138.21 25.8271 138.042 25.6221C137.874 25.417 137.608 25.3145 137.244 25.3145C136.759 25.3145 136.404 25.4577 136.18 25.7441C135.955 26.0306 135.843 26.5107 135.843 27.1846V29.875H134.696V24.4746H135.594L135.755 25.1826H135.813C135.976 24.9255 136.207 24.7269 136.507 24.5869C136.806 24.4469 137.138 24.377 137.503 24.377C138.798 24.377 139.445 25.0361 139.445 26.3545V29.875ZM143.4 29.9727C142.56 29.9727 141.903 29.7277 141.43 29.2378C140.956 28.7479 140.72 28.0732 140.72 27.2139C140.72 26.3317 140.939 25.6383 141.379 25.1338C141.818 24.6292 142.422 24.377 143.19 24.377C143.902 24.377 144.465 24.5934 144.879 25.0264C145.292 25.4593 145.499 26.055 145.499 26.8135V27.4336H141.901C141.917 27.9577 142.059 28.3605 142.326 28.6421C142.592 28.9237 142.968 29.0645 143.453 29.0645C143.772 29.0645 144.069 29.0343 144.344 28.9741C144.619 28.9139 144.915 28.8138 145.23 28.6738V29.6064C144.95 29.7399 144.667 29.8343 144.381 29.8896C144.094 29.945 143.767 29.9727 143.4 29.9727ZM143.19 25.2461C142.825 25.2461 142.533 25.3617 142.313 25.5928C142.094 25.8239 141.963 26.1608 141.92 26.6035H144.371C144.365 26.1575 144.257 25.8198 144.049 25.5903C143.841 25.3608 143.554 25.2461 143.19 25.2461ZM145.782 24.4746H147.032L148.13 27.5361C148.296 27.9723 148.407 28.3825 148.462 28.7666H148.501C148.53 28.5876 148.584 28.3703 148.662 28.1147C148.74 27.8592 149.153 26.6458 149.902 24.4746H151.142L148.833 30.5928C148.413 31.7158 147.713 32.2773 146.734 32.2773C146.48 32.2773 146.233 32.2497 145.992 32.1943V31.2861C146.164 31.3252 146.361 31.3447 146.582 31.3447C147.136 31.3447 147.525 31.0241 147.749 30.3828L147.949 29.875L145.782 24.4746Z" fill="white"/>
</svg>
