<svg width="125" height="46" viewBox="0 0 125 46" fill="none" xmlns="http://www.w3.org/2000/svg">
  <g clip-path="url(#clip0_271_3804)">
    <path d="M55.8894 17.7492C54.1835 17.7492 52.7761 17.1927 51.6245 16.0797C50.5157 14.9667 49.9186 13.554 49.9186 11.8417C49.9186 10.1294 50.473 8.75955 51.6245 7.64655C52.7334 6.53355 54.1408 5.97705 55.8894 5.97705C57.0409 5.97705 58.0645 6.2339 58.9601 6.74759V8.54551C58.0645 7.9462 57.041 7.64655 55.9321 7.64655C54.7379 7.64655 53.757 8.03182 52.9893 8.84516C52.2216 9.6157 51.7951 10.6431 51.7951 11.8417C51.7951 13.0403 52.179 14.0677 52.9893 14.881C53.7996 15.6516 54.7806 16.0797 56.0174 16.0797C57.2968 16.0797 58.3631 15.7372 59.2587 15.0523V16.8502C58.2778 17.4495 57.1689 17.7492 55.8894 17.7492Z" fill="black"/>
    <path d="M62.9691 12.3126V17.5351H61.2205V6.23389H62.9691V10.6431C63.7367 9.78692 64.7177 9.40165 65.8692 9.40165C66.8075 9.40165 67.5325 9.70131 68.0443 10.2578C68.5561 10.8571 68.812 11.6277 68.812 12.6978V17.5351H67.0634V13.0831C67.0634 12.3126 66.8928 11.7989 66.5089 11.4992C66.1251 11.1996 65.6986 11.0283 65.1868 11.0283C64.7603 11.0283 64.3338 11.1568 63.9073 11.3708C63.5235 11.6276 63.1823 11.9273 62.9691 12.3126Z" fill="black"/>
    <path d="M72.1386 8.20305C71.8401 8.20305 71.5842 8.11743 71.3709 7.9034C71.1577 7.68936 71.0724 7.43251 71.0724 7.13286C71.0724 6.8332 71.1577 6.57636 71.3709 6.31951C71.5842 6.10547 71.8401 5.97705 72.1386 5.97705C72.4372 5.97705 72.693 6.10547 72.9063 6.31951C73.1195 6.53355 73.2048 6.7904 73.2048 7.13286C73.2048 7.43251 73.1195 7.68936 72.9063 7.9034C72.693 8.07463 72.4372 8.20305 72.1386 8.20305ZM72.9916 17.5351H71.243V9.6157H72.9916V17.5351Z" fill="black"/>
    <path d="M77.5977 17.7491C77.0006 17.7491 76.4888 17.5779 76.1477 17.2355C75.8065 16.893 75.6359 16.3793 75.6359 15.6516V6.23389H77.3845V15.1807C77.3845 15.8228 77.683 16.1653 78.2374 16.1653C78.4933 16.1653 78.7066 16.1225 78.8772 15.994V17.4923C78.536 17.6635 78.1095 17.7491 77.5977 17.7491Z" fill="black"/>
    <path d="M83.8245 17.7491C82.7156 17.7491 81.7773 17.3639 81.0523 16.5505C80.3273 15.7372 79.9861 14.7526 79.9861 13.5968C79.9861 12.441 80.3273 11.4564 81.0523 10.6431C81.7773 9.82973 82.673 9.44446 83.8245 9.44446C85.0187 9.44446 85.9569 9.87254 86.6393 10.7287V6.23389H88.3879V17.5351H86.6393V16.4649C85.9569 17.3211 85.0187 17.7491 83.8245 17.7491ZM84.2936 16.2081C84.8054 16.2081 85.2746 16.0796 85.6584 15.8228C86.0849 15.566 86.3834 15.2235 86.6393 14.7954V12.3554C86.4261 11.9273 86.0849 11.6277 85.6584 11.328C85.2319 11.0712 84.7628 10.9427 84.2936 10.9427C83.5686 10.9427 82.9715 11.1996 82.4597 11.7133C81.9906 12.227 81.7347 12.8263 81.7347 13.554C81.7347 14.2817 81.9906 14.9238 82.4597 15.4375C82.9289 15.9512 83.5259 16.2081 84.2936 16.2081Z" fill="black"/>
    <path d="M92.5675 17.5353H90.8188V9.61589H92.5675V10.9857C92.8234 10.5149 93.2498 10.1296 93.7616 9.82993C94.3161 9.53028 94.8705 9.40186 95.4676 9.40186C95.5529 9.40186 95.5955 9.40186 95.6382 9.40186V11.157C95.4249 11.1142 95.297 11.1142 95.169 11.1142C94.572 11.1142 94.0602 11.2854 93.591 11.585C93.1219 11.8847 92.7807 12.27 92.6101 12.698V17.5353H92.5675Z" fill="black"/>
    <path d="M96.6617 13.5542C96.6617 12.3556 97.0456 11.371 97.7706 10.6005C98.5383 9.78712 99.5192 9.40186 100.713 9.40186C101.524 9.40186 102.206 9.61589 102.803 10.044C103.912 10.8573 104.466 12.0559 104.466 13.6398V14.1107H98.4103C98.5383 14.7956 98.8368 15.3093 99.3486 15.6946C99.8604 16.0798 100.543 16.2511 101.353 16.2511C102.249 16.2511 103.102 15.9942 103.912 15.5233V16.9788C103.187 17.4925 102.206 17.7493 101.012 17.7493C99.8178 17.7493 98.7515 17.3641 97.8986 16.5935C97.0882 15.823 96.6617 14.7956 96.6617 13.5542ZM98.453 12.7409H102.718C102.675 12.2272 102.505 11.7991 102.163 11.4138C101.78 11.0285 101.31 10.8145 100.671 10.8145C100.074 10.8145 99.5619 10.9857 99.1354 11.371C98.7089 11.7563 98.4956 12.2272 98.453 12.7409Z" fill="black"/>
    <path d="M108.177 12.3124V17.535H106.428V9.61557H108.177V10.6858C108.945 9.82961 109.926 9.44434 111.077 9.44434C112.015 9.44434 112.74 9.74399 113.252 10.3005C113.764 10.8998 114.02 11.6703 114.02 12.7405V17.5778H112.271V13.083C112.271 11.7131 111.674 11.0282 110.437 11.0282C110.011 11.0282 109.584 11.1566 109.158 11.3707C108.731 11.6275 108.433 11.9272 108.177 12.3124Z" fill="black"/>
    <path d="M53.9702 33.2456C52.6907 33.2456 51.6671 32.8603 50.8568 32.047C50.0465 31.2336 49.62 30.2491 49.62 29.0933C49.62 27.9375 50.0465 26.9529 50.8568 26.1395C51.6671 25.3262 52.7334 24.9409 53.9702 24.9409C55.207 24.9409 56.2306 25.3262 57.0836 26.1395C57.8939 26.9529 58.3204 27.9375 58.3204 29.0933C58.3204 30.2491 57.8939 31.2336 57.0836 32.047C56.2732 32.8603 55.2497 33.2456 53.9702 33.2456ZM53.9702 31.7045C54.6952 31.7045 55.335 31.4477 55.8041 30.934C56.3159 30.4203 56.5291 29.821 56.5291 29.0505C56.5291 28.2799 56.2732 27.6806 55.8041 27.1669C55.2923 26.6532 54.6952 26.3964 53.9702 26.3964C53.2452 26.3964 52.6054 26.6532 52.0936 27.1669C51.5818 27.6806 51.3686 28.2799 51.3686 29.0505C51.3686 29.821 51.6245 30.4631 52.0936 30.934C52.6054 31.4477 53.2452 31.7045 53.9702 31.7045Z" fill="black"/>
    <path d="M62.5853 26.6532V33.0743H60.8367V26.6532H59.344V25.1121H60.8367V24.0847C60.8367 23.3142 61.05 22.7149 61.4764 22.244C61.9029 21.7731 62.5 21.5591 63.3103 21.5591C63.9927 21.5591 64.6325 21.6875 65.1442 21.9015V23.357C64.6325 23.143 64.1633 23.0573 63.7795 23.0573C62.9692 23.0573 62.5427 23.4854 62.5427 24.3416V25.0693H65.1442V26.6532H62.5853Z" fill="black"/>
    <path d="M72.949 33.0317H71.1577V21.7305H72.949V26.1825H78.8345V21.7305H80.5831V33.0317H78.8345V27.8092H72.949V33.0317Z" fill="black"/>
    <path d="M82.673 29.0503C82.673 27.8517 83.0568 26.8671 83.7818 26.0966C84.5495 25.2832 85.5305 24.8979 86.7246 24.8979C87.535 24.8979 88.2173 25.112 88.8144 25.5401C89.9233 26.3534 90.4777 27.552 90.4777 29.1359V29.6068H84.4216C84.5495 30.2917 84.8481 30.8054 85.3599 31.1907C85.8716 31.5759 86.554 31.7472 87.3644 31.7472C88.26 31.7472 89.113 31.4903 89.9233 31.0194V32.4749C89.1983 32.9886 88.2173 33.2454 87.0232 33.2454C85.829 33.2454 84.7628 32.8602 83.9098 32.0896C83.0995 31.3191 82.673 30.2917 82.673 29.0503ZM84.4216 28.2798H88.6865C88.6438 27.7661 88.4732 27.338 88.132 26.9527C87.7482 26.5674 87.2791 26.3534 86.6393 26.3534C86.0422 26.3534 85.5305 26.5246 85.104 26.9099C84.7201 27.2952 84.5069 27.7233 84.4216 28.2798Z" fill="black"/>
    <path d="M94.1882 33.0314H92.4396V25.112H94.1882V26.4818C94.4441 26.0109 94.8706 25.6257 95.3824 25.326C95.9368 25.0264 96.4912 24.8979 97.0883 24.8979C97.1736 24.8979 97.2163 24.8979 97.2589 24.8979V26.6531C97.0457 26.6103 96.9177 26.6103 96.7898 26.6103C96.1927 26.6103 95.6809 26.7815 95.2118 27.0811C94.7426 27.3808 94.4014 27.7661 94.2308 28.1941V33.0314H94.1882Z" fill="black"/>
    <path d="M102.633 33.2456C101.353 33.2456 100.33 32.8603 99.5193 32.047C98.709 31.2336 98.2825 30.2491 98.2825 29.0933C98.2825 27.9375 98.709 26.9529 99.5193 26.1395C100.33 25.3262 101.396 24.9409 102.633 24.9409C103.869 24.9409 104.893 25.3262 105.746 26.1395C106.556 26.9529 106.983 27.9375 106.983 29.0933C106.983 30.2491 106.556 31.2336 105.746 32.047C104.893 32.8603 103.869 33.2456 102.633 33.2456ZM102.633 31.7045C103.358 31.7045 103.997 31.4477 104.467 30.934C104.978 30.4203 105.192 29.821 105.192 29.0505C105.192 28.2799 104.936 27.6806 104.467 27.1669C103.955 26.6532 103.358 26.3964 102.633 26.3964C101.908 26.3964 101.268 26.6532 100.756 27.1669C100.244 27.6806 100.031 28.2799 100.031 29.0505C100.031 29.821 100.287 30.4631 100.756 30.934C101.268 31.4477 101.865 31.7045 102.633 31.7045Z" fill="black"/>
    <path d="M108.305 29.0503C108.305 27.8517 108.689 26.8671 109.414 26.0966C110.181 25.2832 111.162 24.8979 112.357 24.8979C113.167 24.8979 113.849 25.112 114.446 25.5401C115.555 26.3534 116.11 27.552 116.11 29.1359V29.6068H110.054C110.181 30.2917 110.48 30.8054 110.992 31.1907C111.504 31.5759 112.186 31.7472 112.996 31.7472C113.892 31.7472 114.745 31.4903 115.555 31.0194V32.4749C114.83 32.9886 113.849 33.2454 112.655 33.2454C111.461 33.2454 110.395 32.8602 109.542 32.0896C108.731 31.3191 108.305 30.2917 108.305 29.0503ZM110.054 28.2798H114.318C114.276 27.7661 114.105 27.338 113.764 26.9527C113.38 26.5674 112.911 26.3534 112.271 26.3534C111.674 26.3534 111.162 26.5246 110.736 26.9099C110.352 27.2952 110.139 27.7233 110.054 28.2798Z" fill="black"/>
    <path d="M120.886 33.2456C119.479 33.2456 118.37 32.9888 117.602 32.4323V30.7628C118.541 31.4049 119.607 31.7045 120.844 31.7045C121.398 31.7045 121.825 31.6189 122.123 31.4477C122.422 31.2765 122.592 31.0624 122.592 30.7628C122.592 30.5059 122.422 30.2919 122.123 30.1206C121.995 30.035 121.739 29.9922 121.356 29.8638L120.375 29.607C119.436 29.3501 118.754 29.0505 118.327 28.708C117.901 28.3227 117.688 27.809 117.688 27.1669C117.688 26.4392 117.986 25.8827 118.583 25.4546C119.18 25.0265 119.991 24.8125 121.057 24.8125C122.251 24.8125 123.232 25.0693 123.957 25.5402V27.1241C123.019 26.5676 122.038 26.3108 121.1 26.3108C120.588 26.3108 120.161 26.3964 119.905 26.5248C119.607 26.696 119.479 26.9101 119.479 27.1669C119.479 27.4238 119.65 27.6378 119.991 27.809C120.033 27.8518 120.289 27.8947 120.758 28.0659L121.697 28.2799C123.488 28.6652 124.384 29.5213 124.384 30.8056C124.384 31.5333 124.085 32.0898 123.445 32.5607C122.763 33.0316 121.91 33.2456 120.886 33.2456Z" fill="black"/>
    <path d="M53.0746 43.9475C52.3069 43.9475 51.6672 43.6906 51.1554 43.1769C50.6436 42.6632 50.3877 42.0211 50.3877 41.2506C50.3877 40.4801 50.6436 39.8379 51.1554 39.3242C51.6672 38.8106 52.3069 38.5537 53.0746 38.5537C53.629 38.5537 54.1408 38.6821 54.5246 38.939V39.4955C54.0555 39.1958 53.5864 39.0674 53.0746 39.0674C52.4775 39.0674 51.9657 39.2814 51.5819 39.7095C51.1554 40.1376 50.9848 40.6513 50.9848 41.2934C50.9848 41.9355 51.198 42.4492 51.5819 42.8773C52.0084 43.3054 52.5201 43.5194 53.1172 43.5194C53.7143 43.5194 54.2261 43.3482 54.6526 43.0057V43.5622C54.1835 43.7762 53.6717 43.9475 53.0746 43.9475Z" fill="black"/>
    <path d="M56.188 41.4217V43.8617H55.6335V38.6392H56.188V40.8223C56.5718 40.3943 57.041 40.1802 57.6381 40.1802C58.0645 40.1802 58.4057 40.3087 58.6616 40.5655C58.9175 40.8223 59.0028 41.2076 59.0028 41.6785V43.8617H58.4484V41.7641C58.4484 41.0364 58.1072 40.6511 57.4248 40.6511C57.1689 40.6511 56.9557 40.7367 56.6998 40.8652C56.4439 41.0364 56.2733 41.2076 56.188 41.4217Z" fill="black"/>
    <path d="M61.2632 43.9473C60.8794 43.9473 60.5382 43.8616 60.2823 43.6476C60.0264 43.4336 59.8984 43.1339 59.8984 42.7486C59.8984 42.3634 60.0264 42.1065 60.3249 41.8925C60.6235 41.6784 60.9647 41.55 61.3912 41.55C61.8603 41.55 62.2868 41.6784 62.6706 41.8925V41.55C62.6706 40.9507 62.2868 40.6511 61.4765 40.6511C61.05 40.6511 60.6661 40.7795 60.2823 41.0363V40.5226C60.6235 40.3086 61.05 40.1802 61.5618 40.1802C62.0735 40.1802 62.4574 40.3086 62.7559 40.5226C63.0545 40.7367 63.1824 41.0791 63.1824 41.5072V43.0055C63.1824 43.1339 63.2251 43.2623 63.2677 43.3479C63.3104 43.4336 63.3957 43.4764 63.5236 43.4764C63.6089 43.4764 63.6515 43.4764 63.7368 43.4336V43.8616C63.6515 43.9044 63.5236 43.9473 63.3957 43.9473C63.2251 43.9473 63.0545 43.9044 62.9265 43.8188C62.7986 43.7332 62.7133 43.562 62.7133 43.3907C62.3294 43.7332 61.8603 43.9473 61.2632 43.9473ZM61.3912 43.4764C61.647 43.4764 61.8603 43.4336 62.1162 43.3051C62.3294 43.1767 62.5 43.0483 62.6706 42.8771V42.3634C62.2868 42.1065 61.9029 42.0209 61.5191 42.0209C61.1779 42.0209 60.922 42.1065 60.7514 42.2349C60.5808 42.3634 60.4529 42.5346 60.4529 42.7486C60.4529 42.9627 60.5382 43.1767 60.7088 43.3051C60.8794 43.3908 61.0926 43.4764 61.3912 43.4764Z" fill="black"/>
    <path d="M65.1443 43.8616H64.5898V40.2658H65.1443V40.9507C65.2722 40.7367 65.4855 40.5226 65.7414 40.3942C65.9973 40.2658 66.2958 40.1802 66.5943 40.1802V40.7367C66.4237 40.7367 66.2958 40.7795 66.1679 40.8223C65.9546 40.8651 65.7414 40.9935 65.5708 41.1219C65.4002 41.2504 65.2722 41.4216 65.1869 41.6356V43.8616H65.1443Z" fill="black"/>
    <path d="M67.4472 39.2813C67.3619 39.1957 67.3619 39.11 67.3619 39.0244C67.3619 38.9388 67.4046 38.8104 67.4472 38.7676C67.5325 38.682 67.6178 38.6392 67.7031 38.6392C67.7884 38.6392 67.9164 38.682 67.959 38.7676C68.0017 38.8532 68.087 38.9388 68.087 39.0244C68.087 39.11 68.0443 39.2385 67.959 39.2813C67.8737 39.3669 67.7884 39.3669 67.7031 39.3669C67.6178 39.3669 67.5325 39.3241 67.4472 39.2813ZM67.959 43.8617H67.4046V40.2659H67.959V43.8617Z" fill="black"/>
    <path d="M70.7739 43.9473C70.4327 43.9473 70.1768 43.8617 70.0062 43.6476C69.8356 43.4336 69.7503 43.1768 69.7503 42.8343V40.7367H68.8973V40.2658H69.7503V39.1528H70.3048V40.2658H71.5842V40.7367H70.3048V42.7059C70.3048 43.0055 70.3474 43.1768 70.4327 43.3052C70.518 43.4336 70.6886 43.4764 70.9018 43.4764C71.1151 43.4764 71.3283 43.4336 71.4989 43.348V43.8617C71.371 43.9045 71.1151 43.9473 70.7739 43.9473Z" fill="black"/>
    <path d="M72.7358 45.4027C72.4799 45.4027 72.2666 45.3599 72.1813 45.3171V44.8034C72.3519 44.889 72.4799 44.9318 72.6931 44.9318C72.9063 44.9318 73.1196 44.8462 73.2475 44.675C73.4181 44.5037 73.5887 44.2041 73.7593 43.776L72.1387 40.3086H72.7358L74.0152 43.1339L75.252 40.3086H75.8491L74.0579 44.3325C73.7167 45.0174 73.2902 45.4027 72.7358 45.4027Z" fill="black"/>
    <path d="M79.4743 40.7371V43.862H78.9199V40.7371H78.1948V40.2662H78.9199V39.6669C78.9199 39.3244 79.0052 39.0676 79.1757 38.8963C79.3463 38.7251 79.6022 38.5967 79.9434 38.5967C80.242 38.5967 80.4979 38.6395 80.7111 38.7251V39.2388C80.4552 39.1532 80.2846 39.1104 80.0714 39.1104C79.6449 39.1104 79.4316 39.3244 79.4316 39.7953V40.309H80.6685V40.7799H79.4743V40.7371Z" fill="black"/>
    <path d="M84.3362 42.7061V40.2661H84.8906V43.862H84.3362V43.3055C83.9523 43.7335 83.4832 43.9476 82.8861 43.9476C82.4596 43.9476 82.1184 43.8191 81.8625 43.5623C81.6067 43.3055 81.5214 42.9202 81.5214 42.4493V40.2661H82.0758V42.3637C82.0758 43.0914 82.417 43.4767 83.0994 43.4767C83.3553 43.4767 83.5685 43.3911 83.8244 43.2626C84.0376 43.0486 84.2082 42.8774 84.3362 42.7061Z" fill="black"/>
    <path d="M86.6393 41.4216V43.8616H86.0848V40.2658H86.6393V40.8223C87.0231 40.3942 87.4923 40.1802 88.0893 40.1802C88.5158 40.1802 88.857 40.3086 89.1129 40.5654C89.3688 40.8223 89.4541 41.2076 89.4541 41.6784V43.8616H88.9423V41.7641C88.9423 41.0363 88.6011 40.6511 87.9187 40.6511C87.6629 40.6511 87.4496 40.7367 87.1937 40.8651C86.9378 41.0363 86.7672 41.2076 86.6393 41.4216Z" fill="black"/>
    <path d="M93.591 40.8223V38.6392H94.1455V43.8617H93.591V43.3052C93.2499 43.7333 92.7807 43.9901 92.1836 43.9901C91.6718 43.9901 91.2027 43.8189 90.8615 43.4336C90.5203 43.0483 90.3497 42.6203 90.3497 42.1066C90.3497 41.5929 90.5203 41.122 90.8615 40.7795C91.2027 40.3943 91.6292 40.223 92.1836 40.223C92.8234 40.1374 93.2925 40.3943 93.591 40.8223ZM93.591 42.6631V41.4645C93.5057 41.2076 93.3352 41.0364 93.0793 40.8652C92.866 40.6939 92.6101 40.6511 92.3116 40.6511C91.9277 40.6511 91.5866 40.7795 91.3307 41.0792C91.0748 41.336 90.9468 41.6785 90.9468 42.0638C90.9468 42.449 91.0748 42.7915 91.3307 43.0483C91.5866 43.3052 91.9277 43.4336 92.3116 43.4336C92.5675 43.4336 92.8234 43.348 93.0793 43.2196C93.3352 43.0912 93.5057 42.8771 93.591 42.6631Z" fill="black"/>
    <path d="M18.8701 43.2196C18.1877 43.0483 2.53554 38.3823 0.744285 11.9272C0.701636 11.2851 0.573689 9.40154 0.573689 9.40154L0.275146 5.54885L20.1069 0.754395L39.896 5.54885L39.5975 9.40154C39.5975 9.40154 39.4695 11.2851 39.4269 11.9272C37.6356 38.3823 21.9835 43.0483 21.3011 43.2196L20.1069 43.562L18.8701 43.2196Z" fill="#1F88C9"/>
    <path d="M28.1676 8.07471L21.2158 9.7442C21.2158 9.7442 21.3011 10.6432 21.3011 10.9428C22.0262 21.816 28.1676 23.5283 28.1676 23.5283C28.1676 23.5283 34.2664 21.816 35.0341 10.9428C35.0341 10.6432 35.1194 9.7442 35.1194 9.7442L28.1676 8.07471Z" fill="#FFE205"/>
  </g>
  <defs>
    <clipPath id="clip0_271_3804">
      <rect width="124.535" height="45" fill="white" transform="translate(0.232544 0.541992)"/>
    </clipPath>
  </defs>
</svg>
