<svg width="114" height="41" viewBox="0 0 114 41" fill="none" xmlns="http://www.w3.org/2000/svg">
  <g clip-path="url(#clip0_61_512)">
    <path d="M51.09 15.6777C49.542 15.6777 48.265 15.1706 47.2201 14.1566C46.214 13.1425 45.6722 11.8554 45.6722 10.2953C45.6722 8.73521 46.1753 7.48713 47.2201 6.47306C48.2263 5.459 49.5033 4.95197 51.09 4.95197C52.1349 4.95197 53.0636 5.18598 53.8763 5.65401V7.29212C53.0636 6.74608 52.1349 6.47306 51.1287 6.47306C50.0451 6.47306 49.1551 6.82409 48.4585 7.56513C47.7619 8.26718 47.3749 9.20324 47.3749 10.2953C47.3749 11.3874 47.7232 12.3234 48.4585 13.0645C49.1938 13.7665 50.0838 14.1566 51.2061 14.1566C52.367 14.1566 53.3345 13.8445 54.1472 13.2205V14.8586C53.2571 15.4046 52.2509 15.6777 51.09 15.6777Z" fill="white"/>
    <path d="M57.514 10.7243V15.4826H55.9273V5.18597H57.514V9.20323C58.2105 8.42318 59.1006 8.07216 60.1455 8.07216C60.9968 8.07216 61.6547 8.34518 62.1191 8.85221C62.5835 9.39825 62.8157 10.1003 62.8157 11.0754V15.4826H61.229V11.4264C61.229 10.7243 61.0742 10.2563 60.7259 9.98328C60.3776 9.71027 59.9907 9.55426 59.5263 9.55426C59.1393 9.55426 58.7523 9.67126 58.3653 9.86628C58.017 10.1003 57.7074 10.3733 57.514 10.7243Z" fill="white"/>
    <path d="M65.8342 6.9801C65.5633 6.9801 65.3311 6.90209 65.1376 6.70708C64.9441 6.51207 64.8667 6.27805 64.8667 6.00503C64.8667 5.73202 64.9441 5.498 65.1376 5.26399C65.3311 5.06897 65.5633 4.95197 65.8342 4.95197C66.1051 4.95197 66.3372 5.06897 66.5307 5.26399C66.7242 5.459 66.8016 5.69301 66.8016 6.00503C66.8016 6.27805 66.7242 6.51207 66.5307 6.70708C66.3372 6.86309 66.1051 6.9801 65.8342 6.9801ZM66.6081 15.4826H65.0215V8.26718H66.6081V15.4826Z" fill="white"/>
    <path d="M70.7876 15.6777C70.2458 15.6777 69.7814 15.5216 69.4718 15.2096C69.1622 14.8976 69.0074 14.4296 69.0074 13.7665V5.18597H70.5941V13.3375C70.5941 13.9225 70.865 14.2346 71.3681 14.2346C71.6003 14.2346 71.7937 14.1956 71.9485 14.0785V15.4436C71.639 15.5996 71.252 15.6777 70.7876 15.6777Z" fill="white"/>
    <path d="M76.4376 15.6777C75.4314 15.6777 74.5801 15.3266 73.9222 14.5856C73.2643 13.8445 72.9547 12.9475 72.9547 11.8944C72.9547 10.8413 73.2643 9.94428 73.9222 9.20323C74.5801 8.46219 75.3927 8.11116 76.4376 8.11116C77.5211 8.11116 78.3725 8.50119 78.9917 9.28124V5.18597H80.5783V15.4826H78.9917V14.5076C78.3725 15.2876 77.5211 15.6777 76.4376 15.6777ZM76.8633 14.2736C77.3277 14.2736 77.7533 14.1566 78.1016 13.9225C78.4886 13.6885 78.7595 13.3765 78.9917 12.9865V10.7633C78.7982 10.3733 78.4886 10.1003 78.1016 9.82727C77.7146 9.59326 77.289 9.47625 76.8633 9.47625C76.2054 9.47625 75.6636 9.71027 75.1992 10.1783C74.7735 10.6463 74.5414 11.1924 74.5414 11.8554C74.5414 12.5184 74.7735 13.1035 75.1992 13.5715C75.6249 14.0395 76.1667 14.2736 76.8633 14.2736Z" fill="white"/>
    <path d="M84.3708 15.4826H82.7842V8.26716H84.3708V9.51524C84.603 9.08621 84.99 8.73519 85.4544 8.46217C85.9575 8.18915 86.4606 8.07214 87.0023 8.07214C87.0797 8.07214 87.1184 8.07214 87.1571 8.07214V9.67125C86.9636 9.63224 86.8475 9.63224 86.7314 9.63224C86.1897 9.63224 85.7253 9.78825 85.2996 10.0613C84.8739 10.3343 84.5643 10.6853 84.4095 11.0753V15.4826H84.3708Z" fill="white"/>
    <path d="M88.0859 11.8554C88.0859 10.7633 88.4342 9.86626 89.092 9.16421C89.7886 8.42317 90.6787 8.07214 91.7622 8.07214C92.4975 8.07214 93.1167 8.26716 93.6585 8.65718C94.6646 9.39823 95.1677 10.4903 95.1677 11.9334V12.3624H89.6725C89.7886 12.9865 90.0595 13.4545 90.5239 13.8055C90.9883 14.1565 91.6074 14.3125 92.3427 14.3125C93.1554 14.3125 93.9294 14.0785 94.6646 13.6495V14.9756C94.0068 15.4436 93.1167 15.6776 92.0331 15.6776C90.9496 15.6776 89.9821 15.3266 89.2081 14.6246C88.4729 13.9225 88.0859 12.9865 88.0859 11.8554ZM89.7112 11.1143H93.5811C93.5424 10.6463 93.3876 10.2563 93.078 9.90526C92.7297 9.55424 92.304 9.35923 91.7235 9.35923C91.1818 9.35923 90.7174 9.51524 90.3304 9.86626C89.9434 10.2173 89.7499 10.6463 89.7112 11.1143Z" fill="white"/>
    <path d="M98.5345 10.7243V15.4826H96.9479V8.26716H98.5345V9.24222C99.2311 8.46217 100.121 8.11115 101.166 8.11115C102.017 8.11115 102.675 8.38416 103.14 8.8912C103.604 9.43723 103.836 10.1393 103.836 11.1143V15.5216H102.25V11.4264C102.25 10.1783 101.708 9.55424 100.586 9.55424C100.199 9.55424 99.8116 9.67125 99.4246 9.86626C99.0376 10.1003 98.7667 10.3733 98.5345 10.7243Z" fill="white"/>
    <path d="M49.3485 29.7966C48.1875 29.7966 47.2588 29.4456 46.5235 28.7045C45.7882 27.9635 45.4012 27.0664 45.4012 26.0133C45.4012 24.9603 45.7882 24.0632 46.5235 23.3222C47.2588 22.5811 48.2262 22.2301 49.3485 22.2301C50.4708 22.2301 51.3995 22.5811 52.1735 23.3222C52.9088 24.0632 53.2958 24.9603 53.2958 26.0133C53.2958 27.0664 52.9088 27.9635 52.1735 28.7045C51.4382 29.4456 50.5095 29.7966 49.3485 29.7966ZM49.3485 28.3925C50.0064 28.3925 50.5869 28.1585 51.0125 27.6905C51.4769 27.2224 51.6704 26.6764 51.6704 25.9743C51.6704 25.2723 51.4382 24.7263 51.0125 24.2582C50.5482 23.7902 50.0064 23.5562 49.3485 23.5562C48.6906 23.5562 48.1101 23.7902 47.6458 24.2582C47.1814 24.7263 46.9879 25.2723 46.9879 25.9743C46.9879 26.6764 47.2201 27.2614 47.6458 27.6905C48.1101 28.1585 48.6906 28.3925 49.3485 28.3925Z" fill="white"/>
    <path d="M57.1656 23.7902V29.6405H55.579V23.7902H54.2245V22.3861H55.579V21.45C55.579 20.748 55.7725 20.2019 56.1595 19.7729C56.5465 19.3439 57.0882 19.1489 57.8235 19.1489C58.4427 19.1489 59.0232 19.2659 59.4876 19.4609V20.787C59.0232 20.592 58.5975 20.514 58.2492 20.514C57.5139 20.514 57.1269 20.904 57.1269 21.684V22.3471H59.4876V23.7902H57.1656Z" fill="white"/>
    <path d="M66.5694 29.6015H64.9441V19.3049H66.5694V23.3611H71.9098V19.3049H73.4965V29.6015H71.9098V24.8432H66.5694V29.6015Z" fill="white"/>
    <path d="M75.3927 25.9743C75.3927 24.8823 75.741 23.9852 76.3989 23.2832C77.0954 22.5421 77.9855 22.1911 79.0691 22.1911C79.8043 22.1911 80.4235 22.3861 80.9653 22.7761C81.9715 23.5172 82.4745 24.6093 82.4745 26.0524V26.4814H76.9793C77.0954 27.1054 77.3663 27.5734 77.8307 27.9245C78.2951 28.2755 78.9143 28.4315 79.6495 28.4315C80.4622 28.4315 81.2362 28.1975 81.9715 27.7685V29.0945C81.3136 29.5626 80.4235 29.7966 79.34 29.7966C78.2564 29.7966 77.2889 29.4456 76.515 28.7435C75.7797 28.0415 75.3927 27.1054 75.3927 25.9743ZM76.9793 25.2723H80.8492C80.8105 24.8043 80.6557 24.4142 80.3461 24.0632C79.9978 23.7122 79.5722 23.5172 78.9917 23.5172C78.4499 23.5172 77.9855 23.6732 77.5985 24.0242C77.2502 24.3752 77.0567 24.7653 76.9793 25.2723Z" fill="white"/>
    <path d="M85.8413 29.6016H84.2547V22.3861H85.8413V23.6342C86.0735 23.2052 86.4605 22.8541 86.9249 22.5811C87.428 22.3081 87.9311 22.1911 88.4729 22.1911C88.5503 22.1911 88.5889 22.1911 88.6276 22.1911V23.7902C88.4342 23.7512 88.3181 23.7512 88.202 23.7512C87.6602 23.7512 87.1958 23.9072 86.7701 24.1802C86.3444 24.4532 86.0348 24.8043 85.88 25.1943V29.6016H85.8413Z" fill="white"/>
    <path d="M93.5037 29.7966C92.3427 29.7966 91.4139 29.4456 90.6787 28.7045C89.9434 27.9635 89.5564 27.0664 89.5564 26.0133C89.5564 24.9603 89.9434 24.0632 90.6787 23.3222C91.4139 22.5811 92.3814 22.2301 93.5037 22.2301C94.6259 22.2301 95.5547 22.5811 96.3287 23.3222C97.0639 24.0632 97.4509 24.9603 97.4509 26.0133C97.4509 27.0664 97.0639 27.9635 96.3287 28.7045C95.5547 29.4456 94.6259 29.7966 93.5037 29.7966ZM93.5037 28.3925C94.1615 28.3925 94.742 28.1585 95.1677 27.6905C95.6321 27.2224 95.8256 26.6764 95.8256 25.9743C95.8256 25.2723 95.5934 24.7263 95.1677 24.2582C94.7033 23.7902 94.1615 23.5562 93.5037 23.5562C92.8458 23.5562 92.2653 23.7902 91.8009 24.2582C91.3365 24.7263 91.143 25.2723 91.143 25.9743C91.143 26.6764 91.3752 27.2614 91.8009 27.6905C92.2653 28.1585 92.8071 28.3925 93.5037 28.3925Z" fill="white"/>
    <path d="M98.6506 25.9743C98.6506 24.8823 98.9989 23.9852 99.6567 23.2832C100.353 22.5421 101.243 22.1911 102.327 22.1911C103.062 22.1911 103.681 22.3861 104.223 22.7761C105.229 23.5172 105.732 24.6093 105.732 26.0524V26.4814H100.237C100.353 27.1054 100.624 27.5734 101.089 27.9245C101.553 28.2755 102.172 28.4315 102.907 28.4315C103.72 28.4315 104.494 28.1975 105.229 27.7685V29.0945C104.571 29.5626 103.681 29.7966 102.598 29.7966C101.514 29.7966 100.547 29.4456 99.7728 28.7435C99.0376 28.0415 98.6506 27.1054 98.6506 25.9743ZM100.237 25.2723H104.107C104.068 24.8043 103.914 24.4142 103.604 24.0632C103.256 23.7122 102.83 23.5172 102.25 23.5172C101.708 23.5172 101.243 23.6732 100.856 24.0242C100.508 24.3752 100.315 24.7653 100.237 25.2723Z" fill="white"/>
    <path d="M110.067 29.7966C108.79 29.7966 107.783 29.5626 107.087 29.0555V27.5344C107.938 28.1195 108.906 28.3925 110.028 28.3925C110.531 28.3925 110.918 28.3145 111.189 28.1585C111.46 28.0025 111.615 27.8075 111.615 27.5344C111.615 27.3004 111.46 27.1054 111.189 26.9494C111.073 26.8714 110.841 26.8324 110.492 26.7154L109.602 26.4814C108.751 26.2474 108.132 25.9743 107.745 25.6623C107.358 25.3113 107.164 24.8433 107.164 24.2582C107.164 23.5952 107.435 23.0882 107.977 22.6981C108.519 22.3081 109.254 22.1131 110.221 22.1131C111.305 22.1131 112.195 22.3471 112.853 22.7761V24.2192C112.002 23.7122 111.112 23.4782 110.26 23.4782C109.796 23.4782 109.409 23.5562 109.177 23.6732C108.906 23.8292 108.79 24.0242 108.79 24.2582C108.79 24.4923 108.944 24.6873 109.254 24.8433C109.293 24.8823 109.525 24.9213 109.951 25.0773L110.802 25.2723C112.427 25.6233 113.24 26.4034 113.24 27.5734C113.24 28.2365 112.969 28.7435 112.389 29.1726C111.769 29.6016 110.995 29.7966 110.067 29.7966Z" fill="white"/>
    <path d="M48.5359 39.5472C47.8393 39.5472 47.2588 39.3132 46.7944 38.8451C46.33 38.3771 46.0978 37.7921 46.0978 37.09C46.0978 36.388 46.33 35.8029 46.7944 35.3349C47.2588 34.8669 47.8393 34.6329 48.5359 34.6329C49.0389 34.6329 49.5033 34.7499 49.8516 34.9839V35.4909C49.4259 35.2179 49.0002 35.1009 48.5359 35.1009C47.9941 35.1009 47.5297 35.2959 47.1814 35.6859C46.7944 36.076 46.6396 36.544 46.6396 37.129C46.6396 37.7141 46.8331 38.1821 47.1814 38.5721C47.5684 38.9622 48.0328 39.1572 48.5746 39.1572C49.1163 39.1572 49.5807 39.0012 49.9677 38.6891V39.1962C49.542 39.3912 49.0776 39.5472 48.5359 39.5472Z" fill="white"/>
    <path d="M51.3609 37.246V39.4692H50.8578V34.7109H51.3609V36.7C51.7092 36.31 52.1348 36.115 52.6766 36.115C53.0636 36.115 53.3732 36.232 53.6054 36.466C53.8376 36.7 53.915 37.051 53.915 37.4801V39.4692H53.4119V37.5581C53.4119 36.895 53.1023 36.544 52.4831 36.544C52.2509 36.544 52.0574 36.622 51.8253 36.739C51.5931 36.895 51.4383 37.051 51.3609 37.246Z" fill="white"/>
    <path d="M55.966 39.5472C55.6177 39.5472 55.3081 39.4692 55.076 39.2742C54.8438 39.0792 54.7277 38.8062 54.7277 38.4551C54.7277 38.1041 54.8438 37.8701 55.1146 37.6751C55.3855 37.4801 55.6951 37.3631 56.0821 37.3631C56.5078 37.3631 56.8948 37.4801 57.2431 37.6751V37.3631C57.2431 36.817 56.8948 36.544 56.1595 36.544C55.7725 36.544 55.4242 36.661 55.076 36.895V36.427C55.3855 36.232 55.7725 36.115 56.2369 36.115C56.7013 36.115 57.0496 36.232 57.3205 36.427C57.5914 36.622 57.7075 36.934 57.7075 37.3241V38.6892C57.7075 38.8062 57.7462 38.9232 57.7849 39.0012C57.8236 39.0792 57.9009 39.1182 58.017 39.1182C58.0944 39.1182 58.1331 39.1182 58.2105 39.0792V39.4692C58.1331 39.5082 58.017 39.5472 57.901 39.5472C57.7462 39.5472 57.5914 39.5082 57.4753 39.4302C57.3592 39.3522 57.2818 39.1962 57.2818 39.0402C56.9335 39.3522 56.5078 39.5472 55.966 39.5472ZM56.0821 39.1182C56.3143 39.1182 56.5078 39.0792 56.74 38.9622C56.9335 38.8452 57.0883 38.7282 57.2431 38.5722V38.1041C56.8948 37.8701 56.5465 37.7921 56.1982 37.7921C55.8886 37.7921 55.6564 37.8701 55.5016 37.9871C55.3468 38.1041 55.2307 38.2601 55.2307 38.4551C55.2307 38.6502 55.3081 38.8452 55.4629 38.9622C55.6177 39.0402 55.8112 39.1182 56.0821 39.1182Z" fill="white"/>
    <path d="M59.4876 39.4692H58.9845V36.193H59.4876V36.817C59.6037 36.622 59.7972 36.427 60.0294 36.31C60.2616 36.193 60.5324 36.115 60.8033 36.115V36.622C60.6485 36.622 60.5324 36.661 60.4164 36.7C60.2229 36.739 60.0294 36.856 59.8746 36.973C59.7198 37.0901 59.6037 37.2461 59.5263 37.4411V39.4692H59.4876Z" fill="white"/>
    <path d="M61.5773 35.2959C61.4999 35.2179 61.4999 35.1399 61.4999 35.0619C61.4999 34.9839 61.5386 34.8669 61.5773 34.8279C61.6547 34.7499 61.7321 34.7109 61.8095 34.7109C61.8869 34.7109 62.003 34.7499 62.0417 34.8279C62.0804 34.9059 62.1578 34.9839 62.1578 35.0619C62.1578 35.1399 62.1191 35.2569 62.0417 35.2959C61.9643 35.3739 61.8869 35.3739 61.8095 35.3739C61.7321 35.3739 61.6547 35.3349 61.5773 35.2959ZM62.0417 39.4692H61.5386V36.193H62.0417V39.4692Z" fill="white"/>
    <path d="M64.5958 39.5472C64.2862 39.5472 64.054 39.4692 63.8992 39.2742C63.7444 39.0791 63.667 38.8451 63.667 38.5331V36.622H62.8931V36.193H63.667V35.1789H64.1701V36.193H65.3311V36.622H64.1701V38.4161C64.1701 38.6891 64.2088 38.8451 64.2862 38.9621C64.3636 39.0791 64.5184 39.1181 64.7119 39.1181C64.9054 39.1181 65.0989 39.0791 65.2537 39.0011V39.4692C65.1376 39.5082 64.9054 39.5472 64.5958 39.5472Z" fill="white"/>
    <path d="M66.3759 40.8733C66.1437 40.8733 65.9502 40.8343 65.8728 40.7953V40.3273C66.0276 40.4053 66.1437 40.4443 66.3372 40.4443C66.5307 40.4443 66.7242 40.3663 66.8403 40.2103C66.9951 40.0542 67.1499 39.7812 67.3047 39.3912L65.8341 36.232H66.3759L67.5368 38.8062L68.6591 36.232H69.2009L67.5755 39.8982C67.266 40.5223 66.879 40.8733 66.3759 40.8733Z" fill="white"/>
    <path d="M72.4903 36.622V39.4692H71.9872V36.622H71.3293V36.193H71.9872V35.6469C71.9872 35.3349 72.0646 35.1009 72.2194 34.9449C72.3742 34.7889 72.6064 34.6719 72.916 34.6719C73.1869 34.6719 73.4191 34.7109 73.6126 34.7889V35.2569C73.3804 35.1789 73.2256 35.1399 73.0321 35.1399C72.6451 35.1399 72.4516 35.3349 72.4516 35.7639V36.232H73.5739V36.661H72.4903V36.622Z" fill="white"/>
    <path d="M76.9019 38.4161V36.193H77.405V39.4692H76.9019V38.9622C76.5537 39.3522 76.128 39.5472 75.5862 39.5472C75.1992 39.5472 74.8896 39.4302 74.6574 39.1962C74.4252 38.9622 74.3478 38.6112 74.3478 38.1821V36.193H74.8509V38.1041C74.8509 38.7672 75.1605 39.1182 75.7797 39.1182C76.0119 39.1182 76.2054 39.0402 76.4376 38.9232C76.6311 38.7282 76.7859 38.5721 76.9019 38.4161Z" fill="white"/>
    <path d="M78.9917 37.2461V39.4692H78.4886V36.193H78.9917V36.7C79.34 36.31 79.7656 36.115 80.3074 36.115C80.6944 36.115 81.004 36.232 81.2362 36.466C81.4684 36.7 81.5458 37.0511 81.5458 37.4801V39.4692H81.0814V37.5581C81.0814 36.895 80.7718 36.544 80.1526 36.544C79.9204 36.544 79.7269 36.622 79.4947 36.739C79.2626 36.895 79.1078 37.0511 78.9917 37.2461Z" fill="white"/>
    <path d="M85.2996 36.7V34.7109H85.8026V39.4692H85.2996V38.9621C84.99 39.3522 84.5643 39.5862 84.0225 39.5862C83.5581 39.5862 83.1324 39.4302 82.8228 39.0792C82.5133 38.7281 82.3585 38.3381 82.3585 37.8701C82.3585 37.402 82.5133 36.973 82.8228 36.661C83.1324 36.31 83.5194 36.154 84.0225 36.154C84.603 36.076 85.0287 36.31 85.2996 36.7ZM85.2996 38.3771V37.285C85.2222 37.051 85.0674 36.895 84.8352 36.739C84.6417 36.583 84.4095 36.544 84.1386 36.544C83.7903 36.544 83.4807 36.661 83.2485 36.934C83.0163 37.168 82.9002 37.4801 82.9002 37.8311C82.9002 38.1821 83.0163 38.4941 83.2485 38.7281C83.4807 38.9622 83.7903 39.0792 84.1386 39.0792C84.3708 39.0792 84.603 39.0012 84.8352 38.8841C85.0674 38.7671 85.2222 38.5721 85.2996 38.3771Z" fill="white"/>
    <path d="M17.4996 38.8842C16.8804 38.7281 2.67798 34.4769 1.05264 10.3733C1.01394 9.78828 0.897844 8.07217 0.897844 8.07217L0.626953 4.56195L18.6218 0.193665L36.578 4.56195L36.3071 8.07217C36.3071 8.07217 36.191 9.78828 36.1523 10.3733C34.527 34.4769 20.3246 38.7281 19.7054 38.8842L18.6218 39.1962L17.4996 38.8842Z" fill="#1F88C9"/>
    <path d="M25.9359 6.8631L19.628 8.3842C19.628 8.3842 19.7054 9.20325 19.7054 9.47627C20.3633 19.3829 25.9359 20.943 25.9359 20.943C25.9359 20.943 31.4698 19.3829 32.1663 9.47627C32.1663 9.20325 32.2437 8.3842 32.2437 8.3842L25.9359 6.8631Z" fill="#FFE205"/>
  </g>
  <defs>
    <clipPath id="clip0_61_512">
      <rect width="113" height="41" fill="white" transform="translate(0.588257)"/>
    </clipPath>
  </defs>
</svg>
