<svg width="164" height="42" viewBox="0 0 164 42" fill="none" xmlns="http://www.w3.org/2000/svg">
  <path fill-rule="evenodd" clip-rule="evenodd" d="M18 33.1467C18.1337 32.6288 18.2505 32.1789 18.372 31.7266C18.766 30.2847 19.172 28.8476 19.5465 27.4032C19.6 27.1868 19.5781 26.9023 19.476 26.7078C15.814 19.7266 19.5927 11.2768 27.2766 9.47495C34.2553 7.83848 40.5289 12.5485 41.6742 18.8488C42.8657 25.419 38.569 31.661 32.0498 32.8014C29.4578 33.2488 26.9824 32.8671 24.6164 31.7193C24.4049 31.6148 24.1082 31.5856 23.8845 31.6391C20.7331 32.4294 18.6371 33.0227 18 33.1467ZM20.772 30.4136C21.9587 30.1047 23.0505 29.8324 24.1325 29.526C24.4389 29.4433 24.6748 29.4895 24.9447 29.6452C26.9945 30.8269 29.1903 31.267 31.5368 30.8902C36.9398 30.0245 40.6407 24.9692 39.814 19.5856C38.9556 14.005 33.7252 10.2628 28.1982 11.2768C21.5088 12.5023 17.9587 19.9576 21.2851 25.8616C21.6523 26.5157 21.7544 27.0555 21.5064 27.7509C21.2122 28.5874 21.0274 29.4628 20.772 30.4111V30.4136Z" fill="white"/>
  <path fill-rule="evenodd" clip-rule="evenodd" d="M33.076 26.7587C30.7514 26.6761 27.0504 24.8402 24.5143 20.4365C23.6146 18.8706 23.7435 17.0858 25.0638 15.8602C25.5088 15.4444 26.0681 15.5466 26.5933 15.6341C26.7222 15.6536 26.8559 15.8505 26.9216 15.9964C27.2596 16.7648 27.5927 17.5332 27.8869 18.321C28.0425 18.7368 27.7556 19.1283 27.155 19.8213C26.9629 20.0402 26.924 20.242 27.0723 20.4973C28.0474 22.1484 29.4115 23.3423 31.2036 24.0426C31.4662 24.1447 31.6632 24.0815 31.831 23.8748C32.7817 22.715 32.879 22.377 33.3775 22.6153C35.7824 23.7654 35.9696 23.8116 35.9817 24.084C36.0644 26.1095 34.2042 26.8414 33.0784 26.7587H33.076Z" fill="white"/>
  <path d="M66.5625 27H63.8047L62.2578 21C62.2005 20.7865 62.1016 20.3464 61.9609 19.6797C61.8255 19.0078 61.7474 18.5573 61.7266 18.3281C61.6953 18.6094 61.6172 19.0625 61.4922 19.6875C61.3672 20.3073 61.2708 20.75 61.2031 21.0156L59.6641 27H56.9141L54 15.5781H56.3828L57.8438 21.8125C58.099 22.9635 58.2839 23.9609 58.3984 24.8047C58.4297 24.5078 58.5 24.0495 58.6094 23.4297C58.724 22.8047 58.8307 22.3203 58.9297 21.9766L60.5938 15.5781H62.8828L64.5469 21.9766C64.6198 22.263 64.7109 22.7005 64.8203 23.2891C64.9297 23.8776 65.013 24.3828 65.0703 24.8047C65.1224 24.3984 65.2057 23.8932 65.3203 23.2891C65.4349 22.6797 65.5391 22.1875 65.6328 21.8125L67.0859 15.5781H69.4688L66.5625 27ZM79.1012 27H76.7184V21.8984C76.7184 20.638 76.2497 20.0078 75.3122 20.0078C74.6455 20.0078 74.1637 20.2344 73.8669 20.6875C73.57 21.1406 73.4216 21.875 73.4216 22.8906V27H71.0387V14.8438H73.4216V17.3203C73.4216 17.513 73.4033 17.9661 73.3669 18.6797L73.3122 19.3828H73.4372C73.9684 18.5286 74.8122 18.1016 75.9684 18.1016C76.9945 18.1016 77.7731 18.3776 78.3044 18.9297C78.8356 19.4818 79.1012 20.2734 79.1012 21.3047V27ZM87.4212 27L86.9603 25.8125H86.8978C86.4968 26.3177 86.0827 26.6693 85.6556 26.8672C85.2337 27.0599 84.6817 27.1562 83.9994 27.1562C83.1608 27.1562 82.4994 26.9167 82.015 26.4375C81.5358 25.9583 81.2962 25.276 81.2962 24.3906C81.2962 23.4635 81.6192 22.7812 82.265 22.3438C82.916 21.901 83.8952 21.6562 85.2025 21.6094L86.7181 21.5625V21.1797C86.7181 20.2943 86.265 19.8516 85.3587 19.8516C84.6608 19.8516 83.8405 20.0625 82.8978 20.4844L82.1087 18.875C83.114 18.349 84.2285 18.0859 85.4525 18.0859C86.6244 18.0859 87.5228 18.3411 88.1478 18.8516C88.7728 19.362 89.0853 20.138 89.0853 21.1797V27H87.4212ZM86.7181 22.9531L85.7962 22.9844C85.1035 23.0052 84.5879 23.1302 84.2494 23.3594C83.9108 23.5885 83.7416 23.9375 83.7416 24.4062C83.7416 25.0781 84.127 25.4141 84.8978 25.4141C85.4499 25.4141 85.89 25.2552 86.2181 24.9375C86.5515 24.6198 86.7181 24.1979 86.7181 23.6719V22.9531ZM95.5459 25.2578C95.9626 25.2578 96.4626 25.1667 97.0459 24.9844V26.7578C96.4522 27.0234 95.723 27.1562 94.8584 27.1562C93.9053 27.1562 93.21 26.9167 92.7725 26.4375C92.3402 25.9531 92.1241 25.2292 92.1241 24.2656V20.0547H90.9834V19.0469L92.2959 18.25L92.9834 16.4062H94.5069V18.2656H96.9522V20.0547H94.5069V24.2656C94.5069 24.6042 94.6006 24.8542 94.7881 25.0156C94.9808 25.1771 95.2334 25.2578 95.5459 25.2578ZM105.233 24.4062C105.233 25.3021 104.921 25.9844 104.296 26.4531C103.676 26.9219 102.746 27.1562 101.507 27.1562C100.871 27.1562 100.329 27.112 99.8816 27.0234C99.4336 26.9401 99.0144 26.8151 98.6237 26.6484V24.6797C99.0665 24.888 99.5639 25.0625 100.116 25.2031C100.673 25.3438 101.163 25.4141 101.585 25.4141C102.449 25.4141 102.882 25.1641 102.882 24.6641C102.882 24.4766 102.824 24.3255 102.71 24.2109C102.595 24.0911 102.397 23.9583 102.116 23.8125C101.835 23.6615 101.46 23.487 100.991 23.2891C100.319 23.0078 99.8243 22.7474 99.5066 22.5078C99.1941 22.2682 98.9649 21.9948 98.8191 21.6875C98.6784 21.375 98.6081 20.9922 98.6081 20.5391C98.6081 19.763 98.9076 19.1641 99.5066 18.7422C100.111 18.3151 100.965 18.1016 102.069 18.1016C103.121 18.1016 104.145 18.3307 105.139 18.7891L104.421 20.5078C103.983 20.3203 103.574 20.1667 103.194 20.0469C102.814 19.9271 102.426 19.8672 102.03 19.8672C101.327 19.8672 100.975 20.0573 100.975 20.4375C100.975 20.651 101.087 20.8359 101.311 20.9922C101.54 21.1484 102.038 21.3802 102.803 21.6875C103.486 21.9635 103.986 22.2214 104.303 22.4609C104.621 22.7005 104.856 22.9766 105.007 23.2891C105.158 23.6016 105.233 23.974 105.233 24.4062ZM114.592 27L113.764 24.2812H109.6L108.772 27H106.162L110.194 15.5312H113.155L117.202 27H114.592ZM113.186 22.25C112.42 19.7865 111.988 18.3932 111.889 18.0703C111.795 17.7474 111.728 17.4922 111.686 17.3047C111.514 17.9714 111.022 19.6198 110.209 22.25H113.186ZM123.576 27.1562C122.55 27.1562 121.746 26.7839 121.162 26.0391H121.037C121.121 26.7682 121.162 27.1901 121.162 27.3047V30.8438H118.779V18.2656H120.717L121.053 19.3984H121.162C121.719 18.5339 122.545 18.1016 123.639 18.1016C124.67 18.1016 125.477 18.5 126.061 19.2969C126.644 20.0938 126.936 21.2005 126.936 22.6172C126.936 23.5495 126.798 24.3594 126.522 25.0469C126.251 25.7344 125.863 26.2578 125.357 26.6172C124.852 26.9766 124.259 27.1562 123.576 27.1562ZM122.873 20.0078C122.285 20.0078 121.855 20.1901 121.584 20.5547C121.313 20.9141 121.173 21.5104 121.162 22.3438V22.6016C121.162 23.5391 121.3 24.2109 121.576 24.6172C121.857 25.0234 122.3 25.2266 122.904 25.2266C123.972 25.2266 124.506 24.3464 124.506 22.5859C124.506 21.7266 124.373 21.0833 124.107 20.6562C123.847 20.224 123.436 20.0078 122.873 20.0078ZM134.021 27.1562C132.995 27.1562 132.191 26.7839 131.607 26.0391H131.482C131.566 26.7682 131.607 27.1901 131.607 27.3047V30.8438H129.224V18.2656H131.162L131.498 19.3984H131.607C132.164 18.5339 132.99 18.1016 134.084 18.1016C135.115 18.1016 135.922 18.5 136.506 19.2969C137.089 20.0938 137.381 21.2005 137.381 22.6172C137.381 23.5495 137.243 24.3594 136.967 25.0469C136.696 25.7344 136.308 26.2578 135.802 26.6172C135.297 26.9766 134.704 27.1562 134.021 27.1562ZM133.318 20.0078C132.73 20.0078 132.3 20.1901 132.029 20.5547C131.758 20.9141 131.618 21.5104 131.607 22.3438V22.6016C131.607 23.5391 131.745 24.2109 132.021 24.6172C132.302 25.0234 132.745 25.2266 133.349 25.2266C134.417 25.2266 134.951 24.3464 134.951 22.5859C134.951 21.7266 134.818 21.0833 134.552 20.6562C134.292 20.224 133.881 20.0078 133.318 20.0078Z" fill="white"/>
  <rect x="1" y="1" width="162" height="40" rx="20" stroke="white" stroke-width="2"/>
</svg>
