<svg width="26" height="28" viewBox="0 0 26 28" fill="none" xmlns="http://www.w3.org/2000/svg">
  <g clip-path="url(#clip0_385_3010)">
    <path d="M19.72 6.50152C18.9 6.81152 18.38 7.09153 16.96 8.36153C20.48 -2.29847 6.73004 -1.04848 10.06 8.63153C9.59004 8.30153 8.99004 7.88153 7.17004 7.58152C5.76004 7.35152 5.46004 7.12152 3.92004 7.63153C1.22004 8.52152 -2.06996 13.1115 3.69004 17.1615C4.89004 18.0015 6.37004 18.1215 7.91004 17.7615C7.10004 19.0415 6.86004 19.4115 6.58004 20.3715C5.86004 22.9015 5.81004 27.0615 8.58004 27.6015C8.98004 27.6815 9.42004 27.6715 10.21 27.6015C14.15 27.2415 15.24 23.5315 15.27 19.5815C19.31 32.1715 32.13 21.0015 20.91 14.3515C27.6 14.1215 28.07 3.34152 19.71 6.50152H19.72ZM10.89 9.24152C10.98 9.32152 11 9.34153 10.89 9.24152V9.24152ZM15.74 14.0915C14.87 15.8515 12.64 14.6615 12.8 13.0115C13.19 12.4315 13.38 12.1115 14 11.9915C15.33 11.8815 16.15 13.0015 15.74 14.0915ZM16.43 11.9015L16.55 11.9915C16.5 11.9515 16.47 11.9315 16.43 11.9015ZM19.07 13.3715C19.07 13.3715 19.07 13.3715 19.08 13.3715C19.08 13.3715 19.08 13.3715 19.07 13.3715ZM19.07 13.3715C19.23 13.3815 19.27 13.3815 19.07 13.3715V13.3715Z" fill="#1F88C9"/>
  </g>
  <defs>
    <clipPath id="clip0_385_3010">
      <rect width="25.46" height="26.8" fill="white" transform="translate(0.5 0.861328)"/>
    </clipPath>
  </defs>
</svg>
