<svg width="28" height="26" viewBox="0 0 28 26" fill="none" xmlns="http://www.w3.org/2000/svg">
  <g clip-path="url(#clip0_385_2984)">
    <path d="M25.4943 15.2881C24.9062 14.2361 23.7501 14.8139 24.876 16.7649C24.675 16.9328 23.7099 17.97 21.9857 18.2367C21.1061 18.3306 19.3719 18.1725 18.628 17.6786C18.452 17.5255 18.452 17.4415 18.3163 17.4267C17.6377 16.2858 17.6428 16.3055 17.2105 15.6882C17.0396 15.4461 16.7279 15.698 16.8586 15.8907C17.6478 17.0365 19.1407 19.7728 19.3166 20.1235C21.4529 24.3612 20.8246 22.7511 22.413 25.7145C22.1516 25.7244 22.2019 25.9022 21.6741 26.327C20.6336 27.0925 19.4473 27.6605 18.1957 27.947C18.0952 27.9272 18.0047 27.947 17.9293 28.0063C15.6723 28.5002 9.80127 28.0952 7.66497 27.1469C7.87608 26.4998 7.86603 26.5048 8.24805 25.3589C10.2687 19.3381 11.4249 17.4514 11.6309 15.8758C11.6913 15.8857 11.7466 15.8956 11.8069 15.9055C12.7921 16.1524 13.4807 16.266 15.3104 15.945C17.0898 15.6338 17.9795 15.0115 19.01 13.9941C20.4577 12.5716 21.1262 11.0997 20.5431 8.30422C20.6336 8.41782 20.8095 8.43757 20.9251 8.30422C23.7752 8.59068 25.4943 12.1567 25.3636 13.1396C25.3485 13.2581 25.3234 13.3421 25.3787 13.4359C25.4541 13.5643 25.625 13.6039 25.7507 13.5298C26.57 13.0556 24.685 8.32397 21.1513 7.835C21.1765 7.73622 21.1966 7.62756 21.2066 7.52384C24.9615 7.07932 26.8615 10.0774 26.7007 10.5811C26.6102 10.8627 27.133 11.0158 27.1631 10.512C27.2033 9.86497 25.2932 6.83731 21.3574 7.24725C23.1016 6.42736 24.9816 6.73359 26.7208 8.64995C26.6404 8.71416 26.5047 8.79813 26.6002 8.95618C26.7409 9.19325 27.2787 8.89691 27.1682 8.53635C27.0727 8.22519 24.6448 5.32101 21.2418 6.88176C21.2317 6.66938 21.2066 6.41254 21.1564 6.15571C22.6342 4.88637 25.5345 5.37534 26.0372 6.35821C26.6303 8.21531 27.7261 4.22453 22.6694 4.9407C21.9556 5.03948 21.5032 5.26174 21.0307 5.63217C20.0103 2.12047 16.8083 -0.838042 13.2093 1.99206C13.149 1.997 12.8725 2.01675 12.8474 2.02169C6.75012 0.297949 5.66941 7.31146 6.67975 7.53866C6.50382 7.97824 6.48371 8.08196 6.46361 8.17086C3.35717 4.36282 0.115017 8.04244 0.537251 8.75367C0.647836 8.94136 0.934352 8.90679 0.994671 8.69441C1.81903 6.77804 4.11619 6.21992 5.94587 8.16098C3.4376 7.0003 0.763448 8.61044 1.41188 11.3368C1.44706 11.485 1.66823 11.5294 1.75871 11.3813C1.8693 11.1936 1.22087 9.85015 2.67355 8.70922C3.55824 8.05726 4.72943 8.04245 5.58898 8.41782C4.78473 8.38818 1.69839 9.36118 2.10052 12.0036C2.13068 12.1913 2.18597 12.4432 2.24127 12.7247C2.29153 12.9865 2.75901 12.9371 2.68863 12.6012C2.38704 11.075 2.57805 10.0823 4.11619 9.27722C3.64871 9.781 3.40241 10.2996 3.16616 10.9121C2.85954 11.727 3.01034 12.5123 3.24156 13.347C3.49792 14.2805 3.65374 14.483 3.89502 14.4139C4.0609 14.3694 4.12121 14.1916 4.081 14.0879C3.30188 12.0876 3.49792 11.4455 3.8548 10.5811C4.09608 10.0724 4.36752 9.6032 4.82996 9.2377C5.24717 8.93148 5.69454 8.88703 6.10169 9.0352C6.16704 9.06484 6.28265 9.13398 6.28768 9.13892C6.05143 11.8999 6.68478 13.2828 8.38377 14.7003C9.1076 15.3029 9.59518 15.3078 11.0026 15.7227C10.9775 15.9055 10.9423 16.0882 10.9021 16.266C10.7915 16.3006 10.8317 16.3698 10.515 16.9081C9.69571 18.2861 7.15728 21.2397 6.93611 21.4521C6.53901 21.8373 6.24244 22.0497 5.73978 22.6128C4.79981 22.1929 2.88467 23.6845 3.74925 25.3787C3.78443 25.4478 3.86988 25.5565 3.96539 25.6355C4.07095 25.7244 4.10613 25.7293 4.18656 25.759C4.22677 25.7738 4.34741 25.7886 4.47308 25.7787C4.66409 25.759 4.84002 25.6849 4.98579 25.5713C5.21701 25.3885 5.3477 25.0724 5.45829 24.8304C5.96095 25.3342 6.75515 24.9094 6.0464 23.082C8.05704 21.299 10.0074 18.4392 10.319 17.891C8.6351 21.8126 7.94143 23.7438 6.91098 27.0333C6.67975 27.7791 7.35834 27.8334 7.53427 27.4876C8.89648 28.1001 9.48459 28.1396 11.9225 28.4508C12.0079 30.1646 12.0532 33.8492 12.0532 33.8492C10.6608 34.3579 10.5402 35.163 11.259 35.4593C11.3595 35.5729 12.6564 35.647 12.8021 35.4742C14.657 35.2025 14.7173 33.3602 12.7167 33.6862C12.7167 33.4985 12.6765 30.8512 12.5458 28.5298C15.5919 28.9002 16.929 28.7372 17.7986 28.6187C17.8137 29.3793 17.8438 33.9233 17.8438 33.9233C16.562 34.106 16.3107 35.0247 17.125 35.3902C17.1954 35.489 17.2859 35.4791 17.4216 35.5038C17.8991 35.652 17.9795 35.6816 18.07 35.5976C20.0505 35.8643 20.3621 33.9974 18.437 33.8887C18.5677 33.2763 18.4571 29.1225 18.437 28.5002C19.7539 28.1989 21.8098 27.3839 22.6744 26.2282C22.7649 26.2874 22.8754 26.2825 22.9609 26.2331C23.2223 26.08 23.2374 25.8479 21.9154 23.7339C19.8997 20.5235 20.4426 20.9927 18.9095 18.4343C20.9251 19.4024 23.8808 19.022 25.3586 17.244C26.8012 17.7132 28.3444 16.6019 27.9322 14.8683C27.5653 13.347 26.3287 13.999 25.4893 15.293L25.4943 15.2881ZM26.751 8.68947C26.751 8.68947 26.751 8.69934 26.751 8.70428C26.751 8.70428 26.751 8.6944 26.751 8.68947ZM20.6386 7.79055C20.5984 7.79055 20.5582 7.79055 20.4275 7.81031C20.4225 7.78561 20.4124 7.75598 20.4074 7.73128C20.5783 7.63744 20.5632 7.64732 20.6336 7.6078C20.6487 7.6078 20.6637 7.6078 20.6788 7.59793C20.6688 7.66213 20.6537 7.72634 20.6386 7.78561V7.79055ZM20.719 7.13365C20.4174 7.2917 20.4677 7.26207 20.2968 7.35591C20.2868 7.32134 20.2717 7.2917 20.2616 7.25713C20.4375 6.89658 20.6085 6.70395 20.6989 6.60517C20.714 6.78298 20.7241 6.96078 20.719 7.13365ZM20.5934 6.01248C20.5079 6.09644 20.4275 6.18535 20.3471 6.27425C19.4423 2.68353 17.115 1.80437 13.8125 1.94761C17.3763 -0.19102 19.9248 3.24659 20.5883 6.00754L20.5934 6.01248ZM19.8545 6.27919C17.8438 2.38225 14.2398 2.70823 13.5561 2.58969C13.5059 2.41188 13.526 2.36743 13.4556 2.32792C16.7732 2.15999 18.8089 2.8564 19.8545 6.27919ZM16.9591 4.05166C17.7182 4.47148 18.6682 5.54326 19.0904 6.24955C18.9949 6.20016 18.9044 6.14583 18.8089 6.09644C18.7235 5.83467 17.7383 4.66905 16.9541 4.05166H16.9591ZM17.683 5.46424C15.1295 3.93312 14.6871 3.97757 13.9784 3.25647C15.421 3.28116 16.7882 4.40727 17.683 5.46424ZM13.2646 2.33286C13.2646 2.33286 13.2897 2.33286 13.2998 2.33286C13.2294 2.38719 13.2495 2.44645 13.2646 2.53536C13.1188 2.51066 13.0887 2.50078 13.0334 2.50572C13.1088 2.44645 13.1842 2.39212 13.2646 2.33286ZM12.3447 2.10072C12.2442 2.2242 12.3548 2.39212 12.4855 2.38225C12.581 2.37731 12.6715 2.36743 12.767 2.36249C12.7519 2.46127 12.8172 2.54524 12.9228 2.55018C12.8826 2.58475 12.8524 2.63414 12.8474 2.69341C12.7469 2.70823 12.6463 2.72304 12.5458 2.7428C11.7616 2.37237 10.319 2.45139 9.19305 3.24165C8.50441 3.72568 7.42871 5.42967 7.13215 5.95321C7.03664 5.95321 6.92606 5.91864 6.87076 5.92851C7.25278 3.3997 9.54994 1.36973 12.3447 2.10072ZM8.34858 4.84685C8.93669 3.94794 9.47957 3.07372 11.083 2.85146C11.4198 2.81195 11.7616 2.82183 11.9728 2.85146C10.4648 3.1725 8.92161 4.23934 8.34858 4.84191V4.84685ZM10.9926 3.8047C10.3542 4.58508 9.16289 5.36052 8.51446 5.60747C9.13273 4.84191 10.309 4.13068 10.9926 3.8047ZM11.5204 3.61208C11.837 3.51824 12.1537 3.45897 12.4955 3.38982C11.9124 4.03684 11.1735 4.916 7.90624 6.44218C7.99672 6.30388 7.96656 6.3434 8.11736 6.13102C9.16792 5.80998 10.4698 4.98021 11.5204 3.61208ZM6.83055 6.30882C6.85568 6.3187 6.916 6.32858 6.94616 6.33352C6.93108 6.37303 6.87076 6.51133 6.82552 6.64468C6.82552 6.53108 6.82552 6.42242 6.83055 6.30882ZM6.94616 11.9147C7.44882 12.8235 7.87608 13.4705 8.46419 14.1768C7.81576 13.5693 7.17236 12.7642 6.94616 11.9147ZM7.04669 11.4208C6.62446 10.4083 6.64959 8.77343 7.5393 7.07932C8.0118 7.1139 10.7262 5.50375 11.6159 4.81228C12.2241 4.34307 12.6111 3.89361 13.149 3.2861C13.2897 3.27128 13.2495 3.27622 13.5662 3.25153C14.2096 4.14056 15.5819 4.74313 16.1298 5.07899C16.2102 5.12838 19.2412 7.02499 19.5478 7.1781C19.5881 7.2917 19.6333 7.4053 19.6735 7.5189C19.6283 7.73622 19.5127 8.18568 19.8595 8.1511C20.2566 9.70198 20.136 10.5515 20.0656 11.0504C19.8092 12.8531 17.1803 15.9697 12.9278 15.5005C10.2436 15.2041 8.67531 14.6559 7.04669 11.4208ZM5.83528 24.5637C5.67443 24.4748 5.43316 23.8179 5.03103 24.5983C4.7797 25.0823 4.71435 25.2157 4.43286 25.2749C4.32228 25.2799 4.31725 25.2749 4.25191 25.2058C3.7593 24.4946 4.44292 23.1511 5.58395 23.1659C5.72973 23.5413 5.93582 24.1735 5.83528 24.5588V24.5637ZM13.6114 34.437C13.4355 35 12.199 35.079 11.6008 35.1185C11.4751 35.079 11.3595 35.0148 11.3143 34.9654C11.4852 34.3777 13.6165 33.8788 13.6114 34.437ZM19.196 34.7777C19.005 35.4198 17.4618 35.0198 17.2758 35.0494C16.3962 34.5506 18.9999 34.0319 19.196 34.7777ZM24.8911 15.2041C24.8911 15.2041 24.8911 15.2041 24.8961 15.2041C24.8961 15.2041 24.8961 15.2041 24.8911 15.2041ZM25.5094 16.6908C25.4792 16.6315 25.4591 16.6216 25.429 16.597C25.1324 16.108 24.9364 15.8067 24.8911 15.2091C25.1374 15.2683 25.2028 15.5252 25.3787 15.6635C25.5798 15.7474 25.635 15.6091 25.7406 15.4659C26.0322 15.0658 26.4142 14.6559 26.8666 14.4484C27.1732 14.325 27.2637 14.2805 27.4597 14.6905C27.4396 14.6361 27.4597 14.6905 27.4798 14.7349C27.4999 14.7794 27.515 14.8139 27.4798 14.7349C28.0428 16.3204 26.5348 17.2045 25.5044 16.6859L25.5094 16.6908Z" fill="white"/>
    <path d="M17.2481 10.1032C17.0314 10.1601 17.1294 10.3642 17.1603 10.5493C17.3203 11.9966 14.9985 13.6337 12.656 13.387C10.7005 13.1165 10.0762 11.0333 9.76661 10.8624C9.54475 10.7438 9.08038 10.8957 9.42091 11.4556C9.80273 12.0915 10.4012 12.865 11.0668 13.3348C13.4506 15.0051 18.1304 12.7131 17.4906 10.2313C17.4648 10.1364 17.3513 10.0795 17.2532 10.1079L17.2481 10.1032Z" fill="white"/>
    <path d="M10.7154 7.49027C10.4669 7.21785 10.4343 7.543 10.5201 7.59572C10.4166 7.71436 10.387 7.96041 10.4047 8.15374C10.4314 8.43934 10.7627 8.67222 10.8811 8.19768C11.0557 8.02193 10.8604 7.65284 10.7124 7.49027H10.7154ZM10.6474 7.87693C10.6474 7.87693 10.6533 7.87693 10.6562 7.87693C10.6533 7.87693 10.6503 7.87693 10.6474 7.87693ZM10.6681 8.19329C10.6681 8.19329 10.6651 8.19329 10.6621 8.19329C10.6474 8.18011 10.6148 8.12299 10.6059 8.10541C10.5971 8.06587 10.6059 7.96481 10.6385 7.89011C10.6474 7.8989 10.671 7.93405 10.6769 7.94723C10.6266 8.00875 10.6207 8.12299 10.6651 8.19329H10.6681Z" fill="white"/>
    <path d="M15.614 6.83984C15.5465 6.83984 15.5046 6.94361 15.5561 7.02575C15.334 7.10357 15.2439 7.73479 15.5304 7.84288C15.7203 8.08499 15.9713 7.76938 15.8812 7.32839C15.8554 7.19436 15.6913 6.83984 15.614 6.83984Z" fill="white"/>
    <path d="M16.3131 18.9728C16.095 18.8849 15.8333 19.0763 15.0755 19.3038C14.9392 18.9315 14.7265 17.9127 14.394 18.3678C14.3176 18.4712 14.105 19.2779 14.0723 19.4021C13.0745 19.4589 13.0309 19.4382 12.8237 19.5158C12.0223 19.8054 13.6143 20.1105 13.8542 20.1932C13.7942 20.457 13.4671 21.393 13.4835 21.8274C13.5162 22.6289 14.4812 21.1189 14.8301 20.5914C17.6216 23.2391 15.6207 20.1312 15.5553 19.883C15.7952 19.6658 16.8147 19.1745 16.3131 18.9677V18.9728ZM13.1127 19.7175H13.1291C13.1291 19.7175 13.1127 19.7175 13.1073 19.7175H13.1127ZM13.7288 21.667C13.7615 21.6257 13.767 21.6153 13.7288 21.667V21.667ZM14.0505 20.6276C14.0505 20.6276 14.0505 20.6225 14.0505 20.6173C14.0505 20.6173 14.0505 20.6225 14.0505 20.6276ZM14.0505 20.6173C14.0505 20.6173 14.0505 20.6173 14.0505 20.6069V20.6173ZM15.7734 21.0465L15.7461 20.9896C15.7461 20.9896 15.7624 21.0258 15.7734 21.0465ZM15.5716 19.4796C15.5226 19.4951 15.528 19.49 15.5716 19.4796V19.4796Z" fill="white"/>
  </g>
  <defs>
    <clipPath id="clip0_385_2984">
      <rect width="27.5" height="25" fill="white" transform="translate(0.5 0.861328)"/>
    </clipPath>
  </defs>
</svg>
