<svg width="926" height="558" viewBox="0 0 926 558" fill="none" xmlns="http://www.w3.org/2000/svg">
  <path d="M55.0004 319.171C-30.8815 275.286 -1.80485 82.6828 55.0003 62.6706C106.194 28.6499 125.309 -17.344 255.001 6.67062C415.131 36.3216 410.5 74.1706 468.5 111.171C585.118 -26.8294 666.5 1.17062 726.5 16.1706C805.844 36.0066 874.289 36.1052 896.5 111.171C918.711 186.236 959.344 277.691 870.5 283.465C781.657 289.239 879.145 451.353 686.651 451.353C494.157 451.353 503.19 577.952 488.383 554.855C473.576 531.758 454.898 480.224 255.001 451.353C55.103 422.481 162.353 374.026 55.0004 319.171Z" fill="#E7F5FC"/>
</svg>
