<svg width="32" height="26" viewBox="0 0 32 26" fill="none" xmlns="http://www.w3.org/2000/svg">
  <g clip-path="url(#clip0_385_2996)">
    <path d="M14.366 10.4775C14.4647 10.4494 14.4702 10.3987 14.5853 10.1399C14.9472 9.31834 15.6544 8.91881 16.1369 9.86416C16.274 10.3481 16.8278 9.98233 16.4165 9.42525C15.1062 7.63021 13.6203 10.6913 14.366 10.4775Z" fill="#FFE205"/>
    <path d="M18.8948 10.309C18.3355 10.1514 18.67 11.5694 17.6666 12.4135C15.9176 13.7471 13.5161 13.6627 11.959 11.4569C11.7288 11.1305 11.345 11.4794 11.5149 11.7214C13.0995 13.9947 15.1665 14.3886 17.2554 13.3701C18.0285 12.9875 18.6371 12.4979 18.9386 11.2881C19.0976 10.6579 19.1579 10.3821 18.8948 10.309Z" fill="#FFE205"/>
    <path d="M12.277 8.59271C12.0468 8.80091 12.14 9.32986 12.4196 9.45928C12.776 9.62246 13.0227 8.96972 12.8582 8.69962C12.7376 8.50268 12.4415 8.44078 12.2716 8.59271H12.277Z" fill="#FFE205"/>
    <path d="M17.4254 8.68335C17.8092 9.22355 18.4123 8.52017 18.0065 8.12065C17.6666 7.78302 17.1622 8.31197 17.4254 8.68335Z" fill="#FFE205"/>
    <path d="M30.1619 6.19018C30.2496 6.12828 30.8198 5.71751 30.902 5.61059C31.0885 5.37988 30.9459 5.22795 30.8198 5.22795C30.606 5.22795 30.1399 5.62184 29.6794 5.99323C29.8384 5.70062 30.2002 5.04226 30.2057 4.71589C30.2112 4.39514 29.7287 4.32762 29.6794 4.68775C29.6246 4.94097 29.3723 5.34612 29.2298 5.5712C29.3011 4.50768 29.2956 4.2207 29.005 4.2207C28.6377 4.2207 28.8295 4.63148 28.6431 5.32924C28.5773 5.57683 28.5006 5.81879 28.4293 6.06076C28.3306 5.81317 28.0949 5.14917 27.7988 5.56557C27.6453 5.77378 28.0345 5.93696 28.2374 6.82041C28.2484 6.8598 28.2539 6.89919 28.2648 6.94421C27.9194 7.15804 24.4872 11.9129 24.4872 11.9804C24.4872 12.1042 24.5859 12.1999 24.701 12.1999C24.8655 12.1999 24.7887 12.2055 26.5048 9.98846C27.415 8.8124 27.9578 8.02461 28.6815 7.34936C28.7144 7.32122 28.7363 7.27621 28.7473 7.23119C28.8076 7.1918 28.8515 7.1299 28.8844 7.068C29.5478 6.83167 29.7616 6.7754 30.0741 6.75851C30.584 6.73038 30.9514 6.85417 31.0391 6.54469C31.1433 6.15079 30.5566 6.1733 30.1619 6.20143V6.19018Z" fill="#FFE205"/>
    <path d="M22.3927 39.93C22.3927 39.93 21.0604 34.5055 21.0604 34.4999C21.9486 34.3649 22.9081 33.8809 22.8533 33.5883C23.1384 33.5658 23.2535 33.3351 23.2425 33.1382C23.2425 33.0481 23.0835 32.1028 23.0287 32.0352C22.8971 31.1124 22.7765 30.229 22.5243 29.3342C23.0945 29.3117 23.5441 29.2555 24.1033 28.9572C24.3336 29.0642 24.542 28.8559 24.5255 28.6871C24.4981 28.4395 23.0726 21.1356 21.8993 18.5303C21.9157 18.4627 21.8828 18.384 21.817 18.3446C21.4223 17.4386 21.4223 17.3542 21.2358 17.3486C21.2084 17.2754 21.181 17.2023 21.1481 17.1291C21.7457 16.6114 23.1329 14.9458 23.3193 14.7095C25.8304 14.0567 25.1451 11.4008 23.4344 12.031C23.4564 11.125 23.1 8.93047 21.8719 7.41679C21.5429 7.00601 20.6985 6.20697 19.4978 5.64426C21.044 3.42157 20.3093 1.77283 19.1853 1.96978C18.5493 2.0767 18.1765 2.4312 17.6172 2.81384C17.842 1.84599 17.3595 0.33793 15.2432 2.31303C15.2432 2.31303 15.2651 1.91914 15.2322 1.60402C15.0403 -0.129118 13.3023 1.51962 12.3976 3.10645C12.3976 3.0952 12.3866 2.99954 12.3702 2.88137V2.87011C12.3263 2.45371 12.2002 1.75595 11.8603 1.51399C11.4162 1.18762 10.9666 2.06544 10.7254 2.51561C9.93583 3.97302 9.88648 6.53897 9.99614 6.64588C8.93796 7.51808 7.61113 9.6001 7.41923 10.9956C7.40827 11.08 7.3973 11.17 7.3973 11.17C7.3644 11.4795 7.38634 11.9297 7.40278 12.2223C7.31506 12.1886 6.78323 12.0704 6.39943 12.5318C5.33029 10.5004 3.49356 8.10329 2.80273 7.38866C3.43873 6.06629 3.70191 6.01002 3.46066 5.7568C3.34552 5.63863 3.07687 5.58236 2.92883 5.97626C2.80821 6.30263 2.72597 6.43768 2.51214 6.93849C2.4299 6.58398 2.13931 5.09281 1.75552 5.09281C1.6349 5.09281 1.54717 5.17721 1.51976 5.2785C1.46493 5.4867 1.72262 5.68928 1.94741 6.33077C1.7939 6.10568 1.51427 5.69491 1.28948 5.5486C1.08113 5.41355 0.472545 5.57111 1.19079 6.25199C0.944065 6.1507 0.604132 6.11694 0.538339 6.37578C0.445131 6.73029 0.911168 6.71341 1.41558 7.00601C1.19079 7.00601 1.36076 6.98913 0.708305 7.00601C0.483511 7.01164 0.499959 7.34364 0.708305 7.34364C1.85969 7.32676 2.13383 7.64187 2.42442 7.76567C2.49569 7.8557 4.70525 10.4948 5.36867 11.6821C6.07595 12.9313 6.00467 12.9032 6.15819 12.937C5.8676 13.5897 6.4433 14.3887 7.13961 14.4675C8.07717 15.4072 8.43355 16.0206 9.02021 16.9265C9.91938 22.5142 8.00589 27.1228 8.25262 28.3889C7.86882 28.5183 8.03879 28.9291 8.34582 28.8616C8.57062 29.1317 8.77348 29.1936 9.3711 29.323C9.54107 29.3624 9.61783 29.4018 9.7549 29.3511C9.52462 32.5192 9.11341 35.3046 9.95776 34.8713C10.5992 35.1526 12.5127 35.0964 13.1871 35.0345C12.0412 40.1382 8.93248 39.3448 8.66382 39.9413C8.28551 39.8681 8.36775 40.2508 9.35465 43.5539C9.53559 44.1672 9.66169 44.5667 9.86455 44.7187C10.6157 45.2758 11.8329 41.3481 9.92486 40.2058C12.0906 39.463 13.3626 37.2347 13.719 34.9782C15.0513 34.8206 16.104 34.4324 16.2301 34.3198C16.57 34.3649 16.4494 34.0329 16.8387 33.4927C17.047 33.7065 17.0086 34.2973 17.4637 34.2636C18.1271 34.8206 19.7829 34.6462 20.6108 34.5674C20.9727 36.0867 21.7457 40.2677 22.0034 40.4308C22.0089 40.4421 22.0144 40.4477 22.0254 40.459C21.9541 40.7854 22.475 40.9373 23.5496 41.4268C24.0485 41.6519 25.8633 42.4003 26.0936 42.4172C26.8941 42.4735 26.4829 40.7797 26.1539 40.172C25.315 38.6133 24.0101 39.1648 22.4311 39.93H22.3927ZM9.99614 44.004C9.70555 43.1937 9.15179 41.0386 8.98183 40.549C9.83166 40.4252 10.8789 41.455 9.99614 44.004ZM21.3345 18.4459C21.1755 18.0576 21.1372 17.9788 21.3345 18.4459ZM21.4661 18.7497C21.5758 18.9748 22.1186 20.466 22.3818 21.4507C19.2072 22.1316 12.9185 22.5311 9.86455 21.9628C9.77683 21.9065 9.66169 21.9515 9.61235 22.0472C9.6891 21.1525 9.71104 20.2409 9.69459 19.515C13.5764 20.1677 17.7323 20.0327 21.4606 18.7553L21.4661 18.7497ZM23.4015 12.5824C24.4597 11.9522 25.1231 13.5841 23.1384 14.113C23.259 13.6854 23.3577 13.1564 23.4015 12.5824ZM11.4381 2.09358C11.4875 2.02605 11.5752 1.90788 11.6629 1.86287H11.6684C11.9041 2.0148 12.0577 3.11208 12.1015 3.39906C12.1618 3.77045 12.4031 3.69167 12.5073 3.51723C12.7704 2.99954 13.8286 1.46334 14.6126 1.23263C15.2706 1.23263 14.3659 3.60163 15.3967 2.66754C15.6708 2.42557 16.7016 1.55901 17.0196 1.77846C17.5459 2.26802 17.0196 3.21899 17.0086 3.31465C16.9593 3.50597 17.1786 3.68604 17.3595 3.52285C17.4527 3.43845 17.5459 3.38218 17.7927 3.21899C18.7741 2.56625 19.7226 1.80097 19.9419 3.12333C19.9913 3.6354 19.7884 4.13621 19.58 4.58637C19.5307 4.68766 19.1359 5.4023 19.0811 5.4642C15.3583 3.88299 11.4052 4.97464 10.3196 6.09443C10.3964 4.41756 10.6376 3.32591 11.4491 2.09358H11.4381ZM7.5892 14.2762C7.73723 13.9048 7.31506 13.8936 7.07382 13.8204C7.03544 13.7754 6.97513 13.7472 6.90933 13.7529C6.54747 13.5503 6.49264 13.162 6.87644 12.8188C7.10123 12.6612 7.26023 12.8357 7.42472 12.7119V12.7625V12.7569C7.42472 12.7569 7.4302 12.8132 7.43568 12.8638V12.8525C7.51792 13.5165 7.67144 14.158 7.7482 14.4C7.7482 14.4 7.64951 14.3212 7.58372 14.2706L7.5892 14.2762ZM7.79206 11.2488C7.91268 9.91521 9.03117 8.39027 9.89197 7.38303C10.1771 7.05103 10.2648 6.97225 10.4457 6.84283C10.6541 6.69653 10.5115 6.41517 10.2977 6.46019C10.3854 6.42643 10.9501 5.56548 13.22 5.24474C13.4174 5.22223 14.4865 5.08155 15.1774 5.12094C25.167 5.59925 24.8764 17.0391 17.5788 18.2039C13.8122 18.8004 7.28216 16.859 7.78658 11.2545L7.79206 11.2488ZM9.54107 22.7731C9.54107 22.7843 9.54107 22.7843 9.54107 22.7843V22.7731ZM9.54107 17.6806C9.55203 17.7706 9.55752 17.8269 9.563 17.855C9.563 17.8719 9.563 17.8719 9.563 17.855C9.563 17.8325 9.55203 17.7762 9.54107 17.6806ZM9.38207 23.9435C9.38207 23.921 9.47528 23.2232 9.48076 23.2007C10.4183 23.3977 18.5877 23.921 22.6504 22.5593C22.793 23.1839 22.9136 23.9942 23.0397 24.6694C22.9191 24.6975 21.5155 24.9789 21.4003 24.9789C21.192 25.007 20.9891 25.0352 20.7808 25.0633C19.9364 25.2096 14.3988 25.3503 11.5039 25.1196C10.9721 25.0802 9.36562 24.8945 9.21759 24.9057C9.22855 24.8326 9.3711 24.0054 9.38207 23.9323V23.9435ZM21.5813 25.868C21.5813 25.868 21.5813 25.868 21.5867 25.868C21.5867 25.868 21.5813 25.868 21.5758 25.868L21.7567 25.8455C21.7567 25.8455 21.6142 25.8623 21.5867 25.868C21.5867 25.868 21.5867 25.868 21.5813 25.868ZM9.17372 25.1702V25.1983C9.17372 25.1871 9.17372 25.1758 9.17372 25.1702ZM8.65834 28.7997C8.68576 28.8166 8.67479 28.8109 8.65834 28.7997ZM9.74393 28.9854C9.74393 28.9854 9.74393 28.9854 9.73845 28.9854C9.7549 28.8616 9.76038 28.7096 9.74393 28.9854ZM8.74058 28.2876C8.7351 28.1357 8.89958 26.7233 9.06407 25.7948C14.2289 26.8415 19.5088 26.6726 23.27 25.823C23.3741 26.3013 23.5386 26.9934 23.7634 28.0006C22.4695 27.4267 16.5974 26.864 8.74058 28.2932V28.2876ZM13.3132 33.9653V33.9372C13.3132 33.9372 13.2529 34.4268 13.2255 34.6293C12.6608 34.6856 10.7308 34.8206 10.0948 34.6293C10.0948 34.6181 10.0948 34.6012 10.0948 34.5899L10.1113 34.5731C11.0762 34.1735 12.0083 33.7796 13.3461 33.6952C13.3461 33.6952 13.3461 33.7009 13.3077 33.9597L13.3132 33.9653ZM13.7409 34.5674C13.7793 34.2636 13.7518 34.4661 13.856 33.6952C13.9986 33.6952 15.2925 33.7965 15.8243 34.0948C14.8429 34.4774 13.9108 34.5505 13.7464 34.5674H13.7409ZM17.8968 34.1398C18.5877 33.971 19.6513 33.7909 20.3202 33.6896C20.3696 33.8415 20.4134 33.9935 20.4573 34.1454C18.9605 34.3255 18.5438 34.3142 17.8913 34.1398H17.8968ZM17.4363 33.7796C17.0031 32.7724 16.6851 32.7218 16.1807 33.6727C14.1027 32.7274 12.0577 33.3464 10.0674 34.1848C9.98518 32.5529 10.1277 32.0127 10.3306 28.5352C15.3693 27.8206 18.3738 27.8881 21.51 28.2313C21.51 28.2313 21.521 28.237 21.5264 28.2426C21.7512 28.3326 21.9486 28.7772 22.0363 29.0135C21.9815 29.1204 22.0254 29.2555 22.135 29.3117C22.3214 29.9476 22.464 30.8423 22.5408 31.5007C22.5408 31.5007 22.6065 32.0634 22.612 32.0859C22.5791 32.1703 22.5956 32.1984 22.6065 32.2885C22.6175 32.3616 22.6614 32.7555 22.6723 32.8343C22.6504 32.8849 22.6449 32.9468 22.6669 33.0031C21.4003 32.9862 20.6218 32.975 17.4527 33.7853L17.4363 33.7796ZM20.8027 33.6333C21.5319 33.5602 21.4442 33.5658 22.305 33.5771C22.2118 33.6333 21.8719 33.9091 20.9398 34.0779C20.8959 33.9316 20.8466 33.7796 20.8027 33.6333ZM22.4969 40.3689C24.3775 39.5136 24.8874 39.3955 25.5015 40.1776C25.8578 40.6728 25.9839 41.2468 26.0059 41.877C25.1177 41.6069 22.5846 40.4083 22.4969 40.3689Z" fill="#FFE205"/>
  </g>
  <defs>
    <clipPath id="clip0_385_2996">
      <rect width="30.5556" height="25" fill="white" transform="translate(0.5 0.861328)"/>
    </clipPath>
  </defs>
</svg>
