<svg width="19" height="26" viewBox="0 0 19 26" fill="none" xmlns="http://www.w3.org/2000/svg">
  <g clip-path="url(#clip0_385_3008)">
    <path d="M9.34927 6.84586C9.20506 6.63589 8.78554 5.46791 7.6843 4.65426C4.2626 2.12145 0.224725 5.84848 0.513145 10.5204C0.906444 16.9377 6.66173 20.481 10.6996 24.8774C12.2204 26.5309 13.3609 25.796 13.6362 24.9299C13.7018 24.7199 13.7411 24.418 13.846 23.7225C15.039 15.2973 17.7921 13.2369 18.4214 7.43641C19.326 -0.988786 11.6435 -1.46123 9.34927 6.83274V6.84586ZM5.9669 9.45741C5.92757 9.66738 6.01934 10.2054 5.58671 10.9928C4.83944 12.3708 3.96107 10.8091 4.01351 10.0086C4.31504 8.48628 6.21599 8.23694 5.9669 9.45741ZM11.7353 22.9089C11.7877 22.5545 11.8008 22.502 11.7353 22.9089V22.9089Z" fill="#FFE205"/>
  </g>
  <defs>
    <clipPath id="clip0_385_3008">
      <rect width="18" height="25" fill="white" transform="translate(0.5 0.861328)"/>
    </clipPath>
  </defs>
</svg>
