<svg width="32" height="32" viewBox="0 0 32 32" fill="none" xmlns="http://www.w3.org/2000/svg">
  <circle cx="16" cy="16" r="16" fill="currentColor"/>
  <path fill-rule="evenodd" clip-rule="evenodd" d="M18.7031 8C20.0711 8.24175 21.4028 8.66972 22.6643 9.27298C24.8374 12.5919 25.9171 16.3351 25.5184 20.654C24.0501 21.7881 22.4056 22.6493 20.6573 23.2C20.2636 22.6482 19.9155 22.0624 19.6168 21.4491C20.1859 21.2269 20.7351 20.953 21.2583 20.6304C21.1224 20.5342 20.988 20.4269 20.8566 20.3149C19.3373 21.0612 17.679 21.4482 16 21.4482C14.321 21.4482 12.6627 21.0612 11.1433 20.3149C11.0135 20.419 10.8791 20.5263 10.7417 20.6304C11.2638 20.9524 11.8121 21.2259 12.3802 21.4475C12.0811 22.0612 11.733 22.6474 11.3397 23.2C9.59279 22.6471 7.9496 21.7855 6.48153 20.6525C6.14174 16.9282 6.82131 13.1503 9.32815 9.27613C10.5909 8.67278 11.9235 8.24379 13.2923 8C13.4794 8.34958 13.6488 8.7092 13.7997 9.07738C15.2568 8.84802 16.7386 8.84802 18.1957 9.07738C18.3466 8.70916 18.516 8.34954 18.7031 8ZM19.1894 18.3621C18.241 18.3621 17.4618 17.4645 17.4618 16.3603C17.4618 15.2561 18.2169 14.3507 19.1894 14.3507C20.1619 14.3507 20.9321 15.2561 20.9155 16.3603C20.8989 17.4645 20.1544 18.3621 19.1894 18.3621ZM11.0814 16.3603C11.0814 17.4645 11.8637 18.3621 12.8105 18.3621C13.7755 18.3621 14.5215 17.4645 14.5382 16.3603C14.5548 15.2561 13.7786 14.3507 12.8075 14.3507C11.8365 14.3507 11.0814 15.2561 11.0814 16.3603Z" fill="currentColor"/>
</svg>
