<svg width="32" height="32" viewBox="0 0 32 32" fill="none" xmlns="http://www.w3.org/2000/svg">
<circle cx="16" cy="16" r="16" fill="currentColor"/>
<path d="M18.497 31.8063V20.6227H22.2216L22.9304 15.9973H18.497V12.9926C18.4342 12.2932 18.6924 11.6032 19.199 11.1169C19.7055 10.6306 20.4054 10.4007 21.1017 10.4919H23.124V6.5576C21.9387 6.36395 20.7409 6.25701 19.5401 6.23761C17.8671 6.11124 16.2246 6.73563 15.0581 7.94145C13.8915 9.14726 13.3219 10.8095 13.5035 12.4774V15.9973H9.43967V20.6211H13.4987V31.8057C14.3137 31.9336 15.1491 32 16 32C16.8494 32 17.6833 31.9338 18.497 31.8063Z" fill="currentColor"/>
</svg>
