<svg width="32" height="32" viewBox="0 0 32 32" fill="none" xmlns="http://www.w3.org/2000/svg">
<circle cx="16" cy="16" r="16" fill="currentColor"/>
<path fill-rule="evenodd" clip-rule="evenodd" d="M12.0395 25.5415L12.0484 25.5419C13.0648 25.5863 13.3797 25.6 15.9947 25.6C18.6023 25.6 18.936 25.6 19.9541 25.5415C20.7505 25.5254 21.5385 25.3745 22.2845 25.0954C23.5724 24.5957 24.5911 23.5792 25.0925 22.2936C25.373 21.5478 25.5244 20.7598 25.5403 19.9633C25.5851 18.9552 25.6 18.6145 25.6 16.0171C25.6 13.4196 25.6 13.0864 25.5403 12.0666C25.5281 11.2599 25.3763 10.4614 25.0915 9.70648C24.5913 8.42038 23.5726 7.40357 22.2845 6.90462C21.5374 6.62391 20.7479 6.4727 19.9498 6.45751L19.9322 6.45675C18.9387 6.4137 18.623 6.40002 15.9947 6.40002C13.3945 6.40002 13.0598 6.40002 12.0417 6.45751C11.2457 6.47257 10.4582 6.62379 9.71335 6.90462C8.42484 7.403 7.40598 8.42002 6.90638 9.70648C6.62666 10.4506 6.47562 11.2368 6.45969 12.0314L6.45965 12.0323C6.41385 13.0482 6.39999 13.3554 6.39999 15.9809C6.39999 18.5794 6.39999 18.9137 6.45969 19.9335C6.47528 20.7292 6.62633 21.5165 6.90638 22.2616C7.40652 23.5464 8.42374 24.5625 9.71015 25.0624C10.4537 25.3533 11.2414 25.5153 12.0395 25.5415ZM15.9584 8.08519C13.364 8.08519 13.0828 8.09783 12.0774 8.14304L12.0619 8.14374C11.4542 8.15178 10.8524 8.26375 10.2826 8.47481C9.44124 8.79631 8.77545 9.45843 8.45005 10.2973C8.23707 10.8725 8.12491 11.48 8.11851 12.0932C8.062 13.1247 8.062 13.3951 8.062 15.9809C8.062 18.5358 8.0716 18.8455 8.11851 19.8707C8.12805 20.4777 8.24014 21.0787 8.45005 21.6485C8.77593 22.4868 9.4416 23.1484 10.2826 23.4699C10.852 23.6823 11.4541 23.7944 12.0619 23.801C13.0939 23.8606 13.3657 23.8606 15.9584 23.8606C18.5689 23.8606 18.8433 23.8478 19.8486 23.8012L19.8539 23.801C20.4619 23.7936 21.0642 23.6816 21.6342 23.4699C22.4705 23.1456 23.132 22.4855 23.4572 21.6506C23.6698 21.0749 23.7819 20.4672 23.7887 19.8537H23.8005C23.8463 18.836 23.8463 18.5645 23.8463 15.9638C23.8463 13.3632 23.8346 13.0896 23.7887 12.0729C23.7792 11.4666 23.6671 10.8663 23.4572 10.2973C23.1327 9.46118 22.4711 8.7998 21.6342 8.47481C21.0643 8.26269 20.462 8.15068 19.8539 8.14374C18.823 8.08519 18.5532 8.08519 15.9584 8.08519ZM11.4392 17.8624C12.2031 19.7011 14.0011 20.8993 15.9947 20.898C18.7143 20.8927 20.917 18.6912 20.9199 15.9755C20.9195 13.9848 19.7181 12.1905 17.876 11.4293C16.034 10.668 13.9141 11.0899 12.505 12.4982C11.096 13.9064 10.6753 16.0236 11.4392 17.8624ZM19.9669 10.8711C19.9657 11.504 20.478 12.0184 21.1118 12.0208C21.4176 12.0216 21.7112 11.9008 21.9276 11.6851C22.1441 11.4694 22.2656 11.1765 22.2653 10.8711C22.2641 10.2381 21.7499 9.72565 21.1161 9.72565C20.4822 9.72565 19.968 10.2381 19.9669 10.8711ZM12.7964 15.9734C12.7964 14.2096 14.2283 12.7798 15.9947 12.7798C17.7593 12.7839 19.1888 14.2113 19.1929 15.9734C19.1929 17.7372 17.761 19.167 15.9947 19.167C14.2283 19.167 12.7964 17.7372 12.7964 15.9734Z" fill="currentColor"/>
</svg>
