<svg width="32" height="32" viewBox="0 0 32 32" fill="none" xmlns="http://www.w3.org/2000/svg">
  <circle cx="16" cy="16" r="16" fill="currentColor"/>
  <path fill-rule="evenodd" clip-rule="evenodd" d="M15.999 5.68311C22.2471 5.68311 27.3313 9.80812 27.3313 14.8795L27.3334 14.8806C27.3334 16.9102 26.5462 18.7372 24.9038 20.5387C22.5261 23.2749 17.2096 26.6084 16.0001 27.1177C14.8228 27.6134 14.9603 26.8365 15.0144 26.5306C15.0549 26.3006 15.0926 26.0701 15.1302 25.8396L15.1799 25.5368C15.2956 24.6344 15.0799 24.1544 14.1444 23.9528C8.69845 23.2324 4.66675 19.4257 4.66675 14.8795C4.66675 9.80918 9.75094 5.68311 15.999 5.68311ZM12.0012 17.5913C12.0012 17.7112 11.9046 17.7924 11.7847 17.7924H8.60074C8.48085 17.7924 8.3843 17.7112 8.3843 17.5913V12.6451C8.3843 12.5252 8.48085 12.4308 8.60074 12.4308H9.40496C9.52379 12.4308 9.6214 12.5263 9.6214 12.6451V16.5707H11.7847C11.9036 16.5707 12.0012 16.6683 12.0012 16.7871V17.5913ZM13.7008 12.4308H12.8977C12.7782 12.4308 12.6813 12.5256 12.6813 12.6451V17.5903C12.6813 17.7098 12.7782 17.7924 12.8977 17.7924H13.7008C13.8204 17.7924 13.9173 17.7098 13.9173 17.5903V12.6451C13.9173 12.5256 13.8204 12.4308 13.7008 12.4308ZM18.3681 12.4308H19.1723C19.2922 12.4308 19.3887 12.5274 19.3887 12.6473V17.5934C19.3887 17.7133 19.2922 17.7924 19.1723 17.7924H18.3734C18.2936 17.7924 18.2448 17.7912 18.193 17.7186L15.9278 14.6588V17.5956C15.9278 17.7155 15.8313 17.7924 15.7114 17.7924H14.9072C14.7873 17.7924 14.6907 17.7155 14.6907 17.5956V12.6494C14.6907 12.5295 14.7873 12.4308 14.9072 12.4308H15.6692C15.7985 12.4308 15.8492 12.4722 15.8886 12.5274L18.1516 15.5829V12.6451C18.1516 12.5252 18.2482 12.4308 18.3681 12.4308ZM23.778 17.5913C23.778 17.7112 23.6814 17.7924 23.5615 17.7924H20.3776C20.2577 17.7924 20.1611 17.7112 20.1611 17.5913V12.6451C20.1611 12.5252 20.2577 12.4308 20.3776 12.4308H23.5615C23.6804 12.4308 23.778 12.5263 23.778 12.6451V13.4483C23.778 13.5682 23.6814 13.6647 23.5615 13.6647H21.3982V14.4997H23.5615C23.6804 14.4997 23.778 14.5973 23.778 14.7161V15.5193C23.778 15.6392 23.6814 15.7357 23.5615 15.7357H21.3982V16.5707H23.5615C23.6804 16.5707 23.778 16.6683 23.778 16.7871V17.5913Z" fill="currentColor"/>
</svg>
