<svg width="32" height="32" viewBox="0 0 32 32" fill="none" xmlns="http://www.w3.org/2000/svg">
<circle cx="16" cy="16" r="16" fill="currentColor"/>
<path fill-rule="evenodd" clip-rule="evenodd" d="M14.1333 22.4H17.6889V16.4C17.6574 15.9621 17.8059 15.5302 18.0999 15.2041C18.394 14.878 18.8082 14.6859 19.2471 14.672C20.2504 14.6699 21.1022 15.4068 21.2444 16.4V22.4H24.8V15.9556C24.8064 13.7506 23.0272 11.9563 20.8222 11.944C19.5961 11.9721 18.4468 12.5469 17.6889 13.5111V11.7334H14.1333V22.4ZM8.8 11.7334V22.4H12.3556V11.7334H8.8ZM8.8 8.1778C8.8 9.15964 9.59594 9.95558 10.5778 9.95558C11.0493 9.95558 11.5015 9.76828 11.8349 9.43488C12.1683 9.10148 12.3556 8.6493 12.3556 8.1778C12.3556 7.19596 11.5596 6.40002 10.5778 6.40002C9.59594 6.40002 8.8 7.19596 8.8 8.1778Z" fill="currentColor"/>
</svg>
