<svg width="32" height="32" viewBox="0 0 32 32" fill="none" xmlns="http://www.w3.org/2000/svg">
<circle cx="16" cy="16" r="16" fill="currentColor"/>
<path d="M16.2226 11.0118C16.1523 10.7989 15.846 10.7989 15.7756 11.0118L14.7328 14.168C14.7013 14.2632 14.6111 14.3277 14.5093 14.3277H11.1345C10.9069 14.3277 10.8122 14.6142 10.9964 14.7458L13.7266 16.6964C13.809 16.7553 13.8434 16.8596 13.812 16.9548L12.7691 20.111C12.6988 20.3239 12.9466 20.501 13.1308 20.3694L15.861 18.4188C15.9434 18.3599 16.0549 18.3599 16.1373 18.4188L18.8675 20.3694C19.0517 20.501 19.2995 20.3239 19.2291 20.111L18.1863 16.9548C18.1548 16.8596 18.1893 16.7553 18.2717 16.6964L21.0019 14.7458C21.186 14.6142 21.0914 14.3277 20.8637 14.3277H17.489C17.3872 14.3277 17.297 14.2632 17.2655 14.168L16.2226 11.0118Z" fill="#192024"/>
<path fill-rule="evenodd" clip-rule="evenodd" d="M6.2236 28.6667C5.78708 28.3293 5.36849 27.9698 4.96948 27.5899L5.26704 27.2594C5.92168 26.4601 6.46553 25.589 6.46553 24.5315L6.46509 12.1613C6.46508 11.4175 6.46507 10.8035 6.4987 10.3006C6.65575 7.95224 8.46404 6.18755 10.7658 6.03361C11.2686 5.99998 11.8826 5.99999 12.6264 6H19.3706C20.1144 5.99999 20.7284 5.99998 21.2313 6.03361C23.5797 6.19067 25.3444 7.99893 25.4984 10.3006C25.532 10.8035 25.532 11.4174 25.532 12.1612V19.1054C25.532 19.8492 25.532 20.4632 25.4984 20.966C25.3444 23.2677 23.5797 25.076 21.2313 25.2331C20.7284 25.2667 20.1145 25.2667 19.3706 25.2667H14.8051C12.4858 28.7455 9.31718 28.7036 6.94911 28.6723C6.73317 28.6694 6.52389 28.6667 6.32251 28.6667H6.2236ZM8.76034 10.4519C8.84016 9.25839 9.68132 8.37787 10.917 8.29523C11.3353 8.26726 11.8731 8.26667 12.6645 8.26667H19.3326C20.1239 8.26667 20.6618 8.26726 21.08 8.29523C22.2735 8.37505 23.1541 9.2162 23.2367 10.4519C23.2647 10.8701 23.2653 11.408 23.2653 12.1993V19.0673C23.2653 19.8587 23.2647 20.3965 23.2367 20.8148C23.1569 22.0083 22.3157 22.8888 21.08 22.9714C20.6618 22.9994 20.1239 23 19.3326 23H13.592C12.0604 25.8893 10.6668 26.4 8.41532 26.4C8.62354 25.8038 8.73222 25.1726 8.73222 24.5315L8.73178 12.1993C8.73178 11.408 8.73237 10.8701 8.76034 10.4519Z" fill="currentColor"/>
</svg>
