<svg width="32" height="32" viewBox="0 0 32 32" fill="none" xmlns="http://www.w3.org/2000/svg">
<circle cx="16" cy="16" r="16" fill="currentColor"/>
<path fill-rule="evenodd" clip-rule="evenodd" d="M25.5954 24H22.3944C22.6148 16.1449 15.8609 9.38505 8 9.60558V6.40453C17.5885 6.18573 25.8142 14.4167 25.5954 24ZM19.1927 24H15.9897C16.2176 19.6035 12.4045 15.7819 8 16.0103V12.8072C14.133 12.584 19.4157 17.8735 19.1927 24ZM12.8 21.6C12.8 22.9255 11.7255 24 10.4 24C9.07452 24 8 22.9255 8 21.6C8 20.2745 9.07452 19.2 10.4 19.2C11.7255 19.2 12.8 20.2745 12.8 21.6Z" fill="currentColor"/>
</svg>
