<svg width="32" height="32" viewBox="0 0 32 32" fill="none" xmlns="http://www.w3.org/2000/svg">
<circle cx="16" cy="16" r="16" fill="currentColor"/>
<path fill-rule="evenodd" clip-rule="evenodd" d="M5.7831 15.8262C7.32748 14.9634 9.01632 14.2154 10.6601 13.4875C11.058 13.3114 11.4533 13.1363 11.8432 12.9612C15.2851 11.4887 18.7406 10.0418 22.231 8.69473C22.9101 8.46515 24.1304 8.24074 24.25 9.26145C24.2036 10.2843 24.055 11.3029 23.9065 12.3202L23.9059 12.3243C23.8449 12.7426 23.7839 13.1609 23.7301 13.5791C23.3327 16.2538 22.8831 18.9209 22.4335 21.587L22.4301 21.6067C22.3499 22.0825 22.2696 22.5583 22.1897 23.0342C22.0075 24.0828 20.7123 24.6257 19.8834 23.9547C19.3945 23.6195 18.9044 23.2853 18.4144 22.9511L18.4014 22.9422C16.8999 21.9179 15.3976 20.893 13.9183 19.8426C13.2741 19.1789 13.8715 18.2256 14.4467 17.7515C15.1072 17.0914 15.7837 16.4711 16.4579 15.8532L16.4606 15.8507C17.4599 14.9346 18.4538 14.0234 19.3817 12.9942C19.7745 12.0323 18.7126 12.7304 18.2405 13.0408L18.2184 13.0553C18.1949 13.0707 18.1731 13.0851 18.1532 13.098C17.6054 13.4808 17.061 13.8694 16.5163 14.2581L16.4971 14.2718C14.8153 15.4723 13.1323 16.6735 11.3487 17.7126C10.2631 18.3188 9.01613 17.9159 7.89785 17.5546C7.77035 17.5133 7.64444 17.4727 7.52069 17.4341C7.37275 17.372 7.21547 17.3098 7.05645 17.247L7.05399 17.246C6.04846 16.8486 4.97669 16.425 5.7831 15.8262Z" fill="currentColor"/>
</svg>
