<svg width="32" height="32" viewBox="0 0 32 32" fill="none" xmlns="http://www.w3.org/2000/svg">
<circle cx="16" cy="16" r="16" fill="currentColor"/>
<path fill-rule="evenodd" clip-rule="evenodd" d="M23.0428 10.084C23.8138 10.2916 24.4217 10.8995 24.6292 11.6705C25.0147 13.079 24.9999 16.0148 24.9999 16.0148C24.9999 16.0148 24.9999 18.9357 24.6292 20.3442C24.4217 21.1152 23.8138 21.7232 23.0428 21.9307C21.6342 22.3014 16 22.3014 16 22.3014C16 22.3014 10.3805 22.3014 8.95716 21.9159C8.18616 21.7083 7.57825 21.1004 7.37067 20.3294C7 18.9357 7 15.9999 7 15.9999C7 15.9999 7 13.079 7.37067 11.6705C7.57825 10.8995 8.20098 10.2767 8.95716 10.0692C10.3657 9.69849 16 9.69849 16 9.69849C16 9.69849 21.6342 9.69849 23.0428 10.084ZM18.8912 15.9999L14.2059 18.6984V13.3014L18.8912 15.9999Z" fill="currentColor"/>
</svg>
