<svg width="11" height="19" viewBox="0 0 11 19" fill="none" xmlns="http://www.w3.org/2000/svg">
  <path d="M1.67433e-05 9.5645C1.67503e-05 9.40427 0.0267219 9.25739 0.0801323 9.12387C0.133543 8.99034 0.227011 8.85681 0.360537 8.72329L8.29198 0.791846C8.50562 0.578204 8.7927 0.47806 9.15322 0.491412C9.51374 0.504765 9.80082 0.618262 10.0145 0.831904C10.2815 1.09896 10.395 1.38604 10.355 1.69315C10.3149 2.00026 10.188 2.27398 9.97441 2.51433L2.92424 9.5645L9.97441 16.6147C10.188 16.8283 10.3082 17.1154 10.3349 17.4759C10.3616 17.8364 10.2415 18.1235 9.97441 18.3372C9.76076 18.6042 9.48036 18.7177 9.13319 18.6776C8.78602 18.6376 8.49227 18.5107 8.25192 18.2971L0.360537 10.4057C0.227011 10.2722 0.133543 10.1387 0.0801323 10.0051C0.0267219 9.87161 1.67363e-05 9.72473 1.67433e-05 9.5645Z" fill="#FFE205"/>
</svg>
