<svg width="35" height="24" viewBox="0 0 35 24" fill="none" xmlns="http://www.w3.org/2000/svg">
  <path d="M34.2857 16.8158C34.2857 18.8684 33.6213 20.5789 32.2924 21.9474C30.9635 23.3158 29.2359 24 27.1096 24C24.505 24 22.3522 23.0526 20.6512 21.1579C19.0033 19.2105 18.1794 16.8947 18.1794 14.2105C18.1794 10.3158 19.6412 6.97368 22.5648 4.18421C25.4884 1.39474 29.0233 0 33.1694 0L33.3289 1.10526C30.7774 1.10526 28.4385 2 26.3123 3.78947C24.186 5.57895 23.1229 7.63158 23.1229 9.94737C23.1229 10.4737 23.1761 10.8684 23.2824 11.1316C23.4419 11.3947 23.6545 11.5263 23.9203 11.5263C24.2924 11.5263 24.8505 11.3684 25.5947 11.0526C26.392 10.6842 27.0565 10.5 27.588 10.5C29.3422 10.5 30.8837 11.1053 32.2126 12.3158C33.5947 13.4737 34.2857 14.9737 34.2857 16.8158ZM16.1063 16.8158C16.1063 18.8684 15.4419 20.5789 14.113 21.9474C12.7841 23.3158 11.0565 24 8.93023 24C6.32558 24 4.17276 23.0526 2.47176 21.1579C0.82392 19.2105 0 16.8947 0 14.2105C0 10.3158 1.46179 6.97368 4.38538 4.18421C7.30897 1.39474 10.8439 0 14.99 0L15.1495 1.10526C12.598 1.10526 10.2591 2 8.13289 3.78947C6.00664 5.57895 4.94352 7.63158 4.94352 9.94737C4.94352 10.4737 4.99668 10.8684 5.10299 11.1316C5.26246 11.3947 5.47508 11.5263 5.74086 11.5263C6.11296 11.5263 6.6711 11.3684 7.41528 11.0526C8.21262 10.6842 8.87708 10.5 9.40864 10.5C11.1628 10.5 12.7043 11.1053 14.0332 12.3158C15.4153 13.4737 16.1063 14.9737 16.1063 16.8158Z" fill="#1F88C9"/>
</svg>
