<svg width="40" height="40" viewBox="0 0 40 40" fill="none" xmlns="http://www.w3.org/2000/svg">
  <g id="discord">
    <circle id="bgcircle" cx="20" cy="20" r="20" fill="#FABF2C"/>
    <path id="logo-discord" fill-rule="evenodd" clip-rule="evenodd" d="M23.3789 10C25.0889 10.3022 26.7535 10.8372 28.3303 11.5912C31.0467 15.7398 32.3964 20.4188 31.898 25.8176C30.0626 27.2351 28.0071 28.3117 25.8216 29C25.3295 28.3102 24.8944 27.5781 24.521 26.8113C25.2323 26.5336 25.9189 26.1912 26.5729 25.788C26.403 25.6677 26.235 25.5336 26.0708 25.3936C24.1716 26.3266 22.0987 26.8103 20 26.8103C17.9013 26.8103 15.8284 26.3266 13.9292 25.3936C13.7669 25.5238 13.5989 25.6578 13.4271 25.788C14.0798 26.1906 14.7651 26.5323 15.4752 26.8094C15.1014 27.5764 14.6663 28.3092 14.1746 29C11.991 28.3089 9.937 27.2318 8.10192 25.8156C7.67719 21.1602 8.52665 16.4378 11.6602 11.5952C13.2386 10.841 14.9043 10.3047 16.6154 10C16.8493 10.437 17.061 10.8865 17.2496 11.3467C19.071 11.06 20.9233 11.06 22.7447 11.3467C22.9332 10.8865 23.1449 10.4369 23.3789 10ZM23.9868 22.9526C22.8013 22.9526 21.8273 21.8306 21.8273 20.4504C21.8273 19.0702 22.7711 17.9384 23.9868 17.9384C25.2024 17.9384 26.1652 19.0702 26.1444 20.4504C26.1236 21.8306 25.193 22.9526 23.9868 22.9526ZM13.8518 20.4504C13.8518 21.8306 14.8296 22.9526 16.0132 22.9526C17.2194 22.9526 18.1519 21.8306 18.1727 20.4504C18.1935 19.0702 17.2232 17.9384 16.0094 17.9384C14.7956 17.9384 13.8518 19.0702 13.8518 20.4504Z" fill="black"/>
  </g>
</svg>
