<svg width="40" height="40" viewBox="0 0 40 40" fill="none" xmlns="http://www.w3.org/2000/svg">
  <g id="lens">
    <circle id="bgcircle" cx="20" cy="20" r="20" fill="#FABF2C"/>
    <path id="logo-lens" fill-rule="evenodd" clip-rule="evenodd" d="M15.7335 11.0061C16.2979 9.16721 18.0005 7.8607 20.019 7.8851C22.0197 7.88679 23.7289 9.16187 24.2958 11.0034C26.0144 10.0842 28.1669 10.5422 29.5168 11.9249C31.2495 13.6998 31.2842 16.4647 29.6193 18.2896L29.6098 18.3L29.5998 18.31C27.273 20.6368 24.3154 22.1916 21.0185 22.5725C21.1451 23.7816 21.6959 24.8219 22.7347 25.3126C23.8462 25.8235 25.2739 25.6452 26.3418 24.8638L26.8494 24.4923L28.0003 26.1419L27.5226 26.4981C26.7239 27.0938 25.7667 27.468 24.7784 27.585C26.3942 28.234 28.2606 28.2117 29.872 27.4316L30.4322 27.1603L31.2999 29.0088L30.753 29.2736C27.4596 30.8685 23.3787 29.9807 20.99 27.3357V30.0851H18.98V27.2867C16.5795 29.9382 12.5843 30.8451 9.2369 29.261L8.68335 28.999L9.53672 27.1759L10.0971 27.4461C11.7287 28.2329 13.62 28.2456 15.2493 27.5734C14.2507 27.4688 13.2786 27.1121 12.4555 26.5191L11.9693 26.1688L13.115 24.4883L13.6281 24.8638C14.6975 25.6462 16.1404 25.8228 17.2352 25.3126L17.2405 25.3102C18.2819 24.8368 18.8279 23.7871 18.9522 22.5704C15.7046 22.185 12.6854 20.6787 10.4216 18.3013C8.64925 16.4737 8.85361 13.6412 10.5422 11.9132C11.8821 10.5049 14.0322 10.0989 15.7335 11.0061ZM19.9933 9.90972C18.668 9.86302 17.4983 11.0016 17.5248 12.3406L17.6133 15.6141L16.5076 14.4421C16.3899 14.3173 16.276 14.1948 16.164 14.0743C15.9027 13.7932 15.6513 13.5227 15.3841 13.2589C14.7697 12.659 14.1313 12.486 13.5592 12.5394C13.0443 12.5875 12.544 12.824 12.14 13.1747L11.966 13.3537C11.5329 13.7994 11.2308 14.3917 11.1757 15.0103C11.1221 15.6107 11.2964 16.2749 11.8828 16.9136C14.0255 19.1376 16.9311 20.4668 20.0141 20.6342C23.1088 20.4572 25.9529 19.0884 28.151 16.8944C28.7325 16.2589 28.9038 15.5936 28.8488 14.991C28.7919 14.3685 28.4886 13.7759 28.0638 13.3386C27.6404 12.9027 27.07 12.5993 26.4769 12.5437C25.903 12.4898 25.2608 12.6626 24.6427 13.262C24.3795 13.5168 24.1368 13.7796 23.8815 14.056C23.7655 14.1817 23.6467 14.3102 23.5223 14.4421L22.4161 15.6148L22.4602 14.0033C22.4754 13.4468 22.49 12.9011 22.49 12.3551L22.4901 12.3425C22.5171 11.0206 21.3683 9.86948 20.0336 9.90982L20.0134 9.91043L19.9933 9.90972Z" fill="black"/>
  </g>
</svg>
