<svg width="40" height="40" viewBox="0 0 40 40" fill="none" xmlns="http://www.w3.org/2000/svg">
  <g id="twitter">
    <g clip-path="url(#clip0_116_779)">
      <circle id="bgcircle" cx="20" cy="20" r="20" fill="#FABF2C"/>
      <path id="logo-twitter" fill-rule="evenodd" clip-rule="evenodd" d="M33.2828 10.3772C32.8853 11.606 32.0516 12.6489 30.9374 13.3113C31.9945 13.1863 33.0268 12.9047 34 12.4758C33.2838 13.5413 32.3822 14.4713 31.3376 15.222C31.3484 15.4494 31.3538 15.678 31.3538 15.9079C31.3818 19.9188 29.7919 23.7734 26.9397 26.6097C24.0875 29.446 20.211 31.0272 16.1774 30.9996C13.278 31.0026 10.4392 30.1753 8 28.6168C8.42286 28.666 8.84828 28.6903 9.27402 28.6897C11.676 28.6936 14.0094 27.894 15.8989 26.4194C13.6176 26.3752 11.616 24.8958 10.916 22.7363C11.7154 22.8886 12.5393 22.8574 13.3248 22.6449C10.8356 22.1444 9.04581 19.9693 9.04532 17.4442V17.3774C9.78553 17.7873 10.6136 18.0153 11.4604 18.0423C9.1186 16.4836 8.3963 13.3847 9.80973 10.9606C12.5181 14.2739 16.5137 16.2883 20.8024 16.5024C20.2636 14.1659 21.3645 11.7599 23.4901 10.6289C25.6157 9.49788 28.2397 9.9218 29.8958 11.6638C31.0903 11.43 32.2358 10.9949 33.2828 10.3772Z" fill="black"/>
    </g>
  </g>
  <defs>
    <clipPath id="clip0_116_779">
      <rect width="40" height="40" rx="20" fill="white"/>
    </clipPath>
  </defs>
</svg>
