<svg width="40" height="40" viewBox="0 0 40 40" fill="none" xmlns="http://www.w3.org/2000/svg">
  <g id="youtube">
    <g clip-path="url(#clip0_116_783)">
      <circle id="bgcircle" cx="20" cy="20" r="20" fill="#FABF2C"/>
      <path id="logo-yt" fill-rule="evenodd" clip-rule="evenodd" d="M28.8035 12.6052C29.7672 12.8646 30.5271 13.6245 30.7866 14.5883C31.2684 16.349 31.2499 20.0186 31.2499 20.0186C31.2499 20.0186 31.2499 23.6698 30.7866 25.4305C30.5271 26.3942 29.7672 27.1541 28.8035 27.4136C27.0428 27.8769 20 27.8769 20 27.8769C20 27.8769 12.9757 27.8769 11.1964 27.3951C10.2327 27.1356 9.47281 26.3757 9.21334 25.4119C8.75 23.6698 8.75 20.0001 8.75 20.0001C8.75 20.0001 8.75 16.349 9.21334 14.5883C9.47281 13.6245 10.2512 12.8461 11.1964 12.5866C12.9571 12.1233 20 12.1233 20 12.1233C20 12.1233 27.0428 12.1233 28.8035 12.6052ZM17.7574 23.3733L23.614 20.0001L17.7574 16.627V23.3733Z" fill="black"/>
    </g>
  </g>
  <defs>
    <clipPath id="clip0_116_783">
      <rect width="40" height="40" rx="20" fill="white"/>
    </clipPath>
  </defs>
</svg>
