<svg width="221" height="48" viewBox="0 0 221 48" fill="none" xmlns="http://www.w3.org/2000/svg">
  <path d="M23.6504 14.7864C23.8259 15.3415 22.4528 22.9288 11.6293 22.8054C9.88058 22.8066 -0.535481 21.7081 0.0215394 11.0526C0.284167 6.04638 3.19998 3.35692 5.6105 2.05975C9.16102 0.15116 14.8348 -0.156902 19.0012 1.98458C23.4408 4.26589 23.6645 8.19958 23.6645 8.51829C23.6529 8.52112 23.5633 8.53216 23.4172 8.54913C23.3091 8.56166 23.17 8.57756 23.0087 8.59574C22.847 8.61393 22.6629 8.63453 22.4651 8.65649L21.3037 8.7854L21.2154 8.7951L21.192 8.79752L20.9973 8.81894L20.9847 8.82015C20.2406 8.90232 19.5727 8.976 19.3427 9.00281C19.3418 9.00052 19.3394 8.99257 19.3355 8.97924C19.2289 8.61514 17.9578 4.27586 12.0898 4.4212C5.73769 4.5788 4.51062 8.87579 4.55891 11.9192C4.59425 14.1243 5.58345 19.0152 12.4901 18.8894C18.1642 18.7865 19.1947 14.8423 19.3178 14.3707C19.3228 14.3518 19.3263 14.3385 19.3286 14.3312C20.7735 14.4829 22.2125 14.6347 23.6504 14.7864Z" fill="white"/>
  <path fill-rule="evenodd" clip-rule="evenodd" d="M109.653 35.6437C110.161 35.9479 110.556 36.3714 110.839 36.9114V31.2784H112.41V43.9203H110.909V42.3867C110.615 42.91 110.206 43.3264 109.682 43.6345C109.158 43.9437 108.579 44.0978 107.943 44.0978C106.761 44.0978 105.796 43.6909 105.052 42.8772C104.308 42.0622 103.935 41.0261 103.935 39.6985C103.935 38.3707 104.307 37.2865 105.048 36.4457C105.79 35.6049 106.743 35.185 107.909 35.185C108.562 35.185 109.144 35.3379 109.653 35.6437ZM110.058 41.9198C110.315 41.667 110.521 41.3472 110.676 40.9592V40.9602C110.833 40.5722 110.911 40.1465 110.911 39.6819C110.911 38.7777 110.637 38.0368 110.09 37.4606C109.542 36.8843 108.931 36.5962 108.201 36.5962C107.471 36.5962 106.836 36.8796 106.298 37.4464C105.76 38.0132 105.49 38.7518 105.49 39.6808C105.49 40.6099 105.756 41.3472 106.288 41.894C106.821 42.4409 107.458 42.7136 108.2 42.7136C108.54 42.7136 108.872 42.6443 109.192 42.5067C109.514 42.368 109.802 42.1727 110.058 41.9198Z" fill="white"/>
  <path d="M1.19095 31.2795H2.85021V43.9214H1.19095V31.2795Z" fill="white"/>
  <path d="M7.92457 35.5943C8.41678 35.3203 8.96199 35.1838 9.56258 35.1838V35.185C10.4858 35.185 11.2207 35.466 11.7648 36.0271C12.3088 36.588 12.5808 37.3653 12.5808 38.359V43.9214H11.0099V38.8259C11.0099 38.0861 10.8392 37.5217 10.4976 37.1336C10.1573 36.7456 9.67447 36.5514 9.05035 36.5514C8.38501 36.5514 7.83271 36.7973 7.39459 37.2877C6.95654 37.778 6.73749 38.4261 6.73749 39.2316V43.9214H5.18425V35.3614H6.73749V36.7538C7.03781 36.254 7.43344 35.867 7.92457 35.5943Z" fill="white"/>
  <path d="M17.6882 42.4044L14.9514 35.3603H13.3098L16.726 43.9214H18.6244L22.0583 35.3603H20.399L17.6882 42.4044Z" fill="white"/>
  <path fill-rule="evenodd" clip-rule="evenodd" d="M24.682 41.9775C25.1943 42.4797 25.8443 42.7313 26.6333 42.7313V42.7337C27.9287 42.7337 28.7553 42.0963 29.1146 40.8203L30.4653 41.3401C30.1721 42.2268 29.701 42.9088 29.0533 43.3851C28.4057 43.8614 27.6002 44.0991 26.6345 44.0991C25.3626 44.0991 24.3252 43.6874 23.522 42.8642C22.7189 42.0409 22.3173 40.9473 22.3173 39.5844C22.3173 38.767 22.487 38.025 22.8249 37.3582C23.1629 36.6914 23.6457 36.1623 24.2722 35.7718C24.8987 35.3802 25.6088 35.185 26.4037 35.185C27.5507 35.185 28.4715 35.5142 29.1664 36.1728C29.867 36.8184 30.2168 37.704 30.2168 38.8259C30.2168 39.2022 30.1815 39.5514 30.1108 39.8748H23.9048C23.9106 40.7745 24.1698 41.4753 24.682 41.9775ZM26.386 36.5514C25.7206 36.5514 25.1601 36.7503 24.7044 37.1466H24.7032C24.2475 37.5429 23.9813 38.0791 23.9048 38.7553H28.6636L28.6812 38.5084C28.6812 37.9098 28.4645 37.4335 28.0323 37.0807C27.6002 36.7279 27.0514 36.5514 26.386 36.5514Z" fill="white"/>
  <path d="M35.6091 38.8517C34.7612 38.7342 34.1665 38.5788 33.8262 38.3849C33.4847 38.1908 33.314 37.9121 33.314 37.5476C33.314 37.2182 33.4717 36.9525 33.7861 36.7503C34.1006 36.5479 34.4963 36.4457 34.9732 36.4457C35.9329 36.4457 36.5594 36.8808 36.8538 37.7499L38.0632 37.0795C37.5157 35.8153 36.4864 35.1838 34.9732 35.1838C34.0841 35.1838 33.3434 35.4073 32.7486 35.8541C32.1717 36.2834 31.8831 36.842 31.8831 37.5287C31.8831 38.8811 32.8664 39.7008 34.8319 39.9889C35.6739 40.1065 36.2603 40.2817 36.5936 40.5134C36.9257 40.7451 37.0929 41.0708 37.0929 41.4872C37.0929 41.8634 36.9269 42.1645 36.5936 42.3902C36.2615 42.6161 35.8128 42.7301 35.2476 42.7301C34.5999 42.7301 34.0735 42.5948 33.6672 42.3244C33.261 42.054 32.9371 41.6165 32.6957 41.0109L31.4156 41.6812C31.6747 42.4279 32.1292 43.0171 32.7793 43.4487C33.4294 43.8803 34.2289 44.0966 35.1758 44.0966C36.1225 44.0966 36.9692 43.8426 37.6252 43.3334C38.2811 42.8254 38.6097 42.1774 38.6097 41.3895C38.6097 39.9678 37.6087 39.121 35.6079 38.8505L35.6091 38.8517Z" fill="white"/>
  <path d="M43.6522 42.7313C44.0173 42.7313 44.3046 42.6243 44.5131 42.4091L44.5143 42.4103C44.7227 42.195 44.8628 41.8564 44.9335 41.3918L46.3807 41.7177C46.263 42.4809 45.9721 43.0689 45.5069 43.4804C45.0418 43.892 44.4424 44.0978 43.7064 44.0978C42.8055 44.0978 42.1143 43.8602 41.6314 43.3839C41.1486 42.9077 40.9072 42.2386 40.9072 41.3742V36.6844H39.2032V35.3626H40.9072V32.7095H42.4781V35.3626H45.5505V36.6844H42.4781V41.4448C42.4781 41.8388 42.5888 42.1515 42.809 42.3832C43.0293 42.6149 43.3107 42.7313 43.6522 42.7313Z" fill="white"/>
  <path d="M56.1478 35.1838C55.5944 35.1838 55.0927 35.332 54.6429 35.6296C54.193 35.9259 53.8551 36.3421 53.6326 36.8773C53.4912 36.3363 53.2239 35.9188 52.8293 35.626C52.4349 35.332 51.9733 35.185 51.4433 35.185C50.354 35.185 49.5839 35.646 49.1305 36.5691V35.3614H47.5772V43.9214H49.1305V38.6847C49.1305 38.0144 49.2859 37.4993 49.5979 37.1371C49.9101 36.7761 50.3104 36.595 50.7991 36.595C51.2878 36.595 51.6647 36.7491 51.9473 37.0583C52.23 37.3676 52.3712 37.8063 52.3712 38.3767V43.9214H53.9423V38.5965C53.9423 37.9615 54.1012 37.47 54.4191 37.1195C54.7372 36.7702 55.1398 36.595 55.6285 36.595C56.1172 36.595 56.4717 36.7491 56.7626 37.0583C57.0535 37.3665 57.1996 37.7828 57.1996 38.3061V43.9214H58.7528V37.9792C58.7528 37.0854 58.5196 36.3963 58.0557 35.9118C57.5905 35.4272 56.9546 35.1838 56.149 35.1838H56.1478Z" fill="white"/>
  <path fill-rule="evenodd" clip-rule="evenodd" d="M62.6354 41.9775C63.1476 42.4797 63.7977 42.7313 64.5867 42.7313V42.7337C65.882 42.7337 66.7088 42.0963 67.068 40.8203L68.4186 41.3401C68.1254 42.2268 67.6543 42.9088 67.0067 43.3851C66.359 43.8614 65.5534 44.0991 64.5879 44.0991C63.3161 44.0991 62.2785 43.6874 61.4754 42.8642C60.6722 42.0409 60.2707 40.9473 60.2707 39.5844C60.2707 38.767 60.4402 38.025 60.7783 37.3582C61.1163 36.6914 61.5991 36.1623 62.2256 35.7718C62.852 35.3802 63.5622 35.185 64.357 35.185C65.5041 35.185 66.425 35.5142 67.1198 36.1728C67.8204 36.8184 68.1701 37.704 68.1701 38.8259C68.1701 39.2022 68.1348 39.5514 68.0641 39.8748H61.8582C61.864 40.7745 62.1231 41.4753 62.6354 41.9775ZM64.3393 36.5514C63.674 36.5514 63.1135 36.7503 62.6578 37.1466H62.6566C62.2008 37.5429 61.9347 38.0791 61.8582 38.7553H66.6169L66.6346 38.5084C66.6346 37.9098 66.4179 37.4335 65.9858 37.0807C65.5534 36.7279 65.0047 36.5514 64.3393 36.5514Z" fill="white"/>
  <path d="M74.2773 35.1838C73.6767 35.1838 73.1315 35.3203 72.6393 35.5943C72.1481 35.867 71.7525 36.254 71.4522 36.7538V35.3614H69.8989V43.9214H71.4522V39.2316C71.4522 38.4261 71.6712 37.778 72.1093 37.2877C72.5474 36.7973 73.0996 36.5514 73.765 36.5514C74.3892 36.5514 74.8719 36.7456 75.2122 37.1336C75.5538 37.5217 75.7246 38.0861 75.7246 38.8259V43.9214H77.2955V38.359C77.2955 37.3653 77.0235 36.588 76.4794 36.0271C75.9354 35.466 75.2005 35.185 74.2773 35.185V35.1838Z" fill="white"/>
  <path d="M82.7632 42.7313C83.1283 42.7313 83.4156 42.6243 83.624 42.4091L83.6252 42.4103C83.8336 42.195 83.9738 41.8564 84.0445 41.3918L85.4917 41.7177C85.3739 42.4809 85.0831 43.0689 84.6179 43.4804C84.1528 43.892 83.5533 44.0978 82.8174 44.0978C81.9165 44.0978 81.2252 43.8602 80.7424 43.3839C80.2596 42.9077 80.0182 42.2386 80.0182 41.3742V36.6844H78.3141V35.3626H80.0182V32.7095H81.5891V35.3626H84.6614V36.6844H81.5891V41.4448C81.5891 41.8388 81.6998 42.1515 81.92 42.3832C82.1402 42.6149 82.4216 42.7313 82.7632 42.7313Z" fill="white"/>
  <path fill-rule="evenodd" clip-rule="evenodd" d="M95.9525 31.2795L90.6556 43.9214H92.4738L93.7986 40.7039H100.419L101.717 43.9214H103.562L98.2653 31.2795H95.9525ZM94.3991 39.1869L97.1089 32.6013L99.8009 39.1869H94.3991Z" fill="white"/>
  <path d="M117.9 42.4044L115.163 35.3603H113.521L116.938 43.9214H118.836L122.27 35.3603H120.609L117.9 42.4044Z" fill="white"/>
  <path d="M123.298 31.9487H125.037V33.7738H123.298V31.9487Z" fill="white"/>
  <path d="M124.939 35.3603H123.386V43.9203H124.939V35.3603Z" fill="white"/>
  <path d="M128.729 38.3849C129.069 38.5788 129.664 38.7342 130.512 38.8517L130.511 38.8505C132.512 39.121 133.513 39.9678 133.513 41.3895C133.513 42.1774 133.184 42.8254 132.528 43.3334C131.872 43.8426 131.025 44.0966 130.079 44.0966C129.132 44.0966 128.332 43.8803 127.682 43.4487C127.032 43.0171 126.578 42.4279 126.319 41.6812L127.598 41.0109C127.84 41.6165 128.164 42.054 128.57 42.3244C128.976 42.5948 129.503 42.7301 130.15 42.7301C130.716 42.7301 131.163 42.6161 131.496 42.3902C131.83 42.1645 131.996 41.8634 131.996 41.4872C131.996 41.0708 131.829 40.7451 131.496 40.5134C131.163 40.2817 130.577 40.1065 129.735 39.9889C127.769 39.7008 126.786 38.8811 126.786 37.5287C126.786 36.842 127.074 36.2834 127.652 35.8541C128.246 35.4073 128.987 35.1838 129.876 35.1838C131.389 35.1838 132.419 35.8153 132.966 37.0795L131.757 37.7499C131.462 36.8808 130.836 36.4457 129.876 36.4457C129.4 36.4457 129.003 36.5479 128.689 36.7503C128.375 36.9525 128.217 37.2182 128.217 37.5476C128.217 37.9121 128.388 38.1908 128.729 38.3849Z" fill="white"/>
  <path fill-rule="evenodd" clip-rule="evenodd" d="M141.132 35.7706C140.466 35.3802 139.708 35.1838 138.854 35.1838C137.576 35.1838 136.536 35.6072 135.729 36.4539C134.922 37.3007 134.519 38.3637 134.519 39.6455C134.519 40.9274 134.922 41.9892 135.729 42.8325C136.536 43.6757 137.576 44.0978 138.854 44.0978C140.132 44.0978 141.171 43.6745 141.988 42.8277C142.806 41.981 143.215 40.9204 143.215 39.6455C143.215 38.8047 143.034 38.0473 142.672 37.3711C142.31 36.695 141.797 36.1623 141.132 35.7706ZM140.836 41.8447C140.322 42.4115 139.661 42.6949 138.854 42.6949C138.047 42.6949 137.403 42.4103 136.885 41.84C136.367 41.2695 136.108 40.5381 136.108 39.6443C136.108 38.7506 136.367 38.0192 136.885 37.4488C137.403 36.8784 138.059 36.5939 138.854 36.5939C139.649 36.5939 140.331 36.882 140.831 37.4581C141.35 38.0109 141.609 38.7401 141.609 39.6443C141.609 40.5487 141.351 41.2766 140.836 41.8435V41.8447Z" fill="white"/>
  <path d="M147.133 35.5543C147.509 35.3073 147.956 35.1838 148.474 35.1838V35.185C149.163 35.185 149.727 35.4085 150.165 35.8553C150.603 36.3022 150.822 36.8537 150.822 37.5123C150.822 37.7151 150.81 37.9087 150.786 38.0934C150.78 38.1386 150.773 38.1834 150.766 38.2275C150.759 38.2696 150.751 38.3112 150.743 38.3523L150.737 38.3789L150.73 38.4153L150.724 38.4404L150.716 38.4731H149.198C149.234 38.2143 149.251 38.0027 149.251 37.838C149.251 37.4382 149.129 37.1242 148.885 36.8949C148.64 36.6655 148.307 36.5514 147.883 36.5514C147.4 36.5514 147.013 36.7279 146.722 37.0807C146.431 37.4323 146.285 37.8969 146.285 38.4731V43.9214H144.732V35.3614H146.285V36.6126C146.473 36.1541 146.756 35.8012 147.133 35.5543Z" fill="white"/>
  <path d="M155.403 40.9944L153.002 35.3603H151.298L154.573 42.8195L152.454 47.5H154.123L159.614 35.3603H157.955L155.403 40.9944Z" fill="white"/>
  <path d="M217.342 13.7808C214.708 13.1305 212.99 12.9333 211.807 12.7975C210.543 12.6524 209.89 12.5775 209.382 12.0945C206.937 9.77074 215.59 8.11499 216.952 12.1733L220.743 11.6664C220.743 11.6664 219.914 6.56148 212.244 6.74144L212.226 6.74184C211.361 6.76259 207.761 6.84826 205.959 9.10276C204.973 10.3376 204.271 13.4916 207.517 15.0286C209.043 15.7511 211.295 16.1055 213.232 16.4102C215.112 16.7061 216.695 16.9551 217.023 17.4487C218.801 20.1195 208.982 20.9991 208.063 17.1606L204.701 17.5688C204.603 20.5863 209.811 24.5964 217.713 21.9833C221.502 20.731 222.791 15.1274 217.341 13.7808H217.342Z" fill="white"/>
  <path d="M172.014 9.71781C172.014 9.71781 173.299 6.20048 178.099 6.77673C182.9 7.35177 183.078 11.5652 183.078 12.2533C183.078 12.7163 183.085 14.7973 183.091 16.952L183.109 22.3644H178.846C178.846 22.3644 178.837 17.4417 178.832 12.8495C178.831 12.4508 178.508 9.86126 175.632 10.0718C172.757 10.2823 172.638 12.3627 172.64 13.2129C172.649 15.9611 172.655 22.3644 172.655 22.3644H168.426V22.3632C168.426 22.2585 168.392 15.5536 168.396 13.0894C168.399 10.5892 166.514 9.95299 164.991 10.1083C163.469 10.2635 162.249 11.2467 162.229 12.8295C162.211 14.2136 162.222 22.3644 162.222 22.3644H157.969V7.13652H161.886C161.886 7.13652 162.057 9.62378 162.07 9.60371C163.21 7.88681 164.964 6.57683 167.798 6.78966C170.689 7.00599 172.014 9.71781 172.014 9.71781Z" fill="white"/>
  <path d="M168.426 22.3632C168.42 22.3573 168.41 22.3644 168.41 22.3644C168.412 22.3627 168.414 22.361 168.416 22.3602C168.418 22.3596 168.42 22.3593 168.421 22.3597L168.424 22.3606L168.425 22.3618L168.426 22.3632Z" fill="white"/>
  <path fill-rule="evenodd" clip-rule="evenodd" d="M50.798 20.0029C55.3036 25.1562 63.999 22.8159 64.4536 15.3825C65.0177 6.14404 54.6417 4.40356 50.6803 9.48733C50.639 9.53906 50.4694 7.13652 50.4694 7.13652H46.5174V27.4012L50.7909 27.3741C50.7909 27.3741 50.7851 20.4417 50.7968 20.0042L50.798 20.0029ZM51.1394 12.5249C51.7294 11.2102 52.7469 10.3704 54.1648 10.0389C54.6641 9.92242 55.1716 9.85547 55.685 9.8719C55.8901 9.87891 56.0937 9.92013 56.2974 9.9472L56.3359 9.95205L56.386 9.95784L56.4306 9.96256L56.4894 9.96862H56.4906C56.6323 9.9829 56.7738 9.99704 56.9098 10.0318C58.6609 10.4798 59.7419 11.5865 60.1601 13.3363C60.2696 13.795 60.3179 14.2618 60.2966 14.7135C60.3249 15.5401 60.1813 16.3175 59.8527 17.0559C59.3899 18.0944 58.6398 18.8588 57.5646 19.2457C55.7004 19.9171 53.9269 19.7207 52.3206 18.5272C51.5858 17.9803 51.1466 17.2053 50.9111 16.3315C50.5625 15.0415 50.5872 13.7549 51.1394 12.5238V12.5249Z" fill="white"/>
  <path fill-rule="evenodd" clip-rule="evenodd" d="M44.0244 19.2563V22.3738L44.0256 22.3749C43.9596 22.382 42.2379 22.435 40.8978 22.3726C38.4931 22.261 38.3459 20.0688 38.3388 19.6362C38.3342 19.6387 38.3294 19.6406 38.3246 19.6417C38.3184 19.6432 38.3123 19.6433 38.307 19.6419L38.3388 19.6243V19.5631C36.0848 22.616 32.5284 22.8196 31.3438 22.7418L31.3006 22.739C30.0806 22.6595 26.8362 22.4483 26.0881 19.268C25.8196 18.1284 25.6618 14.8322 30.1167 13.8479C30.559 13.7498 32.9797 13.4406 34.8194 13.2056L34.8513 13.2016L34.8574 13.2008L34.9607 13.1876L35.0077 13.1815L35.2706 13.148C35.575 13.1091 35.8547 13.0734 36.0954 13.0421C36.3014 13.0154 36.4789 12.9921 36.619 12.9733L36.7224 12.9591L36.8008 12.9482C37.4156 12.8612 38.3588 12.6966 38.2411 11.8311C38.1504 11.1654 37.1059 9.37917 33.1279 9.84954C30.1744 10.1988 29.9483 12.2414 29.9483 12.2414L26.3919 11.7076C26.3919 11.7076 26.6887 6.692 34.0346 6.692C39.9545 6.692 41.9235 9.82247 41.9235 12.6424C41.9264 12.7242 41.9319 13.3907 41.9379 14.2706L41.9499 16.1483C41.9591 17.6795 41.967 19.1475 41.967 19.2222C42.2165 19.2304 42.6832 19.2397 43.1211 19.2466C43.4936 19.2524 43.8452 19.2563 44.0244 19.2563ZM29.9625 18.319C30.1344 19.047 31.504 20.3253 34.8484 19.1763C37.0517 18.419 38.115 17.1206 38.1327 15.1121C38.057 15.129 37.3158 15.2381 36.3647 15.3757C35.4767 15.5042 34.4057 15.6576 33.5228 15.784L33.4832 15.7896L33.4359 15.7965L32.0998 15.9882C31.2107 16.1176 29.6009 16.7902 29.9625 18.319Z" fill="white"/>
  <path fill-rule="evenodd" clip-rule="evenodd" d="M193.43 6.68379C190.495 6.83317 186.157 8.26074 185.578 13.9938C185.352 16.2434 186.084 22.1797 193.271 22.7184C197.718 23.0523 201.314 21.2895 202.14 18.4672L200.69 18.0716L200.6 18.0469C199.999 17.8829 199.399 17.7191 198.795 17.5546C198.741 17.6264 198.007 19.0987 195.626 19.4833C190.547 20.3029 189.68 17.0019 189.426 15.8835L190.338 15.8846C193.202 15.8885 201.701 15.8998 202.79 15.8777C202.893 14.9698 203.166 6.18755 193.428 6.68257L193.43 6.68379ZM189.552 13.0412C189.778 12.1686 190.183 11.4489 190.875 10.8832C191.556 10.3281 192.332 10.0459 193.189 9.93427C194.277 9.79189 195.341 9.88241 196.378 10.2399C197.074 10.4798 197.662 10.8808 198.124 11.4548C198.493 11.9134 198.681 12.4461 198.767 13.0412H189.552Z" fill="white"/>
  <path d="M138.96 22.3538H134.578V4.77277H125.507L125.497 0.917882L147.39 0.933238V4.77277H138.96V22.3538Z" fill="white"/>
  <path d="M82.9645 18.9446C81.714 18.5013 81.661 17.3371 81.661 16.9537C81.6633 14.1395 81.661 10.3316 81.661 10.3316H87.0933L87.1109 7.14002H81.661V3.02758H77.391L77.3815 7.14002H74.6294L74.6647 10.3316H77.391V17.216C77.3904 17.8312 77.388 20.2767 79.6578 21.5612C82.0945 22.939 85.6507 22.3088 86.8759 22.0915C86.983 22.0725 87.0723 22.0567 87.1415 22.0457V18.7847C87.1365 18.7857 87.1231 18.7886 87.1021 18.7933C86.7533 18.8711 84.2994 19.4181 82.9658 18.9446H82.9645Z" fill="white"/>
  <path d="M149.653 7.12237L153.919 7.14716V22.3773H149.653V7.12237Z" fill="white"/>
  <path d="M71.6241 7.13773H67.3399V22.3915L71.6241 22.3338V7.13773Z" fill="white"/>
  <path d="M149.658 0.908453L153.919 0.933238V4.74112L149.658 4.76227V0.908453Z" fill="white"/>
  <path d="M71.6241 0.899159H67.3399V4.79392L71.6241 4.77749V0.899159Z" fill="white"/>
  <path fill-rule="evenodd" clip-rule="evenodd" d="M101.831 19.5621C99.5772 22.6148 96.022 22.8183 94.8361 22.7408L94.794 22.739C93.5739 22.6595 90.3297 22.4483 89.5816 19.268C89.313 18.1284 89.1552 14.8322 93.6102 13.8479C94.0556 13.7492 96.5066 13.4362 98.351 13.2008C99.2326 13.0883 99.9756 12.9935 100.294 12.9482C100.909 12.8612 101.852 12.6966 101.735 11.8311C101.644 11.1654 100.599 9.37917 96.6214 9.84954C93.6679 10.1988 93.4418 12.2414 93.4418 12.2414L89.8854 11.7076C89.8854 11.7076 90.1821 6.692 97.5281 6.692C103.448 6.692 105.417 9.82247 105.417 12.6424C105.426 12.9024 105.461 19.0669 105.461 19.2222C105.922 19.2374 107.128 19.2563 107.518 19.2563V22.3738C107.452 22.3808 105.73 22.4338 104.39 22.3714C101.985 22.2597 101.838 20.0677 101.831 19.6349C101.821 19.6409 101.809 19.6432 101.799 19.6409L101.831 19.6232V19.5621ZM96.977 15.792L95.5933 15.9906C94.7043 16.1199 93.0944 16.7926 93.4559 18.3213C93.6279 19.0493 94.9974 20.3276 98.3419 19.1787C100.545 18.4213 101.609 17.123 101.626 15.1145C101.48 15.1474 98.8324 15.5263 97.0036 15.7884L96.977 15.792Z" fill="white"/>
  <path d="M114.435 0.899159H110.152V22.3915L114.435 22.3338V0.899159Z" fill="white"/>
</svg>
