<svg width="155" height="69" viewBox="0 0 155 69" fill="none" xmlns="http://www.w3.org/2000/svg">
  <path d="M78.7649 0.696525C97.1262 -3.09819 116.799 9.10374 116.092 25.3562C116.092 25.3562 110.112 25.8185 105.968 25.2485C98.2234 24.1849 90.9134 19.6621 86.3378 16.8311C85.2781 16.1754 84.3651 15.6105 83.6274 15.2004C75.1093 10.4662 71.6489 10.1825 67.2445 11.4196C60.3113 13.366 56.2436 18.5915 52.2258 25.3229H49.2243C51.5429 20.4057 60.4133 4.48865 78.7649 0.696525Z" fill="white"/>
  <path d="M1.4286 39.4277C-0.577148 49.0741 -0.477783 54.1282 1.77053 56.8771C3.39664 58.8612 6.32611 59.7901 10.9899 59.7901C19.6018 59.7901 24.9195 55.2041 26.796 46.1674C26.796 46.1674 27.0887 44.7651 27.2645 43.9169H18.3379C16.7883 51.2447 15.5727 53.8789 12.4885 53.8789C11.417 53.8789 10.6533 53.5785 10.1461 52.9617C8.80835 51.3272 9.42794 47.5015 11.1595 39.1659C13.3903 28.4276 14.6771 24.7116 18.5936 24.7116C19.5623 24.7116 20.1802 25.1486 20.5959 25.694C20.9968 26.2211 21.0372 26.7868 21.0433 27.8313C21.0486 28.7595 20.392 32.9683 20.392 32.9683H29.2536C29.4091 32.2233 29.6834 30.9063 29.6834 30.9063C29.9831 29.4634 30.129 28.1431 30.122 26.9566C30.1097 24.7783 29.5823 23.0411 28.5399 21.7689C26.9288 19.7997 23.979 18.8015 19.7777 18.8015C9.26188 18.8015 4.63069 24.0059 1.4286 39.4277Z" fill="white"/>
  <path d="M131.851 18.9803C131.55 20.4311 123.861 57.4555 123.66 58.4166H114.658C114.959 56.9615 122.651 19.9372 122.852 18.9803H131.851Z" fill="white"/>
  <path fill-rule="evenodd" clip-rule="evenodd" d="M53.1408 30.5493C51.7442 28.8419 48.9685 28.0425 44.405 28.0425C40.3047 28.0425 33.2546 29.2534 31.2013 37.1546H38.8386C39.5918 34.2258 40.8091 33.0491 43.0962 33.0491C44.1237 33.0491 44.8866 33.3423 45.3621 33.9211C45.8746 34.5507 46.0082 35.4735 45.7612 36.6678C45.3086 38.8442 44.0876 39.9568 41.5537 40.5145C41.5537 40.5145 37.2864 41.4837 37.2828 41.4837C30.8507 42.9218 28.2859 45.2996 27.1186 50.9185C26.5227 53.7948 26.7916 55.9537 27.9202 57.3318C28.9425 58.5834 30.7171 59.2146 33.1939 59.2146C36.1824 59.2146 39.67 57.6931 41.2056 55.2338L41.3928 54.9397H41.8666L41.7769 56.1743C41.7224 56.8566 41.6741 57.5156 41.6776 58.1396C41.6776 58.1928 41.6817 58.2444 41.6858 58.2957C41.689 58.3359 41.6922 58.376 41.6934 58.4167H50.2518C50.1911 58.05 50.1524 57.6626 50.1498 57.2439C50.1428 55.9233 50.4038 54.33 50.8372 52.249L53.9653 37.1975C54.1886 36.1179 54.2993 35.1478 54.2949 34.2784C54.2862 32.7136 53.902 31.4782 53.1408 30.5493ZM43.8064 43.8247C44.1378 43.6947 44.31 43.5378 44.31 43.5378H44.3338L43.4039 48.0118C42.9072 50.4066 41.8613 53.585 38.5256 53.585C37.7082 53.585 37.0306 53.29 36.5726 52.7278C35.9592 51.9774 35.7904 50.8441 36.0787 49.458C36.5735 47.0892 37.5351 45.8008 39.4002 45.0136C40.1007 44.7204 40.7494 44.5554 41.3242 44.4129C41.5948 44.3452 41.9262 44.2762 42.2644 44.2058C42.8535 44.0832 43.463 43.9563 43.8064 43.8247Z" fill="white"/>
  <path fill-rule="evenodd" clip-rule="evenodd" d="M74.9872 55.7601C73.1809 53.5518 72.8268 50.0784 74.0732 43.8911C76.7925 30.4205 81.9326 28.0425 86.4049 28.0425C88.5308 28.0425 91.7332 28.827 92.1094 32.5438L92.1688 33.1217H92.7899C92.7899 33.1217 93.5162 29.6255 93.6755 28.8454H101.989C101.687 30.2962 95.8149 58.4167 95.8149 58.4167C94.3487 65.4809 89.7954 69 81.4421 69C73.703 69 72.5551 64.4543 72.3811 63.0467C72.3152 62.5123 72.4954 60.9352 72.4954 60.9352H80.5853V60.9415C80.5897 61.6596 80.6438 62.7194 80.8877 63.0171L80.9106 63.0455L80.9336 63.0742L80.9624 63.1105L80.9631 63.1114C81.2703 63.4989 81.5976 63.9119 82.7841 63.9119C84.4878 63.9119 86.1187 63.4223 86.9144 59.5912L88.2914 52.9556H87.6272L87.4436 53.2676C85.7866 56.125 82.7013 57.5694 79.4476 57.5694C77.4439 57.5694 75.983 56.9812 74.9872 55.7601ZM83.2422 43.2365C82.3322 47.6209 82.3718 49.3064 83.262 50.3949C83.7039 50.9382 84.3654 51.1982 85.279 51.1982C87.8063 51.1982 89.0412 49.6696 90.3246 43.4992C91.2418 39.08 91.3372 36.2729 90.4596 35.1959C90.0285 34.6732 89.3976 34.4131 88.5273 34.4131C85.9162 34.4131 84.522 37.0661 83.2422 43.2365Z" fill="white"/>
  <path d="M115.321 28.8454C115.025 30.2726 109.379 57.4717 109.18 58.4167H100.18C100.342 57.6411 102.082 49.2667 103.671 41.6235C105.008 35.1914 106.237 29.2772 106.327 28.8454H115.321Z" fill="white"/>
  <path d="M142.164 38.7917C144.144 29.2639 146.13 19.7034 146.282 18.9803H137.281L136.321 23.6025C134.206 33.7828 129.328 57.2637 129.087 58.4166H138.084C138.186 57.9347 140.17 48.3852 142.162 38.7999L142.164 38.7917Z" fill="white"/>
  <path d="M68.0954 33.4037C69.8093 30.0983 73.319 28.0425 76.2687 28.0425H77.1415C76.8919 29.2534 75.6341 35.3036 75.4337 36.2641C74.7938 36.1704 74.1425 36.1293 73.4016 36.1293C69.1079 36.1293 66.7101 38.0256 65.8628 42.0988C65.8628 42.0988 63.0537 55.639 62.4788 58.4167H53.474C53.6084 57.7634 54.8626 51.7297 56.2035 45.279C57.0893 41.0177 58.0129 36.5745 58.6765 33.38C58.9138 32.064 59.0501 30.9678 59.0448 30.0196C59.0422 29.5976 59.0035 29.2114 58.9428 28.8419H67.5038V28.8454H68.2747C68.0514 29.9329 67.2586 33.7451 67.2586 33.7451H67.9178L68.0954 33.4037Z" fill="white"/>
  <path d="M148.193 18.9592H150.894L150.804 19.3874H149.692L148.892 23.2426H148.415L149.216 19.3874H148.106L148.193 18.9592Z" fill="white"/>
  <path d="M154.162 18.9592H155L154.109 23.2426H153.634L154.367 19.7131C154.375 19.677 154.382 19.6411 154.39 19.6054C154.396 19.5767 154.403 19.5481 154.409 19.5196L154.41 19.5187C154.436 19.403 154.462 19.2881 154.479 19.1711H154.468C154.365 19.4216 154.292 19.5808 154.217 19.7457L154.216 19.7472L152.59 23.2426H152.023L151.858 19.6956C151.849 19.5468 151.845 19.404 151.843 19.1711H151.831C151.813 19.2598 151.796 19.3499 151.78 19.4402C151.763 19.5353 151.746 19.6311 151.727 19.7254L150.996 23.2426H150.52L151.41 18.9592H152.253L152.401 22.3014C152.41 22.4835 152.396 22.6603 152.36 22.9352H152.373L152.381 22.9113C152.453 22.7025 152.523 22.4985 152.614 22.2952L154.162 18.9592Z" fill="white"/>
</svg>
