<svg width="240" height="128" viewBox="0 0 240 128" fill="none" xmlns="http://www.w3.org/2000/svg">
  <path d="M20.9143 71.13C10.7505 51.2604 18.6095 26.9417 38.4836 16.7619C52.6523 9.52281 69.0881 11.408 81.0655 20.2683C77.1738 15.857 72.2241 12.2375 66.4433 9.82444C45.8135 1.22808 22.0855 10.9178 13.4331 31.4661C6.10317 48.9605 12.0352 68.6793 26.6573 79.5002C24.4659 77.0118 22.5012 74.2217 20.9143 71.13Z" fill="url(#paint0_radial_117_7938)"/>
  <path fill-rule="evenodd" clip-rule="evenodd" d="M44.3774 38.6672V69.8102H50.6117C53.2943 69.8102 55.2969 69.1315 56.7326 67.7365C58.1306 66.3415 58.8485 64.1924 58.8485 61.2892V46.7357C58.8485 44.1719 58.1684 42.1736 56.846 40.7786C55.5236 39.3836 53.5588 38.6672 50.9895 38.6672H44.3774ZM48.8359 65.5874V42.89H50.8762C52.1986 42.89 53.1054 43.2293 53.5966 43.908C54.0878 44.5489 54.3523 45.5292 54.3523 46.7357V61.7039C54.3523 63.0236 54.0878 64.0038 53.5588 64.6448C53.0298 65.2858 52.123 65.5874 50.8762 65.5874H48.8359Z" fill="white"/>
  <path fill-rule="evenodd" clip-rule="evenodd" d="M66.4052 38.6672L59.453 69.7725H63.9115L65.2339 63.099H71.317L72.6394 69.7725H77.0979L70.1457 38.6672H66.4052ZM68.2943 47.6029L70.4858 58.8762H66.0273L68.2188 47.6029H68.2943Z" fill="white"/>
  <path fill-rule="evenodd" clip-rule="evenodd" d="M78.8737 38.6672V69.7725H83.3321V56.5009H86.0148L90.1709 69.7725H94.8939L90.0954 55.5583C91.4934 54.7665 92.5135 53.7485 93.0803 52.4666C93.647 51.1847 93.9493 49.6389 93.9493 47.7914C93.9493 41.7212 91.3045 38.6672 86.0526 38.6672H78.8737ZM83.3321 52.542V42.8523H85.6747C87.2238 42.8523 88.244 43.2293 88.8107 44.0588C89.0752 44.4735 89.2641 45.0014 89.3397 45.6046C89.4531 46.2079 89.4908 46.8865 89.4908 47.6783C89.4908 48.4701 89.4153 49.1487 89.3397 49.752C89.2264 50.3552 89.0752 50.8454 88.8485 51.2601C88.584 51.6749 88.2062 51.9765 87.7528 52.2027C87.2616 52.4289 86.6571 52.542 85.8636 52.542H83.3321Z" fill="white"/>
  <path d="M100.448 56.614V69.7725H104.906V56.614L111.027 38.6672H106.304L102.715 51.0339H102.639L99.05 38.6672H94.3271L100.448 56.614Z" fill="white"/>
  <path d="M112.841 38.6672V69.7725H126.141V65.3235H117.299V38.6672H112.841Z" fill="white"/>
  <path d="M146.808 62.7973V38.6672H142.35V62.3449C142.35 63.4383 142.085 64.2678 141.556 64.7956C141.027 65.3235 140.385 65.5874 139.592 65.5874C138.798 65.5874 138.156 65.3235 137.627 64.7956C137.098 64.2678 136.833 63.4383 136.833 62.3449V38.6672H132.375V62.7973C132.375 63.8153 132.564 64.7579 132.942 65.6251C133.32 66.4923 133.849 67.2463 134.529 67.925C135.209 68.6037 135.964 69.1315 136.833 69.5085C137.702 69.8856 138.647 70.0741 139.629 70.0741C140.612 70.0741 141.556 69.8856 142.425 69.5085C143.294 69.1315 144.05 68.6037 144.73 67.925C145.41 67.2463 145.901 66.4923 146.279 65.6251C146.619 64.7579 146.808 63.8153 146.808 62.7973Z" fill="white"/>
  <path fill-rule="evenodd" clip-rule="evenodd" d="M149.793 38.6672V69.8102H154.289V57.6697H156.556C158.219 57.6697 159.579 57.3681 160.599 56.8025C161.619 56.237 162.451 55.4452 163.055 54.4272C163.584 53.56 163.924 52.6552 164.075 51.7126C164.226 50.7323 164.302 49.5635 164.302 48.1685C164.302 46.2833 164.151 44.8129 163.849 43.7195C163.546 42.6261 163.017 41.6835 162.262 40.854C161.506 40.0622 160.675 39.4967 159.73 39.1574C158.786 38.818 157.69 38.6672 156.481 38.6672H149.793ZM154.252 53.4092V42.8523H156.632C157.501 42.8523 158.181 42.9654 158.635 43.2293C159.126 43.4932 159.466 43.8703 159.692 44.3604C159.919 44.8506 160.032 45.4538 160.07 46.0948C160.108 46.7355 160.108 47.4517 160.108 48.1678C160.108 48.9596 160.07 49.6766 160.032 50.3175C159.995 50.9585 159.844 51.4863 159.617 51.9388C159.39 52.3912 159.012 52.7683 158.521 53.0322C157.992 53.2961 157.312 53.4092 156.405 53.4092H154.252Z" fill="white"/>
  <path d="M180.738 45.944C180.738 40.9294 178.282 38.064 173.483 38.064C168.685 38.064 166.229 40.9294 166.191 45.944C166.191 49.5258 167.514 52.1273 171.632 55.7468C174.881 58.5746 175.864 60.2712 175.864 62.5711C175.864 64.8333 174.881 65.6251 173.294 65.6251C171.708 65.6251 170.725 64.7956 170.725 62.5711V60.3466H166.078V62.2695C166.078 67.284 168.609 70.1495 173.446 70.1495C178.282 70.1495 180.813 67.284 180.813 62.2695C180.813 58.6877 179.491 56.0862 175.373 52.4666C172.123 49.6389 171.141 47.9422 171.141 45.6423C171.141 43.4178 172.01 42.5507 173.597 42.5507C175.146 42.5507 176.053 43.4178 176.053 45.6423V46.9242H180.738V45.944Z" fill="white"/>
  <path fill-rule="evenodd" clip-rule="evenodd" d="M188.446 38.6672L181.493 69.7725H185.952L187.274 63.099H193.357L194.68 69.7725H199.138L192.186 38.6672H188.446ZM190.335 47.6029L192.526 58.8762H188.068L190.259 47.6029H190.335Z" fill="white"/>
  <path d="M200.876 38.6672V69.7725H214.176V65.3235H205.335V38.6672H200.876Z" fill="white"/>
  <path d="M216.443 38.6672V69.7725H229.743V65.3235H220.902V38.6672H216.443Z" fill="white"/>
  <path d="M66.8964 77.2753H65.0828V89.642H66.8964V77.2753Z" fill="white"/>
  <path d="M73.1306 77.2753H71.3926V89.642H73.2062V80.8571H73.244L78.6848 89.642H80.4228V77.2753H78.6092V86.0602H78.5715L73.1306 77.2753Z" fill="white"/>
  <path d="M83.9745 78.9343H87.2994V89.642H89.113V78.9343H92.4002V77.2753H83.9745V78.9343Z" fill="white"/>
  <path d="M103.471 77.2753H95.8007V89.6797H103.471V87.9076H97.6143V84.2504H102.602V82.5915H97.6143V79.0474H103.471V77.2753Z" fill="white"/>
  <path fill-rule="evenodd" clip-rule="evenodd" d="M112.048 77.2753H107.4V89.6797H109.214V84.4012H111.556L114.05 89.6797H116.204L113.408 84.175C114.919 83.5718 115.675 82.4407 115.713 80.744C115.675 79.6129 115.259 78.708 114.503 78.1048C113.861 77.5392 113.03 77.2753 112.048 77.2753ZM111.934 82.7046H109.176V78.972H112.048C112.614 78.972 113.068 79.0851 113.37 79.349C113.748 79.6129 113.975 80.1031 113.975 80.744C113.975 81.2719 113.823 81.7243 113.483 82.1013C113.143 82.4784 112.614 82.7046 111.934 82.7046Z" fill="white"/>
  <path d="M121.569 77.2753H119.869V89.642H121.645V80.8571H121.682L127.123 89.642H128.861V77.2753H127.048V86.0602H127.01L121.569 77.2753Z" fill="white"/>
  <path fill-rule="evenodd" clip-rule="evenodd" d="M135.247 86.8897H139.818L140.763 89.642H142.69L138.307 77.2753H136.796L132.413 89.642H134.34L135.247 86.8897ZM137.551 79.8014L139.289 85.2307H135.776L137.514 79.8014H137.551Z" fill="white"/>
  <path d="M143.597 78.9343H146.884V89.642H148.697V78.9343H151.985V77.2753H143.597V78.9343Z" fill="white"/>
  <path d="M157.237 77.2753H155.423V89.642H157.237V77.2753Z" fill="white"/>
  <path fill-rule="evenodd" clip-rule="evenodd" d="M161.468 80.5555C161.393 81.0456 161.355 82.0259 161.355 83.4587C161.355 84.8914 161.43 85.834 161.506 86.3618C161.544 86.6257 161.582 86.852 161.657 87.0405C161.733 87.1912 161.808 87.3795 161.884 87.5679C162.186 88.1335 162.64 88.624 163.282 89.0765C163.924 89.5289 164.718 89.7551 165.662 89.7928C166.607 89.7551 167.4 89.5289 168.043 89.0765C168.685 88.6617 169.138 88.1339 169.403 87.5683C169.592 87.2667 169.743 86.852 169.818 86.3618C169.894 85.8717 169.932 84.9291 169.932 83.4964C169.932 82.0259 169.894 81.0833 169.818 80.5932C169.743 80.1031 169.592 79.726 169.403 79.4244C169.138 78.8211 168.685 78.331 168.043 77.8786C167.4 77.4261 166.607 77.1999 165.662 77.1999C164.718 77.1999 163.924 77.4261 163.282 77.8786C162.64 78.2933 162.186 78.8211 161.884 79.3867C161.695 79.6883 161.544 80.0654 161.468 80.5555ZM163.32 85.9471C163.244 85.4946 163.206 84.6652 163.206 83.4587C163.206 82.2522 163.244 81.4227 163.32 80.9702C163.395 80.5555 163.546 80.2162 163.773 79.9522C163.962 79.6883 164.226 79.4998 164.529 79.3113C164.831 79.1605 165.209 79.0474 165.624 79.0474C166.078 79.0474 166.456 79.1605 166.758 79.3113C167.06 79.4998 167.287 79.6883 167.476 79.9522C167.703 80.2162 167.891 80.5555 167.967 80.9702C168.043 81.4227 168.08 82.2522 168.08 83.4587C168.08 84.7029 168.043 85.5323 167.967 85.9471C167.891 86.3995 167.703 86.7388 167.476 87.0028C167.287 87.229 167.06 87.4552 166.758 87.606C166.456 87.7945 166.078 87.8699 165.624 87.8699C165.209 87.8699 164.831 87.7945 164.529 87.606C164.226 87.4552 163.962 87.2667 163.773 87.0028C163.546 86.7388 163.395 86.3618 163.32 85.9471Z" fill="white"/>
  <path d="M175.977 77.2753H174.277V89.642H176.053V80.8571H176.09L181.531 89.642H183.269V77.2753H181.456V86.0602H181.418L175.977 77.2753Z" fill="white"/>
  <path fill-rule="evenodd" clip-rule="evenodd" d="M189.655 86.8897H194.226L195.171 89.642H197.098L192.715 77.2753H191.204L186.821 89.642H188.748L189.655 86.8897ZM191.959 79.8014L193.698 85.2307H190.184L191.922 79.8014H191.959Z" fill="white"/>
  <path d="M202.388 77.2753H200.574V89.6797H208.244V87.9076H202.388V77.2753Z" fill="white"/>
  <defs>
    <radialGradient id="paint0_radial_117_7938" cx="0" cy="0" r="1" gradientUnits="userSpaceOnUse" gradientTransform="translate(58.0395 58.2853) rotate(-139.013) scale(54.6225 54.551)">
      <stop stop-color="white"/>
      <stop offset="0.847048" stop-color="white" stop-opacity="0.2054"/>
      <stop offset="1" stop-color="white" stop-opacity="0"/>
    </radialGradient>
  </defs>
</svg>
