<svg width="132" height="66" viewBox="0 0 132 66" fill="none" xmlns="http://www.w3.org/2000/svg">
  <path fill-rule="evenodd" clip-rule="evenodd" d="M29.7364 65.128C25.4752 64.8709 21.9033 63.8788 17.6785 61.748C12.5473 59.1761 8.37693 55.4289 5.22198 50.5606C4.06154 48.7789 2.59282 45.858 2.01261 44.2048L1.65006 43.1943V53.1325L1.63182 63.0706L2.73784 63.1991C6.34609 63.5666 10.3533 63.1257 14.3786 61.8949L15.9923 61.3991L16.79 61.8398L17.2141 62.0728L17.2163 62.074L17.2189 62.0754C17.5967 62.2824 17.6521 62.3129 17.7834 62.4081C17.4534 62.5847 16.9896 62.7582 16.4094 62.9604C11.4957 64.7237 6.92631 65.2933 1.9401 64.7421L0 64.5401V1.25615L0.598312 1.14598C1.922 0.88863 7.43402 0.815182 9.19291 1.03581C12.0759 1.38469 16.0104 2.45026 17.7874 3.35028C18.2226 3.57063 18.422 3.5339 19.7819 2.94603C21.8489 2.06437 24.5325 1.3296 27.3972 0.833544C29.4462 0.503026 30.2439 0.44794 32.8006 0.53975C34.4505 0.594837 36.0461 0.705009 36.3363 0.778457C36.8077 0.88863 36.8439 0.943716 36.7534 1.6234C36.6988 2.02764 36.6263 2.37681 36.59 2.43189C36.5673 2.45506 36.2354 2.44178 35.7574 2.4011C35.6 2.38782 35.427 2.37144 35.2438 2.35251L35.1439 2.34234L35.0498 2.33189C34.9662 2.32285 34.8812 2.31325 34.7951 2.30308C32.7825 2.06437 28.9929 2.1929 26.8714 2.57879C22.0666 3.46045 17.7149 5.3526 13.9253 8.18149C7.65169 12.9209 3.60824 19.4973 2.04893 27.5801C1.55931 30.1519 1.61373 36.1221 2.15762 38.6756C3.39071 44.4986 5.8747 49.477 9.62797 53.6285C11.7495 55.9797 15.1038 58.6433 17.5154 59.8742L18.4401 60.3519L20.0538 59.4148C22.683 57.9086 24.4236 56.5492 26.6539 54.3082C30.5159 50.3954 32.9456 46.2071 34.3599 40.99C35.6472 36.1955 35.7923 31.4378 34.7951 26.5145C33.9791 22.5282 31.9846 18.0462 29.5731 14.813C27.1616 11.5432 23.3901 8.16313 20.1808 6.36279C19.7457 6.12409 19.3105 5.81193 19.3105 5.81193C19.3105 5.81193 20.9423 5.26079 21.3231 5.15061C21.3777 5.16897 21.509 5.24468 21.6927 5.35994C21.8479 5.4574 22.0406 5.58283 22.256 5.72605C22.5495 5.92097 22.8855 6.14838 23.2269 6.38116C32.5648 12.8658 37.9137 24.0348 37.0071 35.1851C36.3544 43.1576 33.3264 49.8442 27.7599 55.5574C25.8198 57.5413 23.9159 59.0109 20.8698 60.8663L20.2714 61.2335L21.7764 61.803C25.7473 63.2542 30.2258 63.8604 34.1604 63.4932C36.7534 63.2542 36.8077 63.2726 36.8077 64.3565V64.926L35.2303 65.0362C32.2203 65.2565 31.8215 65.2565 29.7364 65.128ZM3.60824 18.0278C4.22479 16.8153 5.27639 15.0337 5.94721 14.0783C8.19558 10.8635 12.8373 6.56506 15.7929 4.94835L16.5363 4.56274L14.7957 3.99324C12.7104 3.31356 11.84 3.11157 9.70048 2.76241C8.03247 2.50534 3.53573 2.41353 2.32088 2.61551L1.63182 2.74405V22.6203L2.04893 21.4262C2.28455 20.7649 2.97361 19.2219 3.60824 18.0278Z" fill="white"/>
  <path fill-rule="evenodd" clip-rule="evenodd" d="M60.1071 65.1831C58.9287 64.7788 57.75 63.6217 57.4781 62.5378C56.8978 60.407 57.6775 58.6801 59.672 57.6515C61.3402 56.7879 63.0445 56.6594 64.8759 57.284L66.1813 57.725V56.8984C66.1813 55.6859 65.71 54.841 64.7307 54.3449C64.0055 53.959 63.7154 53.9223 62.2829 53.9958C61.0319 54.0508 60.4517 54.1613 59.7807 54.5102L58.9104 54.9512L58.566 54.4918C58.4644 54.3607 58.3721 54.2297 58.306 54.1229C58.2723 54.0684 58.2454 54.0201 58.2276 53.9816C58.2119 53.9475 58.2033 53.9209 58.2033 53.9039C58.2033 53.8305 58.7473 53.5181 59.4001 53.1875C60.3792 52.6915 60.8686 52.5813 62.1016 52.5079C64.0962 52.3977 65.4379 52.8019 66.4533 53.8489C67.5412 54.9512 67.6318 55.4469 67.6318 60.7191V65.33H66.9973C66.3989 65.33 66.3627 65.2933 66.3627 64.687V64.0624L65.6011 64.5768C65.1659 64.8523 64.5495 65.1831 64.2049 65.3116C63.3166 65.6054 61.1588 65.5503 60.1071 65.1831ZM63.6247 64.0257C64.1143 63.9339 64.894 63.6034 65.3473 63.3093L66.1813 62.7582V59.2496L65.3835 58.8823C64.9484 58.6984 64.0961 58.4781 63.5159 58.423C60.9957 58.1476 58.9829 59.2312 58.8016 60.9397C58.6203 62.4827 59.5089 63.6217 61.2132 64.0257C62.1923 64.2647 62.5731 64.2647 63.6247 64.0257Z" fill="white"/>
  <path fill-rule="evenodd" clip-rule="evenodd" d="M101.756 61.9686C102.681 63.7135 103.787 64.724 105.4 65.2565C106.434 65.6057 108.537 65.4588 109.607 64.9811C110.586 64.5401 111.873 63.5666 111.873 63.2542C111.873 63.1257 111.638 62.887 111.33 62.7217C110.804 62.4276 110.786 62.4276 110.223 62.9604C109.48 63.6768 107.921 64.1178 106.67 63.989C104.621 63.7686 103.098 62.2807 102.554 59.966L102.445 59.4518H113.016L112.907 58.1659C112.707 55.8328 111.511 53.959 109.589 53.0039C108.284 52.361 106.017 52.361 104.603 53.0406C103.406 53.6102 102.409 54.602 101.738 55.8695C101.303 56.7148 101.266 56.9718 101.266 58.9007C101.266 60.8479 101.303 61.0866 101.756 61.9686ZM109.444 54.5836C110.423 55.2085 111.239 56.384 111.439 57.4863L111.547 58.1659H102.463L102.717 57.3207C103.08 56.0718 103.787 55.1348 104.748 54.5469C105.509 54.1062 105.8 54.0328 107.087 54.0328C108.393 54.0328 108.646 54.0879 109.444 54.5836Z" fill="white"/>
  <path d="M124.294 64.1542C124.875 64.6687 125.654 65.1096 126.379 65.3483C126.633 65.4401 127.377 65.4769 128.029 65.4401C129.516 65.3667 130.568 64.8339 131.402 63.7135C131.909 63.0155 132 62.7765 132 61.8581C132 60.9211 131.927 60.7191 131.347 60.0211C130.568 59.121 129.752 58.6617 128.138 58.2391C127.431 58.0738 126.705 57.725 126.307 57.3942C126.066 57.1973 125.911 57.0509 125.814 56.8958C125.684 56.6896 125.654 56.4676 125.654 56.0899C125.654 55.6306 125.799 55.1531 125.98 54.9325C126.778 53.9039 128.682 53.6285 130.023 54.3266L130.767 54.6938L131.202 54.2898C131.438 54.0692 131.637 53.8305 131.637 53.7571C131.637 53.6836 131.202 53.3895 130.695 53.0957C129.861 52.6364 129.552 52.563 128.283 52.563C126.76 52.563 126.034 52.82 125.146 53.6469C124.022 54.6571 123.804 56.5309 124.638 57.7984C125.164 58.5883 126.397 59.3414 127.575 59.562C128.5 59.7273 129.697 60.2968 130.114 60.7558C130.55 61.2335 130.55 62.3542 130.114 63.0155C129.697 63.6768 128.809 64.0441 127.648 64.0441C126.687 64.0441 125.853 63.7135 125.146 63.0706L124.729 62.6847L123.75 63.6768L124.294 64.1542Z" fill="white"/>
  <path fill-rule="evenodd" clip-rule="evenodd" d="M45.3298 47.8419L48.4666 47.9154C51.1681 47.9705 51.694 48.0255 52.4193 48.3563C55.0122 49.5688 56.227 52.3793 55.3748 55.1531C55.1391 55.9614 54.8127 56.4758 54.1237 57.1738C52.8544 58.4597 52.0385 58.7168 49.1011 58.7168H46.7802V65.33H45.3298V47.8419ZM51.694 56.9718C53.3259 56.384 54.1056 55.098 53.9967 53.1875C53.9061 51.6262 53.2896 50.5974 51.966 49.9177C51.2045 49.5321 50.7874 49.44 48.938 49.3849L46.7802 49.3114V57.2473H48.8473C50.2254 57.2473 51.1681 57.1555 51.694 56.9718Z" fill="white"/>
  <path d="M71.0768 52.6548H71.7114C72.2736 52.6548 72.3461 52.7099 72.4549 53.3161L72.5636 53.959L73.0532 53.5C73.6154 52.9488 74.8664 52.4711 75.7186 52.4711C76.4801 52.4711 78.112 52.82 78.239 53.0223C78.2752 53.0957 78.2027 53.4263 78.0394 53.7387C77.8219 54.1797 77.6588 54.2898 77.4411 54.198C76.8609 53.959 75.2835 53.9039 74.6489 54.1059C73.8329 54.3816 72.9626 55.3551 72.7269 56.2738C72.618 56.6594 72.5274 58.8086 72.5274 61.1601V65.33H71.0768V52.6548Z" fill="white"/>
  <path d="M83.1344 64.9811C82.4093 64.5404 81.8471 63.8788 81.6114 63.2542C81.4844 62.9421 81.4119 61.0132 81.4119 58.3312V53.9407H79.5988V52.655H81.4119V51.0934C81.4119 49.7341 81.4483 49.5321 81.7383 49.5321C81.9016 49.5321 82.2279 49.477 82.4635 49.4219C82.863 49.3117 82.863 49.3301 82.863 50.9832V52.655H85.4007V53.9407H82.863V58.0741C82.863 63.3093 82.9711 63.6217 84.73 63.9523C85.3471 64.0811 85.4007 64.1362 85.4007 64.7057C85.4007 64.9845 85.4007 65.1387 85.3248 65.2243C85.2308 65.3303 85.0203 65.3303 84.5492 65.3303C84.0228 65.3303 83.4611 65.2014 83.1344 64.9811Z" fill="white"/>
  <path d="M87.7586 52.6367L88.4475 52.6918C88.973 52.7285 89.1363 52.8387 89.1726 53.1325C89.227 53.5 89.2452 53.5 90.2608 52.9672C91.203 52.4895 91.4208 52.4528 92.8529 52.5079C94.7571 52.6 96.0993 53.1875 97.1686 54.4184C98.3474 55.7777 98.4564 56.3472 98.4564 61.1417V65.33H97.0233L96.9689 61.1601C96.9153 57.284 96.879 56.9167 96.516 56.2371C95.3007 53.9223 92.0915 53.1325 89.8978 54.6023L89.2089 55.043V65.33H87.7586V52.6367Z" fill="white"/>
  <path d="M115.681 52.6548H116.316C116.932 52.6548 116.95 52.6731 116.95 53.4079V54.1794L117.386 53.702C118.401 52.5997 120.16 52.2138 121.918 52.7282C121.976 52.7446 122.033 52.7615 122.088 52.7785C122.192 52.8113 122.291 52.8449 122.38 52.8779C122.45 52.9036 122.515 52.9291 122.573 52.9539C122.791 53.0466 122.918 53.1282 122.898 53.1692C122.372 54.2347 122.3 54.3082 122.046 54.1977C121.882 54.1243 121.266 54.0325 120.668 53.9958C119.217 53.8856 118.147 54.4367 117.549 55.5938C117.15 56.3656 117.132 56.5492 117.132 60.866V65.33H115.681V52.6548Z" fill="white"/>
  <path fill-rule="evenodd" clip-rule="evenodd" d="M74.8304 46.4642C74.7579 46.4091 74.7034 42.4779 74.7034 37.7385V29.1414H75.4106C75.9908 29.1414 76.1358 29.2148 76.2264 29.5824L76.3353 30.0047L77.2782 29.5273C78.0578 29.1414 78.493 29.0496 79.5083 29.0679C81.2128 29.0863 82.4276 29.6191 83.5519 30.868C85.9453 33.5316 85.7275 38.1792 83.1163 40.5123C82.6634 40.9166 81.9199 41.3756 81.4666 41.5225C79.9798 42.037 77.659 41.8533 76.8611 41.1553C76.716 41.0084 76.5166 40.8982 76.4622 40.8982C76.3897 40.8982 76.3353 42.1838 76.3353 43.7455V46.5927H75.6462C75.2656 46.5927 74.8846 46.5376 74.8304 46.4642ZM80.4874 40.2366C81.6478 39.8877 82.6815 38.9694 83.2433 37.812C83.8415 36.5628 83.8415 34.3769 83.2433 33.0359C82.1738 30.6109 79.4177 29.7109 77.1693 31.0519L76.3353 31.548V39.0428L76.9699 39.5569C77.5682 40.0346 78.6198 40.494 79.2544 40.5123C79.3996 40.5307 79.9616 40.4022 80.4874 40.2366Z" fill="white"/>
  <path d="M50.0259 41.7248C48.2128 41.1369 46.327 39.6304 45.4023 38.0323C44.2236 36.0116 43.7884 33.1093 44.3144 30.9785C45.2571 27.1942 47.7593 24.7509 51.2951 24.163C53.489 23.7958 56.1001 24.5305 57.8407 26.0001L58.4752 26.5328L58.0402 27.0105C57.5325 27.5614 57.2605 27.5984 56.9159 27.1942C56.7891 27.0289 56.1907 26.643 55.5924 26.3309C54.5589 25.7797 54.3594 25.743 52.5824 25.743C50.3523 25.743 49.5182 26.0368 48.1401 27.3227C44.2599 30.9414 45.1665 37.7753 49.8083 39.9245C52.1472 41.0084 55.3929 40.4572 57.2423 38.6569L57.8044 38.1058L58.3665 38.5284C58.4067 38.5572 58.4458 38.5866 58.4837 38.616C58.5223 38.6459 58.5595 38.6761 58.5948 38.7061C58.6625 38.7637 58.7233 38.8202 58.7739 38.8722C58.8696 38.9708 58.9287 39.0535 58.9287 39.0979C58.9287 39.3917 56.9884 40.7878 55.8462 41.3205C54.8127 41.7982 54.4137 41.8901 52.7638 41.9268C51.422 41.9819 50.6062 41.9084 50.0259 41.7248Z" fill="white"/>
  <path fill-rule="evenodd" clip-rule="evenodd" d="M64.4588 41.8166C62.5005 41.3022 61.2856 40.0533 60.9956 38.1979C60.7417 36.5444 61.884 34.726 63.6972 33.8992C65.039 33.2932 67.8493 33.2932 69.1548 33.8808L70.0433 34.285L69.9164 33.2565C69.862 32.7053 69.6806 31.9886 69.5175 31.6765C68.8104 30.2988 65.8185 29.8764 63.7334 30.8499L62.6456 31.3643L62.3372 30.9601C61.9021 30.4457 61.9202 30.3171 62.446 29.9683C63.4251 29.3069 64.8213 28.921 66.1994 28.921C67.9763 28.9027 69.2092 29.3253 70.1521 30.2437C71.3126 31.3827 71.4395 32.1175 71.4395 37.3529V41.8166H70.8049C70.2427 41.8166 70.1702 41.7615 70.0615 41.1737L69.9527 40.5491L69.3725 40.9717C68.212 41.8717 66.0543 42.2392 64.4588 41.8166ZM68.1032 40.2369C68.5021 40.0716 69.0823 39.7408 69.4087 39.5021C69.6051 39.3465 69.735 39.2437 69.821 39.1117C69.9889 38.8535 69.9889 38.4832 69.9889 37.3896V35.7362L69.1367 35.3503C68.5928 35.1116 67.7405 34.928 66.8884 34.8729C65.1115 34.7627 63.8786 35.1483 63.0988 36.0486C62.6456 36.5812 62.5549 36.8385 62.5549 37.6467C62.5549 38.8775 63.0082 39.6123 64.0236 40.1267C65.0208 40.6041 67.0697 40.6776 68.1032 40.2369Z" fill="white"/>
  <path fill-rule="evenodd" clip-rule="evenodd" d="M102.354 41.8166C100.378 41.3022 99.2359 40.09 98.9093 38.1979C98.6369 36.5077 99.7432 34.7625 101.629 33.8808C102.898 33.2929 105.745 33.2929 107.032 33.8808L107.884 34.2667V33.5503C107.884 32.5765 107.395 31.4194 106.815 30.9968C105.564 30.1152 103.316 30.0784 101.538 30.905L100.559 31.3641L100.233 30.9417C99.8158 30.3906 99.8158 30.2988 100.341 29.9683C101.321 29.3069 102.717 28.921 104.095 28.921C105.89 28.9027 107.177 29.3437 108.084 30.262C109.208 31.4008 109.335 32.1542 109.335 37.3526V41.8166H108.7C108.138 41.8166 108.066 41.7615 107.957 41.1737L107.848 40.5491L107.268 40.9717C106.107 41.8717 103.95 42.2392 102.354 41.8166ZM105.999 40.2369C106.161 40.1697 106.353 40.075 106.546 39.9705C106.688 39.8934 106.83 39.8109 106.962 39.7298C107.011 39.6993 107.058 39.6694 107.104 39.6397L107.195 39.579L107.252 39.5391L107.304 39.5021C107.5 39.3476 107.629 39.2451 107.715 39.114C107.884 38.8555 107.884 38.4863 107.884 37.3894V35.7362L107.032 35.3503C106.488 35.1116 105.636 34.928 104.784 34.8729C103.007 34.7625 101.774 35.1483 100.995 36.0486C100.541 36.5812 100.45 36.8385 100.45 37.6467C100.45 38.8775 100.904 39.6123 101.919 40.1267C102.916 40.6041 104.965 40.6776 105.999 40.2369Z" fill="white"/>
  <path d="M88.0663 41.6881C87.8848 41.5228 87.9211 29.4538 88.1026 29.1781C88.1934 29.0312 88.5019 28.9578 88.864 28.9945L89.4811 29.0496L89.5349 35.4424L89.5712 41.8166H88.8823C88.5019 41.8166 88.1207 41.7615 88.0663 41.6881Z" fill="white"/>
  <path d="M95.2835 41.4677C93.5427 40.6592 93.3793 40.0716 93.3793 34.7444V30.4273H91.566V29.1414H93.3793V27.5984C93.3793 26.1656 93.3975 26.0554 93.796 25.945C94.8115 25.6695 94.8296 25.7063 94.8296 27.4882V29.1414H97.3682V30.4273H94.8115L94.9204 39.2818L95.5185 39.8143C95.8452 40.1084 96.2619 40.3471 96.4434 40.3471C97.1323 40.3471 97.3682 40.5491 97.3682 41.192C97.3682 41.7982 97.3501 41.8166 96.6975 41.8166C96.3163 41.8166 95.6819 41.6513 95.2835 41.4677Z" fill="white"/>
  <path d="M114.231 41.4124C113.687 41.1186 113.324 40.751 113.07 40.255C112.707 39.5569 112.689 39.1713 112.635 31.9519L112.581 24.3653H114.231V39.4468L114.684 39.8877C114.92 40.1448 115.337 40.3471 115.591 40.3471C116.007 40.3471 116.044 40.4205 116.044 41.0818C116.044 41.7615 116.007 41.8166 115.536 41.8166C115.264 41.8166 114.666 41.633 114.231 41.4124Z" fill="white"/>
  <path d="M87.9392 24.3653H89.571V26.5696H87.9392V24.3653Z" fill="white"/>
  <path fill-rule="evenodd" clip-rule="evenodd" d="M80.9226 22.8957C79.7622 22.657 78.4205 21.9957 77.8584 21.4078L77.3507 20.8751L77.7676 20.4341L78.1667 19.9934L79.0732 20.5996C80.288 21.4446 81.6478 21.7384 83.0618 21.4629C84.9659 21.1141 85.7638 20.1403 85.7638 18.2114V17.1826L85.2745 17.5317C83.5338 18.7442 80.7232 18.4871 78.9463 16.9439C78.1667 16.2642 77.1874 14.5743 76.9699 13.5455C76.7524 12.4802 76.843 10.6248 77.1693 9.6143C78.0034 7.04247 80.1068 5.44441 82.6634 5.44441C83.7153 5.44441 85.22 5.9221 85.4733 6.34443C85.6185 6.56506 85.9634 6.62015 85.927 6.41788C85.8 5.66475 85.9634 5.44441 86.5796 5.44441H87.2141V12.5169C87.2141 18.7049 87.2141 19.9298 86.6663 20.8027C86.531 21.0183 86.3627 21.2124 86.1523 21.4542L86.1449 21.4629C85.1474 22.6203 82.7722 23.2816 80.9226 22.8957ZM84.1864 16.5766C84.513 16.4478 84.9841 16.0989 85.2745 15.8235L85.7638 15.3091V8.03459L85.2745 7.66707C85.0205 7.44672 84.3496 7.13457 83.8052 6.98739C80.977 6.14245 78.3298 8.43884 78.3298 11.7087C78.3298 14.7396 80.1068 16.797 82.7359 16.8337C83.207 16.8337 83.8596 16.7235 84.1864 16.5766Z" fill="white"/>
  <path d="M68.9012 18.0829C68.0853 17.8623 67.4869 17.293 67.0698 16.3744C66.7617 15.6947 66.7254 15.0334 66.7254 8.25494V0.851906H68.3572V8.71201C68.3569 14.9368 68.3569 16.2032 68.9263 16.5738C69.0139 16.6309 69.1152 16.6665 69.2321 16.6959C69.2721 16.7057 69.314 16.7151 69.3576 16.7244C69.3979 16.7329 69.4398 16.741 69.4833 16.7498L69.5359 16.7603C70.1342 16.8704 70.1704 16.9255 70.1704 17.5868C70.1704 18.3767 70.0617 18.4134 68.9012 18.0829Z" fill="white"/>
  <path fill-rule="evenodd" clip-rule="evenodd" d="M93.6508 17.7891C92.3637 17.1642 91.3482 16.0989 90.6775 14.6478C90.279 13.7475 90.2064 13.3802 90.2064 11.7822C90.2064 10.1471 90.2608 9.83492 90.6956 8.93462C91.4208 7.42836 92.1642 6.63851 93.4156 6.01391C94.3949 5.51785 94.7027 5.44441 96.0812 5.44441C97.3318 5.44441 97.8212 5.53622 98.5652 5.88538C100.523 6.80377 101.738 8.73263 101.865 11.1022L101.937 12.4248H96.7519C92.5815 12.4248 91.566 12.4802 91.566 12.6638C91.566 13.4169 92.2549 14.7947 92.9982 15.5478C94.6301 17.1826 97.3318 17.3114 99.236 15.8419C99.8704 15.3458 99.925 15.3274 100.36 15.6212C100.614 15.7865 100.813 15.9888 100.813 16.0806C100.813 16.1724 100.505 16.5213 100.106 16.8888C98.4927 18.3583 95.6819 18.7626 93.6508 17.7891ZM100.414 10.2756C100.125 9.15524 99.4348 8.10804 98.6553 7.59362C95.9361 5.75656 92.4001 7.20801 91.6386 10.4592L91.5297 10.9553H100.596L100.414 10.2756Z" fill="white"/>
  <path d="M120.939 18.0094C120.178 17.6786 119.562 17.1091 119.163 16.3744C118.909 15.9153 118.836 15.0885 118.8 11.2861L118.727 6.73032H116.95V5.44441H118.854L118.746 2.5237L119.253 2.41325C119.341 2.39404 119.423 2.37539 119.498 2.35816C119.728 2.30562 119.9 2.26635 120.028 2.25788C120.129 2.2511 120.202 2.26353 120.256 2.30336C120.335 2.36183 120.371 2.47992 120.386 2.68416C120.4 2.85902 120.399 3.09688 120.397 3.41497V3.41808C120.396 3.53701 120.396 3.66724 120.396 3.80962V5.44441H122.753V6.73032H120.396V11.0471C120.396 14.5009 120.45 15.4927 120.668 15.897C120.939 16.4295 121.719 16.8337 122.499 16.8337C122.88 16.8337 122.934 16.9255 122.934 17.5685C122.934 17.9456 122.934 18.1292 122.843 18.2185C122.757 18.3032 122.59 18.3032 122.263 18.3032C121.882 18.2849 121.284 18.1563 120.939 18.0094Z" fill="white"/>
  <path fill-rule="evenodd" clip-rule="evenodd" d="M45.3298 0.851906H48.5572C51.9478 0.851906 52.9269 1.01716 54.3958 1.77029C56.1907 2.70732 57.9313 5.15033 58.4029 7.42836C58.6929 8.91625 58.5298 11.5248 58.0221 12.8291C57.1698 15.1435 55.1935 17.0541 52.9632 17.7705C52.0203 18.0645 51.277 18.1196 48.5753 18.1196H45.3298V0.851906ZM53.344 15.9518C54.7402 15.2537 55.5199 14.4455 56.227 12.8842C57.9677 9.1366 56.5353 4.50737 53.1446 2.90931C52.2199 2.44997 51.8935 2.41325 49.4638 2.35816L46.7802 2.28471V16.6868L49.4638 16.6131C52.0566 16.558 52.1655 16.5396 53.344 15.9518Z" fill="white"/>
  <path d="M61.8296 5.44441H63.2801V18.1196H61.8296V5.44441Z" fill="white"/>
  <path d="M72.5274 5.44441H73.9779V18.1196H72.5274V5.44441Z" fill="white"/>
  <path d="M104.621 5.42604L105.31 5.48113C105.854 5.51785 105.999 5.60966 106.035 5.94047L106.089 6.36279L107.032 5.84865C107.848 5.42604 108.193 5.3526 109.516 5.3526C110.895 5.3526 111.203 5.42604 112.273 5.95883C112.709 6.16844 113.151 6.4515 113.518 6.7436C113.761 6.93739 113.97 7.13513 114.122 7.31819C115.21 8.58574 115.319 9.21033 115.319 13.9314V18.1196H113.886L113.777 9.72475L113.234 8.82444C111.946 6.73032 108.555 6.05064 106.706 7.53853L106.234 7.92442L106.271 18.1196H104.621V5.42604Z" fill="white"/>
  <path d="M61.8296 0.851906H63.2801V2.87258H61.8296V0.851906Z" fill="white"/>
  <path d="M72.5274 0.851906H74.1593V2.87258H72.5274V0.851906Z" fill="white"/>
</svg>
