<svg width="146" height="51" viewBox="0 0 146 51" fill="none" xmlns="http://www.w3.org/2000/svg">
  <path fill-rule="evenodd" clip-rule="evenodd" d="M27.5533 32.1563V22.7666H41.2327V9.068C41.2327 3.02267 38.1208 0 32.0914 0H30.9246C24.8304 0 21.7833 3.08704 21.7833 9.7755V32.6709C21.7833 38.0087 24.8953 41.0315 30.9246 41.0315H32.0914C38.1857 41.0315 41.2327 37.9445 41.2327 31.9634V27.5901H35.7221V32.1563C35.7221 34.5359 34.5551 35.6935 32.1563 35.6935H31.119C28.7203 35.6935 27.5533 34.5359 27.5533 32.1563ZM35.6572 17.3644H27.6182V8.87518C27.6182 6.49549 28.7851 5.33799 31.1839 5.33799H32.0914C34.4903 5.33799 35.6572 6.49549 35.6572 8.87518V17.3644Z" fill="white"/>
  <path fill-rule="evenodd" clip-rule="evenodd" d="M50.6981 0.514533H44.993V51H50.6981V38.0731C52.0595 39.4237 54.3286 40.9672 57.635 40.9672C62.4974 40.9672 64.8961 37.8159 64.8961 33.0567V7.97471C64.8961 3.27985 62.4974 0.0642185 57.635 0.0642185C54.3935 0.0642185 52.0595 1.67204 50.6981 3.08704V0.514533ZM55.9494 35.6292C54.0693 35.6292 52.254 34.9218 50.6981 33.5712V7.46018C52.254 6.17392 54.0693 5.4022 55.9494 5.4022C58.0888 5.4022 59.2558 6.36689 59.2558 8.68221V32.3493C59.2558 34.6645 58.0239 35.6292 55.9494 35.6292Z" fill="white"/>
  <path fill-rule="evenodd" clip-rule="evenodd" d="M68.3322 26.6254C68.3322 21.6733 69.953 19.6796 74.2966 18.2005L81.9467 15.628V8.87518C81.9467 6.49549 80.7797 5.20923 78.381 5.20923H77.4733C75.0746 5.20923 73.9076 6.49549 73.9076 8.87518V14.5346H68.3969V9.068C68.3969 3.08704 71.4441 0 77.5382 0H78.6403C84.6696 0 87.7815 3.02267 87.7815 9.068V40.517H82.0764V38.0087C80.5205 39.4879 78.381 40.9672 75.1395 40.9672C70.6013 40.9672 68.4618 38.3946 68.4618 33.8928V26.6254H68.3322ZM81.9467 33.7642V20.5801L76.7602 22.5094C74.6857 23.3455 73.9725 24.3744 73.9725 26.6898V32.7995C73.9725 34.7289 74.9449 35.6935 76.7602 35.6935C78.5107 35.6292 80.0665 35.0504 81.9467 33.7642Z" fill="white"/>
  <path d="M104.897 40.517H110.472V7.39596C112.482 5.98111 114.168 5.4022 115.724 5.4022C117.474 5.4022 118.447 6.30268 118.447 8.29628V40.5812H124.152V7.13862C124.152 2.76548 121.883 0.0642185 117.474 0.0642185C114.168 0.0642185 111.769 1.60782 109.759 3.34423C108.722 1.22188 106.777 0.0642185 103.86 0.0642185C100.748 0.0642185 98.5434 1.54344 96.9226 3.08704V0.514533H91.2176V40.517H96.9226V7.39596C98.9325 5.98111 100.618 5.4022 102.174 5.4022C103.924 5.4022 104.897 6.30268 104.897 8.29628V40.517Z" fill="white"/>
  <path d="M14.587 4.18033V11.5763L5.05687 20.5801L14.587 29.4552V36.9798L0 23.3455V17.9432L14.587 4.18033Z" fill="white"/>
  <path d="M146 23.3455V17.9432L131.413 4.18033V11.5119L140.943 20.5801L131.413 29.4552V36.9798L146 23.3455Z" fill="white"/>
</svg>
