<svg width="221" height="48" viewBox="0 0 221 48" fill="none" xmlns="http://www.w3.org/2000/svg">
  <path d="M22.388 0H0V22.8H22.388V0Z" fill="white"/>
  <path d="M91.9087 9.59994V38.4001H86.999V15.8H86.9337L78.1616 38.4001H74.8885L65.9203 15.8H65.8549V38.4001H61.3379V9.59994H68.4079L76.5251 30.9333H76.6561L85.2316 9.59994H91.9087Z" fill="white"/>
  <path d="M95.9675 11.8C95.9675 11 96.2292 10.3333 96.8183 9.79997C97.4076 9.2666 98.0622 9 98.8477 9C99.6988 9 100.419 9.2666 100.942 9.79997C101.466 10.3333 101.794 11 101.794 11.8C101.794 12.5999 101.532 13.2666 100.942 13.8C100.353 14.3333 99.6988 14.5999 98.8477 14.5999C97.9967 14.5999 97.3421 14.3333 96.8183 13.8C96.2948 13.2 95.9675 12.5334 95.9675 11.8Z" fill="white"/>
  <path d="M101.27 17.7334V38.4001H96.491V17.7334H101.27Z" fill="white"/>
  <path d="M115.737 34.8667C116.457 34.8667 117.243 34.7334 118.093 34.3333C118.945 34 119.73 33.5334 120.45 33V37.5334C119.665 38 118.814 38.3333 117.832 38.5334C116.85 38.7334 115.802 38.8667 114.624 38.8667C111.613 38.8667 109.191 37.9333 107.358 36C105.459 34.0667 104.543 31.5999 104.543 28.6667C104.543 25.3333 105.525 22.5999 107.423 20.4666C109.322 18.3333 112.006 17.2666 115.541 17.2666C116.457 17.2666 117.374 17.4001 118.225 17.5999C119.141 17.8 119.861 18.1333 120.385 18.4001V23.0667C119.665 22.5334 118.879 22.0667 118.159 21.8C117.374 21.5334 116.588 21.3333 115.802 21.3333C113.904 21.3333 112.398 21.9333 111.22 23.2C110.042 24.4666 109.518 26.1333 109.518 28.2666C109.518 30.3333 110.107 32 111.22 33.1333C112.333 34.2666 113.838 34.8667 115.737 34.8667Z" fill="white"/>
  <path d="M134.001 17.4001C134.394 17.4001 134.721 17.4001 135.048 17.4666L135.113 17.4798L135.208 17.5003C135.253 17.5101 135.296 17.5199 135.338 17.5296C135.534 17.5754 135.699 17.6209 135.834 17.6667V22.5999C135.572 22.4001 135.245 22.2 134.721 22.0667C134.197 21.9333 133.674 21.8 132.954 21.8C131.775 21.8 130.793 22.3333 130.008 23.3333C129.222 24.3333 128.764 25.8667 128.764 28V38.4001H123.985V17.7334H128.764V21H128.829C129.288 19.8667 129.942 19 130.793 18.3333C131.71 17.7334 132.757 17.4001 134.001 17.4001Z" fill="white"/>
  <path fill-rule="evenodd" clip-rule="evenodd" d="M136.096 28.4001C136.096 25 137.077 22.2666 138.91 20.2666C140.809 18.2666 143.427 17.2666 146.766 17.2666C149.908 17.2666 152.396 18.2 154.163 20.1333C155.931 22.0667 156.847 24.6667 156.847 27.9333C156.847 31.2666 155.865 33.9333 154.032 35.9333C152.134 37.9333 149.581 38.9333 146.308 38.9333C143.165 38.9333 140.678 38 138.845 36.1333C137.012 34.2 136.096 31.5999 136.096 28.4001ZM141.071 28.2C141.071 30.3333 141.529 32 142.511 33.1333C143.493 34.2666 144.868 34.8667 146.635 34.8667C148.337 34.8667 149.712 34.3333 150.628 33.1333C151.545 32 152.003 30.3333 152.003 28.0667C152.003 25.8667 151.545 24.2 150.628 23C149.712 21.8667 148.337 21.2666 146.701 21.2666C144.933 21.2666 143.624 21.8667 142.642 23.0667C141.529 24.3333 141.071 26 141.071 28.2Z" fill="white"/>
  <path d="M163.982 23.2C163.982 23.8667 164.179 24.4666 164.637 24.8667C165.095 25.2666 166.012 25.7334 167.517 26.3333C169.416 27.1333 170.79 28 171.511 28.9333C172.296 29.9333 172.689 31.0667 172.689 32.4666C172.689 34.4001 171.969 35.9333 170.463 37.1333C169.023 38.3333 166.994 38.8667 164.506 38.8667C163.655 38.8667 162.739 38.7334 161.691 38.5334C160.644 38.3333 159.793 38.0667 159.073 37.7334V32.9333C159.924 33.5334 160.906 34.0667 161.888 34.4001C162.87 34.7334 163.786 34.9333 164.637 34.9333C165.685 34.9333 166.535 34.8 166.994 34.4666C167.517 34.1333 167.779 33.6667 167.779 32.9333C167.779 32.2666 167.517 31.7334 166.994 31.2C166.47 30.7334 165.423 30.2 163.982 29.5999C162.215 28.8667 160.971 28 160.251 27.0667C159.531 26.1333 159.138 24.9333 159.138 23.4666C159.138 21.5999 159.858 20.0667 161.298 18.8667C162.739 17.6667 164.637 17.0667 166.928 17.0667C167.648 17.0667 168.434 17.1333 169.285 17.3333C170.136 17.5334 170.922 17.7334 171.511 17.9333V22.6667C170.856 22.2666 170.136 21.8667 169.285 21.5334C168.434 21.2 167.583 21.0667 166.797 21.0667C165.881 21.0667 165.161 21.2666 164.703 21.5999C164.244 22.0667 163.982 22.5334 163.982 23.2Z" fill="white"/>
  <path fill-rule="evenodd" clip-rule="evenodd" d="M174.718 28.4001C174.718 25 175.7 22.2666 177.533 20.2666C179.432 18.2666 182.05 17.2666 185.389 17.2666C188.531 17.2666 191.018 18.2 192.786 20.1333C194.553 22.0667 195.47 24.6667 195.47 27.9333C195.47 31.2666 194.488 33.9333 192.655 35.9333C190.756 37.9333 188.203 38.9333 184.93 38.9333C181.788 38.9333 179.301 38 177.468 36.1333C175.7 34.2 174.718 31.5999 174.718 28.4001ZM179.693 28.2C179.693 30.3333 180.152 32 181.133 33.1333C182.115 34.2666 183.49 34.8667 185.258 34.8667C186.96 34.8667 188.334 34.3333 189.251 33.1333C190.167 32 190.626 30.3333 190.626 28.0667C190.626 25.8667 190.167 24.2 189.251 23C188.334 21.8667 186.96 21.2666 185.323 21.2666C183.556 21.2666 182.246 21.8667 181.264 23.0667C180.217 24.3333 179.693 26 179.693 28.2Z" fill="white"/>
  <path d="M211.377 21.7334H204.242V38.4001H199.398V21.7334H195.993V17.7334H199.398V14.8667C199.398 12.7334 200.117 10.9333 201.492 9.53337C202.867 8.1333 204.634 7.46663 206.795 7.46663C207.107 7.46663 207.401 7.48535 207.676 7.50293L207.855 7.51432L207.906 7.51725L208.035 7.52425C208.075 7.5262 208.115 7.52783 208.155 7.5293C208.227 7.53174 208.297 7.53337 208.366 7.53337C208.824 7.53337 209.217 7.66667 209.544 7.79997V12C209.52 11.9878 209.49 11.9735 209.454 11.9574C209.413 11.9391 209.365 11.9186 209.311 11.8963C209.249 11.8706 209.178 11.8426 209.1 11.8132C209.016 11.7811 208.925 11.7474 208.827 11.7131C208.784 11.6976 208.739 11.6821 208.693 11.6667C208.3 11.5334 207.842 11.4666 207.318 11.4666C206.336 11.4666 205.551 11.8 205.027 12.4001C204.503 13 204.242 14 204.242 15.2V17.6667H211.377V13L216.156 11.5334V17.6667H221V21.6667H216.156V31.3333C216.156 32.5999 216.418 33.4666 216.81 34C217.269 34.5334 217.989 34.8 218.971 34.8C219.07 34.8 219.179 34.7904 219.297 34.7712C219.393 34.7557 219.494 34.7339 219.602 34.7057C219.712 34.6771 219.829 34.6418 219.953 34.5999C220.345 34.4666 220.673 34.3333 220.934 34.1333V38.1333C220.607 38.3333 220.149 38.4666 219.429 38.5999C219.331 38.618 219.235 38.6349 219.139 38.6506C218.53 38.7502 217.957 38.8 217.334 38.8C215.305 38.8 213.799 38.2666 212.817 37.2C211.835 36.1333 211.312 34.4666 211.312 32.2666L211.377 21.7334Z" fill="white"/>
  <path d="M24.7447 0H47.1327V22.8H24.7447V0Z" fill="white"/>
  <path d="M22.388 25.2H0V48H22.388V25.2Z" fill="white"/>
  <path d="M24.7447 25.2H47.1327V48H24.7447V25.2Z" fill="white"/>
</svg>
