<svg width="155" height="49" viewBox="0 0 155 49" fill="none" xmlns="http://www.w3.org/2000/svg">
  <path d="M22.2959 10.8896C23.3774 11.4492 24.1319 12.7407 23.7547 13.9614C23.5358 14.6725 22.7755 15.2782 22.1181 15.6246L16.3145 18.6205L2.10741 26.1313C1.3098 26.5971 0 26.3829 0 25.1865C0 24.7678 0.281027 24.4416 0.603122 24.1874L5.61965 20.0384C5.37383 19.9059 5.12712 19.7642 4.8857 19.6199C4.71966 19.5209 4.55598 19.4207 4.39669 19.322C3.68943 18.8824 3.07017 18.4665 2.71552 18.2752C1.29777 17.5071 1.20155 16.2796 1.20155 15.81V3.03445L1.20096 2.87312C1.20008 2.71297 1.19891 2.56163 1.20742 2.41117C1.21886 2.21047 1.24702 2.01064 1.31449 1.79113C1.38401 1.56015 1.49871 1.34534 1.65213 1.15933C1.69701 1.10496 1.74512 1.05324 1.79587 1.00475C1.83342 0.96861 1.87244 0.934228 1.91292 0.90161C2.00444 0.827851 2.10301 0.762908 2.20744 0.707956C2.4207 0.595701 2.65391 0.527525 2.89387 0.506661C2.99332 0.498139 3.09276 0.497845 3.19162 0.505486C3.33184 0.516652 3.4703 0.543981 3.60465 0.587473C3.68327 0.612745 3.75484 0.645069 3.82525 0.681508C3.88098 0.710013 3.93584 0.741162 3.99275 0.77378L4.06961 0.817272L22.2959 10.8896Z" fill="white"/>
  <path d="M22.517 18.4136C24.0166 17.619 25.229 18.3499 25.229 20.0457L25.2326 32.9982C25.2326 34.6941 24.019 36.7126 22.5217 37.5061L2.71082 48.1788C1.21358 48.9731 0 48.2437 0 46.5479V33.5942C0 31.898 1.21358 29.8807 2.71082 29.0864L22.517 18.4136Z" fill="white"/>
  <path d="M124.961 32.9982H130.969V4.11057H127.796C126.299 4.11057 124.961 5.51522 124.961 6.9716V32.9982Z" fill="white"/>
  <path d="M63.6616 22.1498L63.6822 32.9982H69.6899V21.4816C69.6899 19.8183 69.8712 18.5953 70.6512 17.8142C71.8448 16.6088 74.0983 16.6273 75.793 16.6414C75.9681 16.6428 76.1371 16.6443 76.2984 16.6443V10.7221C73.2717 10.7221 69.6767 11.2132 67.2399 13.1438C64.5352 15.3155 63.6616 18.8192 63.6616 22.1498Z" fill="white"/>
  <path d="M136.533 40.9231V36.1602C137.951 36.1602 139.57 36.3383 140.737 35.3659C141.374 34.8363 141.499 33.9888 141.112 32.826L133.372 10.1288H139.38L144.28 26.4081L148.191 12.7324C148.525 11.3963 149.354 10.1288 150.795 10.1288H155L146.357 35.9989C145.69 37.8358 144.857 39.1417 143.863 39.9169C142.36 40.9219 140.329 40.9196 138.59 40.9196L136.533 40.9231Z" fill="white"/>
  <path fill-rule="evenodd" clip-rule="evenodd" d="M45.0581 29.9048V38.4147C45.0581 39.9613 44.0261 41.4238 42.4831 41.4238H39.6547V20.2312C39.6547 17.0786 40.4021 14.7351 41.8967 13.2064C43.9264 11.0051 47.1826 10.1397 50.0975 10.1397C52.7805 10.1397 55.5741 10.7692 57.558 12.6998C59.9634 15.0146 60.5727 18.5797 60.5401 21.7851C60.5184 24.7099 59.8552 27.7155 58.047 30.0735C56.3805 32.1834 54.2417 33.2389 51.6341 33.2389C49.1049 33.2389 46.3679 32.211 45.0581 29.9048ZM53.5579 26.5718C54.3966 25.4019 54.8075 23.8157 54.8075 21.8174C54.8075 18.6975 53.6732 15.0601 49.9796 15.0601C46.2802 15.0601 45.3178 18.7628 45.3178 21.8174C45.3178 23.9288 45.7346 25.5151 46.5674 26.5706C47.4011 27.7408 48.5918 28.3244 50.1454 28.3244C51.5875 28.3244 52.7239 27.7396 53.5579 26.5718Z" fill="white"/>
  <path fill-rule="evenodd" clip-rule="evenodd" d="M106.334 29.9048V38.4147C106.334 39.9613 105.301 41.4238 103.759 41.4238H100.93V20.2312C100.93 17.0786 101.679 14.7351 103.171 13.2064C105.2 11.0051 108.457 10.1397 111.373 10.1397C114.056 10.1397 116.85 10.7692 118.832 12.6998C121.239 15.0146 121.847 18.5797 121.816 21.7851C121.793 24.7099 121.13 27.7155 119.322 30.0735C117.655 32.1834 115.517 33.2389 112.91 33.2389C110.38 33.2389 107.643 32.211 106.334 29.9048ZM114.833 26.5718C115.672 25.4019 116.083 23.8157 116.083 21.8174C116.083 18.6975 114.948 15.0601 111.255 15.0601C107.554 15.0601 106.593 18.7628 106.593 21.8174C106.593 23.9288 107.009 25.5151 107.843 26.5706C108.677 27.7408 109.867 28.3244 111.421 28.3244C112.863 28.3244 113.999 27.7396 114.833 26.5718Z" fill="white"/>
  <path fill-rule="evenodd" clip-rule="evenodd" d="M93.9973 25.9641H98.1596C97.5456 28.3015 96.3848 29.9697 94.664 31.1928C92.9436 32.4687 90.776 32.9982 88.1684 32.9982C85.0073 32.9982 82.5368 32.0473 80.7623 29.9891C78.9876 27.985 78.1008 25.2721 78.1008 21.5503C78.1008 17.9958 78.9588 15.2106 80.6793 13.2126C82.4529 11.1544 84.9243 10.1288 88.0857 10.1288C91.414 10.1288 93.6957 11.1303 95.5233 13.1283C98.0009 16.0025 98.4864 19.7616 98.4864 23.369H84.0076C84.0604 25.0925 84.4773 26.2203 85.2584 27.0558C85.978 27.9441 87.0608 28.392 88.5026 28.392C89.3316 28.392 90.1908 28.2377 90.9118 27.8081C91.2583 27.6003 91.5296 27.3091 91.8013 27.0176C92.0081 26.7957 92.2152 26.5736 92.4557 26.3878C92.5956 26.2779 92.757 26.1898 92.9406 26.1231C93.2351 26.0161 93.5866 25.9641 93.9973 25.9641ZM84.0064 19.4571H92.4977C92.3836 17.9538 91.9966 16.8441 91.3299 16.1218C90.61 15.3478 89.5803 14.9543 88.2515 14.9543C87.032 14.9543 86.0311 15.3407 85.2573 16.123C84.4773 16.9053 84.0604 18.0128 84.0064 19.4571Z" fill="white"/>
</svg>
