<svg width="217" height="52" viewBox="0 0 217 52" fill="none" xmlns="http://www.w3.org/2000/svg">
  <path fill-rule="evenodd" clip-rule="evenodd" d="M186.794 0C175.524 0 166.242 9.10827 166.242 20.535C166.242 31.7961 175.358 41.07 186.794 41.07C198.065 41.07 207.347 31.9618 207.347 20.535C207.347 9.10827 198.065 0 186.794 0ZM202.706 9.10827C201.711 9.77063 200.551 10.433 199.391 11.0954C198.728 9.77052 197.899 8.44585 196.905 7.28662C197.574 6.8855 198.243 6.37643 198.825 5.93372C198.964 5.8281 199.097 5.72626 199.225 5.63057C200.717 6.45859 201.877 7.78343 202.706 9.10827ZM194.087 2.31847C195.745 2.98089 197.236 3.80891 198.728 4.96815C198.065 5.63057 197.236 6.12738 196.407 6.6242C195.413 5.465 194.253 4.4714 193.093 3.4778C193.424 2.98103 193.756 2.64965 194.087 2.31847ZM195.745 6.95541C194.971 7.39702 194.198 7.69142 193.424 7.98583C193.037 8.13304 192.651 8.28024 192.264 8.44585C191.767 7.28668 191.269 6.12733 190.606 5.13375C191.269 4.80254 191.932 4.47133 192.43 3.97452C193.59 4.80254 194.75 5.79617 195.745 6.95541ZM193.258 1.98734C192.927 2.31852 192.595 2.6497 192.43 2.98089C192.184 2.84089 191.947 2.7009 191.712 2.56246L191.707 2.55984C190.832 2.04436 189.993 1.55027 188.949 1.15923C190.441 1.15923 191.932 1.49052 193.258 1.98734ZM191.766 3.4778C191.269 3.80898 190.772 4.14014 190.275 4.30573C189.943 3.80891 189.612 3.3535 189.28 2.89809C188.949 2.44267 188.617 1.98726 188.286 1.49044C189.446 1.98726 190.606 2.64978 191.766 3.4778ZM187.126 1.65605C187.955 2.48407 188.617 3.4777 189.28 4.63694C188.617 4.80254 187.955 4.96815 187.126 4.96815V1.65605ZM187.126 5.79617C187.955 5.79617 188.949 5.63057 189.778 5.29936C190.441 6.29293 190.938 7.4521 191.435 8.61127C190.109 8.94248 188.617 9.10827 187.126 9.27388V5.79617ZM186.297 1.65605V4.96815C185.748 4.96815 185.199 4.85449 184.555 4.72134L184.553 4.72098C184.421 4.69351 184.284 4.66523 184.142 4.63694C184.971 3.64331 185.634 2.64968 186.297 1.65605ZM183.479 4.30573C182.982 4.14012 182.319 3.80891 181.988 3.4777C183.148 2.81528 184.308 2.15286 185.468 1.65605C184.64 2.48407 183.977 3.3121 183.479 4.30573ZM184.64 0.99363C183.479 1.49044 182.319 2.15286 181.159 2.81528C180.828 2.4841 180.496 2.15284 180.33 1.82165C181.656 1.49044 183.148 1.15923 184.64 0.99363ZM198.728 36.1019C196.076 34.6114 195.91 32.4586 196.076 31.7961C196.206 31.1458 196.541 31.2106 196.839 31.2683C196.921 31.2841 196.999 31.2993 197.07 31.2993C198.894 31.2993 200.717 30.8025 203.037 28.3184C205.689 25.6688 206.518 19.707 202.374 15.8981C198.065 11.758 193.424 12.4204 190.441 16.2293C189.778 17.0573 188.286 17.5541 187.126 17.5541C185.583 17.5541 186.035 18.4505 186.315 19.0074C186.396 19.1686 186.463 19.3014 186.463 19.3758C186.463 19.707 186.131 19.8726 185.966 19.8726C185.424 19.7373 185.546 20.3757 185.609 20.7043C185.623 20.7772 185.634 20.8361 185.634 20.8662C185.634 21.0318 185.303 21.363 185.303 21.363C184.474 21.363 184.64 22.0255 184.805 22.3567C184.805 22.5223 184.805 22.8535 184.474 23.0191C184.142 23.1847 183.977 23.8471 183.977 24.3439C183.977 25.1719 184.805 25.8344 186.131 26.828C187.457 27.8216 187.623 28.8153 187.623 29.4777C187.623 30.1401 187.789 31.2993 187.955 31.9618C188.286 32.7898 188.286 34.4458 186.463 34.4458C184.142 34.6114 180.165 36.2675 179.833 36.4331C178.507 36.9299 176.85 37.0955 175.524 36.7643C174.861 36.2675 174.198 35.7707 173.535 35.1082C173.203 34.2802 173.7 33.2866 174.198 32.6242C174.914 33.3399 175.754 33.3132 176.397 33.2928C176.498 33.2896 176.594 33.2866 176.684 33.2866C177.347 33.2866 180.33 32.7898 180.827 32.6242C181.325 32.4586 181.49 32.4586 181.656 32.6242C182.816 33.121 184.474 33.121 185.137 30.9681C185.8 28.6497 184.308 29.3121 183.977 29.4777C183.811 29.6433 183.479 29.4777 183.645 29.3121C183.977 28.8153 183.479 28.8153 183.314 28.8153C182.651 28.8153 181.822 29.4777 181.656 29.6433C181.325 29.8089 181.159 29.8089 180.993 29.8089C180.683 29.623 180.141 29.5994 179.54 29.5733C178.536 29.5296 177.368 29.4788 176.85 28.6497C176.85 28.3184 176.187 22.8535 175.855 21.8598C175.855 21.8242 175.847 21.7809 175.839 21.7315C175.807 21.5517 175.761 21.2917 176.021 21.0318C176.471 20.358 177.378 20.5981 178.225 20.8224C178.627 20.9289 179.016 21.0318 179.336 21.0318C180.29 21.0318 180.572 20.6957 180.826 20.3921C180.881 20.3266 180.934 20.2626 180.993 20.2038C181.187 20.0098 181.325 19.9862 181.438 19.9667C181.519 19.953 181.588 19.9412 181.656 19.8726C181.767 19.7622 181.73 19.6518 181.693 19.5414C181.675 19.4862 181.656 19.431 181.656 19.3758C181.656 19.293 181.698 19.293 181.76 19.293C181.822 19.293 181.905 19.293 181.988 19.2102C182.103 19.0947 182.058 18.8987 182.019 18.7345C182.003 18.6632 181.988 18.5979 181.988 18.5478C182.105 18.3712 182.265 18.2992 182.407 18.2352C182.665 18.119 182.864 18.0291 182.651 17.3885C182.485 16.7261 182.816 16.0637 183.148 15.7325C183.645 15.07 185.8 12.0892 182.153 8.94267C178.673 5.96178 175.026 6.29299 172.706 8.77706C170.654 10.9739 171.324 14.0775 171.621 15.4531C171.66 15.6327 171.692 15.7833 171.712 15.8981C171.877 16.8917 171.214 17.7197 170.386 18.0509C169.723 18.3821 168.231 19.3758 167.236 20.2038C167.402 12.2548 172.209 5.29936 179.502 2.48407C179.667 2.64961 179.833 2.85653 179.999 3.06345C180.164 3.27046 180.33 3.4777 180.496 3.64331C179.667 4.30573 177.844 5.79617 177.844 5.79617C177.844 5.79617 178.01 5.79617 178.341 5.96178C178.507 5.96178 178.839 6.12738 178.839 6.12738C178.839 6.12738 180.33 4.80254 181.159 4.30573C181.656 4.80254 182.319 5.13375 182.982 5.46496C182.651 6.12738 181.656 7.78343 181.656 7.78343C181.656 7.78343 181.822 7.94904 181.988 7.94904C182.153 8.11464 182.319 8.11464 182.319 8.11464C182.319 8.11464 183.314 6.29299 183.645 5.63057C184.474 5.96178 185.303 6.12738 186.131 6.12738V9.43948C185.634 9.43948 184.474 9.43948 183.977 9.27388H183.645L183.811 9.60509C183.894 9.68789 183.935 9.77069 183.977 9.85349C184.018 9.9363 184.06 10.0191 184.142 10.1019H186.131V16.2293H186.96V14.7388C188.152 14.7388 189.076 14.605 190.094 14.4576L190.441 14.4076L191.601 13.414H190.938C190.769 13.435 190.604 13.4561 190.441 13.4768C189.32 13.619 188.325 13.7452 187.457 13.7452H186.96V9.9363C188.452 9.9363 190.109 9.77069 191.601 9.27388L192.761 12.7516L193.59 12.4204L192.43 8.94267C193.373 8.70691 194.233 8.30334 195.069 7.91114C195.407 7.75234 195.742 7.5954 196.076 7.45222C197.07 8.61146 197.899 9.9363 198.562 11.2611C197.899 11.5923 196.905 11.9236 196.905 11.9236C197.733 12.0892 198.396 12.2548 198.396 12.2548C198.396 12.2548 198.728 12.0892 198.894 12.0892C198.894 12.2548 199.059 12.586 199.059 12.586L200.22 13.0828L200.054 12.7516C200.054 12.7516 199.722 11.9236 199.557 11.7579C200.717 11.2611 201.877 10.5987 203.037 9.77069C205.192 12.9172 206.186 16.7261 206.186 20.535C206.518 26.828 203.369 32.4586 198.728 36.1019Z" fill="white"/>
  <path d="M164.418 5.46488L164.087 5.79609C162.927 6.78972 160.109 9.605 160.606 12.7515V12.9171L160.772 13.5795L161.104 13.2483C162.761 11.7579 164.087 9.10819 164.584 6.1273L164.75 5.29928L164.418 5.46488Z" fill="white"/>
  <path d="M158.618 11.0954L158.783 10.7642V10.5986L159.115 11.261C159.944 13.4138 160.441 18.2164 160.109 20.5348L159.778 21.8597L159.446 21.1973C157.789 19.0444 157.623 16.0635 157.955 14.0763C158.12 12.7514 158.452 11.5922 158.618 11.0954Z" fill="white"/>
  <path d="M156.794 19.0445V19.3757C156.629 21.363 156.794 26.4967 160.938 29.312L161.435 29.6432V28.9808C161.435 26.9935 159.115 21.1973 157.457 19.2101L156.96 18.5477L156.794 19.0445Z" fill="white"/>
  <path d="M157.457 28.4841V27.8217L157.955 28.1529C160.607 29.809 164.75 34.9427 165.579 37.0956L165.745 37.758L165.082 37.5924C160.772 36.102 158.12 31.465 157.457 28.4841Z" fill="white"/>
  <path d="M166.242 9.93613L166.206 9.94796L166.242 9.77053V9.93613Z" fill="white"/>
  <path d="M166.206 9.94796L166.076 10.5986C165.579 12.5858 163.258 16.2291 161.601 17.7196L161.104 18.0508V17.3884C161.104 14.4075 162.595 12.089 165.745 10.1017L166.206 9.94796Z" fill="white"/>
  <path d="M164.087 16.5604L164.253 16.2292L164.419 16.0636V16.726C164.585 18.8789 162.927 23.5158 161.601 25.3375L161.27 25.8343L161.104 25.3375C160.938 24.8407 160.772 24.1782 160.772 23.6814C160.607 20.2037 163.259 17.3884 164.087 16.5604Z" fill="white"/>
  <path d="M164.419 22.3565L164.253 22.6877C162.927 24.675 162.264 26.6622 162.264 28.6495C162.264 29.9743 162.761 31.2992 163.59 32.624L163.921 33.1208L164.087 32.624C164.584 31.4648 165.082 27.9871 165.082 25.1718C165.082 24.1782 164.916 23.3501 164.75 22.8533L164.584 22.1909L164.419 22.3565Z" fill="white"/>
  <path d="M165.745 29.1464L166.076 28.484L166.408 28.9808C167.733 30.6368 169.391 36.2674 169.391 38.4203V38.9171L169.225 39.4139L168.894 39.2483C166.573 37.7578 165.247 35.605 165.247 32.9553C165.094 31.7259 165.368 30.639 165.673 29.4301L165.745 29.1464Z" fill="white"/>
  <path d="M161.435 37.4267L161.601 37.7579C163.259 40.5732 166.242 44.3821 171.712 43.3885H172.209L171.877 43.0573C170.883 41.5668 164.253 37.7579 161.933 37.4267L161.27 37.2611L161.435 37.4267Z" fill="white"/>
  <path d="M168.728 44.879L169.557 44.7134C177.178 42.7335 183.117 43.6949 186.859 45.1503C190.472 43.6949 196.424 42.7335 204.198 44.7134L205.026 44.879L204.198 45.2102C200.717 46.7006 196.242 47.0319 193.756 46.2038C192.927 45.8726 192.264 45.3758 191.601 44.7134C190.371 44.8044 189.166 45.1581 188.014 45.685L188.143 45.7609C189.196 46.3811 192.333 48.2274 194.419 51.0064L194.584 51.172L194.419 51.3376C194.253 51.5032 193.921 51.8344 193.59 52H193.424L193.258 51.8344C191.671 49.9308 189.407 47.757 186.813 46.3051C184.272 47.7638 182.057 49.9624 180.496 51.8344L180.33 52H180.165C180.082 51.9172 179.916 51.7931 179.75 51.669C179.585 51.5448 179.419 51.4203 179.336 51.3376L179.17 51.172L179.336 51.0064C181.426 48.2215 184.571 46.2561 185.618 45.701C184.503 45.198 183.34 44.8451 182.153 44.7134C181.49 45.3758 180.993 45.8726 179.999 46.2038C177.347 47.0319 173.037 46.7006 169.557 45.2102L168.728 44.879Z" fill="white"/>
  <path d="M169.723 35.7707C170.22 39.0828 171.546 43.3886 177.181 42.8918H177.513L177.347 42.5606C177.015 41.0701 171.877 36.7644 170.054 35.6051L169.557 35.2739L169.723 35.4395V35.7707Z" fill="white"/>
  <path d="M209.004 5.96194L208.838 5.13391L209.17 5.29952L209.501 5.63073C210.661 6.62436 213.479 9.43964 212.982 12.5861V12.7517L212.816 13.4142L212.485 13.083C210.827 11.5925 209.501 8.94283 209.004 5.96194Z" fill="white"/>
  <path d="M214.639 10.4332L214.308 11.0956C213.479 13.2485 213.148 18.051 213.313 20.3695L213.645 21.6943L213.811 21.5287L213.976 21.1975C215.8 19.0446 215.8 16.2294 215.468 14.0765C215.302 12.5861 214.971 11.5924 214.805 11.0956L214.639 10.7644V10.4332Z" fill="white"/>
  <path d="M216.794 18.7134L216.96 19.2103V19.5415C217.126 21.6943 216.96 26.8281 212.816 29.4778L212.319 29.809V29.1465C212.319 27.1593 214.639 21.5287 216.297 19.3759L216.794 18.7134Z" fill="white"/>
  <path d="M216.131 27.8217L215.468 28.1529C212.816 29.809 208.673 34.9427 207.844 37.0956L207.678 37.758L208.341 37.5924C212.65 36.2676 215.468 31.465 215.965 28.4841V28.1529L216.131 27.8217Z" fill="white"/>
  <path d="M207.512 10.4332L207.347 9.60517L207.678 9.93638L208.01 10.102C211.159 12.0892 212.651 14.4077 212.485 17.3886V18.051L211.988 17.7198C210.164 16.2294 208.175 12.5861 207.512 10.4332Z" fill="white"/>
  <path d="M209.17 16.0636V16.726C209.004 18.8789 210.827 23.6814 211.987 25.3375L212.319 25.8343L212.485 25.3375C212.519 25.1992 212.554 25.0681 212.587 24.9427C212.712 24.4676 212.816 24.0745 212.816 23.6814C212.982 20.2037 210.33 17.3884 209.501 16.5604L209.335 16.3948L209.17 16.0636Z" fill="white"/>
  <path d="M208.838 22.688L209.004 22.0255L209.17 22.1911L209.336 22.5224C210.662 24.5096 211.325 26.6625 211.325 28.4841C211.325 29.9746 210.827 31.2994 209.999 32.4586L209.667 32.9555L209.501 32.4586C208.838 31.2994 208.507 27.8217 208.507 25.0064C208.507 24.0128 208.673 23.1848 208.838 22.688Z" fill="white"/>
  <path d="M207.512 28.484L207.181 28.9808C205.855 30.6368 204.197 36.2674 204.197 38.4203V38.9171L204.363 39.4139L204.695 39.2483C207.015 37.7578 208.175 35.605 208.341 32.9553C208.341 31.7961 208.175 30.4712 207.844 29.1464L207.512 28.484Z" fill="white"/>
  <path d="M211.656 37.2609L212.319 37.0953L212.153 37.2609L211.987 37.5922C210.33 40.4074 207.347 44.2164 201.877 43.2227H201.38L201.711 42.8915C202.706 41.4011 209.335 37.5922 211.656 37.2609Z" fill="white"/>
  <path d="M203.369 35.4394L203.866 35.1082L203.7 35.2738V35.605C203.037 38.9171 201.711 43.2228 196.242 42.726H195.91L196.076 42.3948C196.573 40.9043 201.545 36.5986 203.369 35.4394Z" fill="white"/>
  <path d="M63.9776 1.98718H70.9389V8.28017H63.9776V1.98718Z" fill="white"/>
  <path d="M64.6406 15.5668H70.4416V46.3693H64.6406V15.5668Z" fill="white"/>
  <path d="M26.5191 15.5667H20.5523V31.2992C20.5523 32.1272 20.5523 35.7705 19.3921 38.5858C18.2319 41.8979 14.917 43.0571 12.5966 43.0571C6.96128 43.0571 5.80106 39.0826 5.80106 33.7832V15.5667H0V36.2673C0 42.3947 3.64638 47.3628 10.1104 47.3628C14.4198 47.3628 18.3977 45.7068 20.7181 41.8979H20.8838V46.3692H26.5191V15.5667Z" fill="white"/>
  <path d="M38.1213 20.0383C40.2759 16.2294 44.4196 14.5733 47.5687 14.5733C49.7234 14.5733 59.1708 15.0701 59.1708 25.0064V46.2039H53.3698V26.8281C53.3698 21.6943 51.2151 19.0446 46.2428 19.0446C46.2428 19.0446 43.0936 18.879 40.6074 21.3631C40.5688 21.4018 40.5283 21.4415 40.4863 21.4827C39.6275 22.3253 38.1213 23.8034 38.1213 29.6434V46.3695H32.3202V15.5669H38.1213V20.0383Z" fill="white"/>
  <path d="M88.5076 18.879C92.6513 18.879 94.4744 21.5287 94.8059 25.3376H100.441C100.11 18.7134 95.3032 14.5733 88.8391 14.5733C79.0602 14.5733 74.5851 22.0255 74.5851 30.9682C74.5851 39.9109 78.563 46.8663 88.3419 46.8663C95.1374 46.8663 100.276 42.7262 100.773 35.7707H94.9717C94.6402 40.2421 92.3198 42.7262 88.5076 42.7262C83.0381 42.7262 80.8834 37.9236 80.8834 30.8026C80.8834 23.6816 83.0381 18.879 88.5076 18.879Z" fill="white"/>
  <path fill-rule="evenodd" clip-rule="evenodd" d="M109.392 31.9616C108.894 37.2609 111.215 42.8915 117.016 42.8915C121.491 42.8915 123.811 41.0699 124.474 36.5985H130.607C129.612 43.5539 124.309 47.0316 117.016 47.0316C107.237 47.0316 103.259 40.0762 103.259 31.1336C103.259 22.1909 107.734 14.7387 117.513 14.7387C126.629 14.9043 130.938 20.7005 130.938 29.1463V31.9616H109.392ZM124.972 27.9871C125.137 22.8533 122.817 18.8788 117.182 18.8788C112.375 18.8788 109.557 23.0189 109.557 27.9871H124.972Z" fill="white"/>
  <path d="M137.568 19.5415V46.0382H143.369V19.5415H150.496V15.5669H143.369V9.93638C143.203 6.62428 145.027 5.79625 148.342 5.79625C148.839 5.79625 149.336 5.83765 149.833 5.87906C150.33 5.92046 150.828 5.96186 151.325 5.96186V1.15932C149.999 0.828105 148.507 0.496896 147.181 0.496896C142.872 0.496896 137.734 2.31855 137.568 8.94275V15.5669H132.264V19.5415H137.568Z" fill="white"/>
</svg>
