<svg width="241" height="60" viewBox="0 0 241 60" fill="none" xmlns="http://www.w3.org/2000/svg">
  <path fill-rule="evenodd" clip-rule="evenodd" d="M29.7176 59.5C46.1297 59.5 59.4297 46.2919 59.4297 30C59.4297 13.708 46.1297 0.5 29.7176 0.5C13.3055 0.5 0 13.708 0 30C0 46.2919 13.3055 59.5 29.7176 59.5ZM13.2563 28.45C13.2945 39.5606 21.7899 46.4766 29.9523 46.4491C40.0311 46.4166 45.9929 38.2 45.9711 30.699C45.9438 23.2035 41.8381 17.7836 32.7912 15.594C32.7694 15.5018 32.7532 15.3013 32.7532 15.1117C32.7368 9.44798 37.0391 4.45095 42.4443 3.33988C41.9365 3.16644 41.1012 3.10151 40.3041 3.10151C34.1236 3.12318 27.3043 5.75182 22.325 9.83834C17.2256 14.0333 13.229 21.1061 13.2563 28.45Z" fill="white"/>
  <path d="M78.6207 42.2162L69.5357 20.6942H75.4704L81.1377 34.9862L86.6302 20.6942H92.2975L83.4799 42.2162H78.6207Z" fill="white"/>
  <path d="M108.109 31.3441C108.109 30.4498 108.005 29.5989 107.792 28.7914C107.585 27.9839 107.268 27.2901 106.848 26.7102C106.427 26.1249 105.92 25.6641 105.319 25.3227C104.718 24.9758 104.014 24.8024 103.206 24.8024C102.398 24.8024 101.688 24.9759 101.093 25.3227C100.493 25.6641 99.9794 26.1249 99.5644 26.7102C99.144 27.2901 98.8274 27.9839 98.6199 28.7914C98.407 29.5989 98.3032 30.4498 98.3032 31.3441C98.3032 32.2709 98.4069 33.1326 98.6199 33.9239C98.8274 34.7152 99.1331 35.409 99.5371 36.0051C99.9412 36.6013 100.454 37.0728 101.071 37.4197C101.683 37.7611 102.398 37.9346 103.206 37.9346C104.014 37.9346 104.718 37.7611 105.319 37.4197C105.92 37.0728 106.427 36.6013 106.848 36.0051C107.268 35.409 107.585 34.7152 107.792 33.9239C108.005 33.1326 108.109 32.2709 108.109 31.3441ZM113.596 31.3677C113.596 32.7714 113.378 34.1481 112.946 35.503C112.51 36.858 111.865 38.0665 111.008 39.1396C110.156 40.2128 109.075 41.0746 107.771 41.7304C106.466 42.3862 104.942 42.7114 103.206 42.7114C101.464 42.7114 99.9412 42.3861 98.6417 41.7304C97.3368 41.0746 96.2558 40.2128 95.3986 39.1397C94.5469 38.0666 93.9026 36.858 93.4659 35.503C93.0345 34.1481 92.8162 32.7714 92.8162 31.3677C92.8162 29.9694 93.0345 28.6036 93.4659 27.2595C93.9026 25.9208 94.5469 24.7231 95.3986 23.6662C96.2558 22.6093 97.3368 21.7638 98.6417 21.1243C99.9412 20.4847 101.464 20.1596 103.206 20.1596C104.942 20.1596 106.46 20.4848 107.749 21.1243C109.037 21.7638 110.118 22.6093 110.986 23.6662C111.86 24.7231 112.51 25.9208 112.946 27.2595C113.378 28.6036 113.596 29.9694 113.596 31.3677Z" fill="white"/>
  <path d="M130.352 25.4311C129.277 25.0138 128.277 24.8024 127.349 24.8024C126.399 24.8024 125.575 24.9869 124.892 25.3444C124.204 25.7019 123.637 26.1845 123.189 26.7969C122.741 27.4093 122.408 28.0977 122.184 28.8619C121.96 29.6206 121.846 30.4065 121.846 31.2141C121.846 32.1083 121.944 32.9646 122.141 33.7884C122.332 34.6068 122.632 35.3277 123.036 35.9401C123.435 36.5526 123.942 37.0457 124.554 37.4197C125.165 37.7882 125.892 37.978 126.727 37.978C127.415 37.978 128.114 37.7884 128.829 37.4197C129.544 37.0457 130.052 36.6013 130.352 36.0973L130.352 25.4311ZM130.8 42.2162L130.576 40.5686C130.068 41.1323 129.397 41.6309 128.556 42.0591C127.721 42.4926 126.732 42.7095 125.597 42.7095C124.106 42.7095 122.785 42.3952 121.655 41.7718C120.514 41.1486 119.558 40.3139 118.783 39.2733C118.008 38.2327 117.412 37.0241 117.008 35.6529C116.61 34.2871 116.408 32.8563 116.408 31.3658C116.408 29.9675 116.615 28.5963 117.03 27.2576C117.451 25.9189 118.084 24.7212 118.936 23.6643C119.793 22.6074 120.858 21.7619 122.146 21.1224C123.429 20.4829 124.941 20.1576 126.672 20.1576C127.808 20.1576 129.036 20.3689 130.352 20.7809V12.4344H135.927V42.2162H130.8Z" fill="white"/>
  <path d="M151.629 32.1246C151.028 32.156 150.406 32.2114 149.773 32.2818C149.139 32.3578 148.539 32.4553 147.965 32.5745C146.753 32.8128 145.918 33.2195 145.448 33.7994C144.984 34.3847 144.75 35.0134 144.75 35.7017C144.75 36.4117 145.012 36.9863 145.541 37.4198C146.071 37.848 146.813 38.0647 147.78 38.0647C148.506 38.0647 149.21 37.9184 149.887 37.6203C150.564 37.3222 151.148 36.9483 151.629 36.5039V32.1246ZM152.077 42.2L151.858 40.5903C151.252 41.2515 150.488 41.7718 149.554 42.1458C148.621 42.5198 147.6 42.7095 146.486 42.7095C145.552 42.7095 144.651 42.5521 143.8 42.2379C142.937 41.9292 142.178 41.4792 141.517 40.8992C140.857 40.3193 140.322 39.6093 139.918 38.7584C139.508 37.9075 139.306 36.9482 139.306 35.8751C139.306 34.8074 139.514 33.8589 139.94 33.0405C140.36 32.2222 140.928 31.5338 141.654 30.9648C142.375 30.4011 143.204 29.9404 144.138 29.5827C145.066 29.2252 146.049 28.954 147.07 28.7751C147.791 28.6288 148.582 28.5203 149.44 28.4443C150.297 28.3684 151.012 28.3036 151.585 28.2438V27.9296C151.585 26.7372 151.279 25.8916 150.657 25.3822C150.04 24.8781 149.188 24.6235 148.107 24.6235C147.474 24.6235 146.868 24.6993 146.295 24.8511C145.721 24.9975 145.214 25.1819 144.76 25.404C144.307 25.6317 143.909 25.8538 143.559 26.0761C143.215 26.2983 142.937 26.4988 142.724 26.6776L140.879 22.797C141.119 22.5858 141.485 22.3364 141.981 22.0383C142.478 21.7402 143.073 21.4475 143.783 21.1657C144.488 20.8837 145.279 20.6454 146.164 20.4502C147.048 20.2552 148.004 20.1576 149.019 20.1576C150.22 20.1576 151.318 20.315 152.306 20.6292C153.294 20.9434 154.151 21.4313 154.872 22.1034C155.587 22.77 156.15 23.6155 156.559 24.6452C156.963 25.6696 157.165 26.9107 157.165 28.3686V42.2H152.077Z" fill="white"/>
  <path d="M174.396 17.3448C174.216 17.2583 173.867 17.1281 173.342 16.9653C172.813 16.8029 172.119 16.7215 171.246 16.7215C170.471 16.7215 169.815 16.9547 169.291 17.4152C168.767 17.8759 168.505 18.6293 168.505 19.6698V20.6942H173.184V25.1601H168.549V42.2162H162.969V25.1601H160.092V20.6942H162.969V19.5343C162.969 18.136 163.149 16.9546 163.509 15.9844C163.87 15.0197 164.372 14.2284 165.016 13.6214C165.661 13.0089 166.419 12.5591 167.288 12.2773C168.161 11.9953 169.106 11.8545 170.127 11.8545C171.475 11.8545 172.589 11.9791 173.473 12.234C174.358 12.4888 174.877 12.6567 175.024 12.7489L174.396 17.3448Z" fill="white"/>
  <path d="M189.602 31.3441C189.602 30.4498 189.493 29.5989 189.285 28.7914C189.077 27.9839 188.761 27.2901 188.34 26.7102C187.92 26.1249 187.412 25.6641 186.812 25.3227C186.211 24.9758 185.507 24.8024 184.699 24.8024C183.891 24.8024 183.181 24.9759 182.586 25.3227C181.985 25.6641 181.472 26.1249 181.052 26.7102C180.637 27.2901 180.32 27.9839 180.107 28.7914C179.9 29.5989 179.796 30.4498 179.796 31.3441C179.796 32.2709 179.9 33.1326 180.107 33.9239C180.32 34.7152 180.626 35.409 181.03 36.0051C181.434 36.6013 181.947 37.0728 182.559 37.4197C183.175 37.7611 183.891 37.9346 184.699 37.9346C185.507 37.9346 186.211 37.7611 186.812 37.4197C187.412 37.0728 187.92 36.6013 188.34 36.0051C188.761 35.409 189.077 34.7152 189.285 33.9239C189.492 33.1326 189.602 32.2709 189.602 31.3441ZM195.089 31.3677C195.089 32.7714 194.87 34.1481 194.434 35.503C194.002 36.858 193.358 38.0665 192.501 39.1396C191.649 40.2128 190.568 41.0746 189.263 41.7304C187.958 42.3862 186.435 42.7114 184.699 42.7114C182.957 42.7114 181.434 42.3861 180.134 41.7304C178.83 41.0746 177.748 40.2128 176.891 39.1397C176.04 38.0666 175.395 36.858 174.959 35.503C174.522 34.1481 174.309 32.7714 174.309 31.3677C174.309 29.9694 174.522 28.6036 174.959 27.2595C175.395 25.9208 176.04 24.7231 176.891 23.6662C177.748 22.6093 178.83 21.7638 180.134 21.1243C181.434 20.4847 182.957 20.1596 184.699 20.1596C186.435 20.1596 187.953 20.4848 189.241 21.1243C190.53 21.7638 191.611 22.6093 192.479 23.6662C193.353 24.7231 194.002 25.9208 194.434 27.2595C194.87 28.6036 195.089 29.9694 195.089 31.3677Z" fill="white"/>
  <path d="M212.402 42.2162V29.9404C212.402 28.3036 212.058 27.0354 211.37 26.1411C210.676 25.2522 209.721 24.8024 208.487 24.8024C207.619 24.8024 206.816 25.0246 206.085 25.4744C205.348 25.9188 204.709 26.412 204.168 26.9486V42.2162H198.594V20.6942H203.677L203.945 22.3906C204.818 21.6806 205.795 21.1277 206.893 20.7429C207.985 20.3528 209.088 20.163 210.196 20.163C211.337 20.163 212.385 20.331 213.346 20.6725C214.307 21.0194 215.132 21.5613 215.819 22.3038C216.513 23.0463 217.042 24.0165 217.419 25.2034C217.79 26.3958 217.982 27.8266 217.982 29.4905V42.2162H212.402Z" fill="white"/>
  <path d="M235.333 28.8674C235.273 28.1248 235.114 27.4744 234.858 26.927C234.601 26.3742 234.284 25.9298 233.908 25.5883C233.531 25.2415 233.127 24.9922 232.69 24.8241C232.248 24.6617 231.806 24.5803 231.353 24.5803C230.386 24.5803 229.469 24.9379 228.595 25.6535C227.722 26.3689 227.209 27.4365 227.056 28.8674H235.333ZM226.925 32.84C227.045 34.6556 227.613 35.9673 228.639 36.7694C229.66 37.5716 230.987 37.978 232.608 37.978C233.362 37.978 234.072 37.9076 234.732 37.7774C235.393 37.6421 235.982 37.4738 236.496 37.2626C237.009 37.0565 237.446 36.8453 237.806 36.6393C238.166 36.4281 238.434 36.2328 238.62 36.054L240.105 40.5686C239.892 40.7149 239.553 40.9156 239.089 41.1703C238.625 41.4251 238.046 41.6581 237.358 41.8857C236.67 42.1079 235.857 42.2976 234.929 42.4656C234.001 42.628 232.98 42.7094 231.871 42.7094C230.457 42.7094 229.12 42.4872 227.842 42.0428C226.57 41.593 225.451 40.8992 224.495 39.9616C223.534 39.024 222.77 37.8587 222.202 36.4604C221.629 35.0621 221.345 33.3928 221.345 31.4579C221.345 29.6423 221.607 28.0326 222.131 26.6343C222.655 25.236 223.376 24.0598 224.288 23.106C225.205 22.1575 226.27 21.4258 227.482 20.9164C228.699 20.4124 229.993 20.1576 231.374 20.1576C232.756 20.1576 234.028 20.3853 235.202 20.8296C236.37 21.2741 237.38 21.9679 238.237 22.9055C239.089 23.8431 239.766 25.0571 240.257 26.5475C240.754 28.0326 241 29.8049 241 31.859V32.84L226.925 32.84Z" fill="white"/>
</svg>
