<?xml version="1.0" standalone="no"?>
<!DOCTYPE svg PUBLIC "-//W3C//DTD SVG 20010904//EN"
 "http://www.w3.org/TR/2001/REC-SVG-20010904/DTD/svg10.dtd">
<svg version="1.0" xmlns="http://www.w3.org/2000/svg"
 width="700.000000pt" height="700.000000pt" viewBox="0 0 700.000000 700.000000"
 preserveAspectRatio="xMidYMid meet">
<metadata>
Created by potrace 1.14, written by Peter Selinger 2001-2017
</metadata>
<g transform="translate(0.000000,700.000000) scale(0.100000,-0.100000)"
fill="#000000" stroke="none">
<path d="M2557 6123 c-1 0 -33 -4 -72 -7 -130 -12 -212 -25 -340 -55 -171 -41
-373 -116 -495 -185 -25 -14 -54 -30 -65 -35 -58 -26 -248 -168 -325 -243
-194 -189 -314 -402 -366 -648 -16 -78 -18 -163 -18 -1045 0 -528 3 -991 7
-1029 18 -173 58 -310 137 -471 137 -277 349 -483 660 -640 91 -45 273 -120
320 -130 8 -2 47 -13 85 -24 133 -37 277 -60 477 -76 67 -5 68 -5 74 22 3 16
8 34 10 42 7 23 44 194 44 206 0 6 -23 11 -52 11 -49 1 -160 10 -233 18 -55 7
-199 36 -255 52 -30 9 -62 17 -70 19 -63 12 -307 123 -410 187 -165 102 -332
272 -418 428 -30 54 -67 151 -83 219 -7 33 -5 32 69 -41 222 -216 454 -351
772 -449 110 -35 304 -75 405 -85 39 -3 78 -8 87 -10 18 -3 151 -6 225 -5 48
1 44 -8 86 183 l23 103 -156 0 c-173 0 -249 7 -395 36 -577 114 -1021 464
-1114 880 l-9 40 76 -76 c94 -94 102 -101 177 -157 277 -208 664 -348 1055
-384 115 -11 429 -9 440 2 4 5 11 23 14 39 2 17 7 39 9 50 3 11 12 52 21 90 9
39 19 78 22 89 6 17 1 18 -77 11 -85 -7 -339 -8 -394 -1 -16 2 -55 7 -85 10
-258 33 -535 128 -738 254 -110 69 -161 109 -257 206 -122 124 -203 258 -244
404 -21 78 -17 80 38 19 20 -22 75 -73 123 -113 284 -237 649 -386 1073 -440
93 -11 449 -12 545 0 l95 11 13 50 c51 204 58 245 45 245 -7 0 -57 -7 -111
-16 -150 -25 -439 -24 -632 2 -73 9 -280 62 -355 90 -39 14 -79 29 -90 32 -11
3 -67 30 -125 60 -255 131 -436 297 -550 505 -28 52 -84 197 -75 197 2 0 -2
21 -9 48 -13 48 -14 207 -2 272 60 320 331 614 724 788 160 71 377 129 547
147 33 4 71 8 85 11 39 6 267 5 345 -1 338 -27 647 -131 899 -300 l97 -65 196
2 197 3 -100 100 c-308 307 -736 492 -1252 541 -65 6 -340 12 -345 7z"/>
<path d="M2619 5228 c0 -13 -3 -34 -5 -48 -5 -30 -43 -252 -50 -295 -2 -16 -9
-55 -14 -85 -9 -52 -16 -94 -25 -150 -2 -14 -11 -68 -20 -120 -21 -123 -23
-137 -30 -184 -4 -21 -8 -46 -10 -55 -1 -9 -6 -36 -10 -61 -4 -25 -9 -54 -11
-65 -2 -10 -6 -37 -10 -60 -3 -22 -9 -56 -13 -75 -4 -19 -7 -48 -7 -64 l1 -29
542 0 541 0 -4 -21 c-2 -11 -20 -93 -40 -181 -19 -88 -37 -171 -40 -184 -3
-12 -12 -53 -20 -90 -9 -36 -18 -77 -20 -90 -3 -12 -11 -51 -19 -85 -8 -33
-16 -72 -19 -86 -2 -14 -12 -56 -21 -95 -10 -38 -19 -81 -22 -95 -2 -14 -55
-252 -117 -530 -62 -278 -112 -506 -111 -508 1 -1 198 46 437 106 l435 109
-23 -81 c-12 -45 -88 -310 -169 -591 -80 -280 -148 -517 -150 -525 -4 -18 -84
-299 -90 -320 -3 -9 1 -8 10 4 8 11 25 31 37 45 13 14 59 69 103 121 44 52 82
97 85 100 3 3 66 77 140 165 74 88 175 208 225 266 49 58 110 130 135 160 25
30 72 85 105 124 33 39 83 97 111 130 60 71 599 709 658 779 22 27 46 54 51
60 9 10 130 153 284 336 30 36 57 67 60 70 4 3 51 59 106 125 54 66 104 125
110 131 13 15 87 102 136 161 21 26 37 48 36 49 -2 2 -83 -13 -167 -31 -30 -6
-216 -44 -245 -49 -11 -2 -132 -27 -270 -54 -137 -28 -263 -53 -280 -56 -48
-9 -89 -17 -107 -22 -13 -4 7 67 89 313 58 175 110 323 114 329 6 8 168 11
549 10 l541 -1 9 35 c5 19 12 55 15 80 4 25 22 137 41 250 19 113 37 216 39
230 2 14 7 43 9 65 3 22 8 51 11 65 10 48 16 85 19 110 2 14 11 70 21 125 9
55 18 109 19 120 2 11 7 36 10 55 4 19 9 46 11 60 2 14 6 46 10 73 l8 47
-1862 0 -1861 0 -1 -22z m3411 -252 c0 -9 -61 -379 -76 -466 -3 -14 -15 -88
-27 -165 l-23 -140 -531 -3 -531 -2 -210 -630 c-170 -510 -207 -630 -194 -630
9 0 35 5 57 10 22 5 54 11 70 14 17 3 165 33 330 66 165 33 303 59 308 57 4
-1 0 -11 -10 -22 -10 -11 -63 -74 -118 -140 -55 -66 -110 -131 -121 -145 -12
-14 -79 -92 -149 -175 -69 -82 -146 -172 -169 -200 -24 -27 -70 -81 -102 -120
-32 -38 -60 -72 -63 -75 -4 -3 -53 -61 -111 -130 -57 -69 -107 -127 -110 -130
-3 -3 -41 -47 -84 -99 -43 -52 -76 -86 -73 -75 3 10 24 82 46 159 73 252 163
569 168 594 5 19 2 22 -13 18 -36 -11 -870 -217 -876 -217 -4 0 -5 8 -3 17 2
10 16 70 30 133 14 63 28 124 30 135 3 11 7 31 10 45 3 14 7 34 9 45 2 11 21
92 40 180 20 88 38 169 41 180 2 11 16 72 30 135 15 63 29 124 31 135 2 11 6
31 9 45 3 14 7 34 10 45 2 11 20 92 40 180 19 88 37 169 39 180 3 11 11 49 20
85 8 36 18 79 21 95 3 17 16 76 29 133 l23 102 -553 0 c-453 0 -554 2 -554 13
0 7 11 80 25 161 14 82 27 160 29 175 9 53 36 217 40 236 2 11 9 52 16 92 12
73 18 107 19 109 1 1 716 2 1591 2 1194 0 1590 -3 1590 -12z"/>
</g>
</svg>
