<svg width="72" height="72" viewBox="0 0 72 72" fill="none" xmlns="http://www.w3.org/2000/svg">
<g clip-path="url(#clip0_18_559)">
<g clip-path="url(#clip1_18_559)">
<rect width="72" height="72" rx="36" fill="#1A1F20"/>
<path d="M66.043 43.9671L61.9771 39.9513L50.4069 55.9455L46.8052 53.0993L37.7364 64.149L33.3782 52.8671L27.6791 54.4923L25.0659 60.4256L22.2206 54.7245L14.957 57.6911L9.90257 53.5034L5.7765 55.5414V75.4667H72V35.9957L66.0688 43.9671H66.043Z" fill="#EFEFEF"/>
<path d="M59.0115 27.9125L61.1605 18.9523L33.0172 18.8319C28.1347 18.8319 23.1318 19.9928 18.9456 22.6155C15.3439 24.8856 12.4298 28.3769 11.2092 32.4442C9.81664 37.2167 11.149 42.5051 15.043 45.704C17.7163 47.8537 21.2665 48.9028 24.6963 48.9028C28.1261 48.9028 31.5559 47.9741 34.7536 46.5725L36.7307 37.8444C16.9599 46.2199 18.129 27.8437 30.7393 27.8437H40.7966L36.4986 45.9877L43.5903 42.9093L41.149 53.3743L58.0659 28.7724L48.533 32.7882L50.3897 27.8437H58.9943V27.9039L59.0115 27.9125Z" fill="#FEBE10"/>
</g>
<rect x="0.5" y="0.5" width="71" height="71" rx="35.5" stroke="white" stroke-opacity="0.05"/>
</g>
<defs>
<clipPath id="clip0_18_559">
<rect width="72" height="72" fill="white"/>
</clipPath>
<clipPath id="clip1_18_559">
<rect width="72" height="72" rx="36" fill="white"/>
</clipPath>
</defs>
</svg>
