<svg width="186" height="48" viewBox="0 0 186 48" fill="none" xmlns="http://www.w3.org/2000/svg">
<g clip-path="url(#clip0_18_49)">
<rect width="49.6" height="48" rx="24" fill="#1A1F20"/>
<path d="M45.4963 29.3114L42.6953 26.6342L34.7247 37.297L32.2435 35.3995L25.9962 42.766L22.9939 35.2447L19.0678 36.3282L17.2676 40.2837L15.3075 36.483L10.3037 38.4607L6.82177 35.6689L3.97936 37.0276V50.3111H49.6V23.9971L45.514 29.3114H45.4963Z" fill="#EFEFEF"/>
<path d="M40.6524 18.6083L42.1328 12.6349L22.7452 12.5546C19.3817 12.5546 15.9353 13.3285 13.0514 15.077C10.5702 16.5904 8.56276 18.9179 7.72188 21.6295C6.76257 24.8111 7.68043 28.3367 10.3629 30.4693C12.2046 31.9025 14.6502 32.6019 17.013 32.6019C19.3757 32.6019 21.7385 31.9827 23.9414 31.0483L25.3034 25.2296C11.6835 30.8133 12.4888 18.5625 21.1759 18.5625H28.1043L25.1435 30.6585L30.0289 28.6062L28.3471 35.5829L40.001 19.1816L33.4338 21.8588L34.7129 18.5625H40.6405V18.6026L40.6524 18.6083Z" fill="#FABC2C"/>
</g>
<path d="M73.292 25.1573V20.1789C73.292 17.7588 73.3395 14.532 73.3871 12.642H73.292C72.8168 15.8919 72.1515 21.1699 71.4149 25.1573H68.4448C67.8745 21.0086 67.2092 15.7536 66.7815 12.619H66.6627C66.734 14.4398 66.8053 17.5974 66.8053 20.2941V25.1573H63.55V9.59965H68.7537C69.2764 12.8495 69.7991 16.7446 70.0368 18.9342H70.108C70.4169 16.6064 71.0347 13.2413 71.6287 9.59965H76.7611V25.1573H73.292Z" fill="white"/>
<path d="M85.0105 21.8153H82.0878L81.5413 25.1573H77.8584L81.0186 9.59965H86.1985L89.4062 25.1573H85.5807L85.0105 21.8153ZM82.5631 18.819H84.5352C84.1551 16.5372 83.7986 14.0019 83.6086 12.5729H83.4897C83.3234 14.071 82.9432 16.5372 82.5631 18.819Z" fill="white"/>
<path d="M94.852 18.796H94.0441V25.1573H90.4087V9.59965H95.8262C98.9151 9.59965 100.507 11.0747 100.507 13.9097C100.507 16.0532 99.4141 17.0673 98.4399 17.4361C99.6992 17.9893 100.293 18.9803 100.293 21.216V21.7692C100.293 23.4978 100.365 24.4659 100.46 25.1573H96.8954C96.7053 24.558 96.634 23.1751 96.634 21.654V21.1238C96.634 19.28 96.2539 18.796 94.852 18.796ZM94.0441 12.2502V16.0993H94.8995C96.3014 16.0993 96.8241 15.6153 96.8241 14.0941C96.8241 12.8264 96.3489 12.2502 95.1371 12.2502H94.0441Z" fill="white"/>
<path d="M102.144 25.1573V9.59965H105.732V16.0762C106.516 14.509 108.061 11.3513 109.011 9.59965H113.098L109.463 15.6844L113.169 25.1573H109.154L106.873 18.7729L105.732 20.4324V25.1573H102.144Z" fill="white"/>
<path d="M122.363 15.6383V18.5655H117.492V22.2763H123.004L122.577 25.1573H113.88V9.59965H122.577V12.5268H117.492V15.6383H122.363Z" fill="white"/>
<path d="M126.734 25.1573V12.5268H123.574V9.59965H133.553V12.5268H130.417V25.1573H126.734Z" fill="white"/>
<path d="M134.109 20.6398H137.745C137.84 21.9305 138.196 22.8064 139.313 22.8064C140.382 22.8064 140.715 22.1149 140.715 21.216C140.715 20.1558 140.168 19.5105 138.268 18.5655C135.488 17.1826 134.442 16.0071 134.442 13.7253C134.442 11.0517 136.105 9.30002 139.289 9.30002C143.044 9.30002 144.113 11.5818 144.137 13.9558H140.596C140.525 12.8725 140.311 11.9506 139.266 11.9506C138.458 11.9506 138.077 12.4576 138.077 13.3335C138.077 14.2324 138.434 14.6933 140.192 15.5231C143.162 16.9751 144.422 18.2197 144.422 20.8242C144.422 23.4056 142.877 25.4569 139.266 25.4569C135.369 25.4569 134.181 23.2904 134.109 20.6398Z" fill="white"/>
<path d="M149.824 25.1573V9.59965H155.099C157.879 9.59965 159.875 11.0978 159.875 14.3015C159.875 17.5513 158.093 19.0725 154.933 19.0725H153.483V25.1573H149.824ZM153.483 12.2733V16.3528H154.434C155.717 16.3528 156.192 15.7536 156.192 14.2785C156.192 12.8264 155.551 12.2733 154.529 12.2733H153.483Z" fill="white"/>
<path d="M165.701 18.796H164.894V25.1573H161.258V9.59965H166.676C169.765 9.59965 171.357 11.0747 171.357 13.9097C171.357 16.0532 170.264 17.0673 169.289 17.4361C170.549 17.9893 171.143 18.9803 171.143 21.216V21.7692C171.143 23.4978 171.214 24.4659 171.309 25.1573H167.745C167.555 24.558 167.484 23.1751 167.484 21.654V21.1238C167.484 19.28 167.103 18.796 165.701 18.796ZM164.894 12.2502V16.0993H165.749C167.151 16.0993 167.674 15.6153 167.674 14.0941C167.674 12.8264 167.198 12.2502 165.987 12.2502H164.894Z" fill="white"/>
<path d="M178.079 9.30002C181.857 9.30002 183.52 11.8584 183.52 17.2748C183.52 22.9908 181.928 25.4569 177.936 25.4569C174.206 25.4569 172.566 22.9447 172.566 17.2056C172.566 11.674 174.396 9.30002 178.079 9.30002ZM178.031 12.135C176.772 12.135 176.415 13.564 176.415 17.2056C176.415 21.0316 176.772 22.645 178.031 22.645C179.362 22.645 179.671 21.1469 179.671 17.2056C179.671 13.4948 179.362 12.135 178.031 12.135Z" fill="white"/>
<path d="M63.5886 37.1423V30.3601H64.6796V33.9556C64.9523 33.4385 65.535 32.9455 66.6755 32.9455C68.2623 32.9455 69.2541 34.2082 69.2541 36.0119C69.2541 37.8638 68.2871 39.3309 66.5143 39.3309C65.5102 39.3309 64.9771 38.9702 64.6672 38.3809C64.6672 38.6936 64.6424 39.0183 64.6176 39.1866H63.5762C63.5886 38.5012 63.5886 37.8157 63.5886 37.1423ZM68.1383 36.036C68.1383 34.7132 67.5185 33.8354 66.4276 33.8354C65.0887 33.8354 64.6176 34.7012 64.6176 36.1562C64.6176 37.4309 65.0391 38.441 66.3656 38.441C67.4813 38.441 68.1383 37.5151 68.1383 36.036Z" fill="#FABC2C"/>
<path d="M69.8017 33.0898H70.9794C71.996 36.0119 72.5538 37.6233 72.7274 38.2486H72.7398C72.9381 37.5512 73.3844 36.1562 74.4134 33.0898H75.5043L73.2481 39.4632C72.6158 41.2549 72.1323 41.6999 70.8554 41.6999C70.6571 41.6999 70.4215 41.6879 70.1736 41.6638V40.7499C70.3348 40.7619 70.5207 40.7739 70.6943 40.7739C71.4877 40.7739 71.7852 40.4372 72.1571 39.4271L69.8017 33.0898Z" fill="#FABC2C"/>
<path d="M82.4643 36.6373H84.3858C84.361 37.479 84.0511 39.3429 81.7205 39.3429C79.4022 39.3429 78.9187 37.7075 78.9187 35.11C78.9187 32.1759 79.8733 30.9253 81.7948 30.9253C84.0263 30.9253 84.361 32.5847 84.3858 33.5468H82.4643C82.4519 33.0898 82.4395 32.3923 81.7701 32.3923C81.1006 32.3923 80.9395 33.1379 80.9395 35.1221C80.9395 36.8657 81.0386 37.8879 81.7453 37.8879C82.4023 37.8879 82.4395 37.1303 82.4643 36.6373Z" fill="#FABC2C"/>
<path d="M87.9818 30.9132C89.953 30.9132 90.8208 32.248 90.8208 35.074C90.8208 38.0562 89.9902 39.3429 87.9075 39.3429C85.9611 39.3429 85.1057 38.0322 85.1057 35.0379C85.1057 32.1518 86.0603 30.9132 87.9818 30.9132ZM87.9571 32.3923C87.3 32.3923 87.1141 33.1379 87.1141 35.0379C87.1141 37.0341 87.3 37.8759 87.9571 37.8759C88.6513 37.8759 88.8124 37.0942 88.8124 35.0379C88.8124 33.1018 88.6513 32.3923 87.9571 32.3923Z" fill="#FABC2C"/>
<path d="M91.8912 31.0696H93.8127V39.1866H91.8912V31.0696Z" fill="#FABC2C"/>
<path d="M96.8229 39.1866H95.1121V31.0696H97.2196C98.4965 34.8936 98.7816 35.8195 98.8684 36.1803H98.9056C98.8188 35.1581 98.794 33.8233 98.794 32.5607V31.0696H100.492V39.1866H98.4221C97.0956 34.9657 96.8477 34.148 96.7609 33.7993H96.7237C96.7857 34.7733 96.8229 36.2765 96.8229 37.5993V39.1866Z" fill="#FABC2C"/>
<path d="M102.875 39.1866V32.5968H101.226V31.0696H106.433V32.5968H104.797V39.1866H102.875Z" fill="#FABC2C"/>
<path d="M111.633 34.2202V35.7474H109.092V37.6835H111.968L111.745 39.1866H107.208V31.0696H111.745V32.5968H109.092V34.2202H111.633Z" fill="#FABC2C"/>
<path d="M112.826 39.1866V31.0696H114.747V37.6714H117.4L117.227 39.1866H112.826Z" fill="#FABC2C"/>
<path d="M122.518 34.2202V35.7474H119.977V37.6835H122.853L122.63 39.1866H118.093V31.0696H122.63V32.5968H119.977V34.2202H122.518Z" fill="#FABC2C"/>
<path d="M129.054 34.5328V39.1866H127.64C127.603 38.9702 127.578 38.7657 127.566 38.5493C127.206 39.1746 126.574 39.3429 125.917 39.3429C124.256 39.3429 123.487 38.1284 123.487 35.1822C123.487 31.9594 124.628 30.9253 126.463 30.9253C128.818 30.9253 129.016 32.7411 129.029 33.3664H127.107C127.083 32.9696 127.033 32.3923 126.401 32.3923C125.682 32.3923 125.508 33.3063 125.508 35.1942C125.508 37.1423 125.669 37.8759 126.363 37.8759C126.946 37.8759 127.12 37.3948 127.12 36.517V35.9999H126.301V34.5328H129.054Z" fill="#FABC2C"/>
<path d="M132.518 35.8676H132.097V39.1866H130.2V31.0696H133.027C134.638 31.0696 135.469 31.8392 135.469 33.3183C135.469 34.4366 134.899 34.9657 134.39 35.1581C135.047 35.4468 135.357 35.9638 135.357 37.1303V37.4189C135.357 38.3208 135.395 38.8258 135.444 39.1866H133.585C133.485 38.874 133.448 38.1524 133.448 37.3588V37.0822C133.448 36.1202 133.25 35.8676 132.518 35.8676ZM132.097 32.4525V34.4607H132.543C133.275 34.4607 133.547 34.2082 133.547 33.4145C133.547 32.7531 133.299 32.4525 132.667 32.4525H132.097Z" fill="#FABC2C"/>
<path d="M139.766 37.4429H138.241L137.956 39.1866H136.035L137.684 31.0696H140.386L142.06 39.1866H140.064L139.766 37.4429ZM138.489 35.8797H139.518C139.32 34.6892 139.134 33.3664 139.035 32.6208H138.973C138.886 33.4025 138.688 34.6892 138.489 35.8797Z" fill="#FABC2C"/>
<path d="M142.732 39.1866V31.0696H145.484C146.934 31.0696 147.975 31.8512 147.975 33.5227C147.975 35.2183 147.046 36.0119 145.397 36.0119H144.641V39.1866H142.732ZM144.641 32.4645V34.593H145.137C145.806 34.593 146.054 34.2803 146.054 33.5107C146.054 32.7531 145.719 32.4645 145.186 32.4645H144.641Z" fill="#FABC2C"/>
<path d="M148.846 39.1866V31.0696H150.767V34.136H152.218V31.0696H154.152V39.1866H152.218V35.6993H150.767V39.1866H148.846Z" fill="#FABC2C"/>
<defs>
<clipPath id="clip0_18_49">
<rect width="49.6" height="48" rx="24" fill="white"/>
</clipPath>
</defs>
</svg>
