<svg width="32" height="32" viewBox="0 0 32 32" fill="none" xmlns="http://www.w3.org/2000/svg">
  <g clip-path="url(#clip0_901_11104)">
    <path d="M0 12.88C0 8.32407 0 6.04611 0.900692 4.3122C1.6597 2.85106 2.85106 1.6597 4.3122 0.900692C6.04611 0 8.32407 0 12.88 0H19.12C23.6759 0 25.9539 0 27.6878 0.900692C29.1489 1.6597 30.3403 2.85106 31.0993 4.3122C32 6.04611 32 8.32407 32 12.88V19.12C32 23.6759 32 25.9539 31.0993 27.6878C30.3403 29.1489 29.1489 30.3403 27.6878 31.0993C25.9539 32 23.6759 32 19.12 32H12.88C8.32407 32 6.04611 32 4.3122 31.0993C2.85106 30.3403 1.6597 29.1489 0.900692 27.6878C0 25.9539 0 23.6759 0 19.12V12.88Z" fill="url(#paint0_linear_901_11104)"/>
    <path d="M0.5 12.88C0.5 10.5936 0.500402 8.90945 0.610871 7.57923C0.720844 6.25498 0.937305 5.32638 1.3444 4.54269C2.05597 3.17287 3.17287 2.05597 4.54269 1.3444C5.32638 0.937305 6.25498 0.720844 7.57923 0.610871C8.90945 0.500402 10.5936 0.5 12.88 0.5H19.12C21.4064 0.5 23.0905 0.500402 24.4208 0.610871C25.745 0.720844 26.6736 0.937305 27.4573 1.3444C28.8271 2.05597 29.944 3.17287 30.6556 4.54269C31.0627 5.32638 31.2792 6.25498 31.3891 7.57923C31.4996 8.90945 31.5 10.5936 31.5 12.88V19.12C31.5 21.4064 31.4996 23.0905 31.3891 24.4208C31.2792 25.745 31.0627 26.6736 30.6556 27.4573C29.944 28.8271 28.8271 29.944 27.4573 30.6556C26.6736 31.0627 25.745 31.2792 24.4208 31.3891C23.0905 31.4996 21.4064 31.5 19.12 31.5H12.88C10.5936 31.5 8.90945 31.4996 7.57923 31.3891C6.25498 31.2792 5.32638 31.0627 4.54269 30.6556C3.17287 29.944 2.05597 28.8271 1.3444 27.4573C0.937305 26.6736 0.720844 25.745 0.610871 24.4208C0.500402 23.0905 0.5 21.4064 0.5 19.12V12.88Z" stroke="white" stroke-opacity="0.05"/>
    <g filter="url(#filter0_dddddi_901_11104)">
      <path d="M25.8842 11.4398C26.3731 11.23 26.9522 11.2014 27.4411 11.3488C27.6441 11.412 27.8246 11.4962 27.9976 11.6008V12.5259C27.4561 12.1543 26.8319 12.049 26.3505 12.3085C25.8391 12.589 25.5382 13.1772 25.5533 13.7939C25.5458 14.4738 25.7714 15.1041 26.2452 15.3982C26.6664 15.6855 27.3282 15.6855 27.9976 15.5802V16.3511C27.7344 16.4353 27.4561 16.4842 27.1703 16.512C26.6965 16.5474 26.17 16.4767 25.7037 16.2247C25.2299 15.9795 24.8839 15.5523 24.6884 15.1244C24.5003 14.6829 24.4326 14.2347 24.4251 13.8067C24.4026 12.8967 24.8914 11.8738 25.8842 11.4398ZM22.7329 9C23.148 9 23.485 9.33694 23.485 9.75211C23.485 10.1673 23.148 10.5042 22.7329 10.5042C22.3177 10.5042 21.9808 10.1673 21.9808 9.75211C21.9808 9.33694 22.3177 9 22.7329 9ZM23.297 11.2563V16.5211H22.1688V11.2563H23.297ZM17.4681 15.1409C17.9495 15.3372 18.5361 15.5411 18.9949 15.5847C19.4537 15.6358 19.9576 15.5772 20.2509 15.417C20.3938 15.3297 20.4239 15.2079 20.4239 15.0725C20.4239 14.9371 20.3968 14.8604 20.3314 14.7589C20.2118 14.5739 19.8824 14.434 19.3634 14.3099C19.1077 14.2369 18.8295 14.164 18.5211 13.997C18.2127 13.8586 17.5862 13.3562 17.7081 12.4995C17.7735 12.0415 18.2481 11.5933 18.9122 11.3842C19.6861 11.1397 20.5292 11.2608 21.2287 11.5955V12.5274C20.6044 12.207 19.8598 12.0453 19.2281 12.2559C19.04 12.3138 18.7918 12.4446 18.7918 12.6801C18.7918 13.2449 19.4462 13.3517 19.6944 13.4322C19.9501 13.5119 20.2284 13.5848 20.5292 13.7375C20.8301 13.8834 21.4332 14.2474 21.4332 15.0785C21.4332 15.8742 21.0406 16.1668 20.7172 16.2977C20.0479 16.5887 19.4537 16.5376 18.8746 16.4579C18.3857 16.3706 17.9119 16.2247 17.4681 15.9487V15.1409ZM12.3914 11.2578L13.5196 11.2563L13.5218 13.0764C13.5324 13.6706 13.5309 14.3181 13.5241 14.8687C13.4978 15.1628 13.8264 15.5057 14.2582 15.5584C14.4883 15.5839 14.6598 15.5651 14.9245 15.4531C15.081 15.3914 15.2404 15.3387 15.3999 15.2838V11.2563L16.528 11.2571V16.3849H15.3999V16.2074C15.369 16.224 15.3397 16.242 15.3096 16.2578C15.023 16.4293 14.5635 16.5481 14.1709 16.5158C13.7633 16.4895 13.3526 16.3466 13.0179 16.0751C12.6855 15.8073 12.4343 15.3869 12.402 14.9251C12.3817 14.2632 12.3869 13.6961 12.3937 13.0772L12.3914 11.2578ZM4.11827 11.2563H5.24643V11.7738C5.52471 11.673 5.80073 11.5677 6.08051 11.4722C6.48289 11.3293 6.98755 11.3579 7.38391 11.5782C7.54787 11.6662 7.69152 11.7903 7.81788 11.931C8.24056 11.7745 8.66249 11.6173 9.08818 11.4714C9.49056 11.3285 9.99522 11.3571 10.3916 11.5775C10.7917 11.7926 11.1031 12.1859 11.2136 12.644C11.243 12.7583 11.2558 12.8741 11.2625 12.9907L11.2655 13.2291L11.27 13.6992L11.2655 14.6393L11.2633 16.5196H10.1351L10.1306 12.8764C10.099 12.5567 9.74026 12.2769 9.36421 12.3792C8.98063 12.4807 8.59405 12.571 8.20822 12.6643C8.23379 12.7718 8.24733 12.8801 8.2541 12.9899L8.25711 13.2283L8.26162 13.6984L8.25711 14.6385L8.25485 16.5188H7.12669L7.12218 12.8756C7.09059 12.5552 6.73184 12.2762 6.35579 12.3785C5.98801 12.4762 5.61647 12.5627 5.24643 12.6522V16.5181H4.11827V11.2563ZM26.3189 20.975C24.6538 22.1558 22.793 22.9343 20.8398 23.4397C18.8881 23.9383 16.8559 24.1271 14.8335 23.988C12.8119 23.8526 10.8376 23.3592 8.97687 22.6387C7.12218 21.8941 5.36902 20.9367 3.81969 19.6822C3.73921 19.6167 3.72642 19.4979 3.79186 19.4174C3.84977 19.346 3.94905 19.3279 4.02727 19.37L4.0378 19.3761C5.72928 20.2914 7.53734 20.9923 9.35292 21.5489C11.1828 22.0693 13.045 22.4416 14.9185 22.5176C16.7875 22.583 18.6768 22.4371 20.5209 22.0535C22.3576 21.6745 24.21 21.1239 25.9135 20.3395L25.9429 20.326C26.1316 20.2395 26.3543 20.3214 26.4415 20.5102C26.5197 20.6779 26.4641 20.8727 26.3189 20.975ZM27.1568 23.2013C26.9477 23.3592 26.7386 23.3066 26.8431 23.0433C27.1568 22.201 27.8359 20.4102 27.5223 19.989C27.1568 19.5152 25.2757 19.7784 24.4402 19.8837C24.1792 19.8837 24.1792 19.6731 24.3883 19.5152C25.1193 18.9887 26.1121 18.7781 26.9484 18.7781C27.784 18.7781 28.5158 18.9361 28.6723 19.1993C28.9325 19.5144 28.567 21.9896 27.1568 23.2013Z" fill="white"/>
    </g>
  </g>
  <defs>
    <filter id="filter0_dddddi_901_11104" x="1.75" y="8" width="29" height="24.0325" filterUnits="userSpaceOnUse" color-interpolation-filters="sRGB">
      <feFlood flood-opacity="0" result="BackgroundImageFix"/>
      <feColorMatrix in="SourceAlpha" type="matrix" values="0 0 0 0 0 0 0 0 0 0 0 0 0 0 0 0 0 0 127 0" result="hardAlpha"/>
      <feOffset/>
      <feColorMatrix type="matrix" values="0 0 0 0 0 0 0 0 0 0 0 0 0 0 0 0 0 0 0.12 0"/>
      <feBlend mode="normal" in2="BackgroundImageFix" result="effect1_dropShadow_901_11104"/>
      <feColorMatrix in="SourceAlpha" type="matrix" values="0 0 0 0 0 0 0 0 0 0 0 0 0 0 0 0 0 0 127 0" result="hardAlpha"/>
      <feOffset/>
      <feGaussianBlur stdDeviation="0.5"/>
      <feColorMatrix type="matrix" values="0 0 0 0 0 0 0 0 0 0 0 0 0 0 0 0 0 0 0.12 0"/>
      <feBlend mode="normal" in2="effect1_dropShadow_901_11104" result="effect2_dropShadow_901_11104"/>
      <feColorMatrix in="SourceAlpha" type="matrix" values="0 0 0 0 0 0 0 0 0 0 0 0 0 0 0 0 0 0 127 0" result="hardAlpha"/>
      <feOffset dy="1"/>
      <feGaussianBlur stdDeviation="0.5"/>
      <feColorMatrix type="matrix" values="0 0 0 0 0 0 0 0 0 0 0 0 0 0 0 0 0 0 0.1 0"/>
      <feBlend mode="normal" in2="effect2_dropShadow_901_11104" result="effect3_dropShadow_901_11104"/>
      <feColorMatrix in="SourceAlpha" type="matrix" values="0 0 0 0 0 0 0 0 0 0 0 0 0 0 0 0 0 0 127 0" result="hardAlpha"/>
      <feOffset dy="3"/>
      <feGaussianBlur stdDeviation="1"/>
      <feColorMatrix type="matrix" values="0 0 0 0 0 0 0 0 0 0 0 0 0 0 0 0 0 0 0.06 0"/>
      <feBlend mode="normal" in2="effect3_dropShadow_901_11104" result="effect4_dropShadow_901_11104"/>
      <feColorMatrix in="SourceAlpha" type="matrix" values="0 0 0 0 0 0 0 0 0 0 0 0 0 0 0 0 0 0 127 0" result="hardAlpha"/>
      <feOffset dy="6"/>
      <feGaussianBlur stdDeviation="1"/>
      <feColorMatrix type="matrix" values="0 0 0 0 0 0 0 0 0 0 0 0 0 0 0 0 0 0 0.02 0"/>
      <feBlend mode="normal" in2="effect4_dropShadow_901_11104" result="effect5_dropShadow_901_11104"/>
      <feBlend mode="normal" in="SourceGraphic" in2="effect5_dropShadow_901_11104" result="shape"/>
      <feColorMatrix in="SourceAlpha" type="matrix" values="0 0 0 0 0 0 0 0 0 0 0 0 0 0 0 0 0 0 127 0" result="hardAlpha"/>
      <feOffset dy="-0.5"/>
      <feGaussianBlur stdDeviation="0.25"/>
      <feComposite in2="hardAlpha" operator="arithmetic" k2="-1" k3="1"/>
      <feColorMatrix type="matrix" values="0 0 0 0 0.309804 0 0 0 0 0.490196 0 0 0 0 0.87451 0 0 0 0.35 0"/>
      <feBlend mode="normal" in2="shape" result="effect6_innerShadow_901_11104"/>
    </filter>
    <linearGradient id="paint0_linear_901_11104" x1="16" y1="0" x2="16" y2="32" gradientUnits="userSpaceOnUse">
      <stop stop-color="#007CDF"/>
      <stop offset="1" stop-color="#002783"/>
    </linearGradient>
    <clipPath id="clip0_901_11104">
      <rect width="32" height="32" fill="white"/>
    </clipPath>
  </defs>
</svg>
