<svg width="136" height="32" viewBox="0 0 136 32" fill="none" xmlns="http://www.w3.org/2000/svg">
  <rect width="136" height="32" rx="8" fill="white"/>
  <g clip-path="url(#clip0_969_25672)">
    <path d="M22.6608 4H9.3392C6.39044 4 4 6.39044 4 9.3392V22.6608C4 25.6096 6.39044 28 9.3392 28H22.6608C25.6096 28 28 25.6096 28 22.6608V9.3392C28 6.39044 25.6096 4 22.6608 4Z" fill="url(#paint0_linear_969_25672)"/>
    <path d="M15.2672 25.0116C14.5512 24.7556 14.3976 24.4076 14.104 22.3684C13.7624 19.998 13.688 18.5308 13.8856 18.066C14.148 17.45 14.86 17.1004 15.856 17.0964C16.844 17.0924 17.5624 17.4452 17.8264 18.066C18.0248 18.53 17.9504 19.998 17.6088 22.3684C17.3768 24.0244 17.2488 24.4428 16.9288 24.7244C16.4888 25.114 15.8648 25.222 15.2728 25.0124L15.2672 25.0116ZM12.2088 22.5796C9.73682 21.3636 8.15282 19.306 7.57682 16.5684C7.43282 15.862 7.40882 14.1764 7.54482 13.5284C7.90482 11.7884 8.59282 10.4276 9.73682 9.22436C11.3848 7.48676 13.5048 6.56836 15.8648 6.56836C18.2008 6.56836 20.3128 7.46996 21.9208 9.15556C23.1448 10.4276 23.8328 11.774 24.1848 13.5476C24.3048 14.138 24.3048 15.7476 24.1928 16.4116C23.8248 18.5108 22.6568 20.4228 20.9528 21.7076C20.3448 22.1668 18.8568 22.9684 18.6168 22.9684C18.5288 22.9684 18.5208 22.8772 18.5608 22.5084C18.6328 21.9164 18.7048 21.7932 19.0408 21.6524C19.5768 21.4284 20.4888 20.7788 21.0488 20.2172C22.0168 19.2572 22.7288 18.0012 23.0568 16.6812C23.2648 15.8572 23.2408 14.0252 23.0088 13.1772C22.2808 10.4812 20.0808 8.38516 17.3848 7.82516C16.6008 7.66516 15.1768 7.66516 14.3848 7.82516C11.6568 8.38516 9.40082 10.5852 8.71282 13.3532C8.52882 14.1052 8.52882 15.9372 8.71282 16.6892C9.16882 18.5212 10.3528 20.2012 11.9048 21.2012C12.2088 21.4012 12.5768 21.6092 12.7288 21.6732C13.0648 21.8172 13.1368 21.9372 13.2008 22.5292C13.2408 22.8892 13.2328 22.9932 13.1448 22.9932C13.0888 22.9932 12.6808 22.8172 12.2488 22.6092L12.2088 22.5796ZM12.2408 19.3252C11.4088 18.6612 10.6728 17.4836 10.3688 16.3284C10.1848 15.6308 10.1848 14.3044 10.3768 13.6084C10.8808 11.73 12.2648 10.274 14.1848 9.58996C14.8408 9.35796 16.2968 9.30596 17.1048 9.48436C19.8888 10.1044 21.8648 12.8924 21.4808 15.658C21.3288 16.7724 20.9448 17.6876 20.2648 18.538C19.9288 18.9676 19.1128 19.6884 18.9688 19.6884C18.9448 19.6884 18.9208 19.4164 18.9208 19.0852V18.4804L19.3368 17.9844C20.9048 16.106 20.7928 13.482 19.0808 11.7604C18.4168 11.09 17.6488 10.6964 16.6568 10.5148C16.0168 10.3964 15.8808 10.3964 15.2088 10.5068C14.1888 10.6732 13.3984 11.0684 12.6968 11.7628C10.9768 13.4668 10.8648 16.1044 12.4328 17.9844L12.8456 18.4804V19.0884C12.8456 19.4244 12.8192 19.6964 12.7864 19.6964C12.7544 19.6964 12.5224 19.5364 12.2744 19.3364L12.2408 19.3252ZM15.0168 16.0588C14.3048 15.7276 13.9208 15.1028 13.9128 14.2884C13.9128 13.5564 14.3208 12.918 15.0248 12.5444C15.4728 12.3092 16.2648 12.3092 16.7128 12.546C17.2008 12.7996 17.6008 13.2916 17.7528 13.8052C18.2168 15.3828 16.5448 16.7652 15.0328 16.0588H15.0168Z" fill="white"/>
    <path d="M15.9912 16.3683C17.0931 16.3683 17.9864 15.475 17.9864 14.3731C17.9864 13.2712 17.0931 12.3779 15.9912 12.3779C14.8893 12.3779 13.996 13.2712 13.996 14.3731C13.996 15.475 14.8893 16.3683 15.9912 16.3683Z" fill="white"/>
    <path d="M16.1824 17.1416C16.3208 17.16 16.596 17.196 16.8504 17.2776C17.1064 17.3576 17.3384 17.4832 17.5192 17.612C17.6952 17.74 17.8232 17.8728 17.9032 18.0344C17.9832 18.196 18.0232 18.388 18.0472 18.7024C18.0632 19.0176 18.0632 19.4544 17.9912 20.2704C17.9192 21.084 17.7752 22.2768 17.6632 23.0408C17.5512 23.8088 17.4712 24.1448 17.3672 24.3928C17.2632 24.6488 17.1272 24.8168 16.9752 24.9368C16.8232 25.0568 16.6472 25.1288 16.4792 25.1688C16.3112 25.2088 16.1592 25.2088 16.0152 25.2088C15.8712 25.2088 15.7352 25.2088 15.5512 25.1688C15.3672 25.1288 15.1272 25.0568 14.9512 24.9128C14.7672 24.7688 14.6472 24.5608 14.5512 24.2888C14.4552 24.0168 14.3832 23.6888 14.2872 23.0328C14.1912 22.3768 14.0632 21.4008 13.9832 20.6568C13.9032 19.9128 13.8712 19.4008 13.8648 19.0568C13.8568 18.7128 13.8728 18.5424 13.9128 18.3768C13.9528 18.2168 14.0168 18.0648 14.1048 17.9368C14.1928 17.8088 14.308 17.6968 14.4248 17.6088C14.5392 17.5208 14.6568 17.4568 14.7976 17.4072C14.9368 17.3512 15.104 17.3032 15.3096 17.2632C15.5176 17.2232 15.7576 17.1832 15.8808 17.1672C16.004 17.1488 16.004 17.1488 16.1416 17.1672L16.1824 17.1416Z" fill="white"/>
  </g>
  <path d="M33.5469 12H36.9688V11.3672H34.25V6.36328H33.5469V12ZM38.3395 7.25C38.5778 7.25 38.7653 7.05859 38.7653 6.82422C38.7653 6.58594 38.5778 6.39844 38.3395 6.39844C38.1052 6.39844 37.9138 6.58594 37.9138 6.82422C37.9138 7.05859 38.1052 7.25 38.3395 7.25ZM37.9997 12H38.6794V7.9375H37.9997V12ZM41.3666 12.0781C42.2728 12.0781 42.9447 11.5781 42.9447 10.8672V10.8633C42.9447 10.2852 42.6478 9.96094 41.8275 9.76172L41.183 9.60547C40.7337 9.49609 40.5502 9.30469 40.5502 9.02734V9.02344C40.5502 8.66406 40.8548 8.42578 41.347 8.42578C41.8509 8.42578 42.1517 8.6875 42.2064 9.08203L42.2103 9.10938H42.8587L42.8548 9.05859C42.8041 8.37891 42.2377 7.85938 41.347 7.85938C40.4681 7.85938 39.8548 8.35547 39.8548 9.05469V9.05859C39.8548 9.64453 40.2259 10 40.9916 10.1836L41.6361 10.3398C42.097 10.4531 42.2494 10.6172 42.2494 10.9102V10.9141C42.2494 11.2812 41.9212 11.5117 41.3705 11.5117C40.8158 11.5117 40.515 11.2734 40.433 10.8672L40.4252 10.8281H39.7455L39.7494 10.8633C39.8314 11.5898 40.4095 12.0781 41.3666 12.0781ZM45.292 12.0781C45.4248 12.0781 45.5694 12.0625 45.6553 12.0508V11.5C45.5967 11.5039 45.5186 11.5156 45.4366 11.5156C45.0733 11.5156 44.8819 11.3945 44.8819 10.9609V8.5H45.6553V7.9375H44.8819V6.83984H44.1788V7.9375H43.585V8.5H44.1788V10.9648C44.1788 11.7422 44.5459 12.0781 45.292 12.0781ZM48.2605 12.0781C49.1472 12.0781 49.8112 11.5469 49.9441 10.875L49.9519 10.8359H49.2839L49.2722 10.8711C49.155 11.2188 48.7917 11.4766 48.2761 11.4766C47.5534 11.4766 47.0925 10.9883 47.0769 10.1523H50.0027V9.90234C50.0027 8.68359 49.3269 7.85938 48.2175 7.85938C47.1081 7.85938 46.3894 8.72266 46.3894 9.98047V9.98438C46.3894 11.2617 47.0925 12.0781 48.2605 12.0781ZM48.2136 8.46094C48.8073 8.46094 49.2448 8.83203 49.3112 9.62109H47.0886C47.1628 8.86328 47.6237 8.46094 48.2136 8.46094ZM51.0102 12H51.6898V9.60938C51.6898 8.91797 52.1078 8.46094 52.7484 8.46094C53.3734 8.46094 53.682 8.82422 53.682 9.48438V12H54.3617V9.36328C54.3617 8.4375 53.8461 7.85938 52.9555 7.85938C52.3383 7.85938 51.9242 8.13672 51.7055 8.51562H51.6898V7.9375H51.0102V12ZM59.1931 12.0781C60.3142 12.0781 61.072 11.2656 61.072 9.96875V9.96094C61.072 8.66406 60.3103 7.85938 59.1892 7.85938C58.0681 7.85938 57.3103 8.66797 57.3103 9.96094V9.96875C57.3103 11.2617 58.0642 12.0781 59.1931 12.0781ZM59.197 11.4766C58.4783 11.4766 58.0056 10.9258 58.0056 9.96875V9.96094C58.0056 9.01172 58.4822 8.46094 59.1892 8.46094C59.908 8.46094 60.3767 9.00781 60.3767 9.96094V9.96875C60.3767 10.9219 59.9119 11.4766 59.197 11.4766ZM62.0795 12H62.7592V9.60938C62.7592 8.91797 63.1772 8.46094 63.8178 8.46094C64.4428 8.46094 64.7514 8.82422 64.7514 9.48438V12H65.4311V9.36328C65.4311 8.4375 64.9155 7.85938 64.0248 7.85938C63.4077 7.85938 62.9936 8.13672 62.7748 8.51562H62.7592V7.9375H62.0795V12Z" fill="#171A1C"/>
  <path d="M33.1777 25H34.7842L35.6934 22.334H39.4941L40.3965 25H42.0029L38.4209 15.1357H36.7666L33.1777 25ZM37.5801 16.7695H37.6074L39.0771 21.1035H36.1035L37.5801 16.7695ZM42.9189 27.3926H44.3955V23.79H44.4297C44.8535 24.624 45.6807 25.1436 46.6992 25.1436C48.5039 25.1436 49.6865 23.7012 49.6865 21.4111V21.4043C49.6865 19.1074 48.5107 17.6719 46.6787 17.6719C45.6533 17.6719 44.8604 18.1914 44.4297 19.0459H44.3955V17.8086H42.9189V27.3926ZM46.2959 23.8721C45.1816 23.8721 44.3887 22.9014 44.3887 21.4111V21.4043C44.3887 19.9072 45.1748 18.9365 46.2959 18.9365C47.4512 18.9365 48.1826 19.873 48.1826 21.4043V21.4111C48.1826 22.9287 47.458 23.8721 46.2959 23.8721ZM50.835 27.3926H52.3115V23.79H52.3457C52.7695 24.624 53.5967 25.1436 54.6152 25.1436C56.4199 25.1436 57.6025 23.7012 57.6025 21.4111V21.4043C57.6025 19.1074 56.4268 17.6719 54.5947 17.6719C53.5693 17.6719 52.7764 18.1914 52.3457 19.0459H52.3115V17.8086H50.835V27.3926ZM54.2119 23.8721C53.0977 23.8721 52.3047 22.9014 52.3047 21.4111V21.4043C52.3047 19.9072 53.0908 18.9365 54.2119 18.9365C55.3672 18.9365 56.0986 19.873 56.0986 21.4043V21.4111C56.0986 22.9287 55.374 23.8721 54.2119 23.8721ZM58.8057 25H60.2822V15.1357H58.8057V25ZM64.8691 25.1436C66.6123 25.1436 67.7197 24.1045 67.9521 22.9629L67.9658 22.8877H66.5645L66.5439 22.9424C66.3594 23.4824 65.7783 23.9336 64.9033 23.9336C63.7275 23.9336 62.9824 23.1406 62.9551 21.7803H68.0479V21.2812C68.0479 19.1211 66.8105 17.6719 64.7939 17.6719C62.7773 17.6719 61.4785 19.1758 61.4785 21.4248V21.4316C61.4785 23.7012 62.7568 25.1436 64.8691 25.1436ZM64.8008 18.8818C65.7646 18.8818 66.4619 19.4902 66.585 20.7344H62.9756C63.1055 19.5312 63.8438 18.8818 64.8008 18.8818ZM72.2178 25H73.749V21.6299H75.8887C77.8232 21.6299 79.1631 20.3105 79.1631 18.3828V18.3691C79.1631 16.4346 77.8232 15.1357 75.8887 15.1357H72.2178V25ZM75.5059 16.4277C76.8389 16.4277 77.6045 17.1455 77.6045 18.376V18.3896C77.6045 19.627 76.8389 20.3447 75.5059 20.3447H73.749V16.4277H75.5059ZM83.1006 25.1436C85.1582 25.1436 86.5117 23.7217 86.5117 21.4043V21.3906C86.5117 19.0869 85.1445 17.6719 83.0938 17.6719C81.0498 17.6719 79.6895 19.0938 79.6895 21.3906V21.4043C79.6895 23.7148 81.0361 25.1436 83.1006 25.1436ZM83.1074 23.9062C81.9521 23.9062 81.2002 22.9971 81.2002 21.4043V21.3906C81.2002 19.8184 81.959 18.9092 83.0938 18.9092C84.249 18.9092 85.001 19.8184 85.001 21.3906V21.4043C85.001 22.9902 84.2627 23.9062 83.1074 23.9062ZM90.3398 25.1436C91.3721 25.1436 92.165 24.624 92.5957 23.7832H92.623V25H94.1064V15.1357H92.623V19.0322H92.5957C92.165 18.1846 91.3447 17.6719 90.3262 17.6719C88.5215 17.6719 87.332 19.1074 87.332 21.3975V21.4043C87.332 23.6943 88.5078 25.1436 90.3398 25.1436ZM90.7295 23.8721C89.5605 23.8721 88.8428 22.9355 88.8428 21.4043V21.3975C88.8428 19.8799 89.5674 18.9365 90.7295 18.9365C91.8369 18.9365 92.6299 19.9072 92.6299 21.3975V21.4043C92.6299 22.9014 91.8438 23.8721 90.7295 23.8721ZM98.7139 25.1436C100.443 25.1436 101.646 24.0361 101.804 22.5938L101.811 22.5459H100.389L100.382 22.6006C100.204 23.3799 99.623 23.9062 98.7139 23.9062C97.5723 23.9062 96.8135 22.9834 96.8135 21.4111V21.4043C96.8135 19.8662 97.5586 18.9092 98.707 18.9092C99.6709 18.9092 100.218 19.5039 100.375 20.208L100.389 20.2627H101.797L101.79 20.2148C101.667 18.8613 100.546 17.6719 98.6934 17.6719C96.6426 17.6719 95.3027 19.1143 95.3027 21.3906V21.3975C95.3027 23.7012 96.6152 25.1436 98.7139 25.1436ZM104.969 25.1299C105.919 25.1299 106.753 24.6377 107.17 23.8652H107.197V25H108.681V20.0439C108.681 18.6016 107.566 17.6719 105.81 17.6719C104.039 17.6719 102.966 18.6221 102.863 19.8594L102.856 19.9346H104.251L104.265 19.873C104.388 19.2988 104.914 18.8955 105.769 18.8955C106.685 18.8955 107.197 19.374 107.197 20.167V20.707L105.242 20.8232C103.54 20.9258 102.569 21.6914 102.569 22.9424V22.9561C102.569 24.248 103.533 25.1299 104.969 25.1299ZM104.06 22.9219V22.9082C104.06 22.2998 104.552 21.9102 105.44 21.8555L107.197 21.7461V22.3066C107.197 23.2432 106.411 23.9473 105.372 23.9473C104.579 23.9473 104.06 23.5508 104.06 22.9219ZM112.81 25.1436C114.505 25.1436 115.735 24.2412 115.735 22.9287V22.9219C115.735 21.8896 115.175 21.3086 113.705 20.9668L112.536 20.7002C111.764 20.5156 111.47 20.2148 111.47 19.7705V19.7637C111.47 19.1895 111.969 18.8135 112.762 18.8135C113.596 18.8135 114.088 19.251 114.177 19.8799L114.184 19.9277H115.571L115.564 19.8457C115.489 18.6221 114.464 17.6719 112.762 17.6719C111.107 17.6719 109.986 18.5537 109.986 19.8389V19.8457C109.986 20.8916 110.663 21.5479 112.03 21.8623L113.206 22.1289C113.979 22.3135 114.238 22.5801 114.238 23.0449V23.0518C114.238 23.6328 113.705 24.002 112.816 24.002C111.907 24.002 111.415 23.6123 111.278 22.9492L111.265 22.8809H109.802L109.809 22.9424C109.959 24.2549 111.012 25.1436 112.81 25.1436ZM119.406 25.1436C119.707 25.1436 119.987 25.1094 120.158 25.082V23.9404C120.049 23.9541 119.919 23.9678 119.762 23.9678C119.14 23.9678 118.812 23.749 118.812 23.0176V18.9844H120.158V17.8086H118.812V15.9355H117.301V17.8086H116.269V18.9844H117.301V23.1064C117.301 24.542 117.984 25.1436 119.406 25.1436ZM124.075 25.1436C125.771 25.1436 127.001 24.2412 127.001 22.9287V22.9219C127.001 21.8896 126.44 21.3086 124.971 20.9668L123.802 20.7002C123.029 20.5156 122.735 20.2148 122.735 19.7705V19.7637C122.735 19.1895 123.234 18.8135 124.027 18.8135C124.861 18.8135 125.354 19.251 125.442 19.8799L125.449 19.9277H126.837L126.83 19.8457C126.755 18.6221 125.729 17.6719 124.027 17.6719C122.373 17.6719 121.252 18.5537 121.252 19.8389V19.8457C121.252 20.8916 121.929 21.5479 123.296 21.8623L124.472 22.1289C125.244 22.3135 125.504 22.5801 125.504 23.0449V23.0518C125.504 23.6328 124.971 24.002 124.082 24.002C123.173 24.002 122.681 23.6123 122.544 22.9492L122.53 22.8809H121.067L121.074 22.9424C121.225 24.2549 122.277 25.1436 124.075 25.1436Z" fill="#171A1C"/>
  <rect x="0.5" y="0.5" width="135" height="31" rx="7.5" stroke="black" stroke-opacity="0.2"/>
  <defs>
    <linearGradient id="paint0_linear_969_25672" x1="15.9752" y1="28.3048" x2="15.772" y2="4" gradientUnits="userSpaceOnUse">
      <stop stop-color="#822CBE"/>
      <stop offset="1" stop-color="#D772FB"/>
    </linearGradient>
    <clipPath id="clip0_969_25672">
      <rect width="24" height="24" fill="white" transform="translate(4 4)"/>
    </clipPath>
  </defs>
</svg>
