<svg width="32" height="32" viewBox="0 0 32 32" fill="none" xmlns="http://www.w3.org/2000/svg">
  <g clip-path="url(#clip0_901_11084)">
    <path d="M0 12.88C0 8.32407 0 6.04611 0.900692 4.3122C1.6597 2.85106 2.85106 1.6597 4.3122 0.900692C6.04611 0 8.32407 0 12.88 0H19.12C23.6759 0 25.9539 0 27.6878 0.900692C29.1489 1.6597 30.3403 2.85106 31.0993 4.3122C32 6.04611 32 8.32407 32 12.88V19.12C32 23.6759 32 25.9539 31.0993 27.6878C30.3403 29.1489 29.1489 30.3403 27.6878 31.0993C25.9539 32 23.6759 32 19.12 32H12.88C8.32407 32 6.04611 32 4.3122 31.0993C2.85106 30.3403 1.6597 29.1489 0.900692 27.6878C0 25.9539 0 23.6759 0 19.12V12.88Z" fill="url(#paint0_linear_901_11084)"/>
    <path d="M12.88 0.5H19.12C21.4064 0.5 23.0905 0.500402 24.4208 0.610871C25.745 0.720844 26.6736 0.937305 27.4573 1.3444C28.8271 2.05597 29.944 3.17287 30.6556 4.54269C31.0627 5.32638 31.2792 6.25498 31.3891 7.57923C31.4996 8.90945 31.5 10.5936 31.5 12.88V19.12C31.5 21.4064 31.4996 23.0905 31.3891 24.4208C31.2792 25.745 31.0627 26.6736 30.6556 27.4573C29.944 28.8271 28.8271 29.944 27.4573 30.6556C26.6736 31.0627 25.745 31.2792 24.4208 31.3891C23.0905 31.4996 21.4064 31.5 19.12 31.5H12.88C10.5936 31.5 8.90945 31.4996 7.57923 31.3891C6.25498 31.2792 5.32638 31.0627 4.54269 30.6556C3.17287 29.944 2.05597 28.8271 1.3444 27.4573C0.937305 26.6736 0.720844 25.745 0.610871 24.4208C0.500402 23.0905 0.5 21.4064 0.5 19.12V12.88C0.5 10.5936 0.500402 8.90945 0.610871 7.57923C0.720844 6.25498 0.937305 5.32638 1.3444 4.54269C2.05597 3.17287 3.17287 2.05597 4.54269 1.3444C5.32638 0.937305 6.25498 0.720844 7.57923 0.610871C8.90945 0.500402 10.5936 0.5 12.88 0.5Z" stroke="white" stroke-opacity="0.05"/>
    <path d="M18.5 14C18.5 15.3807 17.3807 16.5 16 16.5C14.6193 16.5 13.5 15.3807 13.5 14C13.5 12.6193 14.6193 11.5 16 11.5C17.3807 11.5 18.5 12.6193 18.5 14Z" fill="white"/>
    <path d="M19.6463 24.3144C23.3659 22.8572 26 19.2362 26 15C26 9.47715 21.5228 5 16 5C10.4772 5 6 9.47715 6 15C6 19.2362 8.63408 22.8572 12.3537 24.3144L12.5344 25.9686C7.8768 24.4984 4.5 20.1436 4.5 15C4.5 8.64873 9.64873 3.5 16 3.5C22.3513 3.5 27.5 8.64873 27.5 15C27.5 20.1436 24.1232 24.4985 19.4655 25.9686L19.6463 24.3144Z" fill="white"/>
    <path d="M19.9634 21.4112C22.2311 20.0591 23.75 17.5819 23.75 14.75C23.75 10.4698 20.2802 7 16 7C11.7198 7 8.25 10.4698 8.25 14.75C8.25 17.5819 9.76893 20.0591 12.0365 21.4112L11.8161 19.393C10.5474 18.2491 9.75 16.5927 9.75 14.75C9.75 11.2982 12.5482 8.5 16 8.5C19.4518 8.5 22.25 11.2982 22.25 14.75C22.25 16.5927 21.4526 18.2491 20.1839 19.393L19.9634 21.4112Z" fill="white"/>
    <path d="M14.0016 26.7884C13.4322 25.0039 13.25 21.939 13.25 19.6761C13.25 17.6084 15.6412 17.6262 15.9991 17.6262C16.3573 17.6262 18.75 17.6084 18.75 19.6761C18.75 21.939 18.5677 25.0039 17.9979 26.7884C17.5847 28.0823 16.9776 28.4818 15.9991 28.4818C15.0212 28.4818 14.4145 28.0823 14.0016 26.7884Z" fill="white"/>
  </g>
  <defs>
    <linearGradient id="paint0_linear_901_11084" x1="15.9669" y1="32.4064" x2="15.696" y2="-1.50001e-06" gradientUnits="userSpaceOnUse">
      <stop stop-color="#822CBE"/>
      <stop offset="1" stop-color="#D772FB"/>
    </linearGradient>
    <clipPath id="clip0_901_11084">
      <rect width="32" height="32" fill="white"/>
    </clipPath>
  </defs>
</svg>
