<svg width="32" height="32" viewBox="0 0 32 32" fill="none" xmlns="http://www.w3.org/2000/svg">
  <g clip-path="url(#clip0_901_11091)">
    <path d="M0 12.88C0 8.32407 0 6.04611 0.900692 4.3122C1.6597 2.85106 2.85106 1.6597 4.3122 0.900692C6.04611 0 8.32407 0 12.88 0H19.12C23.6759 0 25.9539 0 27.6878 0.900692C29.1489 1.6597 30.3403 2.85106 31.0993 4.3122C32 6.04611 32 8.32407 32 12.88V19.12C32 23.6759 32 25.9539 31.0993 27.6878C30.3403 29.1489 29.1489 30.3403 27.6878 31.0993C25.9539 32 23.6759 32 19.12 32H12.88C8.32407 32 6.04611 32 4.3122 31.0993C2.85106 30.3403 1.6597 29.1489 0.900692 27.6878C0 25.9539 0 23.6759 0 19.12V12.88Z" fill="url(#paint0_linear_901_11091)"/>
    <path d="M0.5 12.88C0.5 10.5936 0.500402 8.90945 0.610871 7.57923C0.720844 6.25498 0.937305 5.32638 1.3444 4.54269C2.05597 3.17287 3.17287 2.05597 4.54269 1.3444C5.32638 0.937305 6.25498 0.720844 7.57923 0.610871C8.90945 0.500402 10.5936 0.5 12.88 0.5H19.12C21.4064 0.5 23.0905 0.500402 24.4208 0.610871C25.745 0.720844 26.6736 0.937305 27.4573 1.3444C28.8271 2.05597 29.944 3.17287 30.6556 4.54269C31.0627 5.32638 31.2792 6.25498 31.3891 7.57923C31.4996 8.90945 31.5 10.5936 31.5 12.88V19.12C31.5 21.4064 31.4996 23.0905 31.3891 24.4208C31.2792 25.745 31.0627 26.6736 30.6556 27.4573C29.944 28.8271 28.8271 29.944 27.4573 30.6556C26.6736 31.0627 25.745 31.2792 24.4208 31.3891C23.0905 31.4996 21.4064 31.5 19.12 31.5H12.88C10.5936 31.5 8.90945 31.4996 7.57923 31.3891C6.25498 31.2792 5.32638 31.0627 4.54269 30.6556C3.17287 29.944 2.05597 28.8271 1.3444 27.4573C0.937305 26.6736 0.720844 25.745 0.610871 24.4208C0.500402 23.0905 0.5 21.4064 0.5 19.12V12.88Z" stroke="black" stroke-opacity="0.05"/>
    <g filter="url(#filter0_d_901_11091)">
      <path d="M16.0079 21.4189L28 13.8629V15.912L16.0079 23.5L4 15.912V13.8629L16.0079 21.4189Z" fill="white"/>
      <path d="M16.0079 11.9418C13.299 11.9418 10.9228 13.3186 9.56039 15.4477C9.67128 15.3356 9.73465 15.2716 9.84554 15.1916C13.2198 12.3581 18.0832 12.9984 20.7287 16.5683L22.4871 15.4317C21.0931 13.3666 18.701 11.9418 16.0079 11.9418Z" fill="white"/>
      <path d="M16.0079 15.4477C14.5347 15.4477 13.2356 16.2001 12.4594 17.2887C13.0931 16.8244 13.8218 16.5843 14.598 16.5843C15.897 16.5843 17.0535 17.2567 17.8297 18.3933L19.5089 17.3367C18.7802 16.1681 17.4812 15.4477 16.0079 15.4477Z" fill="white"/>
      <path d="M7.89704 12.3741C12.8396 8.43597 19.8258 9.50854 23.5485 14.7433L23.5802 14.7753L25.402 13.6387C23.406 10.5491 19.9366 8.5 16.0079 8.5C12.1109 8.5 8.64159 10.5171 6.61386 13.6387C6.97822 13.2225 7.43763 12.7263 7.89704 12.3741Z" fill="white"/>
    </g>
  </g>
  <defs>
    <filter id="filter0_d_901_11091" x="1" y="6.5" width="30" height="21" filterUnits="userSpaceOnUse" color-interpolation-filters="sRGB">
      <feFlood flood-opacity="0" result="BackgroundImageFix"/>
      <feColorMatrix in="SourceAlpha" type="matrix" values="0 0 0 0 0 0 0 0 0 0 0 0 0 0 0 0 0 0 127 0" result="hardAlpha"/>
      <feOffset dy="1"/>
      <feGaussianBlur stdDeviation="1.5"/>
      <feComposite in2="hardAlpha" operator="out"/>
      <feColorMatrix type="matrix" values="0 0 0 0 0.819375 0 0 0 0 0.586777 0 0 0 0 0.330625 0 0 0 1 0"/>
      <feBlend mode="normal" in2="BackgroundImageFix" result="effect1_dropShadow_901_11091"/>
      <feBlend mode="normal" in="SourceGraphic" in2="effect1_dropShadow_901_11091" result="shape"/>
    </filter>
    <linearGradient id="paint0_linear_901_11091" x1="0" y1="0" x2="32" y2="32" gradientUnits="userSpaceOnUse">
      <stop stop-color="#F09037"/>
      <stop offset="1" stop-color="#F5C26D"/>
    </linearGradient>
    <clipPath id="clip0_901_11091">
      <rect width="32" height="32" fill="white"/>
    </clipPath>
  </defs>
</svg>
