<svg width="32" height="32" viewBox="0 0 32 32" fill="none" xmlns="http://www.w3.org/2000/svg">
  <g clip-path="url(#clip0_901_11087)">
    <path d="M0 12.88C0 8.32407 0 6.04611 0.900692 4.3122C1.6597 2.85106 2.85106 1.6597 4.3122 0.900692C6.04611 0 8.32407 0 12.88 0H19.12C23.6759 0 25.9539 0 27.6878 0.900692C29.1489 1.6597 30.3403 2.85106 31.0993 4.3122C32 6.04611 32 8.32407 32 12.88V19.12C32 23.6759 32 25.9539 31.0993 27.6878C30.3403 29.1489 29.1489 30.3403 27.6878 31.0993C25.9539 32 23.6759 32 19.12 32H12.88C8.32407 32 6.04611 32 4.3122 31.0993C2.85106 30.3403 1.6597 29.1489 0.900692 27.6878C0 25.9539 0 23.6759 0 19.12V12.88Z" fill="url(#paint0_linear_901_11087)"/>
    <path d="M0.5 12.88C0.5 10.5936 0.500402 8.90945 0.610871 7.57923C0.720844 6.25498 0.937305 5.32638 1.3444 4.54269C2.05597 3.17287 3.17287 2.05597 4.54269 1.3444C5.32638 0.937305 6.25498 0.720844 7.57923 0.610871C8.90945 0.500402 10.5936 0.5 12.88 0.5H19.12C21.4064 0.5 23.0905 0.500402 24.4208 0.610871C25.745 0.720844 26.6736 0.937305 27.4573 1.3444C28.8271 2.05597 29.944 3.17287 30.6556 4.54269C31.0627 5.32638 31.2792 6.25498 31.3891 7.57923C31.4996 8.90945 31.5 10.5936 31.5 12.88V19.12C31.5 21.4064 31.4996 23.0905 31.3891 24.4208C31.2792 25.745 31.0627 26.6736 30.6556 27.4573C29.944 28.8271 28.8271 29.944 27.4573 30.6556C26.6736 31.0627 25.745 31.2792 24.4208 31.3891C23.0905 31.4996 21.4064 31.5 19.12 31.5H12.88C10.5936 31.5 8.90945 31.4996 7.57923 31.3891C6.25498 31.2792 5.32638 31.0627 4.54269 30.6556C3.17287 29.944 2.05597 28.8271 1.3444 27.4573C0.937305 26.6736 0.720844 25.745 0.610871 24.4208C0.500402 23.0905 0.5 21.4064 0.5 19.12V12.88Z" stroke="black" stroke-opacity="0.05"/>
    <path fill-rule="evenodd" clip-rule="evenodd" d="M17.9973 10.0655C17.3261 10.0655 16.7806 10.5827 16.7806 11.2207V14.0158C16.7806 14.369 16.4535 14.6552 16.0508 14.6552C15.6473 14.6552 15.3202 14.369 15.3202 14.0158V10.2132C15.3202 9.57444 14.7755 9.05725 14.1035 9.05725C13.4316 9.05725 12.8869 9.57444 12.8869 10.2132V13.2612C12.8869 13.6137 12.5597 13.9006 12.1563 13.9006C11.7536 13.9006 11.4264 13.6137 11.4264 13.2612V12.1568C11.4264 11.5188 10.881 11.0017 10.2098 11.0017C9.53786 11.0017 8.99312 11.5188 8.99312 12.1568V14.7718C8.99312 15.1243 8.66599 15.4112 8.26255 15.4112C7.85982 15.4112 7.5327 15.1243 7.5327 14.7718V14.4679C7.5327 13.8003 6.98795 13.2591 6.31603 13.2591C5.64411 13.2591 5.09937 13.8003 5.09937 14.4679V18.0975C5.09937 18.7651 5.6434 19.3071 6.31603 19.3071C6.98725 19.3071 7.5327 18.7651 7.5327 18.0975V17.7936C7.5327 17.4411 7.85982 17.1542 8.26255 17.1542C8.66599 17.1542 8.99312 17.4411 8.99312 17.7936V21.9425C8.99312 22.5805 9.53715 23.0984 10.2098 23.0984C10.881 23.0984 11.4264 22.5805 11.4264 21.9425V16.2831C11.4264 15.9305 11.7536 15.6436 12.1563 15.6436C12.5597 15.6436 12.8869 15.9305 12.8869 16.2831V19.134C12.8869 19.7727 13.4309 20.2899 14.1035 20.2899C14.7747 20.2899 15.3202 19.7727 15.3202 19.134V17.0376C15.3202 16.6851 15.6473 16.3982 16.0508 16.3982C16.4535 16.3982 16.7806 16.6851 16.7806 17.0376V19.2781C16.7806 19.9161 17.3254 20.4333 17.9973 20.4333C18.6692 20.4333 19.214 19.9161 19.214 19.2781V11.2207C19.214 10.5827 18.6699 10.0655 17.9973 10.0655Z" fill="white"/>
    <path fill-rule="evenodd" clip-rule="evenodd" d="M21.8904 13.187C21.2184 13.187 20.6737 13.7042 20.6737 14.3422V18.9439C20.6737 19.5819 21.2177 20.0991 21.8904 20.0991C22.5616 20.0991 23.107 19.5819 23.107 18.9439V14.3422C23.107 13.7042 22.5623 13.187 21.8904 13.187Z" fill="white"/>
    <path fill-rule="evenodd" clip-rule="evenodd" d="M25.7834 15.5271C25.1122 15.5271 24.5668 16.0443 24.5668 16.6823V17.8276C24.5668 18.4656 25.1115 18.9828 25.7834 18.9828C26.4554 18.9828 27.0001 18.4656 27.0001 17.8276V16.6823C27.0001 16.0443 26.4561 15.5271 25.7834 15.5271Z" fill="white"/>
  </g>
  <defs>
    <linearGradient id="paint0_linear_901_11087" x1="0.0267118" y1="-0.014993" x2="31.8675" y2="31.9089" gradientUnits="userSpaceOnUse">
      <stop stop-color="#F7B369"/>
      <stop offset="0.1965" stop-color="#F39A53"/>
      <stop offset="0.5668" stop-color="#ED6D34"/>
      <stop offset="0.8461" stop-color="#EA4E24"/>
      <stop offset="1" stop-color="#E8401F"/>
    </linearGradient>
    <clipPath id="clip0_901_11087">
      <rect width="32" height="32" fill="white"/>
    </clipPath>
  </defs>
</svg>
