<svg width="32" height="32" viewBox="0 0 32 32" fill="none" xmlns="http://www.w3.org/2000/svg">
  <g clip-path="url(#clip0_901_11097)">
    <path d="M0 12.88C0 8.32407 0 6.04611 0.900692 4.3122C1.6597 2.85106 2.85106 1.6597 4.3122 0.900692C6.04611 0 8.32407 0 12.88 0H19.12C23.6759 0 25.9539 0 27.6878 0.900692C29.1489 1.6597 30.3403 2.85106 31.0993 4.3122C32 6.04611 32 8.32407 32 12.88V19.12C32 23.6759 32 25.9539 31.0993 27.6878C30.3403 29.1489 29.1489 30.3403 27.6878 31.0993C25.9539 32 23.6759 32 19.12 32H12.88C8.32407 32 6.04611 32 4.3122 31.0993C2.85106 30.3403 1.6597 29.1489 0.900692 27.6878C0 25.9539 0 23.6759 0 19.12V12.88Z" fill="black"/>
    <path d="M0.5 12.88C0.5 10.5936 0.500402 8.90945 0.610871 7.57923C0.720844 6.25498 0.937305 5.32638 1.3444 4.54269C2.05597 3.17287 3.17287 2.05597 4.54269 1.3444C5.32638 0.937305 6.25498 0.720844 7.57923 0.610871C8.90945 0.500402 10.5936 0.5 12.88 0.5H19.12C21.4064 0.5 23.0905 0.500402 24.4208 0.610871C25.745 0.720844 26.6736 0.937305 27.4573 1.3444C28.8271 2.05597 29.944 3.17287 30.6556 4.54269C31.0627 5.32638 31.2792 6.25498 31.3891 7.57923C31.4996 8.90945 31.5 10.5936 31.5 12.88V19.12C31.5 21.4064 31.4996 23.0905 31.3891 24.4208C31.2792 25.745 31.0627 26.6736 30.6556 27.4573C29.944 28.8271 28.8271 29.944 27.4573 30.6556C26.6736 31.0627 25.745 31.2792 24.4208 31.3891C23.0905 31.4996 21.4064 31.5 19.12 31.5H12.88C10.5936 31.5 8.90945 31.4996 7.57923 31.3891C6.25498 31.2792 5.32638 31.0627 4.54269 30.6556C3.17287 29.944 2.05597 28.8271 1.3444 27.4573C0.937305 26.6736 0.720844 25.745 0.610871 24.4208C0.500402 23.0905 0.5 21.4064 0.5 19.12V12.88Z" stroke="white" stroke-opacity="0.05"/>
    <path d="M27.5 7.5H22.5V10.5H27.5V7.5Z" fill="#40AB5D"/>
    <path d="M27.5 11.5H22.5V14.5H27.5V11.5Z" fill="url(#paint0_linear_901_11097)"/>
    <path d="M27.5 15.5H22.5V18.5H27.5V15.5Z" fill="url(#paint1_linear_901_11097)"/>
    <path d="M9.5 19.5H4.5V22.5H9.5V19.5Z" fill="url(#paint2_linear_901_11097)"/>
    <path d="M15.5 19.5H10.5V22.5H15.5V19.5Z" fill="url(#paint3_linear_901_11097)"/>
    <path d="M21.5 19.5H16.5V22.5H21.5V19.5Z" fill="url(#paint4_linear_901_11097)"/>
    <path d="M27.5 19.5H22.5V22.5H27.5V19.5Z" fill="url(#paint5_linear_901_11097)"/>
    <path d="M21.5 15.5H16.5V18.5H21.5V15.5Z" fill="url(#paint6_linear_901_11097)"/>
    <path d="M15.5 15.5H10.5V18.5H15.5V15.5Z" fill="url(#paint7_linear_901_11097)"/>
    <path d="M15.5 11.5H10.5V14.5H15.5V11.5Z" fill="url(#paint8_linear_901_11097)"/>
  </g>
  <defs>
    <linearGradient id="paint0_linear_901_11097" x1="25.0245" y1="14.5259" x2="24.9751" y2="11.456" gradientUnits="userSpaceOnUse">
      <stop stop-color="#358C7B"/>
      <stop offset="0.5256" stop-color="#33A65E"/>
    </linearGradient>
    <linearGradient id="paint1_linear_901_11097" x1="22.4265" y1="18.346" x2="27.6284" y2="15.7613" gradientUnits="userSpaceOnUse">
      <stop stop-color="#222B90"/>
      <stop offset="1" stop-color="#367B99"/>
    </linearGradient>
    <linearGradient id="paint2_linear_901_11097" x1="4.50091" y1="21.0012" x2="9.49673" y2="21.0012" gradientUnits="userSpaceOnUse">
      <stop stop-color="#FF9900"/>
      <stop offset="1" stop-color="#FF8000"/>
    </linearGradient>
    <linearGradient id="paint3_linear_901_11097" x1="10.5056" y1="21.0012" x2="15.5014" y2="21.0012" gradientUnits="userSpaceOnUse">
      <stop stop-color="#FF8000"/>
      <stop offset="1" stop-color="#CC1953"/>
    </linearGradient>
    <linearGradient id="paint4_linear_901_11097" x1="16.4986" y1="21.0012" x2="21.4944" y2="21.0012" gradientUnits="userSpaceOnUse">
      <stop stop-color="#CC1953"/>
      <stop offset="1" stop-color="#241284"/>
    </linearGradient>
    <linearGradient id="paint5_linear_901_11097" x1="22.4973" y1="21.0012" x2="27.4931" y2="21.0012" gradientUnits="userSpaceOnUse">
      <stop stop-color="#222B90"/>
      <stop offset="1" stop-color="#3559A6"/>
    </linearGradient>
    <linearGradient id="paint6_linear_901_11097" x1="16.3014" y1="17.8089" x2="21.7125" y2="16.2659" gradientUnits="userSpaceOnUse">
      <stop stop-color="#CC1953"/>
      <stop offset="1" stop-color="#241284"/>
    </linearGradient>
    <linearGradient id="paint7_linear_901_11097" x1="10.3277" y1="16.0019" x2="15.7101" y2="17.9123" gradientUnits="userSpaceOnUse">
      <stop offset="0.00266984" stop-color="#FFCC00"/>
      <stop offset="0.9999" stop-color="#CE1938"/>
    </linearGradient>
    <linearGradient id="paint8_linear_901_11097" x1="10.9255" y1="11.0338" x2="15.1775" y2="14.8598" gradientUnits="userSpaceOnUse">
      <stop offset="0.00266984" stop-color="#FFD100"/>
      <stop offset="1" stop-color="#FD5A22"/>
    </linearGradient>
    <clipPath id="clip0_901_11097">
      <rect width="32" height="32" fill="white"/>
    </clipPath>
  </defs>
</svg>
