<svg width="32" height="32" viewBox="0 0 32 32" fill="none" xmlns="http://www.w3.org/2000/svg">
  <g clip-path="url(#clip0_901_11103)">
    <path d="M0 12.88C0 8.32407 0 6.04611 0.900692 4.3122C1.6597 2.85106 2.85106 1.6597 4.3122 0.900692C6.04611 0 8.32407 0 12.88 0H19.12C23.6759 0 25.9539 0 27.6878 0.900692C29.1489 1.6597 30.3403 2.85106 31.0993 4.3122C32 6.04611 32 8.32407 32 12.88V19.12C32 23.6759 32 25.9539 31.0993 27.6878C30.3403 29.1489 29.1489 30.3403 27.6878 31.0993C25.9539 32 23.6759 32 19.12 32H12.88C8.32407 32 6.04611 32 4.3122 31.0993C2.85106 30.3403 1.6597 29.1489 0.900692 27.6878C0 25.9539 0 23.6759 0 19.12V12.88Z" fill="#FCDB00"/>
    <path d="M12.88 0.5H19.12C21.4064 0.5 23.0905 0.500402 24.4208 0.610871C25.745 0.720844 26.6736 0.937305 27.4573 1.3444C28.8271 2.05597 29.944 3.17287 30.6556 4.54269C31.0627 5.32638 31.2792 6.25498 31.3891 7.57923C31.4996 8.90945 31.5 10.5936 31.5 12.88V19.12C31.5 21.4064 31.4996 23.0905 31.3891 24.4208C31.2792 25.745 31.0627 26.6736 30.6556 27.4573C29.944 28.8271 28.8271 29.944 27.4573 30.6556C26.6736 31.0627 25.745 31.2792 24.4208 31.3891C23.0905 31.4996 21.4064 31.5 19.12 31.5H12.88C10.5936 31.5 8.90945 31.4996 7.57923 31.3891C6.25498 31.2792 5.32638 31.0627 4.54269 30.6556C3.17287 29.944 2.05597 28.8271 1.3444 27.4573C0.937305 26.6736 0.720844 25.745 0.610871 24.4208C0.500402 23.0905 0.5 21.4064 0.5 19.12V12.88C0.5 10.5936 0.500402 8.90945 0.610871 7.57923C0.720844 6.25498 0.937305 5.32638 1.3444 4.54269C2.05597 3.17287 3.17287 2.05597 4.54269 1.3444C5.32638 0.937305 6.25498 0.720844 7.57923 0.610871C8.90945 0.500402 10.5936 0.5 12.88 0.5Z" stroke="black" stroke-opacity="0.1"/>
    <path fill-rule="evenodd" clip-rule="evenodd" d="M12.8082 8.20858L10.1189 11.4871L9.56177 15.0671L8.33371 15.719L8.15906 19.0361L8.62634 21.3613L10.1189 22.3591L11.5861 22.0489L12.8082 20.7894L12.5296 18.2201L12.2694 15.5668L11.1583 14.7094L11.3288 12.4828L13.5418 9.77122L16.1435 9.61918L18.2858 10.039L19.6875 11.1167L20.5049 12.9827L20.6613 15.0671L20.0477 16.2149L20.0638 18.3258L20.3314 20.8665L20.5835 21.8573H23.0762L23.8613 20.904L24.1671 18.7081L23.4657 15.3663L22.0964 14.5376L21.4404 11.1167L18.7924 8.01793L15.8638 7.14075L12.8082 8.20858Z" fill="white"/>
    <path fill-rule="evenodd" clip-rule="evenodd" d="M28.1503 23.5576C28.1111 23.5576 28.0709 23.5536 28.0302 23.5458C27.8817 23.5163 27.7366 23.4688 27.6094 23.4081C27.387 23.3022 27.1746 23.1833 26.9962 23.0811C26.6862 22.904 26.4157 22.7733 26.1043 22.7115C25.9824 22.6873 25.8112 22.638 25.7313 22.4898C25.6513 22.3416 25.7037 22.1746 25.7584 22.0458C25.7731 22.0082 25.7939 21.9662 25.819 21.9258C25.9126 21.7662 26.126 21.6851 26.3133 21.7405L26.3457 21.7499C26.4396 21.7766 26.5459 21.807 26.6336 21.8757C26.8189 22.0216 27.0352 22.1208 27.2643 22.2259C27.3622 22.2708 27.4599 22.3157 27.5553 22.3642C27.7794 22.477 27.9673 22.5104 28.1657 22.4726C28.3239 22.4422 28.4293 22.4874 28.4896 22.5307C28.55 22.5745 28.626 22.6599 28.6445 22.819C28.6496 22.8645 28.6527 22.9102 28.6552 22.95L28.6579 22.9882L28.6536 23.0435C28.6514 23.0726 28.6493 23.0981 28.6464 23.1241C28.6284 23.2674 28.5586 23.3881 28.4497 23.4659C28.3651 23.5264 28.2616 23.5576 28.1503 23.5576Z" fill="#333333"/>
    <path fill-rule="evenodd" clip-rule="evenodd" d="M26.9408 18.3882C26.9201 18.3882 26.9008 18.3873 26.8828 18.3864C26.8688 18.3857 26.8548 18.385 26.841 18.385C26.6319 18.3836 26.4507 18.2823 26.3996 18.1384C26.3671 18.0462 26.3763 17.9439 26.4252 17.8497C26.4832 17.7381 26.5883 17.6528 26.7141 17.6155C26.9412 17.5493 27.1876 17.4927 27.456 17.5222C27.5873 17.5375 27.7184 17.5488 27.8497 17.5601C28.0658 17.5799 28.2896 17.5748 28.5545 17.5435C28.7785 17.5171 28.8824 17.4721 28.9515 17.3715C29.0311 17.2586 29.2277 17.2281 29.3349 17.2548C29.4527 17.2839 29.5695 17.3939 29.6008 17.5053C29.6502 17.6773 29.6428 17.9367 29.3271 18.1923C29.2277 18.2703 29.0854 18.2846 29.0093 18.2863C28.8078 18.2913 28.6058 18.2907 28.4041 18.29L28.2119 18.2896C28.0661 18.3024 27.9207 18.3035 27.7799 18.3046C27.5274 18.3066 27.2888 18.3085 27.0601 18.3735C27.0184 18.3852 26.9779 18.3882 26.9408 18.3882Z" fill="#333333"/>
    <path fill-rule="evenodd" clip-rule="evenodd" d="M26.2279 15.1332C26.1244 15.1332 26.0198 15.095 25.9422 15.028C25.8742 14.9694 25.8349 14.894 25.8311 14.8157C25.8248 14.6987 25.8261 14.5741 25.8801 14.4635C25.9433 14.3309 26.0328 14.2024 26.1385 14.0929C26.534 13.6834 26.8668 13.2102 27.1889 12.7526L27.3128 12.5768C27.4085 12.4427 27.5272 12.2765 27.767 12.2263C27.8724 12.2031 28.069 12.1988 28.1707 12.284C28.2202 12.3255 28.2466 12.3847 28.2431 12.4465C28.2379 12.5404 28.2243 12.649 28.1645 12.74C27.9769 13.0252 27.7713 13.3259 27.518 13.6865C27.2683 14.0433 27.0106 14.4042 26.7521 14.7588C26.6834 14.8539 26.5974 14.948 26.497 15.0379C26.4351 15.093 26.3599 15.1105 26.3151 15.1205L26.2619 15.1318C26.2505 15.1327 26.2393 15.1332 26.2279 15.1332Z" fill="#333333"/>
    <path fill-rule="evenodd" clip-rule="evenodd" d="M4.3961 23.043C4.32613 23.043 4.25986 23.0334 4.19965 23.0138C4.06876 22.9672 3.97148 22.8723 3.92811 22.7518C3.89316 22.655 3.89977 22.5558 3.94613 22.4801C3.98533 22.4157 4.02728 22.347 4.09386 22.2959C4.19044 22.2226 4.29913 22.1402 4.42514 22.0856C4.94161 21.8615 5.44526 21.5811 5.93222 21.3099C6.1145 21.2085 6.29671 21.107 6.48001 21.008C6.59288 20.9483 6.72479 20.9383 6.83782 20.9371C6.93478 20.9362 7.02585 20.9883 7.08661 21.0808C7.13934 21.1613 7.17681 21.2878 7.12305 21.4019C7.02246 21.6158 6.86859 21.7851 6.66561 21.9049C6.56274 21.9659 6.46057 22.0287 6.35841 22.0915C6.19675 22.1909 6.0295 22.2938 5.85981 22.3888C5.68177 22.488 5.49941 22.5828 5.32295 22.6745C5.1738 22.7519 5.02457 22.8294 4.87707 22.9101C4.71761 22.9973 4.5484 23.043 4.3961 23.043Z" fill="#333333"/>
    <path fill-rule="evenodd" clip-rule="evenodd" d="M4.4765 18.1776C4.41865 18.1776 4.36111 18.1768 4.30421 18.1759L4.18552 18.1744C4.09697 18.1734 3.99875 18.1558 3.90855 18.1249C3.74098 18.0668 3.63717 17.9428 3.6304 17.7929C3.62253 17.6245 3.73295 17.4754 3.89895 17.4306C4.08745 17.3814 4.28374 17.3453 4.48374 17.3229C4.59369 17.3106 4.70443 17.3052 4.81155 17.2999C4.95409 17.293 5.08883 17.2864 5.21807 17.2648C5.65883 17.1907 6.02844 17.3087 6.36223 17.4468C6.52311 17.514 6.61 17.651 6.59536 17.8133C6.57836 17.9906 6.40575 18.1366 6.2019 18.1471C6.17278 18.1489 6.14374 18.1488 6.09778 18.1486L5.9927 18.1448C5.6205 18.0695 5.18257 18.1119 4.84272 18.1573C4.7208 18.1737 4.59786 18.1776 4.4765 18.1776Z" fill="#333333"/>
    <path fill-rule="evenodd" clip-rule="evenodd" d="M6.45869 14.8905C6.45475 14.8905 6.45066 14.8904 6.44664 14.8903C6.32685 14.8855 6.20257 14.8806 6.08916 14.8253C5.90664 14.7364 5.71522 14.6361 5.55206 14.505C4.97624 14.0452 4.52219 13.5584 4.16439 13.0173C3.91701 12.6441 3.78368 12.2511 3.7681 11.8492C3.76424 11.713 3.89395 11.6252 3.97155 11.5848C4.08103 11.5291 4.23514 11.5834 4.29583 11.6666C4.35745 11.7519 4.41987 11.8449 4.46174 11.9517C4.75665 12.6846 5.35105 13.2175 5.93442 13.7005C5.99266 13.7487 6.07294 13.7856 6.15795 13.8247C6.19297 13.8408 6.22784 13.8569 6.26192 13.8739C6.30513 13.8957 6.34936 13.9151 6.39367 13.9347C6.47718 13.9718 6.56368 14.01 6.64679 14.0619C6.7972 14.1533 6.88606 14.3192 6.87134 14.4833C6.84214 14.7131 6.65884 14.8905 6.45869 14.8905Z" fill="#333333"/>
    <path fill-rule="evenodd" clip-rule="evenodd" d="M23.4423 19.2719C23.4061 19.8171 23.2401 19.8113 23.234 20.3236C23.2281 20.836 23.2285 21.1005 23.0074 21.1866C22.7861 21.2727 22.1214 21.4317 21.4428 21.4325C20.7642 21.4333 20.7625 21.469 20.6093 21.2852C20.4561 21.1015 20.4015 20.4024 20.3768 19.6423C20.3521 18.8823 20.3273 18.2467 20.2183 17.7307C20.1095 17.2148 20.2538 16.0935 20.4175 15.7394C20.5812 15.3851 20.5524 15.4281 20.6775 15.3734C20.6775 15.3734 21.1682 15.3998 21.4428 15.3734C21.7173 15.3472 22.3478 15.237 22.5935 15.3857C22.8391 15.5343 22.9566 15.8239 23.1455 16.6585C23.3345 17.4931 23.4786 18.7267 23.4423 19.2719ZM20.0336 11.7257C19.9329 11.2221 19.9842 11.5186 19.6494 10.8685C19.3145 10.2184 19.1297 10.2452 18.5362 9.85744C17.9427 9.46964 16.6843 9.11161 16.4922 9.04527C16.3001 8.97893 16.3612 9.01939 16.1512 9.00831C15.9413 8.99715 15.6133 8.85347 14.5547 9.00831C13.4961 9.16299 12.6478 9.7825 12.039 10.4981C11.4302 11.2137 11.0567 12.0201 10.7402 12.6C10.4238 13.1799 10.4769 13.6745 10.4402 14.0076C10.4035 14.3407 10.3474 14.2949 10.2301 14.3667C10.1129 14.4383 9.85068 14.3667 9.85068 14.3667C9.72593 14.3427 9.88705 14.0312 9.91231 13.7734C9.93758 13.5155 9.86155 13.2024 9.85068 12.9867C9.83967 12.771 9.90074 12.7297 9.96843 12.6169C10.036 12.504 10.2829 12.0404 10.4082 11.7887C10.5336 11.537 10.8322 10.9133 10.9719 10.6653C11.1116 10.4175 11.2335 10.0476 12.001 9.38339C12.7686 8.71924 13.1886 8.56285 13.583 8.40127C13.9776 8.23969 14.789 7.80075 15.0126 7.72604C15.2363 7.65126 15.3243 7.62925 15.6665 7.5991C16.0086 7.56903 16.9211 7.71178 17.1652 7.73674C17.4093 7.76185 17.3878 7.77386 17.6563 7.99046C17.9249 8.20714 18.3094 8.60664 18.6565 8.85595C19.0036 9.10525 19.3868 9.36611 19.5223 9.48793C19.6579 9.60976 19.9358 9.81675 19.9663 10.0284C19.9968 10.24 20.1576 10.3467 20.2698 10.4918C20.382 10.6368 20.4017 10.7985 20.6742 11.8288C20.9467 12.8591 21.0144 12.8635 21.079 13.2653C21.1434 13.6671 21.0819 13.9442 20.9614 14.0953C20.8411 14.2463 20.8026 14.1717 20.7164 14.0914C20.6302 14.0111 20.579 13.5332 20.4009 13.0013C20.2228 12.4693 20.1344 12.2293 20.0336 11.7257ZM11.9047 16.9802C12.0355 17.8126 12.2639 19.6028 12.1189 20.3534C11.974 21.104 11.7276 21.4751 11.456 21.6532C11.1844 21.8314 10.5882 21.9333 9.90428 21.726C9.22032 21.5186 8.95784 21.3574 8.71361 20.6417C8.46938 19.926 8.60539 20.0442 8.51511 19.5668C8.42483 19.0894 8.31189 18.9316 8.33259 18.5613C8.35337 18.191 8.27537 16.9903 8.35911 16.5898C8.44286 16.1893 8.41759 15.8015 8.79003 15.7355C9.16255 15.6696 9.38513 15.8266 9.63015 15.7333C9.87516 15.6401 9.85021 15.601 10.0994 15.5594C10.3361 15.52 10.7974 15.3851 11.0978 15.5217C11.3982 15.6582 11.774 16.1477 11.9047 16.9802ZM24.2399 17.7482C24.0761 17.2811 24.1476 16.8596 24.0204 16.1034C23.8932 15.3472 23.563 15.0889 23.563 15.0889C23.563 15.0889 23.4068 14.6232 22.7883 14.4495C22.1699 14.276 22.3506 14.4133 22.2867 14.0613C22.2228 13.7091 22.2109 13.6501 22.1305 13.2927C22.0501 12.9355 22.0283 12.7694 22.0103 12.3952C21.9924 12.021 21.9918 11.5993 21.8221 11.2655C21.6525 10.9319 21.3354 10.3046 20.9993 9.74677C20.6632 9.18895 20.4492 8.90655 19.9232 8.4721C19.3972 8.03766 19.0738 7.58221 18.541 7.30012C18.0081 7.01811 18.0451 6.9372 17.5127 6.79569C16.9804 6.65418 16.9071 6.73927 16.2119 6.68076C15.5169 6.62225 15.4489 6.57467 14.9197 6.68076C14.3905 6.78686 14.0465 7.09584 13.4258 7.38064C12.805 7.66544 12.5509 7.65676 12.1276 8.01813C11.7043 8.3795 11.7975 8.49047 11.4418 8.78457C11.0861 9.07867 10.8741 9.24506 10.396 10.0515C9.91782 10.858 9.57017 11.6766 9.39836 12.0569C9.22662 12.4372 9.07046 12.5513 9.04914 12.9775C9.02781 13.4039 9.11635 13.3372 9.01466 13.8267C8.91297 14.3161 8.80546 14.7156 8.80546 14.7156C8.80546 14.7156 8.18084 14.7037 7.81966 15.3857C7.45839 16.0677 7.4887 16.3398 7.4399 16.7393C7.3911 17.1389 7.48925 18.1958 7.56307 18.8937C7.6369 19.5915 7.68413 20.5849 7.80667 20.9376C7.92914 21.2901 8.37257 22.2884 9.33563 22.5861C10.2987 22.8837 10.5159 22.9249 10.8004 22.8537C11.085 22.7826 11.5895 22.6385 11.9454 22.5193C12.3013 22.4002 12.7251 22.0202 12.9224 21.1532C13.1196 20.2862 13.132 19.8566 13.0533 18.6589C12.9746 17.4613 12.9822 16.83 12.6465 15.9227C12.3109 15.0154 11.8188 14.8842 11.5957 14.6803C11.3726 14.4765 11.3548 14.5379 11.384 14.2604C11.4133 13.9829 11.3479 13.3525 12.0557 12.2501C12.7634 11.1476 13.4957 10.4591 14.5545 10.1493C15.6133 9.83938 16.399 10.0889 16.7904 10.2307C17.1819 10.3726 17.2932 10.4235 17.6321 10.487C17.9709 10.5506 18.2079 10.7487 18.42 10.9994C18.6321 11.2502 19.0727 11.8731 19.2686 12.3033C19.4644 12.7335 19.3527 12.9369 19.5727 13.4124C19.7928 13.8879 20.0086 14.0402 19.9628 14.3667C19.9169 14.6931 19.8691 14.5989 19.7878 14.831C19.7067 15.0632 19.394 15.5016 19.3488 16.0358C19.3034 16.5701 19.2624 17.0116 19.272 17.6014C19.2815 18.1911 19.4121 18.381 19.4039 19.0633C19.3958 19.7455 19.3385 20.8816 19.5393 21.4325C19.7401 21.9834 19.8767 22.3458 20.1148 22.4407C20.3529 22.5355 20.2969 22.5462 20.4438 22.5348C20.4438 22.5348 20.6095 22.4412 21.0431 22.4508C21.4765 22.4602 22.6608 22.5376 23.2963 22.1798C23.9317 21.822 24.0469 21.624 24.1862 20.4574C24.3256 19.2908 24.4036 18.2152 24.2399 17.7482Z" fill="#333333"/>
  </g>
  <defs>
    <clipPath id="clip0_901_11103">
      <rect width="32" height="32" fill="white"/>
    </clipPath>
  </defs>
</svg>
