<svg width="144" height="32" viewBox="0 0 144 32" fill="none" xmlns="http://www.w3.org/2000/svg">
  <rect width="144" height="32" rx="8" fill="white"/>
  <path d="M7.375 15.25C7.375 14.6287 7.87868 14.125 8.5 14.125C9.12132 14.125 9.625 14.6287 9.625 15.25V16.75C9.625 17.3713 9.12132 17.875 8.5 17.875C7.87868 17.875 7.375 17.3713 7.375 16.75V15.25Z" fill="#0066D9"/>
  <path d="M11.125 11.5C11.125 10.8787 11.6287 10.375 12.25 10.375C12.8713 10.375 13.375 10.8787 13.375 11.5V16C13.375 16.6213 12.8713 17.125 12.25 17.125C11.6287 17.125 11.125 16.6213 11.125 16V11.5Z" fill="#EA4335"/>
  <path d="M11.125 18.9473C11.125 18.3259 11.6287 17.8223 12.25 17.8223C12.8713 17.8223 13.375 18.3259 13.375 18.9473V20.4473C13.375 21.0686 12.8713 21.5723 12.25 21.5723C11.6287 21.5723 11.125 21.0686 11.125 20.4473V18.9473Z" fill="#EA4335"/>
  <path d="M22.375 15.25C22.375 14.6287 22.8787 14.125 23.5 14.125C24.1213 14.125 24.625 14.6287 24.625 15.25V16.75C24.625 17.3713 24.1213 17.875 23.5 17.875C22.8787 17.875 22.375 17.3713 22.375 16.75V15.25Z" fill="#4285F4"/>
  <path d="M14.875 7.75C14.875 7.12868 15.3787 6.625 16 6.625C16.6213 6.625 17.125 7.12868 17.125 7.75V9.25C17.125 9.87132 16.6213 10.375 16 10.375C15.3787 10.375 14.875 9.87132 14.875 9.25V7.75Z" fill="#FAB908"/>
  <path d="M18.625 11.5C18.625 10.8787 19.1287 10.375 19.75 10.375C20.3713 10.375 20.875 10.8787 20.875 11.5V13C20.875 13.6213 20.3713 14.125 19.75 14.125C19.1287 14.125 18.625 13.6213 18.625 13V11.5Z" fill="#34A853"/>
  <path d="M18.625 16.6973C18.625 16.0759 19.1287 15.5723 19.75 15.5723C20.3713 15.5723 20.875 16.0759 20.875 16.6973V20.4473C20.875 21.0686 20.3713 21.5723 19.75 21.5723C19.1287 21.5723 18.625 21.0686 18.625 20.4473V16.6973Z" fill="#34A853"/>
  <path d="M14.875 22.75C14.875 22.1287 15.3787 21.625 16 21.625C16.6213 21.625 17.125 22.1287 17.125 22.75V24.25C17.125 24.8713 16.6213 25.375 16 25.375C15.3787 25.375 14.875 24.8713 14.875 24.25V22.75Z" fill="#FAB908"/>
  <path d="M14.875 12.625C14.875 12.0037 15.3787 11.5 16 11.5C16.6213 11.5 17.125 12.0037 17.125 12.625V19.375C17.125 19.9963 16.6213 20.5 16 20.5C15.3787 20.5 14.875 19.9963 14.875 19.375V12.625Z" fill="#FAB908"/>
  <path d="M33.5469 12H36.9688V11.3672H34.25V6.36328H33.5469V12ZM38.3395 7.25C38.5778 7.25 38.7653 7.05859 38.7653 6.82422C38.7653 6.58594 38.5778 6.39844 38.3395 6.39844C38.1052 6.39844 37.9138 6.58594 37.9138 6.82422C37.9138 7.05859 38.1052 7.25 38.3395 7.25ZM37.9997 12H38.6794V7.9375H37.9997V12ZM41.3666 12.0781C42.2728 12.0781 42.9447 11.5781 42.9447 10.8672V10.8633C42.9447 10.2852 42.6478 9.96094 41.8275 9.76172L41.183 9.60547C40.7337 9.49609 40.5502 9.30469 40.5502 9.02734V9.02344C40.5502 8.66406 40.8548 8.42578 41.347 8.42578C41.8509 8.42578 42.1517 8.6875 42.2064 9.08203L42.2103 9.10938H42.8587L42.8548 9.05859C42.8041 8.37891 42.2377 7.85938 41.347 7.85938C40.4681 7.85938 39.8548 8.35547 39.8548 9.05469V9.05859C39.8548 9.64453 40.2259 10 40.9916 10.1836L41.6361 10.3398C42.097 10.4531 42.2494 10.6172 42.2494 10.9102V10.9141C42.2494 11.2812 41.9212 11.5117 41.3705 11.5117C40.8158 11.5117 40.515 11.2734 40.433 10.8672L40.4252 10.8281H39.7455L39.7494 10.8633C39.8314 11.5898 40.4095 12.0781 41.3666 12.0781ZM45.292 12.0781C45.4248 12.0781 45.5694 12.0625 45.6553 12.0508V11.5C45.5967 11.5039 45.5186 11.5156 45.4366 11.5156C45.0733 11.5156 44.8819 11.3945 44.8819 10.9609V8.5H45.6553V7.9375H44.8819V6.83984H44.1788V7.9375H43.585V8.5H44.1788V10.9648C44.1788 11.7422 44.5459 12.0781 45.292 12.0781ZM48.2605 12.0781C49.1472 12.0781 49.8112 11.5469 49.9441 10.875L49.9519 10.8359H49.2839L49.2722 10.8711C49.155 11.2188 48.7917 11.4766 48.2761 11.4766C47.5534 11.4766 47.0925 10.9883 47.0769 10.1523H50.0027V9.90234C50.0027 8.68359 49.3269 7.85938 48.2175 7.85938C47.1081 7.85938 46.3894 8.72266 46.3894 9.98047V9.98438C46.3894 11.2617 47.0925 12.0781 48.2605 12.0781ZM48.2136 8.46094C48.8073 8.46094 49.2448 8.83203 49.3112 9.62109H47.0886C47.1628 8.86328 47.6237 8.46094 48.2136 8.46094ZM51.0102 12H51.6898V9.60938C51.6898 8.91797 52.1078 8.46094 52.7484 8.46094C53.3734 8.46094 53.682 8.82422 53.682 9.48438V12H54.3617V9.36328C54.3617 8.4375 53.8461 7.85938 52.9555 7.85938C52.3383 7.85938 51.9242 8.13672 51.7055 8.51562H51.6898V7.9375H51.0102V12ZM59.1931 12.0781C60.3142 12.0781 61.072 11.2656 61.072 9.96875V9.96094C61.072 8.66406 60.3103 7.85938 59.1892 7.85938C58.0681 7.85938 57.3103 8.66797 57.3103 9.96094V9.96875C57.3103 11.2617 58.0642 12.0781 59.1931 12.0781ZM59.197 11.4766C58.4783 11.4766 58.0056 10.9258 58.0056 9.96875V9.96094C58.0056 9.01172 58.4822 8.46094 59.1892 8.46094C59.908 8.46094 60.3767 9.00781 60.3767 9.96094V9.96875C60.3767 10.9219 59.9119 11.4766 59.197 11.4766ZM62.0795 12H62.7592V9.60938C62.7592 8.91797 63.1772 8.46094 63.8178 8.46094C64.4428 8.46094 64.7514 8.82422 64.7514 9.48438V12H65.4311V9.36328C65.4311 8.4375 64.9155 7.85938 64.0248 7.85938C63.4077 7.85938 62.9936 8.13672 62.7748 8.51562H62.7592V7.9375H62.0795V12Z" fill="#171A1C"/>
  <path d="M38.1543 25.1641C40.8271 25.1641 42.4062 23.5713 42.4062 20.8984V19.8867H38.3047V21.1377H40.8955V21.3018C40.875 22.7988 39.7676 23.8105 38.168 23.8105C36.2881 23.8105 35.1123 22.375 35.1123 20.0166V20.0098C35.1123 17.6992 36.2539 16.3252 38.1406 16.3252C39.4258 16.3252 40.3213 16.9883 40.7383 18.1299L40.7588 18.2051H42.3311L42.3037 18.082C41.8936 16.3047 40.4443 14.9717 38.1338 14.9717C35.3311 14.9717 33.5537 16.9062 33.5537 20.0166V20.0234C33.5537 23.1953 35.3311 25.1641 38.1543 25.1641ZM46.8154 25.1436C48.873 25.1436 50.2266 23.7217 50.2266 21.4043V21.3906C50.2266 19.0869 48.8594 17.6719 46.8086 17.6719C44.7646 17.6719 43.4043 19.0938 43.4043 21.3906V21.4043C43.4043 23.7148 44.751 25.1436 46.8154 25.1436ZM46.8223 23.9062C45.667 23.9062 44.915 22.9971 44.915 21.4043V21.3906C44.915 19.8184 45.6738 18.9092 46.8086 18.9092C47.9639 18.9092 48.7158 19.8184 48.7158 21.3906V21.4043C48.7158 22.9902 47.9775 23.9062 46.8223 23.9062ZM54.458 25.1436C56.5156 25.1436 57.8691 23.7217 57.8691 21.4043V21.3906C57.8691 19.0869 56.502 17.6719 54.4512 17.6719C52.4072 17.6719 51.0469 19.0938 51.0469 21.3906V21.4043C51.0469 23.7148 52.3936 25.1436 54.458 25.1436ZM54.4648 23.9062C53.3096 23.9062 52.5576 22.9971 52.5576 21.4043V21.3906C52.5576 19.8184 53.3164 18.9092 54.4512 18.9092C55.6064 18.9092 56.3584 19.8184 56.3584 21.3906V21.4043C56.3584 22.9902 55.6201 23.9062 54.4648 23.9062ZM62.1621 27.5361C64.1924 27.5361 65.4639 26.4424 65.4639 24.8018V17.8086H63.9805V19.0322H63.9463C63.5225 18.2188 62.7295 17.6719 61.7178 17.6719C59.8926 17.6719 58.6895 19.0869 58.6895 21.3428V21.3496C58.6895 23.5918 59.8789 25.0068 61.6836 25.0068C62.7158 25.0068 63.5361 24.5078 63.9463 23.7285H63.9805V24.7129C63.9805 25.7178 63.3311 26.3467 62.1553 26.3467C61.2324 26.3467 60.6104 26.0322 60.4121 25.5742L60.3848 25.5195H58.9219L58.9287 25.5811C59.1475 26.6816 60.3164 27.5361 62.1621 27.5361ZM62.1006 23.8037C60.9316 23.8037 60.2002 22.874 60.2002 21.3701V21.3633C60.2002 19.8799 60.9316 18.9365 62.1006 18.9365C63.2217 18.9365 63.9805 19.8867 63.9805 21.3633V21.3701C63.9805 22.8535 63.2285 23.8037 62.1006 23.8037ZM66.9814 25H68.458V15.1357H66.9814V25ZM73.0449 25.1436C74.7881 25.1436 75.8955 24.1045 76.1279 22.9629L76.1416 22.8877H74.7402L74.7197 22.9424C74.5352 23.4824 73.9541 23.9336 73.0791 23.9336C71.9033 23.9336 71.1582 23.1406 71.1309 21.7803H76.2236V21.2812C76.2236 19.1211 74.9863 17.6719 72.9697 17.6719C70.9531 17.6719 69.6543 19.1758 69.6543 21.4248V21.4316C69.6543 23.7012 70.9326 25.1436 73.0449 25.1436ZM72.9766 18.8818C73.9404 18.8818 74.6377 19.4902 74.7607 20.7344H71.1514C71.2812 19.5312 72.0195 18.8818 72.9766 18.8818ZM80.3936 25H81.9248V21.6299H84.0645C85.999 21.6299 87.3389 20.3105 87.3389 18.3828V18.3691C87.3389 16.4346 85.999 15.1357 84.0645 15.1357H80.3936V25ZM83.6816 16.4277C85.0146 16.4277 85.7803 17.1455 85.7803 18.376V18.3896C85.7803 19.627 85.0146 20.3447 83.6816 20.3447H81.9248V16.4277H83.6816ZM91.2764 25.1436C93.334 25.1436 94.6875 23.7217 94.6875 21.4043V21.3906C94.6875 19.0869 93.3203 17.6719 91.2695 17.6719C89.2256 17.6719 87.8652 19.0938 87.8652 21.3906V21.4043C87.8652 23.7148 89.2119 25.1436 91.2764 25.1436ZM91.2832 23.9062C90.1279 23.9062 89.376 22.9971 89.376 21.4043V21.3906C89.376 19.8184 90.1348 18.9092 91.2695 18.9092C92.4248 18.9092 93.1768 19.8184 93.1768 21.3906V21.4043C93.1768 22.9902 92.4385 23.9062 91.2832 23.9062ZM98.5156 25.1436C99.5479 25.1436 100.341 24.624 100.771 23.7832H100.799V25H102.282V15.1357H100.799V19.0322H100.771C100.341 18.1846 99.5205 17.6719 98.502 17.6719C96.6973 17.6719 95.5078 19.1074 95.5078 21.3975V21.4043C95.5078 23.6943 96.6836 25.1436 98.5156 25.1436ZM98.9053 23.8721C97.7363 23.8721 97.0186 22.9355 97.0186 21.4043V21.3975C97.0186 19.8799 97.7432 18.9365 98.9053 18.9365C100.013 18.9365 100.806 19.9072 100.806 21.3975V21.4043C100.806 22.9014 100.02 23.8721 98.9053 23.8721ZM106.89 25.1436C108.619 25.1436 109.822 24.0361 109.979 22.5938L109.986 22.5459H108.564L108.558 22.6006C108.38 23.3799 107.799 23.9062 106.89 23.9062C105.748 23.9062 104.989 22.9834 104.989 21.4111V21.4043C104.989 19.8662 105.734 18.9092 106.883 18.9092C107.847 18.9092 108.394 19.5039 108.551 20.208L108.564 20.2627H109.973L109.966 20.2148C109.843 18.8613 108.722 17.6719 106.869 17.6719C104.818 17.6719 103.479 19.1143 103.479 21.3906V21.3975C103.479 23.7012 104.791 25.1436 106.89 25.1436ZM113.145 25.1299C114.095 25.1299 114.929 24.6377 115.346 23.8652H115.373V25H116.856V20.0439C116.856 18.6016 115.742 17.6719 113.985 17.6719C112.215 17.6719 111.142 18.6221 111.039 19.8594L111.032 19.9346H112.427L112.44 19.873C112.563 19.2988 113.09 18.8955 113.944 18.8955C114.86 18.8955 115.373 19.374 115.373 20.167V20.707L113.418 20.8232C111.716 20.9258 110.745 21.6914 110.745 22.9424V22.9561C110.745 24.248 111.709 25.1299 113.145 25.1299ZM112.235 22.9219V22.9082C112.235 22.2998 112.728 21.9102 113.616 21.8555L115.373 21.7461V22.3066C115.373 23.2432 114.587 23.9473 113.548 23.9473C112.755 23.9473 112.235 23.5508 112.235 22.9219ZM120.985 25.1436C122.681 25.1436 123.911 24.2412 123.911 22.9287V22.9219C123.911 21.8896 123.351 21.3086 121.881 20.9668L120.712 20.7002C119.939 20.5156 119.646 20.2148 119.646 19.7705V19.7637C119.646 19.1895 120.145 18.8135 120.938 18.8135C121.771 18.8135 122.264 19.251 122.353 19.8799L122.359 19.9277H123.747L123.74 19.8457C123.665 18.6221 122.64 17.6719 120.938 17.6719C119.283 17.6719 118.162 18.5537 118.162 19.8389V19.8457C118.162 20.8916 118.839 21.5479 120.206 21.8623L121.382 22.1289C122.154 22.3135 122.414 22.5801 122.414 23.0449V23.0518C122.414 23.6328 121.881 24.002 120.992 24.002C120.083 24.002 119.591 23.6123 119.454 22.9492L119.44 22.8809H117.978L117.984 22.9424C118.135 24.2549 119.188 25.1436 120.985 25.1436ZM127.582 25.1436C127.883 25.1436 128.163 25.1094 128.334 25.082V23.9404C128.225 23.9541 128.095 23.9678 127.938 23.9678C127.315 23.9678 126.987 23.749 126.987 23.0176V18.9844H128.334V17.8086H126.987V15.9355H125.477V17.8086H124.444V18.9844H125.477V23.1064C125.477 24.542 126.16 25.1436 127.582 25.1436ZM132.251 25.1436C133.946 25.1436 135.177 24.2412 135.177 22.9287V22.9219C135.177 21.8896 134.616 21.3086 133.146 20.9668L131.978 20.7002C131.205 20.5156 130.911 20.2148 130.911 19.7705V19.7637C130.911 19.1895 131.41 18.8135 132.203 18.8135C133.037 18.8135 133.529 19.251 133.618 19.8799L133.625 19.9277H135.013L135.006 19.8457C134.931 18.6221 133.905 17.6719 132.203 17.6719C130.549 17.6719 129.428 18.5537 129.428 19.8389V19.8457C129.428 20.8916 130.104 21.5479 131.472 21.8623L132.647 22.1289C133.42 22.3135 133.68 22.5801 133.68 23.0449V23.0518C133.68 23.6328 133.146 24.002 132.258 24.002C131.349 24.002 130.856 23.6123 130.72 22.9492L130.706 22.8809H129.243L129.25 22.9424C129.4 24.2549 130.453 25.1436 132.251 25.1436Z" fill="#171A1C"/>
  <rect x="0.5" y="0.5" width="143" height="31" rx="7.5" stroke="black" stroke-opacity="0.2"/>
</svg>
