<svg width="32" height="32" viewBox="0 0 32 32" fill="none" xmlns="http://www.w3.org/2000/svg">
  <g clip-path="url(#clip0_901_11086)">
    <path d="M0 12.88C0 8.32407 0 6.04611 0.900692 4.3122C1.6597 2.85106 2.85106 1.6597 4.3122 0.900692C6.04611 0 8.32407 0 12.88 0H19.12C23.6759 0 25.9539 0 27.6878 0.900692C29.1489 1.6597 30.3403 2.85106 31.0993 4.3122C32 6.04611 32 8.32407 32 12.88V19.12C32 23.6759 32 25.9539 31.0993 27.6878C30.3403 29.1489 29.1489 30.3403 27.6878 31.0993C25.9539 32 23.6759 32 19.12 32H12.88C8.32407 32 6.04611 32 4.3122 31.0993C2.85106 30.3403 1.6597 29.1489 0.900692 27.6878C0 25.9539 0 23.6759 0 19.12V12.88Z" fill="white"/>
    <path d="M0.5 12.88C0.5 10.5936 0.500402 8.90945 0.610871 7.57923C0.720844 6.25498 0.937305 5.32638 1.3444 4.54269C2.05597 3.17287 3.17287 2.05597 4.54269 1.3444C5.32638 0.937305 6.25498 0.720844 7.57923 0.610871C8.90945 0.500402 10.5936 0.5 12.88 0.5H19.12C21.4064 0.5 23.0905 0.500402 24.4208 0.610871C25.745 0.720844 26.6736 0.937305 27.4573 1.3444C28.8271 2.05597 29.944 3.17287 30.6556 4.54269C31.0627 5.32638 31.2792 6.25498 31.3891 7.57923C31.4996 8.90945 31.5 10.5936 31.5 12.88V19.12C31.5 21.4064 31.4996 23.0905 31.3891 24.4208C31.2792 25.745 31.0627 26.6736 30.6556 27.4573C29.944 28.8271 28.8271 29.944 27.4573 30.6556C26.6736 31.0627 25.745 31.2792 24.4208 31.3891C23.0905 31.4996 21.4064 31.5 19.12 31.5H12.88C10.5936 31.5 8.90945 31.4996 7.57923 31.3891C6.25498 31.2792 5.32638 31.0627 4.54269 30.6556C3.17287 29.944 2.05597 28.8271 1.3444 27.4573C0.937305 26.6736 0.720844 25.745 0.610871 24.4208C0.500402 23.0905 0.5 21.4064 0.5 19.12V12.88Z" stroke="black" stroke-opacity="0.1"/>
    <path d="M4.5 15C4.5 14.1716 5.17157 13.5 6 13.5C6.82843 13.5 7.5 14.1716 7.5 15V17C7.5 17.8284 6.82843 18.5 6 18.5C5.17157 18.5 4.5 17.8284 4.5 17V15Z" fill="#0066D9"/>
    <path d="M9.5 10C9.5 9.17157 10.1716 8.5 11 8.5C11.8284 8.5 12.5 9.17157 12.5 10V16C12.5 16.8284 11.8284 17.5 11 17.5C10.1716 17.5 9.5 16.8284 9.5 16V10Z" fill="#EA4335"/>
    <path d="M9.5 19.9302C9.5 19.1017 10.1716 18.4302 11 18.4302C11.8284 18.4302 12.5 19.1017 12.5 19.9302V21.9302C12.5 22.7586 11.8284 23.4302 11 23.4302C10.1716 23.4302 9.5 22.7586 9.5 21.9302V19.9302Z" fill="#EA4335"/>
    <path d="M24.5 15C24.5 14.1716 25.1716 13.5 26 13.5C26.8284 13.5 27.5 14.1716 27.5 15V17C27.5 17.8284 26.8284 18.5 26 18.5C25.1716 18.5 24.5 17.8284 24.5 17V15Z" fill="#4285F4"/>
    <path d="M14.5 5C14.5 4.17157 15.1716 3.5 16 3.5C16.8284 3.5 17.5 4.17157 17.5 5V7C17.5 7.82843 16.8284 8.5 16 8.5C15.1716 8.5 14.5 7.82843 14.5 7V5Z" fill="#FAB908"/>
    <path d="M19.5 10C19.5 9.17157 20.1716 8.5 21 8.5C21.8284 8.5 22.5 9.17157 22.5 10V12C22.5 12.8284 21.8284 13.5 21 13.5C20.1716 13.5 19.5 12.8284 19.5 12V10Z" fill="#34A853"/>
    <path d="M19.5 16.9302C19.5 16.1017 20.1716 15.4302 21 15.4302C21.8284 15.4302 22.5 16.1017 22.5 16.9302V21.9302C22.5 22.7586 21.8284 23.4302 21 23.4302C20.1716 23.4302 19.5 22.7586 19.5 21.9302V16.9302Z" fill="#34A853"/>
    <path d="M14.5 25C14.5 24.1716 15.1716 23.5 16 23.5C16.8284 23.5 17.5 24.1716 17.5 25V27C17.5 27.8284 16.8284 28.5 16 28.5C15.1716 28.5 14.5 27.8284 14.5 27V25Z" fill="#FAB908"/>
    <path d="M14.5 11.5C14.5 10.6716 15.1716 10 16 10C16.8284 10 17.5 10.6716 17.5 11.5V20.5C17.5 21.3284 16.8284 22 16 22C15.1716 22 14.5 21.3284 14.5 20.5V11.5Z" fill="#FAB908"/>
  </g>
  <defs>
    <clipPath id="clip0_901_11086">
      <rect width="32" height="32" fill="white"/>
    </clipPath>
  </defs>
</svg>
