<svg width="32" height="32" viewBox="0 0 32 32" fill="none" xmlns="http://www.w3.org/2000/svg">
  <g clip-path="url(#clip0_901_11092)">
    <path d="M0 12.88C0 8.32407 0 6.04611 0.900692 4.3122C1.6597 2.85106 2.85106 1.6597 4.3122 0.900692C6.04611 0 8.32407 0 12.88 0H19.12C23.6759 0 25.9539 0 27.6878 0.900692C29.1489 1.6597 30.3403 2.85106 31.0993 4.3122C32 6.04611 32 8.32407 32 12.88V19.12C32 23.6759 32 25.9539 31.0993 27.6878C30.3403 29.1489 29.1489 30.3403 27.6878 31.0993C25.9539 32 23.6759 32 19.12 32H12.88C8.32407 32 6.04611 32 4.3122 31.0993C2.85106 30.3403 1.6597 29.1489 0.900692 27.6878C0 25.9539 0 23.6759 0 19.12V12.88Z" fill="white"/>
    <path d="M0.5 12.88C0.5 10.5936 0.500402 8.90945 0.610871 7.57923C0.720844 6.25498 0.937305 5.32638 1.3444 4.54269C2.05597 3.17287 3.17287 2.05597 4.54269 1.3444C5.32638 0.937305 6.25498 0.720844 7.57923 0.610871C8.90945 0.500402 10.5936 0.5 12.88 0.5H19.12C21.4064 0.5 23.0905 0.500402 24.4208 0.610871C25.745 0.720844 26.6736 0.937305 27.4573 1.3444C28.8271 2.05597 29.944 3.17287 30.6556 4.54269C31.0627 5.32638 31.2792 6.25498 31.3891 7.57923C31.4996 8.90945 31.5 10.5936 31.5 12.88V19.12C31.5 21.4064 31.4996 23.0905 31.3891 24.4208C31.2792 25.745 31.0627 26.6736 30.6556 27.4573C29.944 28.8271 28.8271 29.944 27.4573 30.6556C26.6736 31.0627 25.745 31.2792 24.4208 31.3891C23.0905 31.4996 21.4064 31.5 19.12 31.5H12.88C10.5936 31.5 8.90945 31.4996 7.57923 31.3891C6.25498 31.2792 5.32638 31.0627 4.54269 30.6556C3.17287 29.944 2.05597 28.8271 1.3444 27.4573C0.937305 26.6736 0.720844 25.745 0.610871 24.4208C0.500402 23.0905 0.5 21.4064 0.5 19.12V12.88Z" stroke="black" stroke-opacity="0.1"/>
    <path d="M21.4636 7C19.1976 7 17.173 8.21812 16.0007 9.99661C14.8277 8.21812 12.8031 7 10.5371 7C6.92556 7 4 9.96767 4 13.6305C4 15.9545 5.4506 17.63 6.9666 19.1805L12.8929 24.8639C13.2032 25.1617 13.7145 24.9387 13.7145 24.5047V20.0768C13.7145 18.7959 14.7372 17.757 16 17.7549C17.2628 17.757 18.2855 18.7959 18.2855 20.0768V24.5047C18.2855 24.938 18.7968 25.1617 19.1071 24.8639L25.0334 19.1805C26.5494 17.63 28 15.9545 28 13.6305C28 9.96767 25.0744 7 21.4636 7ZM10.0661 18.7437C9.97634 18.846 9.85181 18.8982 9.72727 18.8982C9.62013 18.8982 9.51299 18.8601 9.42672 18.7832C7.47519 17.028 6.48516 15.1966 6.48516 13.3383V13.3157C6.48516 11.7193 7.44596 9.90345 8.71916 9.09325C8.93135 8.95916 9.21104 9.02338 9.34392 9.23863C9.47681 9.45318 9.4135 9.73689 9.2013 9.87169C8.18622 10.5175 7.3917 12.0306 7.3917 13.3157V13.3383C7.3917 14.922 8.27876 16.5227 10.0285 18.0951C10.2164 18.2638 10.2331 18.5538 10.0675 18.7437H10.0661ZM12.9798 17.0393C12.897 17.1896 12.7426 17.2743 12.5846 17.2743C12.5095 17.2743 12.4337 17.2552 12.3634 17.2157C11.0401 16.4641 10.1489 14.9877 10.1433 13.5381V13.5239C10.1489 12.1456 10.8975 10.8922 12.1018 10.2493C12.3231 10.1314 12.5972 10.2175 12.7134 10.4419C12.8302 10.6664 12.7447 10.9444 12.5234 11.0623C11.6162 11.5464 11.0513 12.4914 11.0492 13.5303C11.0519 14.6602 11.7574 15.8176 12.8052 16.4133C13.0237 16.5368 13.1016 16.817 12.9791 17.0386L12.9798 17.0393ZM16 15.8656C14.9147 15.8656 14.0353 14.9721 14.0353 13.8719C14.0353 12.7716 14.9147 11.8781 16 11.8781C17.0853 11.8781 17.9647 12.7716 17.9647 13.8719C17.9647 14.9721 17.0853 15.8656 16 15.8656ZM19.6366 17.2157C19.5663 17.2552 19.4905 17.2743 19.4154 17.2743C19.2567 17.2743 19.103 17.1896 19.0202 17.0393C18.8984 16.8177 18.9756 16.5375 19.1941 16.414C20.2426 15.8183 20.9481 14.6609 20.9501 13.531C20.9481 12.4928 20.3831 11.5478 19.4759 11.063C19.2539 10.9444 19.1691 10.6671 19.2859 10.4426C19.4028 10.2182 19.6763 10.1321 19.8975 10.25C21.1018 10.8922 21.8511 12.1456 21.856 13.5246V13.5388C21.8504 14.9884 20.9592 16.4641 19.6359 17.2164L19.6366 17.2157ZM25.5148 13.339C25.5148 15.1973 24.5248 17.0287 22.5733 18.7839C22.487 18.8608 22.3799 18.8989 22.2727 18.8989C22.1482 18.8989 22.0237 18.8467 21.9339 18.7444C21.7683 18.5545 21.785 18.2645 21.9729 18.0958C23.7226 16.5234 24.6097 14.9227 24.6097 13.339V13.3165C24.6097 12.0313 23.8145 10.5182 22.8001 9.8724C22.5879 9.7376 22.5246 9.45389 22.6575 9.23934C22.7904 9.02409 23.07 8.95916 23.2822 9.09396C24.5554 9.90486 25.5162 11.72 25.5162 13.3165V13.339H25.5148Z" fill="#C6002B"/>
  </g>
  <defs>
    <clipPath id="clip0_901_11092">
      <rect width="32" height="32" fill="white"/>
    </clipPath>
  </defs>
</svg>
