<svg width="32" height="32" viewBox="0 0 32 32" fill="none" xmlns="http://www.w3.org/2000/svg">
  <g clip-path="url(#clip0_901_11098)">
    <path d="M0 12.88C0 8.32407 0 6.04611 0.900692 4.3122C1.6597 2.85106 2.85106 1.6597 4.3122 0.900692C6.04611 0 8.32407 0 12.88 0H19.12C23.6759 0 25.9539 0 27.6878 0.900692C29.1489 1.6597 30.3403 2.85106 31.0993 4.3122C32 6.04611 32 8.32407 32 12.88V19.12C32 23.6759 32 25.9539 31.0993 27.6878C30.3403 29.1489 29.1489 30.3403 27.6878 31.0993C25.9539 32 23.6759 32 19.12 32H12.88C8.32407 32 6.04611 32 4.3122 31.0993C2.85106 30.3403 1.6597 29.1489 0.900692 27.6878C0 25.9539 0 23.6759 0 19.12V12.88Z" fill="white"/>
    <path d="M0.5 12.88C0.5 10.5936 0.500402 8.90945 0.610871 7.57923C0.720844 6.25498 0.937305 5.32638 1.3444 4.54269C2.05597 3.17287 3.17287 2.05597 4.54269 1.3444C5.32638 0.937305 6.25498 0.720844 7.57923 0.610871C8.90945 0.500402 10.5936 0.5 12.88 0.5H19.12C21.4064 0.5 23.0905 0.500402 24.4208 0.610871C25.745 0.720844 26.6736 0.937305 27.4573 1.3444C28.8271 2.05597 29.944 3.17287 30.6556 4.54269C31.0627 5.32638 31.2792 6.25498 31.3891 7.57923C31.4996 8.90945 31.5 10.5936 31.5 12.88V19.12C31.5 21.4064 31.4996 23.0905 31.3891 24.4208C31.2792 25.745 31.0627 26.6736 30.6556 27.4573C29.944 28.8271 28.8271 29.944 27.4573 30.6556C26.6736 31.0627 25.745 31.2792 24.4208 31.3891C23.0905 31.4996 21.4064 31.5 19.12 31.5H12.88C10.5936 31.5 8.90945 31.4996 7.57923 31.3891C6.25498 31.2792 5.32638 31.0627 4.54269 30.6556C3.17287 29.944 2.05597 28.8271 1.3444 27.4573C0.937305 26.6736 0.720844 25.745 0.610871 24.4208C0.500402 23.0905 0.5 21.4064 0.5 19.12V12.88Z" stroke="black" stroke-opacity="0.1"/>
    <g clip-path="url(#clip1_901_11098)">
      <path fill-rule="evenodd" clip-rule="evenodd" d="M13.75 21.3C17.9198 21.3 21.3 17.9198 21.3 13.75C21.3 9.58025 17.9198 6.2 13.75 6.2C9.58025 6.2 6.2 9.58025 6.2 13.75C6.2 17.9198 9.58025 21.3 13.75 21.3ZM13.75 23.5C19.1348 23.5 23.5 19.1348 23.5 13.75C23.5 8.36522 19.1348 4 13.75 4C8.36522 4 4 8.36522 4 13.75C4 19.1348 8.36522 23.5 13.75 23.5Z" fill="black"/>
      <ellipse cx="13.375" cy="27.25" rx="4.875" ry="0.75" fill="black"/>
      <path d="M27.7957 27.7957C27.0576 28.5338 24.536 27.2089 22.1635 24.8364C19.7911 22.464 18.7618 20.2381 19.4999 19.5C20.238 18.7619 22.464 19.7911 24.8364 22.1635C27.2089 24.536 28.5338 27.0576 27.7957 27.7957Z" fill="black"/>
      <path d="M10.2195 9.67073C14.4223 9.67073 17.8293 13.0777 17.8293 17.2805H19C19 12.4312 15.0688 8.5 10.2195 8.5V9.67073Z" fill="#B82F00"/>
      <path d="M15.4878 17.2805C15.4878 14.3709 13.1291 12.0122 10.2195 12.0122V10.8415C13.7757 10.8415 16.6585 13.7243 16.6585 17.2805H15.4878Z" fill="#B82F00"/>
      <path d="M10.2195 14.3537C11.8359 14.3537 13.1463 15.664 13.1463 17.2805H14.3171C14.3171 15.0175 12.4825 13.1829 10.2195 13.1829V14.3537Z" fill="#B82F00"/>
      <path d="M10.7134 18C11.3836 18 11.9268 17.4567 11.9268 16.7866C11.9268 16.1164 11.3836 15.5732 10.7134 15.5732C10.0433 15.5732 9.5 16.1164 9.5 16.7866C9.5 17.4567 10.0433 18 10.7134 18Z" fill="#B82F00"/>
    </g>
  </g>
  <defs>
    <clipPath id="clip0_901_11098">
      <rect width="32" height="32" fill="white"/>
    </clipPath>
    <clipPath id="clip1_901_11098">
      <rect width="24" height="24" fill="white" transform="translate(4 4)"/>
    </clipPath>
  </defs>
</svg>
