<svg width="32" height="32" viewBox="0 0 32 32" fill="none" xmlns="http://www.w3.org/2000/svg">
  <g clip-path="url(#clip0_901_11089)">
    <path d="M0 12.88C0 8.32407 0 6.04611 0.900692 4.3122C1.6597 2.85106 2.85106 1.6597 4.3122 0.900692C6.04611 0 8.32407 0 12.88 0H19.12C23.6759 0 25.9539 0 27.6878 0.900692C29.1489 1.6597 30.3403 2.85106 31.0993 4.3122C32 6.04611 32 8.32407 32 12.88V19.12C32 23.6759 32 25.9539 31.0993 27.6878C30.3403 29.1489 29.1489 30.3403 27.6878 31.0993C25.9539 32 23.6759 32 19.12 32H12.88C8.32407 32 6.04611 32 4.3122 31.0993C2.85106 30.3403 1.6597 29.1489 0.900692 27.6878C0 25.9539 0 23.6759 0 19.12V12.88Z" fill="url(#paint0_linear_901_11089)"/>
    <path d="M0.5 12.88C0.5 10.5936 0.500402 8.90945 0.610871 7.57923C0.720844 6.25498 0.937305 5.32638 1.3444 4.54269C2.05597 3.17287 3.17287 2.05597 4.54269 1.3444C5.32638 0.937305 6.25498 0.720844 7.57923 0.610871C8.90945 0.500402 10.5936 0.5 12.88 0.5H19.12C21.4064 0.5 23.0905 0.500402 24.4208 0.610871C25.745 0.720844 26.6736 0.937305 27.4573 1.3444C28.8271 2.05597 29.944 3.17287 30.6556 4.54269C31.0627 5.32638 31.2792 6.25498 31.3891 7.57923C31.4996 8.90945 31.5 10.5936 31.5 12.88V19.12C31.5 21.4064 31.4996 23.0905 31.3891 24.4208C31.2792 25.745 31.0627 26.6736 30.6556 27.4573C29.944 28.8271 28.8271 29.944 27.4573 30.6556C26.6736 31.0627 25.745 31.2792 24.4208 31.3891C23.0905 31.4996 21.4064 31.5 19.12 31.5H12.88C10.5936 31.5 8.90945 31.4996 7.57923 31.3891C6.25498 31.2792 5.32638 31.0627 4.54269 30.6556C3.17287 29.944 2.05597 28.8271 1.3444 27.4573C0.937305 26.6736 0.720844 25.745 0.610871 24.4208C0.500402 23.0905 0.5 21.4064 0.5 19.12V12.88Z" stroke="black" stroke-opacity="0.05"/>
    <circle cx="16" cy="16" r="11.0769" fill="white"/>
    <path d="M10.4941 10.8192C10.1765 10.5469 9.69738 10.5712 9.44041 10.9013C8.34481 12.3088 7.69226 14.0782 7.69226 16C7.69226 17.9218 8.34481 19.6912 9.44041 21.0987C9.69738 21.4288 10.1765 21.4531 10.4941 21.1808C10.8337 20.8898 10.8558 20.3756 10.589 20.0167C9.75499 18.8951 9.26149 17.5052 9.26149 16C9.26149 14.4948 9.75499 13.1049 10.589 11.9833C10.8558 11.6244 10.8337 11.1102 10.4941 10.8192Z" fill="#FD9834"/>
    <path d="M12.5834 12.61C12.273 12.3439 11.8041 12.3618 11.5594 12.6894C10.8698 13.6129 10.4615 14.7588 10.4615 16C10.4615 17.2412 10.8698 18.3871 11.5594 19.3106C11.8041 19.6382 12.273 19.6561 12.5834 19.39C12.9288 19.0939 12.9388 18.5673 12.6877 18.188C12.2725 17.5607 12.0307 16.8086 12.0307 16C12.0307 15.1914 12.2725 14.4393 12.6877 13.812C12.9388 13.4327 12.9288 12.9061 12.5834 12.61Z" fill="#FD9834"/>
    <path d="M19.4165 12.61C19.0711 12.9061 19.0611 13.4327 19.3122 13.812C19.7274 14.4393 19.9692 15.1914 19.9692 16C19.9692 16.8086 19.7274 17.5607 19.3122 18.188C19.0611 18.5673 19.0711 19.0939 19.4165 19.39C19.7269 19.6561 20.1958 19.6382 20.4405 19.3106C21.1301 18.3871 21.5384 17.2412 21.5384 16C21.5384 14.7588 21.1301 13.6129 20.4405 12.6894C20.1958 12.3618 19.7269 12.3439 19.4165 12.61Z" fill="#FD9834"/>
    <path d="M21.5058 10.8192C21.1662 11.1102 21.1441 11.6244 21.4109 11.9833C22.2449 13.1049 22.7384 14.4948 22.7384 16C22.7384 17.5052 22.2449 18.8951 21.4109 20.0167C21.1441 20.3756 21.1662 20.8898 21.5058 21.1808C21.8234 21.4531 22.3025 21.4288 22.5595 21.0987C23.6551 19.6912 24.3076 17.9218 24.3076 16C24.3076 14.0782 23.6551 12.3088 22.5595 10.9013C22.3025 10.5712 21.8234 10.5469 21.5058 10.8192Z" fill="#FD9834"/>
    <path fill-rule="evenodd" clip-rule="evenodd" d="M17.181 17.419C17.5875 17.0803 17.8461 16.5703 17.8461 16C17.8461 14.9804 17.0196 14.1538 16 14.1538C14.9804 14.1538 14.1538 14.9804 14.1538 16C14.1538 16.5703 14.4125 17.0803 14.8189 17.419L12.4716 26.4173L13.99 26.8134L14.2559 25.794L16 24.2085L17.7441 25.794L18.01 26.8134L19.5284 26.4173L17.181 17.419ZM16.5832 23.6783L17.3815 24.404L17.0754 23.2308L16.5832 23.6783ZM16.8518 22.3737L16 23.1481L15.1482 22.3737L16 19.1083L16.8518 22.3737ZM15.4168 23.6783L14.6185 24.404L14.9246 23.2308L15.4168 23.6783Z" fill="black"/>
    <path fill-rule="evenodd" clip-rule="evenodd" d="M16 26.4308C21.7608 26.4308 26.4308 21.7608 26.4308 16C26.4308 10.2392 21.7608 5.56923 16 5.56923C10.2392 5.56923 5.56923 10.2392 5.56923 16C5.56923 21.7608 10.2392 26.4308 16 26.4308ZM16 28C22.6274 28 28 22.6274 28 16C28 9.37258 22.6274 4 16 4C9.37258 4 4 9.37258 4 16C4 22.6274 9.37258 28 16 28Z" fill="#3A4047"/>
  </g>
  <defs>
    <linearGradient id="paint0_linear_901_11089" x1="16" y1="0" x2="16" y2="32" gradientUnits="userSpaceOnUse">
      <stop stop-color="#FD9834"/>
      <stop offset="1" stop-color="#FF7832"/>
    </linearGradient>
    <clipPath id="clip0_901_11089">
      <rect width="32" height="32" fill="white"/>
    </clipPath>
  </defs>
</svg>
