<svg width="32" height="32" viewBox="0 0 32 32" fill="none" xmlns="http://www.w3.org/2000/svg">
  <g clip-path="url(#clip0_901_11099)">
    <path d="M0 12.88C0 8.32407 0 6.04611 0.900692 4.3122C1.6597 2.85106 2.85106 1.6597 4.3122 0.900692C6.04611 0 8.32407 0 12.88 0H19.12C23.6759 0 25.9539 0 27.6878 0.900692C29.1489 1.6597 30.3403 2.85106 31.0993 4.3122C32 6.04611 32 8.32407 32 12.88V19.12C32 23.6759 32 25.9539 31.0993 27.6878C30.3403 29.1489 29.1489 30.3403 27.6878 31.0993C25.9539 32 23.6759 32 19.12 32H12.88C8.32407 32 6.04611 32 4.3122 31.0993C2.85106 30.3403 1.6597 29.1489 0.900692 27.6878C0 25.9539 0 23.6759 0 19.12V12.88Z" fill="url(#paint0_linear_901_11099)"/>
    <path d="M0.5 12.88C0.5 10.5936 0.500402 8.90945 0.610871 7.57923C0.720844 6.25498 0.937305 5.32638 1.3444 4.54269C2.05597 3.17287 3.17287 2.05597 4.54269 1.3444C5.32638 0.937305 6.25498 0.720844 7.57923 0.610871C8.90945 0.500402 10.5936 0.5 12.88 0.5H19.12C21.4064 0.5 23.0905 0.500402 24.4208 0.610871C25.745 0.720844 26.6736 0.937305 27.4573 1.3444C28.8271 2.05597 29.944 3.17287 30.6556 4.54269C31.0627 5.32638 31.2792 6.25498 31.3891 7.57923C31.4996 8.90945 31.5 10.5936 31.5 12.88V19.12C31.5 21.4064 31.4996 23.0905 31.3891 24.4208C31.2792 25.745 31.0627 26.6736 30.6556 27.4573C29.944 28.8271 28.8271 29.944 27.4573 30.6556C26.6736 31.0627 25.745 31.2792 24.4208 31.3891C23.0905 31.4996 21.4064 31.5 19.12 31.5H12.88C10.5936 31.5 8.90945 31.4996 7.57923 31.3891C6.25498 31.2792 5.32638 31.0627 4.54269 30.6556C3.17287 29.944 2.05597 28.8271 1.3444 27.4573C0.937305 26.6736 0.720844 25.745 0.610871 24.4208C0.500402 23.0905 0.5 21.4064 0.5 19.12V12.88Z" stroke="white" stroke-opacity="0.1"/>
    <path d="M18.2348 4.76877C18.3842 4.25145 18.9248 3.9532 19.4421 4.10263C23.5285 5.28297 26.7441 8.50894 27.9098 12.6016C28.0574 13.1194 27.7571 13.6588 27.2392 13.8064C26.7214 13.9539 26.182 13.6536 26.0344 13.1358C25.0529 9.68992 22.3417 6.96989 18.901 5.97605C18.3836 5.82662 18.0854 5.2861 18.2348 4.76877Z" fill="white"/>
    <path d="M14.4607 10.2194C15.6405 9.90639 16.3431 8.69628 16.03 7.51655C15.717 6.33682 14.5069 5.63421 13.3272 5.94723C8.88004 7.1272 5.59998 11.1777 5.59998 16C5.59998 21.7438 10.2562 26.4 16 26.4C20.7323 26.4 24.7211 23.241 25.9834 18.9214C26.3258 17.7499 25.6536 16.5226 24.4821 16.1802C23.3106 15.8378 22.0833 16.51 21.7409 17.6816C21.0144 20.1676 18.716 21.98 16 21.98C12.6973 21.98 10.02 19.3027 10.02 16C10.02 13.2321 11.9025 10.8982 14.4607 10.2194Z" fill="white"/>
    <path d="M18.1488 10.2095C17.644 10.0221 17.0828 10.2794 16.8954 10.7842C16.708 11.289 16.9653 11.8502 17.4702 12.0376C18.648 12.4748 19.5792 13.4239 19.9922 14.6128C20.1689 15.1215 20.7245 15.3906 21.2332 15.2139C21.7418 15.0372 22.0109 14.4816 21.8342 13.9729C21.2298 12.2332 19.8713 10.8489 18.1488 10.2095Z" fill="white"/>
    <path d="M18.9346 7.31525C18.4245 7.14292 17.8712 7.41678 17.6989 7.92694C17.5266 8.43709 17.8004 8.99036 18.3106 9.16269C20.4803 9.89563 22.1892 11.6346 22.8809 13.8226C23.0432 14.336 23.591 14.6207 24.1044 14.4584C24.6178 14.2961 24.9025 13.7483 24.7402 13.2348C23.8608 10.453 21.6924 8.24682 18.9346 7.31525Z" fill="white"/>
  </g>
  <defs>
    <linearGradient id="paint0_linear_901_11099" x1="0" y1="32" x2="32" y2="0" gradientUnits="userSpaceOnUse">
      <stop stop-color="#BD0C26"/>
      <stop offset="1" stop-color="#DF314A"/>
    </linearGradient>
    <clipPath id="clip0_901_11099">
      <rect width="32" height="32" fill="white"/>
    </clipPath>
  </defs>
</svg>
