<svg width="32" height="32" viewBox="0 0 32 32" fill="none" xmlns="http://www.w3.org/2000/svg">
  <g clip-path="url(#clip0_901_11096)">
    <path d="M0 12.88C0 8.32407 0 6.04611 0.900692 4.3122C1.6597 2.85106 2.85106 1.6597 4.3122 0.900692C6.04611 0 8.32407 0 12.88 0H19.12C23.6759 0 25.9539 0 27.6878 0.900692C29.1489 1.6597 30.3403 2.85106 31.0993 4.3122C32 6.04611 32 8.32407 32 12.88V19.12C32 23.6759 32 25.9539 31.0993 27.6878C30.3403 29.1489 29.1489 30.3403 27.6878 31.0993C25.9539 32 23.6759 32 19.12 32H12.88C8.32407 32 6.04611 32 4.3122 31.0993C2.85106 30.3403 1.6597 29.1489 0.900692 27.6878C0 25.9539 0 23.6759 0 19.12V12.88Z" fill="black"/>
    <path d="M0.5 12.88C0.5 10.5936 0.500402 8.90945 0.610871 7.57923C0.720844 6.25498 0.937305 5.32638 1.3444 4.54269C2.05597 3.17287 3.17287 2.05597 4.54269 1.3444C5.32638 0.937305 6.25498 0.720844 7.57923 0.610871C8.90945 0.500402 10.5936 0.5 12.88 0.5H19.12C21.4064 0.5 23.0905 0.500402 24.4208 0.610871C25.745 0.720844 26.6736 0.937305 27.4573 1.3444C28.8271 2.05597 29.944 3.17287 30.6556 4.54269C31.0627 5.32638 31.2792 6.25498 31.3891 7.57923C31.4996 8.90945 31.5 10.5936 31.5 12.88V19.12C31.5 21.4064 31.4996 23.0905 31.3891 24.4208C31.2792 25.745 31.0627 26.6736 30.6556 27.4573C29.944 28.8271 28.8271 29.944 27.4573 30.6556C26.6736 31.0627 25.745 31.2792 24.4208 31.3891C23.0905 31.4996 21.4064 31.5 19.12 31.5H12.88C10.5936 31.5 8.90945 31.4996 7.57923 31.3891C6.25498 31.2792 5.32638 31.0627 4.54269 30.6556C3.17287 29.944 2.05597 28.8271 1.3444 27.4573C0.937305 26.6736 0.720844 25.745 0.610871 24.4208C0.500402 23.0905 0.5 21.4064 0.5 19.12V12.88Z" stroke="white" stroke-opacity="0.05"/>
    <path fill-rule="evenodd" clip-rule="evenodd" d="M28 16C28 22.6276 22.6276 28 16 28C9.37244 28 4 22.6276 4 16C4 9.37244 9.37244 4 16 4C22.6276 4 28 9.37244 28 16Z" fill="#F43E37"/>
    <path fill-rule="evenodd" clip-rule="evenodd" d="M6.66663 16C6.66663 10.8453 10.8453 6.66663 16 6.66663C21.1546 6.66663 25.3333 10.8453 25.3333 16H23C23 12.134 19.866 8.99996 16 8.99996C12.134 8.99996 8.99996 12.134 8.99996 16C8.99996 19.866 12.134 23 16 23V25.3333C10.8453 25.3333 6.66663 21.1546 6.66663 16ZM16 21.6C12.9072 21.6 10.4 19.0928 10.4 16C10.4 12.9072 12.9072 10.4 16 10.4C19.0928 10.4 21.6 12.9072 21.6 16H19.5636C19.5636 14.0318 17.9681 12.4363 16 12.4363C14.0318 12.4363 12.4363 14.0318 12.4363 16C12.4363 17.9681 14.0318 19.5636 16 19.5636V21.6Z" fill="white"/>
  </g>
  <defs>
    <clipPath id="clip0_901_11096">
      <rect width="32" height="32" fill="white"/>
    </clipPath>
  </defs>
</svg>
