<svg width="32" height="32" viewBox="0 0 32 32" fill="none" xmlns="http://www.w3.org/2000/svg">
  <g clip-path="url(#clip0_901_11094)">
    <path d="M0 12.88C0 8.32407 0 6.04611 0.900692 4.3122C1.6597 2.85106 2.85106 1.6597 4.3122 0.900692C6.04611 0 8.32407 0 12.88 0H19.12C23.6759 0 25.9539 0 27.6878 0.900692C29.1489 1.6597 30.3403 2.85106 31.0993 4.3122C32 6.04611 32 8.32407 32 12.88V19.12C32 23.6759 32 25.9539 31.0993 27.6878C30.3403 29.1489 29.1489 30.3403 27.6878 31.0993C25.9539 32 23.6759 32 19.12 32H12.88C8.32407 32 6.04611 32 4.3122 31.0993C2.85106 30.3403 1.6597 29.1489 0.900692 27.6878C0 25.9539 0 23.6759 0 19.12V12.88Z" fill="#413467"/>
    <path d="M0.5 12.88C0.5 10.5936 0.500402 8.90945 0.610871 7.57923C0.720844 6.25498 0.937305 5.32638 1.3444 4.54269C2.05597 3.17287 3.17287 2.05597 4.54269 1.3444C5.32638 0.937305 6.25498 0.720844 7.57923 0.610871C8.90945 0.500402 10.5936 0.5 12.88 0.5H19.12C21.4064 0.5 23.0905 0.500402 24.4208 0.610871C25.745 0.720844 26.6736 0.937305 27.4573 1.3444C28.8271 2.05597 29.944 3.17287 30.6556 4.54269C31.0627 5.32638 31.2792 6.25498 31.3891 7.57923C31.4996 8.90945 31.5 10.5936 31.5 12.88V19.12C31.5 21.4064 31.4996 23.0905 31.3891 24.4208C31.2792 25.745 31.0627 26.6736 30.6556 27.4573C29.944 28.8271 28.8271 29.944 27.4573 30.6556C26.6736 31.0627 25.745 31.2792 24.4208 31.3891C23.0905 31.4996 21.4064 31.5 19.12 31.5H12.88C10.5936 31.5 8.90945 31.4996 7.57923 31.3891C6.25498 31.2792 5.32638 31.0627 4.54269 30.6556C3.17287 29.944 2.05597 28.8271 1.3444 27.4573C0.937305 26.6736 0.720844 25.745 0.610871 24.4208C0.500402 23.0905 0.5 21.4064 0.5 19.12V12.88Z" stroke="white" stroke-opacity="0.05"/>
    <path d="M16 28C22.6274 28 28 22.6274 28 16C28 9.37258 22.6274 4 16 4C9.37258 4 4 9.37258 4 16C4 22.6274 9.37258 28 16 28Z" fill="#FF3382"/>
    <path d="M16.0001 26.3201C21.6996 26.3201 26.3201 21.6996 26.3201 16.0001C26.3201 10.3005 21.6996 5.68005 16.0001 5.68005C10.3005 5.68005 5.68005 10.3005 5.68005 16.0001C5.68005 21.6996 10.3005 26.3201 16.0001 26.3201Z" fill="white"/>
    <path d="M16 8.59131C20.2358 8.59131 23.6696 12.0251 23.6696 16.2609C23.6696 20.4967 20.2358 23.9304 16 23.9304C14.8031 23.9304 13.6702 23.6563 12.6607 23.1673L12.6608 25.7789C10.9803 25.2051 9.49475 24.2104 8.33008 22.9204L8.33043 16.2609L8.33278 16.0689C8.43467 11.9218 11.8284 8.59131 16 8.59131Z" fill="url(#paint0_linear_901_11094)"/>
    <path style="mix-blend-mode:overlay" d="M16 28C22.6274 28 28 22.6274 28 16C28 9.37258 22.6274 4 16 4C9.37258 4 4 9.37258 4 16C4 22.6274 9.37258 28 16 28Z" fill="url(#paint1_linear_901_11094)" fill-opacity="0.3"/>
    <path style="mix-blend-mode:overlay" d="M16 28C22.6274 28 28 22.6274 28 16C28 9.37258 22.6274 4 16 4C9.37258 4 4 9.37258 4 16C4 22.6274 9.37258 28 16 28Z" fill="url(#paint2_radial_901_11094)" fill-opacity="0.2"/>
  </g>
  <defs>
    <linearGradient id="paint0_linear_901_11094" x1="775.304" y1="8.59131" x2="775.304" y2="1727.35" gradientUnits="userSpaceOnUse">
      <stop stop-color="#4C3D79"/>
      <stop offset="1" stop-color="#0C0D2C"/>
    </linearGradient>
    <linearGradient id="paint1_linear_901_11094" x1="2404" y1="1204" x2="4" y2="1204" gradientUnits="userSpaceOnUse">
      <stop/>
      <stop offset="0.510954" stop-color="#E3E3E3" stop-opacity="0"/>
      <stop offset="1"/>
    </linearGradient>
    <radialGradient id="paint2_radial_901_11094" cx="0" cy="0" r="1" gradientUnits="userSpaceOnUse" gradientTransform="translate(1204 1204) scale(1200)">
      <stop stop-color="white" stop-opacity="0"/>
      <stop offset="0.918478" stop-color="white" stop-opacity="0"/>
      <stop offset="1" stop-color="white"/>
    </radialGradient>
    <clipPath id="clip0_901_11094">
      <rect width="32" height="32" fill="white"/>
    </clipPath>
  </defs>
</svg>
