<svg width="32" height="32" viewBox="0 0 32 32" fill="none" xmlns="http://www.w3.org/2000/svg">
  <g clip-path="url(#clip0_901_11088)">
    <path d="M0 12.88C0 8.32407 0 6.04611 0.900692 4.3122C1.6597 2.85106 2.85106 1.6597 4.3122 0.900692C6.04611 0 8.32407 0 12.88 0H19.12C23.6759 0 25.9539 0 27.6878 0.900692C29.1489 1.6597 30.3403 2.85106 31.0993 4.3122C32 6.04611 32 8.32407 32 12.88V19.12C32 23.6759 32 25.9539 31.0993 27.6878C30.3403 29.1489 29.1489 30.3403 27.6878 31.0993C25.9539 32 23.6759 32 19.12 32H12.88C8.32407 32 6.04611 32 4.3122 31.0993C2.85106 30.3403 1.6597 29.1489 0.900692 27.6878C0 25.9539 0 23.6759 0 19.12V12.88Z" fill="#F4842D"/>
    <path d="M0.5 12.88C0.5 10.5936 0.500402 8.90945 0.610871 7.57923C0.720844 6.25498 0.937305 5.32638 1.3444 4.54269C2.05597 3.17287 3.17287 2.05597 4.54269 1.3444C5.32638 0.937305 6.25498 0.720844 7.57923 0.610871C8.90945 0.500402 10.5936 0.5 12.88 0.5H19.12C21.4064 0.5 23.0905 0.500402 24.4208 0.610871C25.745 0.720844 26.6736 0.937305 27.4573 1.3444C28.8271 2.05597 29.944 3.17287 30.6556 4.54269C31.0627 5.32638 31.2792 6.25498 31.3891 7.57923C31.4996 8.90945 31.5 10.5936 31.5 12.88V19.12C31.5 21.4064 31.4996 23.0905 31.3891 24.4208C31.2792 25.745 31.0627 26.6736 30.6556 27.4573C29.944 28.8271 28.8271 29.944 27.4573 30.6556C26.6736 31.0627 25.745 31.2792 24.4208 31.3891C23.0905 31.4996 21.4064 31.5 19.12 31.5H12.88C10.5936 31.5 8.90945 31.4996 7.57923 31.3891C6.25498 31.2792 5.32638 31.0627 4.54269 30.6556C3.17287 29.944 2.05597 28.8271 1.3444 27.4573C0.937305 26.6736 0.720844 25.745 0.610871 24.4208C0.500402 23.0905 0.5 21.4064 0.5 19.12V12.88Z" stroke="black" stroke-opacity="0.05"/>
    <path d="M18 32H19.12C23.6759 32 25.9539 32 27.6878 31.0993C29.1489 30.3403 30.3403 29.1489 31.0993 27.6878C32 25.9539 32 23.6759 32 19.12V18C32 18 25.212 11.0699 23.0711 8.92893C19.1658 5.02369 12.8342 5.02369 8.92893 8.92893C5.02369 12.8342 5.02369 19.1658 8.92893 23.0711C11.1847 25.3268 18 32 18 32Z" fill="#EE6F2A"/>
    <path d="M25.9932 15.7726C25.8711 10.357 21.4462 6 15.9966 6C10.4723 6 6 10.4791 6 15.9966C6 19.8174 8.14455 23.1429 11.3003 24.8259V21.7923V16.0645C11.3003 16.0238 11.3003 15.9898 11.3003 15.9491C11.3003 13.6349 12.963 11.7075 15.1551 11.2867V12.9494C13.8588 13.3295 12.9155 14.5307 12.9155 15.9491C12.9155 15.9559 12.9155 15.9695 12.9155 15.9762V15.9898C12.9359 17.7 14.3339 19.0777 16.0441 19.0777C17.4625 19.0777 18.6569 18.1344 19.0438 16.8449H20.7065C20.2857 19.037 18.3583 20.6929 16.0441 20.6929C14.8429 20.6929 13.7503 20.245 12.9155 19.512V25.5114C13.886 25.8235 14.9243 26 16.0034 26C18.0801 26 20.0075 25.3689 21.6091 24.283V26H26L25.9932 15.7726ZM16.0373 17.7747C15.0261 17.7747 14.2117 16.9603 14.2117 15.9491C14.2117 14.9379 15.0261 14.1235 16.0373 14.1235C17.0485 14.1235 17.8629 14.9379 17.8629 15.9491C17.8629 16.9603 17.0485 17.7747 16.0373 17.7747ZM20.7879 15.9627H19.1727C19.1727 15.9559 19.1727 15.9559 19.1727 15.9491C19.1727 14.2185 17.7747 12.8205 16.0441 12.8205H16.0373V11.2053H16.0441C18.6637 11.2053 20.7879 13.3295 20.7879 15.9491C20.7879 15.9559 20.7879 15.9559 20.7879 15.9627ZM23.5704 15.9627H21.9688C21.9688 15.9559 21.9688 15.9559 21.9688 15.9491C21.9688 12.678 19.3152 10.0244 16.0441 10.0244H16.0373V8.4228H16.0441C20.2043 8.4228 23.5704 11.7957 23.5704 15.9491C23.5704 15.9559 23.5704 15.9559 23.5704 15.9627Z" fill="white"/>
  </g>
  <defs>
    <clipPath id="clip0_901_11088">
      <rect width="32" height="32" fill="white"/>
    </clipPath>
  </defs>
</svg>
