<svg width="32" height="32" viewBox="0 0 32 32" fill="none" xmlns="http://www.w3.org/2000/svg">
  <g clip-path="url(#clip0_901_11095)">
    <path d="M0 12.88C0 8.32407 0 6.04611 0.900692 4.3122C1.6597 2.85106 2.85106 1.6597 4.3122 0.900692C6.04611 0 8.32407 0 12.88 0H19.12C23.6759 0 25.9539 0 27.6878 0.900692C29.1489 1.6597 30.3403 2.85106 31.0993 4.3122C32 6.04611 32 8.32407 32 12.88V19.12C32 23.6759 32 25.9539 31.0993 27.6878C30.3403 29.1489 29.1489 30.3403 27.6878 31.0993C25.9539 32 23.6759 32 19.12 32H12.88C8.32407 32 6.04611 32 4.3122 31.0993C2.85106 30.3403 1.6597 29.1489 0.900692 27.6878C0 25.9539 0 23.6759 0 19.12V12.88Z" fill="white"/>
    <path d="M0.5 12.88C0.5 10.5936 0.500402 8.90945 0.610871 7.57923C0.720844 6.25498 0.937305 5.32638 1.3444 4.54269C2.05597 3.17287 3.17287 2.05597 4.54269 1.3444C5.32638 0.937305 6.25498 0.720844 7.57923 0.610871C8.90945 0.500402 10.5936 0.5 12.88 0.5H19.12C21.4064 0.5 23.0905 0.500402 24.4208 0.610871C25.745 0.720844 26.6736 0.937305 27.4573 1.3444C28.8271 2.05597 29.944 3.17287 30.6556 4.54269C31.0627 5.32638 31.2792 6.25498 31.3891 7.57923C31.4996 8.90945 31.5 10.5936 31.5 12.88V19.12C31.5 21.4064 31.4996 23.0905 31.3891 24.4208C31.2792 25.745 31.0627 26.6736 30.6556 27.4573C29.944 28.8271 28.8271 29.944 27.4573 30.6556C26.6736 31.0627 25.745 31.2792 24.4208 31.3891C23.0905 31.4996 21.4064 31.5 19.12 31.5H12.88C10.5936 31.5 8.90945 31.4996 7.57923 31.3891C6.25498 31.2792 5.32638 31.0627 4.54269 30.6556C3.17287 29.944 2.05597 28.8271 1.3444 27.4573C0.937305 26.6736 0.720844 25.745 0.610871 24.4208C0.500402 23.0905 0.5 21.4064 0.5 19.12V12.88Z" stroke="black" stroke-opacity="0.1"/>
    <g clip-path="url(#clip1_901_11095)">
      <path fill-rule="evenodd" clip-rule="evenodd" d="M15.5865 14.5404H16.3769C16.8618 14.5404 17.2549 14.9408 17.2549 15.4348C17.2549 15.4979 17.2484 15.5608 17.2353 15.6225L14.3635 29.2497C14.266 29.7124 13.8578 30.0435 13.385 30.0435H12.8424C12.2072 30.0435 11.7329 29.4589 11.8639 28.8373L14.728 15.2471C14.8148 14.8349 15.1725 14.5404 15.5865 14.5404Z" fill="#F90000"/>
      <path fill-rule="evenodd" clip-rule="evenodd" d="M10.5025 18.2544C7.72056 15.5874 7.95341 11.4511 10.5148 9.04338C11.005 8.58654 11.7893 8.61123 12.2305 9.11747C12.6962 9.61135 12.6595 10.3892 12.1693 10.8584C10.6128 12.3277 10.4658 14.8219 12.1815 16.464C12.6717 16.9332 12.6962 17.7111 12.2305 18.205C11.7648 18.6989 10.9927 18.7236 10.5025 18.2544ZM9.64407 20.0694C10.2568 20.4398 10.3794 21.1807 9.88918 21.798C9.64407 22.1685 9.27641 22.2919 8.90875 22.2919C8.66364 22.2919 8.41853 22.1685 8.17342 22.045C5.72235 20.1929 4.12915 16.9826 4.00659 13.6489C3.88404 10.1917 5.47724 7.35182 8.17342 5.25279C8.66364 4.88238 9.52151 4.88238 9.88918 5.49974C10.2568 5.99363 10.2568 6.85793 9.64407 7.22834C7.56065 8.83348 6.45767 11.056 6.45767 13.6489C6.45767 16.1183 7.68321 18.7112 9.64407 20.0694ZM19.7656 18.205C19.2999 17.7111 19.3245 16.9332 19.8024 16.4517C21.5182 14.8095 21.3834 12.3154 19.8147 10.8461C19.3245 10.3892 19.2877 9.59901 19.7534 9.10512C20.2068 8.61123 20.9912 8.57419 21.4814 9.04338C24.0428 11.4511 24.2756 15.5874 21.4937 18.2544C21.0034 18.7236 20.2314 18.6989 19.7656 18.205ZM23.8278 5.25279C26.5239 7.35182 28.1049 10.1917 27.9946 13.6489C27.9946 16.9826 26.4014 20.1929 23.8278 22.045C23.5826 22.1685 23.3375 22.2919 23.0924 22.2919C22.7248 22.2919 22.3571 22.1685 22.112 21.798C21.6218 21.1807 21.7443 20.4398 22.3571 20.0694C24.318 18.7112 25.5435 16.1183 25.5435 13.6489C25.5435 11.056 24.4405 8.83348 22.3571 7.22834C21.7443 6.85793 21.7443 5.99363 22.112 5.49974C22.4797 4.88238 23.3375 4.88238 23.8278 5.25279Z" fill="#F90000"/>
      <path d="M16 16.3292C17.4548 16.3292 18.6341 15.1279 18.6341 13.646C18.6341 12.1641 17.4548 10.9628 16 10.9628C14.5452 10.9628 13.3658 12.1641 13.3658 13.646C13.3658 15.1279 14.5452 16.3292 16 16.3292Z" fill="#F90000"/>
    </g>
  </g>
  <defs>
    <clipPath id="clip0_901_11095">
      <rect width="32" height="32" fill="white"/>
    </clipPath>
    <clipPath id="clip1_901_11095">
      <rect width="24" height="25.0435" fill="white" transform="translate(4 5)"/>
    </clipPath>
  </defs>
</svg>
