<svg width="32" height="32" viewBox="0 0 32 32" fill="none" xmlns="http://www.w3.org/2000/svg">
  <g clip-path="url(#clip0_901_11102)">
    <path d="M0 12.88C0 8.32407 0 6.04611 0.900692 4.3122C1.6597 2.85106 2.85106 1.6597 4.3122 0.900692C6.04611 0 8.32407 0 12.88 0H19.12C23.6759 0 25.9539 0 27.6878 0.900692C29.1489 1.6597 30.3403 2.85106 31.0993 4.3122C32 6.04611 32 8.32407 32 12.88V19.12C32 23.6759 32 25.9539 31.0993 27.6878C30.3403 29.1489 29.1489 30.3403 27.6878 31.0993C25.9539 32 23.6759 32 19.12 32H12.88C8.32407 32 6.04611 32 4.3122 31.0993C2.85106 30.3403 1.6597 29.1489 0.900692 27.6878C0 25.9539 0 23.6759 0 19.12V12.88Z" fill="#01A6FF"/>
    <path d="M0.5 12.88C0.5 10.5936 0.500402 8.90945 0.610871 7.57923C0.720844 6.25498 0.937305 5.32638 1.3444 4.54269C2.05597 3.17287 3.17287 2.05597 4.54269 1.3444C5.32638 0.937305 6.25498 0.720844 7.57923 0.610871C8.90945 0.500402 10.5936 0.5 12.88 0.5H19.12C21.4064 0.5 23.0905 0.500402 24.4208 0.610871C25.745 0.720844 26.6736 0.937305 27.4573 1.3444C28.8271 2.05597 29.944 3.17287 30.6556 4.54269C31.0627 5.32638 31.2792 6.25498 31.3891 7.57923C31.4996 8.90945 31.5 10.5936 31.5 12.88V19.12C31.5 21.4064 31.4996 23.0905 31.3891 24.4208C31.2792 25.745 31.0627 26.6736 30.6556 27.4573C29.944 28.8271 28.8271 29.944 27.4573 30.6556C26.6736 31.0627 25.745 31.2792 24.4208 31.3891C23.0905 31.4996 21.4064 31.5 19.12 31.5H12.88C10.5936 31.5 8.90945 31.4996 7.57923 31.3891C6.25498 31.2792 5.32638 31.0627 4.54269 30.6556C3.17287 29.944 2.05597 28.8271 1.3444 27.4573C0.937305 26.6736 0.720844 25.745 0.610871 24.4208C0.500402 23.0905 0.5 21.4064 0.5 19.12V12.88Z" stroke="white" stroke-opacity="0.1"/>
    <path d="M6 14C6 8.47715 10.4772 4 16 4Lnan nanL16 4Lnan nanL16 4C21.5228 4 26 8.47715 26 14V15C26 16.6569 24.6569 18 23 18H9C7.34315 18 6 16.6569 6 15V14Z" fill="white"/>
    <path d="M21.5 12.5C21.5 15.5376 19.0376 18 16 18C12.9624 18 10.5 15.5376 10.5 12.5C10.5 9.46243 12.9624 7 16 7C19.0376 7 21.5 9.46243 21.5 12.5Z" fill="#00A499"/>
    <path d="M18.75 12.5C18.75 14.0188 17.5188 15.25 16 15.25C14.4812 15.25 13.25 14.0188 13.25 12.5C13.25 10.9812 14.4812 9.75 16 9.75C17.5188 9.75 18.75 10.9812 18.75 12.5Z" fill="black"/>
    <path d="M20.5 10.75C20.5 11.7165 19.7165 12.5 18.75 12.5C17.7835 12.5 17 11.7165 17 10.75C17 9.7835 17.7835 9 18.75 9C19.7165 9 20.5 9.7835 20.5 10.75Z" fill="white"/>
    <path fill-rule="evenodd" clip-rule="evenodd" d="M16 4.5C10.7533 4.5 6.5 8.75329 6.5 14V15C6.5 16.3807 7.61929 17.5 9 17.5H23C24.3807 17.5 25.5 16.3807 25.5 15V14C25.5 8.7533 21.2467 4.5 16 4.5ZM5.5 14C5.5 8.20101 10.201 3.5 16 3.5C21.799 3.5 26.5 8.20101 26.5 14V15C26.5 16.933 24.933 18.5 23 18.5H9C7.067 18.5 5.5 16.933 5.5 15V14Z" fill="black"/>
    <path d="M4.06567 20.5C4.69687 25.2767 9.79919 29 16 29C22.2008 29 27.3031 25.2767 27.9343 20.5H4.06567Z" fill="black"/>
    <path d="M27.7336 21.5H18.7209C17.8726 22.6583 17.0359 24.566 16.5711 25.8073C16.5278 25.9231 16.4177 26 16.2941 26C16.1317 26 15.9994 25.8683 16.0066 25.706C16.0786 24.0807 16.7309 22.5419 17.3321 21.5H12.5319C10.8419 22.6945 9.55866 24.8421 9.14331 27.2975C11.0869 28.3706 13.4506 29 16 29C21.7608 29 26.5735 25.7863 27.7336 21.5Z" fill="#FF00BC"/>
    <path d="M8.25 24C8.94036 24 9.5 22.6569 9.5 21C9.5 20.8296 9.49408 20.6626 9.48272 20.5H7.01728C7.00592 20.6626 7 20.8296 7 21C7 22.6569 7.55964 24 8.25 24Z" fill="white"/>
    <path d="M22.5173 20.5C22.5059 20.6626 22.5 20.8296 22.5 21C22.5 22.6569 23.0596 24 23.75 24C24.4404 24 25 22.6569 25 21C25 20.8296 24.9941 20.6626 24.9827 20.5H22.5173Z" fill="white"/>
    <path fill-rule="evenodd" clip-rule="evenodd" d="M3.49524 20H28.5047L28.43 20.5655C27.7553 25.6715 22.3606 29.5 16 29.5C9.6393 29.5 4.24468 25.6715 3.56997 20.5655L3.49524 20ZM4.65961 21C5.56245 25.1845 10.2172 28.5 16 28.5C21.7827 28.5 26.4375 25.1845 27.3403 21H4.65961Z" fill="black"/>
  </g>
  <defs>
    <clipPath id="clip0_901_11102">
      <rect width="32" height="32" fill="white"/>
    </clipPath>
  </defs>
</svg>
