<svg width="32" height="32" viewBox="0 0 32 32" fill="none" xmlns="http://www.w3.org/2000/svg">
  <g clip-path="url(#clip0_901_11085)">
    <path d="M0 12.88C0 8.32407 0 6.04611 0.900692 4.3122C1.6597 2.85106 2.85106 1.6597 4.3122 0.900692C6.04611 0 8.32407 0 12.88 0H19.12C23.6759 0 25.9539 0 27.6878 0.900692C29.1489 1.6597 30.3403 2.85106 31.0993 4.3122C32 6.04611 32 8.32407 32 12.88V19.12C32 23.6759 32 25.9539 31.0993 27.6878C30.3403 29.1489 29.1489 30.3403 27.6878 31.0993C25.9539 32 23.6759 32 19.12 32H12.88C8.32407 32 6.04611 32 4.3122 31.0993C2.85106 30.3403 1.6597 29.1489 0.900692 27.6878C0 25.9539 0 23.6759 0 19.12V12.88Z" fill="#1C2D35"/>
    <path d="M0.5 12.88C0.5 10.5936 0.500402 8.90945 0.610871 7.57923C0.720844 6.25498 0.937305 5.32638 1.3444 4.54269C2.05597 3.17287 3.17287 2.05597 4.54269 1.3444C5.32638 0.937305 6.25498 0.720844 7.57923 0.610871C8.90945 0.500402 10.5936 0.5 12.88 0.5H19.12C21.4064 0.5 23.0905 0.500402 24.4208 0.610871C25.745 0.720844 26.6736 0.937305 27.4573 1.3444C28.8271 2.05597 29.944 3.17287 30.6556 4.54269C31.0627 5.32638 31.2792 6.25498 31.3891 7.57923C31.4996 8.90945 31.5 10.5936 31.5 12.88V19.12C31.5 21.4064 31.4996 23.0905 31.3891 24.4208C31.2792 25.745 31.0627 26.6736 30.6556 27.4573C29.944 28.8271 28.8271 29.944 27.4573 30.6556C26.6736 31.0627 25.745 31.2792 24.4208 31.3891C23.0905 31.4996 21.4064 31.5 19.12 31.5H12.88C10.5936 31.5 8.90945 31.4996 7.57923 31.3891C6.25498 31.2792 5.32638 31.0627 4.54269 30.6556C3.17287 29.944 2.05597 28.8271 1.3444 27.4573C0.937305 26.6736 0.720844 25.745 0.610871 24.4208C0.500402 23.0905 0.5 21.4064 0.5 19.12V12.88Z" stroke="white" stroke-opacity="0.05"/>
    <path d="M15.9999 4.00024C9.37269 4.00024 4 9.37279 4 16C4 22.6275 9.37269 27.9997 15.9999 27.9997C22.6279 27.9997 28 22.6275 28 16C28 9.37322 22.6279 4.00082 15.9998 4.00082L15.9999 4.00024ZM21.503 21.3074C21.2881 21.6599 20.8267 21.7717 20.4742 21.5553C17.6567 19.8343 14.1099 19.4445 9.93283 20.3989C9.53032 20.4906 9.12909 20.2384 9.03738 19.8357C8.94524 19.4331 9.19644 19.0319 9.59996 18.9401C14.1711 17.8954 18.092 18.3455 21.2551 20.2785C21.6076 20.4949 21.7194 20.9549 21.503 21.3074ZM22.9718 18.0395C22.701 18.4802 22.1249 18.6192 21.685 18.3483C18.4594 16.3653 13.5426 15.7911 9.72735 16.9492C9.23255 17.0987 8.70995 16.8198 8.55978 16.3259C8.41075 15.8311 8.68975 15.3095 9.18369 15.159C13.5417 13.8367 18.9595 14.4772 22.6637 16.7535C23.1036 17.0243 23.2426 17.6003 22.9718 18.0397V18.0395ZM23.0979 14.6372C19.2304 12.34 12.8495 12.1288 9.15689 13.2495C8.56394 13.4293 7.93688 13.0946 7.75719 12.5016C7.5775 11.9084 7.91195 11.2818 8.50533 11.1015C12.7441 9.81471 19.7906 10.0633 24.2434 12.7067C24.7779 13.0232 24.9527 13.712 24.636 14.2447C24.3208 14.778 23.6301 14.9538 23.0985 14.6372H23.0979Z" fill="url(#paint0_radial_901_11085)"/>
  </g>
  <defs>
    <radialGradient id="paint0_radial_901_11085" cx="0" cy="0" r="1" gradientUnits="userSpaceOnUse" gradientTransform="translate(13.5485 8.35562) rotate(82.8864) scale(19.7964 19.7969)">
      <stop stop-color="#8DEAAD"/>
      <stop offset="1" stop-color="#48964E"/>
    </radialGradient>
    <clipPath id="clip0_901_11085">
      <rect width="32" height="32" fill="white"/>
    </clipPath>
  </defs>
</svg>
