<svg width="85" height="32" viewBox="0 0 85 32" fill="none" xmlns="http://www.w3.org/2000/svg">
  <rect width="85" height="32" rx="8" fill="white"/>
  <g clip-path="url(#clip0_969_25673)">
    <path d="M15.9994 4.04004C9.39245 4.04004 4.03616 9.39618 4.03616 16.0032C4.03616 22.6105 9.39245 27.9662 15.9994 27.9662C22.6072 27.9662 27.9629 22.6105 27.9629 16.0032C27.9629 9.39661 22.6072 4.04061 15.9993 4.04061L15.9994 4.04004ZM21.4857 21.2943C21.2714 21.6457 20.8114 21.7572 20.46 21.5415C17.6512 19.8257 14.1152 19.4372 9.95088 20.3886C9.54959 20.48 9.14959 20.2286 9.05816 19.8272C8.96631 19.4257 9.21673 19.0257 9.61902 18.9343C14.1762 17.8927 18.0852 18.3415 21.2386 20.2686C21.59 20.4843 21.7014 20.9429 21.4857 21.2943ZM22.95 18.0365C22.68 18.4757 22.1057 18.6143 21.6672 18.3443C18.4514 16.3673 13.5496 15.7949 9.74602 16.9495C9.25273 17.0985 8.73173 16.8205 8.58202 16.328C8.43345 15.8348 8.71159 15.3148 9.20402 15.1648C13.5487 13.8465 18.95 14.485 22.6429 16.7543C23.0814 17.0243 23.22 17.5986 22.95 18.0366V18.0365ZM23.0757 14.6445C19.22 12.3543 12.8586 12.1438 9.17731 13.261C8.58616 13.4403 7.96102 13.1066 7.78188 12.5155C7.60273 11.924 7.93616 11.2993 8.52773 11.1196C12.7536 9.83675 19.7786 10.0846 24.2177 12.7199C24.7506 13.0355 24.9249 13.7222 24.6092 14.2532C24.2949 14.7849 23.6063 14.9602 23.0763 14.6445H23.0757Z" fill="#1ED760"/>
  </g>
  <path d="M33.5469 12H36.9688V11.3672H34.25V6.36328H33.5469V12ZM38.3395 7.25C38.5778 7.25 38.7653 7.05859 38.7653 6.82422C38.7653 6.58594 38.5778 6.39844 38.3395 6.39844C38.1052 6.39844 37.9138 6.58594 37.9138 6.82422C37.9138 7.05859 38.1052 7.25 38.3395 7.25ZM37.9997 12H38.6794V7.9375H37.9997V12ZM41.3666 12.0781C42.2728 12.0781 42.9447 11.5781 42.9447 10.8672V10.8633C42.9447 10.2852 42.6478 9.96094 41.8275 9.76172L41.183 9.60547C40.7337 9.49609 40.5502 9.30469 40.5502 9.02734V9.02344C40.5502 8.66406 40.8548 8.42578 41.347 8.42578C41.8509 8.42578 42.1517 8.6875 42.2064 9.08203L42.2103 9.10938H42.8587L42.8548 9.05859C42.8041 8.37891 42.2377 7.85938 41.347 7.85938C40.4681 7.85938 39.8548 8.35547 39.8548 9.05469V9.05859C39.8548 9.64453 40.2259 10 40.9916 10.1836L41.6361 10.3398C42.097 10.4531 42.2494 10.6172 42.2494 10.9102V10.9141C42.2494 11.2812 41.9212 11.5117 41.3705 11.5117C40.8158 11.5117 40.515 11.2734 40.433 10.8672L40.4252 10.8281H39.7455L39.7494 10.8633C39.8314 11.5898 40.4095 12.0781 41.3666 12.0781ZM45.292 12.0781C45.4248 12.0781 45.5694 12.0625 45.6553 12.0508V11.5C45.5967 11.5039 45.5186 11.5156 45.4366 11.5156C45.0733 11.5156 44.8819 11.3945 44.8819 10.9609V8.5H45.6553V7.9375H44.8819V6.83984H44.1788V7.9375H43.585V8.5H44.1788V10.9648C44.1788 11.7422 44.5459 12.0781 45.292 12.0781ZM48.2605 12.0781C49.1472 12.0781 49.8112 11.5469 49.9441 10.875L49.9519 10.8359H49.2839L49.2722 10.8711C49.155 11.2188 48.7917 11.4766 48.2761 11.4766C47.5534 11.4766 47.0925 10.9883 47.0769 10.1523H50.0027V9.90234C50.0027 8.68359 49.3269 7.85938 48.2175 7.85938C47.1081 7.85938 46.3894 8.72266 46.3894 9.98047V9.98438C46.3894 11.2617 47.0925 12.0781 48.2605 12.0781ZM48.2136 8.46094C48.8073 8.46094 49.2448 8.83203 49.3112 9.62109H47.0886C47.1628 8.86328 47.6237 8.46094 48.2136 8.46094ZM51.0102 12H51.6898V9.60938C51.6898 8.91797 52.1078 8.46094 52.7484 8.46094C53.3734 8.46094 53.682 8.82422 53.682 9.48438V12H54.3617V9.36328C54.3617 8.4375 53.8461 7.85938 52.9555 7.85938C52.3383 7.85938 51.9242 8.13672 51.7055 8.51562H51.6898V7.9375H51.0102V12ZM59.1931 12.0781C60.3142 12.0781 61.072 11.2656 61.072 9.96875V9.96094C61.072 8.66406 60.3103 7.85938 59.1892 7.85938C58.0681 7.85938 57.3103 8.66797 57.3103 9.96094V9.96875C57.3103 11.2617 58.0642 12.0781 59.1931 12.0781ZM59.197 11.4766C58.4783 11.4766 58.0056 10.9258 58.0056 9.96875V9.96094C58.0056 9.01172 58.4822 8.46094 59.1892 8.46094C59.908 8.46094 60.3767 9.00781 60.3767 9.96094V9.96875C60.3767 10.9219 59.9119 11.4766 59.197 11.4766ZM62.0795 12H62.7592V9.60938C62.7592 8.91797 63.1772 8.46094 63.8178 8.46094C64.4428 8.46094 64.7514 8.82422 64.7514 9.48438V12H65.4311V9.36328C65.4311 8.4375 64.9155 7.85938 64.0248 7.85938C63.4077 7.85938 62.9936 8.13672 62.7748 8.51562H62.7592V7.9375H62.0795V12Z" fill="#171A1C"/>
  <path d="M37.2725 25.1641C39.6104 25.1641 41.0322 24.0225 41.0322 22.2246V22.2178C41.0322 20.6934 40.1572 19.8662 38.1201 19.4355L37.04 19.21C35.8096 18.9434 35.249 18.4922 35.249 17.7539V17.7471C35.249 16.8857 36.0283 16.3047 37.252 16.2979C38.4209 16.2979 39.2139 16.8516 39.3506 17.7676L39.3574 17.8633H40.8477L40.8408 17.7471C40.7383 16.0928 39.3301 14.9717 37.2725 14.9717C35.1875 14.9717 33.7041 16.127 33.6973 17.8086V17.8154C33.6973 19.2783 34.6338 20.167 36.5684 20.5771L37.6416 20.8027C38.9473 21.0898 39.4873 21.5205 39.4873 22.3135V22.3203C39.4873 23.2432 38.6533 23.8379 37.334 23.8379C36.0146 23.8379 35.1055 23.2705 34.9688 22.3613L34.9551 22.2725H33.4648L33.4717 22.375C33.5947 24.1113 35.0576 25.1641 37.2725 25.1641ZM42.2354 27.3926H43.7119V23.79H43.7461C44.1699 24.624 44.9971 25.1436 46.0156 25.1436C47.8203 25.1436 49.0029 23.7012 49.0029 21.4111V21.4043C49.0029 19.1074 47.8271 17.6719 45.9951 17.6719C44.9697 17.6719 44.1768 18.1914 43.7461 19.0459H43.7119V17.8086H42.2354V27.3926ZM45.6123 23.8721C44.498 23.8721 43.7051 22.9014 43.7051 21.4111V21.4043C43.7051 19.9072 44.4912 18.9365 45.6123 18.9365C46.7676 18.9365 47.499 19.873 47.499 21.4043V21.4111C47.499 22.9287 46.7744 23.8721 45.6123 23.8721ZM53.2412 25.1436C55.2988 25.1436 56.6523 23.7217 56.6523 21.4043V21.3906C56.6523 19.0869 55.2852 17.6719 53.2344 17.6719C51.1904 17.6719 49.8301 19.0938 49.8301 21.3906V21.4043C49.8301 23.7148 51.1768 25.1436 53.2412 25.1436ZM53.248 23.9062C52.0928 23.9062 51.3408 22.9971 51.3408 21.4043V21.3906C51.3408 19.8184 52.0996 18.9092 53.2344 18.9092C54.3896 18.9092 55.1416 19.8184 55.1416 21.3906V21.4043C55.1416 22.9902 54.4033 23.9062 53.248 23.9062ZM60.3164 25.1436C60.6172 25.1436 60.8975 25.1094 61.0684 25.082V23.9404C60.959 23.9541 60.8291 23.9678 60.6719 23.9678C60.0498 23.9678 59.7217 23.749 59.7217 23.0176V18.9844H61.0684V17.8086H59.7217V15.9355H58.2109V17.8086H57.1787V18.9844H58.2109V23.1064C58.2109 24.542 58.8945 25.1436 60.3164 25.1436ZM63.0918 16.7012C63.5771 16.7012 63.9531 16.3184 63.9531 15.8535C63.9531 15.3818 63.5771 14.999 63.0918 14.999C62.6133 14.999 62.2305 15.3818 62.2305 15.8535C62.2305 16.3184 62.6133 16.7012 63.0918 16.7012ZM62.3535 25H63.8301V17.8086H62.3535V25ZM65.7852 25H67.2686V18.9844H68.7041V17.8086H67.2412V17.0703C67.2412 16.4346 67.5557 16.1133 68.2188 16.1133C68.4033 16.1133 68.5879 16.127 68.7314 16.1475V15.0537C68.5332 15.0195 68.2051 14.9922 67.9043 14.9922C66.4414 14.9922 65.7852 15.6484 65.7852 17.043V17.8086H64.7939V18.9844H65.7852V25ZM70.7139 27.3994C72.1221 27.3994 72.874 26.8252 73.4072 25.335L76.0869 17.8086H74.5283L72.7168 23.6602H72.6689L70.8574 17.8086H69.2578L71.876 25.0068L71.7529 25.3486C71.5068 26.0459 71.124 26.2305 70.4268 26.2305C70.2285 26.2305 70.0576 26.2031 69.9414 26.1758V27.3311C70.1191 27.3652 70.4268 27.3994 70.7139 27.3994Z" fill="#171A1C"/>
  <rect x="0.5" y="0.5" width="84" height="31" rx="7.5" stroke="black" stroke-opacity="0.2"/>
  <defs>
    <clipPath id="clip0_969_25673">
      <rect width="24" height="24" fill="white" transform="translate(4 4)"/>
    </clipPath>
  </defs>
</svg>
