<svg width="32" height="32" viewBox="0 0 32 32" fill="none" xmlns="http://www.w3.org/2000/svg">
  <g clip-path="url(#clip0_901_11093)">
    <path d="M0 12.88C0 8.32407 0 6.04611 0.900692 4.3122C1.6597 2.85106 2.85106 1.6597 4.3122 0.900692C6.04611 0 8.32407 0 12.88 0H19.12C23.6759 0 25.9539 0 27.6878 0.900692C29.1489 1.6597 30.3403 2.85106 31.0993 4.3122C32 6.04611 32 8.32407 32 12.88V19.12C32 23.6759 32 25.9539 31.0993 27.6878C30.3403 29.1489 29.1489 30.3403 27.6878 31.0993C25.9539 32 23.6759 32 19.12 32H12.88C8.32407 32 6.04611 32 4.3122 31.0993C2.85106 30.3403 1.6597 29.1489 0.900692 27.6878C0 25.9539 0 23.6759 0 19.12V12.88Z" fill="#1C203A"/>
    <path d="M0.5 12.88C0.5 10.5936 0.500402 8.90945 0.610871 7.57923C0.720844 6.25498 0.937305 5.32638 1.3444 4.54269C2.05597 3.17287 3.17287 2.05597 4.54269 1.3444C5.32638 0.937305 6.25498 0.720844 7.57923 0.610871C8.90945 0.500402 10.5936 0.5 12.88 0.5H19.12C21.4064 0.5 23.0905 0.500402 24.4208 0.610871C25.745 0.720844 26.6736 0.937305 27.4573 1.3444C28.8271 2.05597 29.944 3.17287 30.6556 4.54269C31.0627 5.32638 31.2792 6.25498 31.3891 7.57923C31.4996 8.90945 31.5 10.5936 31.5 12.88V19.12C31.5 21.4064 31.4996 23.0905 31.3891 24.4208C31.2792 25.745 31.0627 26.6736 30.6556 27.4573C29.944 28.8271 28.8271 29.944 27.4573 30.6556C26.6736 31.0627 25.745 31.2792 24.4208 31.3891C23.0905 31.4996 21.4064 31.5 19.12 31.5H12.88C10.5936 31.5 8.90945 31.4996 7.57923 31.3891C6.25498 31.2792 5.32638 31.0627 4.54269 30.6556C3.17287 29.944 2.05597 28.8271 1.3444 27.4573C0.937305 26.6736 0.720844 25.745 0.610871 24.4208C0.500402 23.0905 0.5 21.4064 0.5 19.12V12.88Z" stroke="white" stroke-opacity="0.05"/>
    <path d="M11.66 15.521V16.263C11.66 16.368 11.55 16.368 11.55 16.368H10.703C10.703 16.368 10.593 16.368 10.593 16.478V20.508C10.593 20.618 10.488 20.618 10.488 20.618H9.633C9.527 20.618 9.527 20.508 9.527 20.508V16.478C9.527 16.478 9.527 16.368 9.418 16.368H8.574C8.469 16.368 8.469 16.263 8.469 16.263V15.521C8.469 15.415 8.574 15.415 8.574 15.415H11.66V15.521ZM27.118 8.001H16.301C15.621 8.001 15.465 8.161 15.465 8.817V11.231C15.465 11.724 15.465 11.724 14.973 11.724H4.813C4.137 11.724 4 11.86 4 12.548V17.958C4 19.712 4 21.466 4.023 23.224C4.023 24.146 4.125 24.244 5.063 24.244H13.89C14.554 24.244 15.21 24.254 15.874 24.235C16.354 24.228 16.543 24.032 16.543 23.552V20.993C16.543 20.524 16.543 20.524 17.012 20.524H27.207C27.84 20.524 28 20.372 28 19.744V8.859C28 8.16 27.836 8 27.117 8L27.118 8.001ZM15.478 22.626C15.478 23.126 15.465 23.126 14.953 23.126C11.805 23.126 8.66 23.126 5.508 23.134C5.188 23.134 5.078 23.056 5.078 22.716C5.094 19.556 5.086 16.392 5.078 13.236C5.07 12.896 5.164 12.79 5.52 12.79C8.707 12.802 11.883 12.798 15.07 12.798C15.187 12.798 15.3 12.813 15.47 12.821C15.47 13.001 15.47 13.141 15.48 13.263C15.477 16.376 15.478 19.505 15.478 22.626ZM23.168 16.782C23.168 16.884 23.064 16.884 23.064 16.884H20.494C20.388 16.884 20.388 16.782 20.388 16.782V16.063C20.388 15.962 20.493 15.962 20.493 15.962H21.11C21.11 15.962 21.212 15.962 21.212 15.86V12.782C21.212 12.782 21.212 12.681 21.11 12.681H20.595C20.493 12.681 20.493 12.579 20.493 12.579V11.759C20.493 11.653 20.595 11.653 20.595 11.653H22.962C23.064 11.653 23.064 11.759 23.064 11.759V12.474C23.064 12.579 22.962 12.579 22.962 12.579H22.446C22.446 12.579 22.345 12.579 22.345 12.681V15.755C22.345 15.755 22.345 15.86 22.445 15.86H23.063C23.169 15.86 23.169 15.962 23.169 15.962L23.168 16.782Z" fill="#64D5CB"/>
  </g>
  <defs>
    <clipPath id="clip0_901_11093">
      <rect width="32" height="32" fill="white"/>
    </clipPath>
  </defs>
</svg>
