<svg width="82" height="32" viewBox="0 0 82 32" fill="none" xmlns="http://www.w3.org/2000/svg">
  <rect width="82" height="32" rx="8" fill="white"/>
  <path d="M11.66 15.4068V16.1376C11.66 16.241 11.55 16.241 11.55 16.241H10.703C10.703 16.241 10.593 16.241 10.593 16.3493V20.3181C10.593 20.4265 10.488 20.4265 10.488 20.4265H9.633C9.527 20.4265 9.527 20.3181 9.527 20.3181V16.3493C9.527 16.3493 9.527 16.241 9.418 16.241H8.574C8.469 16.241 8.469 16.1376 8.469 16.1376V15.4068C8.469 15.3024 8.574 15.3024 8.574 15.3024H11.66V15.4068ZM27.118 8.00098H16.301C15.621 8.00098 15.465 8.15856 15.465 8.8046V11.182C15.465 11.6675 15.465 11.6675 14.973 11.6675H4.813C4.137 11.6675 4 11.8014 4 12.479V17.8068C4 19.5342 4 21.2616 4.023 22.9929C4.023 23.9009 4.125 23.9974 5.063 23.9974H13.89C14.554 23.9974 15.21 24.0073 15.874 23.9885C16.354 23.9817 16.543 23.7886 16.543 23.3159V20.7958C16.543 20.3339 16.543 20.3339 17.012 20.3339H27.207C27.84 20.3339 28 20.1842 28 19.5657V8.84596C28 8.15757 27.836 8 27.117 8L27.118 8.00098ZM15.478 22.404C15.478 22.8964 15.465 22.8964 14.953 22.8964C11.805 22.8964 8.66 22.8964 5.508 22.9043C5.188 22.9043 5.078 22.8274 5.078 22.4926C5.094 19.3806 5.086 16.2646 5.078 13.1565C5.07 12.8217 5.164 12.7173 5.52 12.7173C8.707 12.7291 11.883 12.7252 15.07 12.7252C15.187 12.7252 15.3 12.7399 15.47 12.7478C15.47 12.9251 15.47 13.063 15.48 13.1831C15.477 16.2488 15.478 19.3303 15.478 22.404ZM23.168 16.6487C23.168 16.7491 23.064 16.7491 23.064 16.7491H20.494C20.388 16.7491 20.388 16.6487 20.388 16.6487V15.9406C20.388 15.8411 20.493 15.8411 20.493 15.8411H21.11C21.11 15.8411 21.212 15.8411 21.212 15.7407V12.7094C21.212 12.7094 21.212 12.6099 21.11 12.6099H20.595C20.493 12.6099 20.493 12.5095 20.493 12.5095V11.7019C20.493 11.5975 20.595 11.5975 20.595 11.5975H22.962C23.064 11.5975 23.064 11.7019 23.064 11.7019V12.4061C23.064 12.5095 22.962 12.5095 22.962 12.5095H22.446C22.446 12.5095 22.345 12.5095 22.345 12.6099V15.6373C22.345 15.6373 22.345 15.7407 22.445 15.7407H23.063C23.169 15.7407 23.169 15.8411 23.169 15.8411L23.168 16.6487Z" fill="#1C203A"/>
  <path d="M33.5469 12H36.9688V11.3672H34.25V6.36328H33.5469V12ZM38.3395 7.25C38.5778 7.25 38.7653 7.05859 38.7653 6.82422C38.7653 6.58594 38.5778 6.39844 38.3395 6.39844C38.1052 6.39844 37.9138 6.58594 37.9138 6.82422C37.9138 7.05859 38.1052 7.25 38.3395 7.25ZM37.9997 12H38.6794V7.9375H37.9997V12ZM41.3666 12.0781C42.2728 12.0781 42.9447 11.5781 42.9447 10.8672V10.8633C42.9447 10.2852 42.6478 9.96094 41.8275 9.76172L41.183 9.60547C40.7337 9.49609 40.5502 9.30469 40.5502 9.02734V9.02344C40.5502 8.66406 40.8548 8.42578 41.347 8.42578C41.8509 8.42578 42.1517 8.6875 42.2064 9.08203L42.2103 9.10938H42.8587L42.8548 9.05859C42.8041 8.37891 42.2377 7.85938 41.347 7.85938C40.4681 7.85938 39.8548 8.35547 39.8548 9.05469V9.05859C39.8548 9.64453 40.2259 10 40.9916 10.1836L41.6361 10.3398C42.097 10.4531 42.2494 10.6172 42.2494 10.9102V10.9141C42.2494 11.2812 41.9212 11.5117 41.3705 11.5117C40.8158 11.5117 40.515 11.2734 40.433 10.8672L40.4252 10.8281H39.7455L39.7494 10.8633C39.8314 11.5898 40.4095 12.0781 41.3666 12.0781ZM45.292 12.0781C45.4248 12.0781 45.5694 12.0625 45.6553 12.0508V11.5C45.5967 11.5039 45.5186 11.5156 45.4366 11.5156C45.0733 11.5156 44.8819 11.3945 44.8819 10.9609V8.5H45.6553V7.9375H44.8819V6.83984H44.1788V7.9375H43.585V8.5H44.1788V10.9648C44.1788 11.7422 44.5459 12.0781 45.292 12.0781ZM48.2605 12.0781C49.1472 12.0781 49.8112 11.5469 49.9441 10.875L49.9519 10.8359H49.2839L49.2722 10.8711C49.155 11.2188 48.7917 11.4766 48.2761 11.4766C47.5534 11.4766 47.0925 10.9883 47.0769 10.1523H50.0027V9.90234C50.0027 8.68359 49.3269 7.85938 48.2175 7.85938C47.1081 7.85938 46.3894 8.72266 46.3894 9.98047V9.98438C46.3894 11.2617 47.0925 12.0781 48.2605 12.0781ZM48.2136 8.46094C48.8073 8.46094 49.2448 8.83203 49.3112 9.62109H47.0886C47.1628 8.86328 47.6237 8.46094 48.2136 8.46094ZM51.0102 12H51.6898V9.60938C51.6898 8.91797 52.1078 8.46094 52.7484 8.46094C53.3734 8.46094 53.682 8.82422 53.682 9.48438V12H54.3617V9.36328C54.3617 8.4375 53.8461 7.85938 52.9555 7.85938C52.3383 7.85938 51.9242 8.13672 51.7055 8.51562H51.6898V7.9375H51.0102V12ZM59.1931 12.0781C60.3142 12.0781 61.072 11.2656 61.072 9.96875V9.96094C61.072 8.66406 60.3103 7.85938 59.1892 7.85938C58.0681 7.85938 57.3103 8.66797 57.3103 9.96094V9.96875C57.3103 11.2617 58.0642 12.0781 59.1931 12.0781ZM59.197 11.4766C58.4783 11.4766 58.0056 10.9258 58.0056 9.96875V9.96094C58.0056 9.01172 58.4822 8.46094 59.1892 8.46094C59.908 8.46094 60.3767 9.00781 60.3767 9.96094V9.96875C60.3767 10.9219 59.9119 11.4766 59.197 11.4766ZM62.0795 12H62.7592V9.60938C62.7592 8.91797 63.1772 8.46094 63.8178 8.46094C64.4428 8.46094 64.7514 8.82422 64.7514 9.48438V12H65.4311V9.36328C65.4311 8.4375 64.9155 7.85938 64.0248 7.85938C63.4077 7.85938 62.9936 8.13672 62.7748 8.51562H62.7592V7.9375H62.0795V12Z" fill="#171A1C"/>
  <path d="M36.3564 25H37.8877V16.4551H40.9023V15.1357H33.335V16.4551H36.3564V25ZM43.1104 25.1436C44.2041 25.1436 44.9355 24.6445 45.3115 23.9199H45.3457V25H46.8291V17.8086H45.3457V22.0059C45.3457 23.127 44.6758 23.8721 43.6367 23.8721C42.6113 23.8721 42.1055 23.2705 42.1055 22.1836V17.8086H40.6289V22.4707C40.6289 24.125 41.5312 25.1436 43.1104 25.1436ZM48.292 25H49.7686V20.8096C49.7686 19.6885 50.4385 18.9365 51.4775 18.9365C52.5029 18.9365 53.0088 19.5449 53.0088 20.625V25H54.4922V20.3447C54.4922 18.6904 53.583 17.6719 52.0039 17.6719C50.917 17.6719 50.1787 18.1641 49.8027 18.8955H49.7686V17.8086H48.292V25ZM58.9902 25.1436C60.7334 25.1436 61.8408 24.1045 62.0732 22.9629L62.0869 22.8877H60.6855L60.665 22.9424C60.4805 23.4824 59.8994 23.9336 59.0244 23.9336C57.8486 23.9336 57.1035 23.1406 57.0762 21.7803H62.1689V21.2812C62.1689 19.1211 60.9316 17.6719 58.915 17.6719C56.8984 17.6719 55.5996 19.1758 55.5996 21.4248V21.4316C55.5996 23.7012 56.8779 25.1436 58.9902 25.1436ZM58.9219 18.8818C59.8857 18.8818 60.583 19.4902 60.7061 20.7344H57.0967C57.2266 19.5312 57.9648 18.8818 58.9219 18.8818ZM63.4951 25H65.0264V15.1357H63.4951V25ZM66.667 25H68.1436V20.8096C68.1436 19.6885 68.8135 18.9365 69.8525 18.9365C70.8779 18.9365 71.3838 19.5449 71.3838 20.625V25H72.8672V20.3447C72.8672 18.6904 71.958 17.6719 70.3789 17.6719C69.292 17.6719 68.5537 18.1641 68.1777 18.8955H68.1436V17.8086H66.667V25Z" fill="#171A1C"/>
  <rect x="0.5" y="0.5" width="81" height="31" rx="7.5" stroke="black" stroke-opacity="0.2"/>
</svg>
