<svg fill="none" xmlns="http://www.w3.org/2000/svg" viewBox="0 0 119 25"><path d="M36.4 14.36v2.28c-.74.39-1.565.585-2.475.585-1.46 0-2.68-.465-3.66-1.395-1.07-1.03-1.605-2.305-1.605-3.825 0-1.62.535-2.925 1.605-3.915.94-.88 2.165-1.32 3.675-1.32.88 0 1.7.205 2.46.615v2.28c-.65-.75-1.455-1.125-2.415-1.125-.98 0-1.78.345-2.4 1.035-.61.68-.915 1.5-.915 2.46 0 1.05.34 1.885 1.02 2.505.68.61 1.47.915 2.37.915.94 0 1.72-.365 2.34-1.095zM38.688 11.21c.66-.61 1.535-.915 2.625-.915s1.965.305 2.625.915c.73.66 1.095 1.51 1.095 2.55 0 1.03-.365 1.875-1.095 2.535-.66.61-1.535.915-2.625.915s-1.965-.305-2.625-.915c-.73-.66-1.095-1.505-1.095-2.535 0-1.04.365-1.89 1.095-2.55zm1.32 3.84c.35.36.785.54 1.305.54.52 0 .955-.18 1.305-.54.35-.36.525-.79.525-1.29 0-.51-.175-.945-.525-1.305-.35-.36-.785-.54-1.305-.54-.52 0-.955.18-1.305.54-.35.36-.525.795-.525 1.305 0 .5.175.93.525 1.29zM46.448 10.505h1.83V17h-1.83v-6.495zm.135-1.965c-.21-.22-.315-.48-.315-.78 0-.3.105-.555.315-.765.22-.22.48-.33.78-.33.3 0 .555.11.765.33.22.21.33.465.33.765s-.11.56-.33.78c-.21.21-.465.315-.765.315s-.56-.105-.78-.315zM50.022 17v-6.495h1.83v.84c.5-.7 1.17-1.05 2.01-1.05.85 0 1.49.265 1.92.795.34.42.51 1.03.51 1.83V17h-1.83v-3.54c0-.61-.115-1.035-.345-1.275-.21-.22-.495-.33-.855-.33-.5 0-.875.19-1.125.57-.19.3-.285.72-.285 1.26V17h-1.83zM61.125 12.065h-1.26V17h-1.83v-4.935h-.72v-1.56h.72v-2.22h1.83v2.22h1.26v1.56zM66.773 14.915l1.68.27c-.07.18-.165.36-.285.54-.11.17-.285.385-.525.645-.24.25-.565.455-.975.615-.41.15-.88.225-1.41.225-1.02 0-1.85-.305-2.49-.915-.68-.64-1.02-1.485-1.02-2.535 0-1.04.33-1.89.99-2.55.62-.61 1.435-.915 2.445-.915 1.1 0 1.945.355 2.535 1.065.52.62.78 1.47.78 2.55v.15h-4.86c0 .44.105.805.315 1.095.3.41.735.615 1.305.615.68 0 1.185-.285 1.515-.855zm-3.075-2.025h3.075c-.07-.42-.255-.74-.555-.96a1.55 1.55 0 00-.99-.345c-.36 0-.69.115-.99.345-.29.23-.47.55-.54.96zM69.915 6.065h1.83V17h-1.83V6.065zM78.184 14.915l1.68.27c-.07.18-.165.36-.285.54-.11.17-.285.385-.525.645-.24.25-.565.455-.975.615-.41.15-.88.225-1.41.225-1.02 0-1.85-.305-2.49-.915-.68-.64-1.02-1.485-1.02-2.535 0-1.04.33-1.89.99-2.55.62-.61 1.435-.915 2.445-.915 1.1 0 1.945.355 2.535 1.065.52.62.78 1.47.78 2.55v.15h-4.86c0 .44.105.805.315 1.095.3.41.735.615 1.305.615.68 0 1.185-.285 1.515-.855zM75.11 12.89h3.075c-.07-.42-.255-.74-.555-.96a1.55 1.55 0 00-.99-.345c-.36 0-.69.115-.99.345-.29.23-.47.55-.54.96zM86.276 11.345v-.84h1.83V16.7c0 .61-.06 1.14-.18 1.59-.11.46-.35.875-.72 1.245-.61.61-1.465.915-2.565.915-1.06 0-1.87-.25-2.43-.75-.53-.45-.88-1.095-1.05-1.935h1.98c.08.33.23.59.45.78.25.23.62.345 1.11.345.45 0 .82-.135 1.11-.405.31-.3.465-.78.465-1.44v-.915c-.47.72-1.135 1.08-1.995 1.08-.9 0-1.65-.295-2.25-.885-.69-.69-1.035-1.55-1.035-2.58 0-1.07.335-1.93 1.005-2.58.6-.58 1.345-.87 2.235-.87.9 0 1.58.35 2.04 1.05zm-1.59.57c-.49 0-.895.15-1.215.45-.39.35-.585.81-.585 1.38 0 .51.16.935.48 1.275.35.38.79.57 1.32.57.48 0 .885-.15 1.215-.45.39-.36.585-.825.585-1.395 0-.5-.175-.935-.525-1.305-.34-.35-.765-.525-1.275-.525zM89.851 17v-6.495h1.83v.975c.22-.42.49-.72.81-.9.3-.19.66-.285 1.08-.285.24 0 .5.05.78.15l-.24 1.71c-.23-.16-.515-.24-.855-.24-.53 0-.935.175-1.215.525-.24.3-.36.78-.36 1.44V17h-1.83zM100.09 11.345v-.84h1.83V17h-1.83v-.84c-.49.7-1.155 1.05-1.995 1.05-.98 0-1.78-.335-2.4-1.005-.61-.67-.915-1.49-.915-2.46 0-.98.3-1.8.9-2.46.6-.66 1.375-.99 2.325-.99.94 0 1.635.35 2.085 1.05zm-.33 1.095c-.34-.35-.77-.525-1.29-.525s-.95.175-1.29.525c-.34.35-.51.785-.51 1.305 0 .52.17.96.51 1.32.34.35.77.525 1.29.525s.95-.175 1.29-.525c.34-.36.51-.8.51-1.32s-.17-.955-.51-1.305zM105.495 16.16v4.275h-1.83v-9.93h1.83v.84c.49-.7 1.195-1.05 2.115-1.05.9 0 1.64.29 2.22.87.65.65.975 1.51.975 2.58 0 1.1-.34 1.975-1.02 2.625-.6.56-1.335.84-2.205.84-.87 0-1.565-.35-2.085-1.05zm1.62-4.245c-.47 0-.865.145-1.185.435-.41.35-.615.815-.615 1.395 0 .59.2 1.06.6 1.41.33.29.73.435 1.2.435.49 0 .9-.155 1.23-.465.38-.35.57-.81.57-1.38 0-.56-.185-1.015-.555-1.365-.34-.31-.755-.465-1.245-.465zM112.22 17V6.065h1.83v5.28c.5-.7 1.17-1.05 2.01-1.05.85 0 1.49.265 1.92.795.34.42.51 1.03.51 1.83V17h-1.83v-3.54c0-.61-.115-1.035-.345-1.275-.21-.22-.495-.33-.855-.33-.5 0-.875.19-1.125.57-.19.3-.285.72-.285 1.26V17h-1.83z" fill="#777E82"/><path fill-rule="evenodd" clip-rule="evenodd" d="M14.413 18.41c-1.435 1.457-3.85 2.444-6.524 2.444-4.315 0-7.74-2.298-7.889-5.11V6.275C0 3.408 3.5 1 7.89 1c2.888 0 5.48 1.158 6.796 2.905l.021.036H25l-1.296 5.331h-5.186l-1.11 2.942 5.74-2.39L12.963 24.53l1.45-6.12zM10.261 19.8l.568-2.377c-.89.218-1.931.377-2.94.325-3.185.055-5.852-1.213-7.148-3.088v.919c.037 2.445 3.185 4.503 7.148 4.54a13.46 13.46 0 002.372-.32zm.775-3.244l.601-2.512c-1.122.443-2.42.7-3.748.616-3.204.073-5.852-1.177-7.148-2.923v.735c.037 2.5 3.185 4.559 7.148 4.54 1.05 0 2.131-.178 3.147-.456zm.82-3.424l.593-2.485a11.77 11.77 0 01-4.56 1.071C4.704 11.662 2.037 10.412.741 8.63v.735c.037 2.537 3.185 4.614 7.148 4.56 1.444.033 2.84-.265 3.966-.793zm1.916-9.19H9.074L7.777 9.272h5l-.077.323c-1.258.806-2.979 1.321-4.792 1.405C3.926 10.927.778 8.868.74 6.276c.037-2.445 3.185-4.522 7.148-4.54 2.37.036 4.556.863 5.87 2.187l.013.018zm1.043 16.729l.74-3.677-4.26 1.839 2.408-10.295h-5l.926-3.86h14.445l-.926 3.86h-5l-2.222 5.147 5-2.206-6.111 9.192z" fill="#777E82"/></svg>
