<svg xmlns="http://www.w3.org/2000/svg" fill="none" viewBox="0 0 81 49">
  <path fill="#222" d="M75.51 21.965c-1.752 4.042-5.784 6.71-10.258 6.71-6.159 0-11.17-4.955-11.17-11.047 0-6.093 5.011-11.049 11.17-11.049 2.543 0 5.036.876 7.02 2.465l.215.174 3.726-4.646-.212-.169A17.314 17.314 0 0065.252.65c-7.436 0-13.782 4.7-16.162 11.255h-8.404l.322-1.788c.25-1.364.612-2.218 1.21-2.858.791-.864 2.129-1.36 3.671-1.36 1.259 0 2.73.448 3.373.765l.24.118 2.643-5.228-.23-.121C50.603.74 48.307 0 45.796 0c-2.311 0-6.603.553-9.37 4.262-1.01 1.346-1.645 3.068-2.125 5.76l-.338 1.882h-6.985l-1.04 5.664h6.986l-1.175 6.625-4.452-1.945c-1.813 3.883-5.761 6.428-10.13 6.428-6.16 0-11.17-4.956-11.17-11.048 0-6.093 5.01-11.049 11.17-11.049 2.542 0 5.036.876 7.018 2.465l.216.174 3.727-4.646-.213-.169A17.314 17.314 0 0017.166.65C7.701.649 0 8.265 0 17.628c0 9.362 7.7 16.98 17.166 16.98 5.65 0 10.843-2.763 14.01-7.185l-1.273 7.184h6.725l3.02-17.039h8.438l-.001.06c0 9.362 7.7 16.98 17.166 16.98 6.86 0 13.046-4.073 15.749-10.242l-5.49-2.4zM29.78 43.859l-.874 4.806h-1.672l1.525-8.517h1.168l2.067 5.098 4.218-5.098h1.169l-1.525 8.517h-1.673l.849-4.697-2.719 3.297h-1.168l-1.365-3.406zM56.591 40.148h1.673l-1.525 8.517h-1.673l1.525-8.517zM65.316 40.148l-.258 1.46h-2.276l-1.267 7.057h-1.673l1.267-7.057h-2.275l.258-1.46h6.224zM66.823 47.204h4.33l-.258 1.461h-6.643l.173-.974 5.092-6.083H65.89l.258-1.46h5.978l-.172.973-5.13 6.083zM51.07 40.148c.934 0 1.439.183 1.844.487.579.426.948 1.083.948 1.814 0 .887-.505 1.63-1.23 2.043-.234.135-.492.23-.85.292l2.72 3.882H52.57l-2.62-3.832h-.467l-.689 3.832h-1.673l1.526-8.516h2.423v-.002zm-1.009 1.46l-.332 1.825h1.12c.614 0 .86-.11 1.032-.268a.979.979 0 00.32-.718.815.815 0 00-.234-.584c-.147-.158-.356-.255-.971-.255h-.935zM42.046 48.786c-2.51 0-4.342-1.825-4.342-4.137 0-2.433 2.09-4.623 4.76-4.623 2.509 0 4.342 1.825 4.342 4.137 0 2.434-2.091 4.623-4.76 4.623zm0-1.46c1.66 0 3.1-1.496 3.1-3.163 0-1.557-1.17-2.676-2.682-2.676-1.66 0-3.1 1.496-3.1 3.163 0 1.557 1.169 2.676 2.682 2.676zM10.021 46.34c.37.462 1.033.986 1.98.986.64 0 1.403-.401 1.403-1.144 0-1.52-3.198-1.386-3.198-3.674 0-1.436 1.291-2.482 2.915-2.482 1.094 0 2.054.463 2.669 1.095l-1.095 1.071a1.989 1.989 0 00-1.513-.705c-.652 0-1.34.39-1.34 1.034 0 1.144 3.197 1.204 3.197 3.65 0 1.497-1.377 2.616-3.037 2.616a4.088 4.088 0 01-3.125-1.411l1.144-1.036zM20.117 48.665c-.295.097-.726.122-1.058.122-1.316 0-2.337-.84-2.337-2.166 0-.304.05-.62.111-.961l.259-1.436H15.43l.246-1.339h1.66l.296-1.642h1.611l-.295 1.642h2.03l-.247 1.339h-2.03l-.294 1.63a4.6 4.6 0 00-.087.658c0 .607.283.876.948.876.184 0 .442-.025.59-.06l.258 1.337zM22.497 46.705c.603 0 1.083.45 1.083 1.047 0 .595-.48 1.034-1.083 1.034-.602 0-1.07-.439-1.07-1.034 0-.596.468-1.047 1.07-1.047z"/>
</svg>
